<?xml version="1.0" encoding="utf-8"?>
<!-- Generator: Adobe Illustrator 25.1.0, SVG Export Plug-In . SVG Version: 6.00 Build 0)  -->
<svg version="1.1"
	 id="レイヤー_1" xmlns:cc="http://creativecommons.org/ns#" xmlns:dc="http://purl.org/dc/elements/1.1/" xmlns:inkscape="http://www.inkscape.org/namespaces/inkscape" xmlns:rdf="http://www.w3.org/1999/02/22-rdf-syntax-ns#" xmlns:sodipodi="http://sodipodi.sourceforge.net/DTD/sodipodi-0.dtd" xmlns:svg="http://www.w3.org/2000/svg"
	 xmlns="http://www.w3.org/2000/svg" xmlns:xlink="http://www.w3.org/1999/xlink" x="0px" y="0px" viewBox="0 0 229.9 38.8"
	 style="enable-background:new 0 0 229.9 38.8;" xml:space="preserve">
<style type="text/css">
	.st0{fill:url(#SVGID_1_);}
	.st1{fill:url(#SVGID_2_);}
	.st2{fill:url(#SVGID_3_);}
	.st3{fill:url(#SVGID_4_);}
	.st4{fill:url(#SVGID_5_);}
	.st5{fill:url(#SVGID_6_);}
	.st6{fill:url(#SVGID_7_);}
	.st7{opacity:0.75;}
	.st8{fill:#292F47;}
	.st9{fill:url(#SVGID_8_);}
	.st10{fill:url(#SVGID_9_);}
	.st11{fill:url(#SVGID_10_);}
	.st12{fill:url(#SVGID_11_);}
	.st13{fill:url(#SVGID_12_);}
	.st14{fill:url(#SVGID_13_);}
	.st15{fill:url(#SVGID_14_);}
	.st16{fill:url(#SVGID_15_);}
</style>
<sodipodi:namedview  bordercolor="#666666" borderopacity="1" gridtolerance="10" guidetolerance="10" id="namedview25" inkscape:current-layer="レイヤー_1" inkscape:cx="49.5" inkscape:cy="13.783103" inkscape:pageopacity="0" inkscape:pageshadow="2" inkscape:window-height="850" inkscape:window-maximized="1" inkscape:window-width="1368" inkscape:window-x="-6" inkscape:window-y="-6" inkscape:zoom="12.434343" objecttolerance="10" pagecolor="#ffffff" showgrid="false">
	</sodipodi:namedview>
<g>
	
		<linearGradient id="SVGID_1_" gradientUnits="userSpaceOnUse" x1="5.1233" y1="19.75" x2="7.1748" y2="19.75" gradientTransform="matrix(1 0 0 -1 0 40.2)">
		<stop  offset="0" style="stop-color:#EFF1F5"/>
		<stop  offset="0.5" style="stop-color:#D1D4E1"/>
		<stop  offset="1" style="stop-color:#ABB1C7"/>
	</linearGradient>
	<rect x="5.1" y="7.2" class="st0" width="2.1" height="26.5"/>
	
		<linearGradient id="SVGID_2_" gradientUnits="userSpaceOnUse" x1="9.7493" y1="19.75" x2="11.9349" y2="19.75" gradientTransform="matrix(1 0 0 -1 0 40.2)">
		<stop  offset="0" style="stop-color:#EFF1F5"/>
		<stop  offset="0.5" style="stop-color:#D1D4E1"/>
		<stop  offset="1" style="stop-color:#ABB1C7"/>
	</linearGradient>
	<rect x="9.8" y="7.2" class="st1" width="2.2" height="26.5"/>
	
		<linearGradient id="SVGID_3_" gradientUnits="userSpaceOnUse" x1="13.7518" y1="19.75" x2="15.22" y2="19.75" gradientTransform="matrix(1 0 0 -1 0 40.2)">
		<stop  offset="0" style="stop-color:#EFF1F5"/>
		<stop  offset="0.5" style="stop-color:#D1D4E1"/>
		<stop  offset="1" style="stop-color:#ABB1C7"/>
	</linearGradient>
	<rect x="13.8" y="7.2" class="st2" width="1.5" height="26.5"/>
	
		<linearGradient id="SVGID_4_" gradientUnits="userSpaceOnUse" x1="29.8489" y1="19.9" x2="32.0748" y2="19.9" gradientTransform="matrix(1 0 0 -1 0 40.2)">
		<stop  offset="0" style="stop-color:#EFF1F5"/>
		<stop  offset="0.5" style="stop-color:#D1D4E1"/>
		<stop  offset="1" style="stop-color:#ABB1C7"/>
	</linearGradient>
	<rect x="29.9" y="7.1" class="st3" width="2.2" height="26.4"/>
	
		<linearGradient id="SVGID_5_" gradientUnits="userSpaceOnUse" x1="36.2382" y1="19.8" x2="38.3098" y2="19.8" gradientTransform="matrix(1 0 0 -1 0 40.2)">
		<stop  offset="0" style="stop-color:#EFF1F5"/>
		<stop  offset="0.5" style="stop-color:#D1D4E1"/>
		<stop  offset="1" style="stop-color:#ABB1C7"/>
	</linearGradient>
	<rect x="36.3" y="7.2" class="st4" width="2.1" height="26.4"/>
	
		<linearGradient id="SVGID_6_" gradientUnits="userSpaceOnUse" x1="17.7543" y1="19.85" x2="27.308" y2="19.85" gradientTransform="matrix(1 0 0 -1 0 40.2)">
		<stop  offset="0" style="stop-color:#EFF1F5"/>
		<stop  offset="0.5" style="stop-color:#D1D4E1"/>
		<stop  offset="1" style="stop-color:#ABB1C7"/>
	</linearGradient>
	<polygon class="st5" points="17.8,7.2 27.3,7.2 27.3,33.5 25,33.5 24.9,11.3 	"/>
	
		<linearGradient id="SVGID_7_" gradientUnits="userSpaceOnUse" x1="11.8464" y1="27.1275" x2="30.8699" y2="8.104" gradientTransform="matrix(1 0 0 -1 0 40.2)">
		<stop  offset="0" style="stop-color:#FFFFFF"/>
		<stop  offset="0.6854" style="stop-color:#6F7A9A"/>
		<stop  offset="1" style="stop-color:#6F7A9A"/>
	</linearGradient>
	<polygon class="st6" points="17.8,7.2 24.9,11.3 25,38 17.6,33.6 	"/>
</g>
<g>
	<g class="st7">
		<path class="st8" d="M48.6,34.6H51c0.7,0,1.2-0.2,1.5-0.6c0.3-0.5,1.2-2.8,2.3-6.3l4.6-14.4c1.2-3.9,2.1-6.8,3-10h3.2
			c0.8,2.9,1.6,5.3,2.4,7.7l4.3,12.7c1.3,3.9,2.6,7.5,3.8,10.8H80v1.2H64.8v-1.2h4.4L66,24.3h-8.4l-1.4,4.6c-1.2,3.8-1.5,4.6-1.5,5
			c0,0.4,0.4,0.6,1.2,0.6h3v1.2H48.6V34.6z M65.5,23l-3.8-12.2L57.9,23H65.5z"/>
		<path class="st8" d="M81.7,35.4c0.3-1.1,0.4-2,0.4-4.2c0-0.8,0-1.6,0-2.4h1.1c0.1,1.8,0.4,2.8,1.5,4.1c1.2,1.6,2.8,2.4,4.7,2.4
			c2.5,0,4.3-1.4,4.3-3.3c0-1.5-1.1-2.4-4.1-3.2c-2.6-0.7-4.4-1.5-5.4-2.3c-1.2-1-1.9-2.7-1.9-4.5c0-3.9,3-6.8,7-6.8
			c1.6,0,2.4,0.3,5,1.5l0.9-1l0.6,0.2c-0.1,1.6-0.2,2.4-0.2,3.3c0,0.8,0,1.7,0,2.6l-1,0.1c-0.3-1.8-0.5-2.6-1.2-3.5
			c-0.9-1.2-2.5-2-4.1-2c-2.2,0-3.8,1.3-3.8,3c0,1.8,1,2.6,4.7,3.7c2.9,0.9,3.8,1.3,4.9,2.2c1.1,1,1.9,2.6,1.9,4.4
			c0,4-3.2,6.7-7.8,6.7c-2.3,0-3.4-0.4-5.9-1.9l-1,1.1L81.7,35.4z"/>
		<path class="st8" d="M100.9,35.4c0.3-1.1,0.4-2,0.4-4.2c0-0.8,0-1.6,0-2.4h1.1c0.1,1.8,0.4,2.8,1.5,4.1c1.2,1.6,2.8,2.4,4.7,2.4
			c2.5,0,4.3-1.4,4.3-3.3c0-1.5-1.1-2.4-4.1-3.2c-2.6-0.7-4.4-1.5-5.4-2.3c-1.2-1-1.9-2.7-1.9-4.5c0-3.9,3-6.8,7-6.8
			c1.6,0,2.4,0.3,5,1.5l0.9-1l0.6,0.2c-0.1,1.6-0.2,2.4-0.2,3.3c0,0.8,0,1.7,0,2.6l-1,0.1c-0.3-1.8-0.5-2.6-1.2-3.5
			c-0.9-1.2-2.5-2-4.1-2c-2.2,0-3.8,1.3-3.8,3c0,1.8,1,2.6,4.7,3.7c2.9,0.9,3.8,1.3,4.9,2.2c1.1,1,1.9,2.6,1.9,4.4
			c0,4-3.2,6.7-7.8,6.7c-2.3,0-3.4-0.4-5.9-1.9l-1,1.1L100.9,35.4z"/>
		<path class="st8" d="M139.9,30.9c-2.3,4.1-4.8,5.6-9.3,5.6c-6.3,0-10.8-4.4-10.8-10.6c0-6.1,4.7-10.8,10.8-10.8
			c3,0,5.5,1.1,7.3,3.3c1.4,1.6,2.2,3.4,2.2,4.9c0,0.4-0.1,0.7-0.4,0.9c-0.3,0.2-1.1,0.2-5.6,0.2h-8.3v0.9c0,6.7,2,9.6,6.4,9.6
			c2.9,0,4.4-1,6.6-4.5L139.9,30.9z M134.8,23.2c-0.1-4.9-1.3-7-4-7c-2.8,0-4.4,2.3-4.7,7H134.8z"/>
		<path class="st8" d="M142.2,16c2.5-0.7,3.7-1.3,4.9-2.5c1.4-1.4,2-2.7,2.6-5.4h0.8c0,1.7-0.1,3.6-0.1,4.9v2.7h4.7V17h-4.7v11.1
			c0,3.2,0,4.4,0.3,5.1c0.4,0.9,1,1.4,1.9,1.4c1.1,0,2-0.4,3.4-1.7l0.8,0.8c-1.9,1.9-3.7,2.6-6.1,2.6c-2.7,0-4.7-1-5.7-3
			c-0.5-1-0.7-1.9-0.7-3.7c0-0.9,0-2.2,0-3.4l0.2-9.3h-2.4V16H142.2z"/>
		<path class="st8" d="M179.3,30.9c-2.3,4.1-4.8,5.6-9.3,5.6c-6.3,0-10.8-4.4-10.8-10.6c0-6.1,4.7-10.8,10.8-10.8
			c3,0,5.5,1.1,7.3,3.3c1.4,1.6,2.2,3.4,2.2,4.9c0,0.4-0.1,0.7-0.4,0.9c-0.3,0.2-1.1,0.2-5.6,0.2h-8.3v0.9c0,6.7,2,9.6,6.4,9.6
			c2.9,0,4.4-1,6.6-4.5L179.3,30.9z M174.1,23.2c-0.1-4.9-1.3-7-4-7c-2.8,0-4.4,2.3-4.7,7H174.1z"/>
		<path class="st8" d="M201.4,32.7c-2.5,2.6-4.8,3.7-8.2,3.7c-6.1,0-10.6-4.5-10.6-10.5c0-6.1,4.8-10.8,10.9-10.8
			c4.3,0,7.6,2.2,7.6,5.2c0,1.5-1,2.5-2.4,2.5c-1.2,0-2.2-0.9-2.2-2c0-0.4,0.1-0.9,0.4-1.4c0.4-0.6,0.5-0.8,0.5-1c0-1.1-1.6-2-3.4-2
			c-1.4,0-2.6,0.5-3.4,1.5c-1,1.2-1.8,4.2-1.8,8.1c0,3,0.5,5.2,1.5,6.8c0.9,1.5,2.3,2.2,4.2,2.2c2.2,0,3.9-0.8,6-3L201.4,32.7z"/>
		<path class="st8" d="M203.5,34.6h3V4.8h-2.8v-1c4.8-0.2,5.9-0.4,8.2-1.6l0.7,0.4c-0.1,2-0.2,4.2-0.2,6.6v9.3
			c2.3-2.3,4.2-3.5,6.7-3.5s4.9,1.3,6,3.3c0.6,1.1,0.8,2.3,0.8,4.8v11.4h2.7v1.2h-11v-1.2h2.5V21.2c0-1.9-0.2-2.6-0.8-3.2
			c-0.4-0.4-1.1-0.7-1.8-0.7c-1.2,0-2.6,0.6-3.7,1.5c-0.9,0.7-1.5,1.5-1.5,2.1v13.7h2.5v1.2h-11.2L203.5,34.6L203.5,34.6z"/>
	</g>
	<g>
		<g>
			
				<linearGradient id="SVGID_8_" gradientUnits="userSpaceOnUse" x1="47.5383" y1="21.7" x2="78.9955" y2="21.7" gradientTransform="matrix(1 0 0 -1 0 40.2)">
				<stop  offset="0" style="stop-color:#EFF1F5"/>
				<stop  offset="0.5" style="stop-color:#D1D4E1"/>
				<stop  offset="1" style="stop-color:#FFFFFF"/>
			</linearGradient>
			<path class="st9" d="M47.6,33.6H50c0.7,0,1.2-0.2,1.5-0.6c0.3-0.5,1.2-2.8,2.3-6.3l4.6-14.4c1.2-3.9,2.1-6.8,3-10h3.2
				c0.8,2.9,1.6,5.3,2.4,7.7l4.3,12.7c1.3,3.9,2.6,7.5,3.8,10.8H79v1.2H63.8v-1.2h4.4L65,23.3h-8.4l-1.4,4.6c-1.2,3.8-1.5,4.6-1.5,5
				c0,0.4,0.4,0.6,1.2,0.6h3v1.2H47.6V33.6z M64.5,22L60.7,9.8L56.9,22H64.5z"/>
			
				<linearGradient id="SVGID_9_" gradientUnits="userSpaceOnUse" x1="80.6739" y1="15.4" x2="96.0048" y2="15.4" gradientTransform="matrix(1 0 0 -1 0 40.2)">
				<stop  offset="0" style="stop-color:#EFF1F5"/>
				<stop  offset="0.5" style="stop-color:#D1D4E1"/>
				<stop  offset="1" style="stop-color:#FFFFFF"/>
			</linearGradient>
			<path class="st10" d="M80.7,34.4c0.3-1.1,0.4-2,0.4-4.2c0-0.8,0-1.6,0-2.4h1.1c0.1,1.8,0.4,2.8,1.5,4.1c1.2,1.6,2.8,2.4,4.7,2.4
				c2.5,0,4.3-1.4,4.3-3.3c0-1.5-1.1-2.4-4.1-3.2c-2.6-0.7-4.4-1.5-5.4-2.3c-1.2-1-1.9-2.7-1.9-4.5c0-3.9,3-6.8,7-6.8
				c1.6,0,2.4,0.3,5,1.5l0.9-1l0.6,0.2c-0.1,1.6-0.2,2.4-0.2,3.3c0,0.8,0,1.7,0,2.6l-1,0.1c-0.3-1.8-0.5-2.6-1.2-3.5
				c-0.9-1.2-2.5-2-4.1-2c-2.2,0-3.8,1.3-3.8,3c0,1.8,1,2.6,4.7,3.7c2.9,0.9,3.8,1.3,4.9,2.2c1.1,1,1.9,2.6,1.9,4.4
				c0,4-3.2,6.7-7.8,6.7c-2.3,0-3.4-0.4-5.9-1.9l-1,1.1L80.7,34.4z"/>
			
				<linearGradient id="SVGID_10_" gradientUnits="userSpaceOnUse" x1="99.8414" y1="15.4" x2="115.1723" y2="15.4" gradientTransform="matrix(1 0 0 -1 0 40.2)">
				<stop  offset="0" style="stop-color:#EFF1F5"/>
				<stop  offset="0.5" style="stop-color:#D1D4E1"/>
				<stop  offset="1" style="stop-color:#FFFFFF"/>
			</linearGradient>
			<path class="st11" d="M99.9,34.4c0.3-1.1,0.4-2,0.4-4.2c0-0.8,0-1.6,0-2.4h1.1c0.1,1.8,0.4,2.8,1.5,4.1c1.2,1.6,2.8,2.4,4.7,2.4
				c2.5,0,4.3-1.4,4.3-3.3c0-1.5-1.1-2.4-4.1-3.2c-2.6-0.7-4.4-1.5-5.4-2.3c-1.2-1-1.9-2.7-1.9-4.5c0-3.9,3-6.8,7-6.8
				c1.6,0,2.4,0.3,5,1.5l0.9-1l0.6,0.2c-0.1,1.6-0.2,2.4-0.2,3.3c0,0.8,0,1.7,0,2.6l-1,0.1c-0.3-1.8-0.5-2.6-1.2-3.5
				c-0.9-1.2-2.5-2-4.1-2c-2.2,0-3.8,1.3-3.8,3c0,1.8,1,2.6,4.7,3.7c2.9,0.9,3.8,1.3,4.9,2.2c1.1,1,1.9,2.6,1.9,4.4
				c0,4-3.2,6.7-7.8,6.7c-2.3,0-3.4-0.4-5.9-1.9l-1,1.1L99.9,34.4z"/>
			
				<linearGradient id="SVGID_11_" gradientUnits="userSpaceOnUse" x1="118.8326" y1="15.4" x2="139.1871" y2="15.4" gradientTransform="matrix(1 0 0 -1 0 40.2)">
				<stop  offset="0" style="stop-color:#EFF1F5"/>
				<stop  offset="0.5" style="stop-color:#D1D4E1"/>
				<stop  offset="1" style="stop-color:#FFFFFF"/>
			</linearGradient>
			<path class="st12" d="M138.9,29.9c-2.3,4.1-4.8,5.6-9.3,5.6c-6.3,0-10.8-4.4-10.8-10.6c0-6.1,4.7-10.8,10.8-10.8
				c3,0,5.5,1.1,7.3,3.3c1.4,1.6,2.2,3.4,2.2,4.9c0,0.4-0.1,0.7-0.4,0.9c-0.3,0.2-1.1,0.2-5.6,0.2h-8.3v0.9c0,6.7,2,9.6,6.4,9.6
				c2.9,0,4.4-1,6.6-4.5L138.9,29.9z M133.8,22.2c-0.1-4.9-1.3-7-4-7c-2.8,0-4.4,2.3-4.7,7H133.8z"/>
			
				<linearGradient id="SVGID_12_" gradientUnits="userSpaceOnUse" x1="141.1297" y1="19" x2="155.801" y2="19" gradientTransform="matrix(1 0 0 -1 0 40.2)">
				<stop  offset="0" style="stop-color:#EFF1F5"/>
				<stop  offset="0.5" style="stop-color:#D1D4E1"/>
				<stop  offset="1" style="stop-color:#FFFFFF"/>
			</linearGradient>
			<path class="st13" d="M141.2,15c2.5-0.7,3.7-1.3,4.9-2.5c1.4-1.4,2-2.7,2.6-5.4h0.8c0,1.7-0.1,3.6-0.1,4.9v2.7h4.7V16h-4.7v11.1
				c0,3.2,0,4.4,0.3,5.1c0.4,0.9,1,1.4,1.9,1.4c1.1,0,2-0.4,3.4-1.7l0.8,0.8c-1.9,1.9-3.7,2.6-6.1,2.6c-2.7,0-4.7-1-5.7-3
				c-0.5-1-0.7-1.9-0.7-3.7c0-0.9,0-2.2,0-3.4l0.2-9.3h-2.4V15H141.2z"/>
			
				<linearGradient id="SVGID_13_" gradientUnits="userSpaceOnUse" x1="158.1356" y1="15.4" x2="178.4901" y2="15.4" gradientTransform="matrix(1 0 0 -1 0 40.2)">
				<stop  offset="0" style="stop-color:#EFF1F5"/>
				<stop  offset="0.5" style="stop-color:#D1D4E1"/>
				<stop  offset="1" style="stop-color:#FFFFFF"/>
			</linearGradient>
			<path class="st14" d="M178.3,29.9c-2.3,4.1-4.8,5.6-9.3,5.6c-6.3,0-10.8-4.4-10.8-10.6c0-6.1,4.7-10.8,10.8-10.8
				c3,0,5.5,1.1,7.3,3.3c1.4,1.6,2.2,3.4,2.2,4.9c0,0.4-0.1,0.7-0.4,0.9c-0.3,0.2-1.1,0.2-5.6,0.2h-8.3v0.9c0,6.7,2,9.6,6.4,9.6
				c2.9,0,4.4-1,6.6-4.5L178.3,29.9z M173.1,22.2c-0.1-4.9-1.3-7-4-7c-2.8,0-4.4,2.3-4.7,7H173.1z"/>
			
				<linearGradient id="SVGID_14_" gradientUnits="userSpaceOnUse" x1="181.5335" y1="15.45" x2="200.3335" y2="15.45" gradientTransform="matrix(1 0 0 -1 0 40.2)">
				<stop  offset="0" style="stop-color:#EFF1F5"/>
				<stop  offset="0.5" style="stop-color:#D1D4E1"/>
				<stop  offset="1" style="stop-color:#FFFFFF"/>
			</linearGradient>
			<path class="st15" d="M200.4,31.7c-2.5,2.6-4.8,3.7-8.2,3.7c-6.1,0-10.6-4.5-10.6-10.5c0-6.1,4.8-10.8,10.9-10.8
				c4.3,0,7.6,2.2,7.6,5.2c0,1.5-1,2.5-2.4,2.5c-1.2,0-2.2-0.9-2.2-2c0-0.4,0.1-0.9,0.4-1.4c0.4-0.6,0.5-0.8,0.5-1
				c0-1.1-1.6-2-3.4-2c-1.4,0-2.6,0.5-3.4,1.5c-1,1.2-1.8,4.2-1.8,8.1c0,3,0.5,5.2,1.5,6.8c0.9,1.5,2.3,2.2,4.2,2.2
				c2.2,0,3.9-0.8,6-3L200.4,31.7z"/>
			
				<linearGradient id="SVGID_15_" gradientUnits="userSpaceOnUse" x1="202.5087" y1="22.2" x2="227.4898" y2="22.2" gradientTransform="matrix(1 0 0 -1 0 40.2)">
				<stop  offset="0" style="stop-color:#EFF1F5"/>
				<stop  offset="0.5" style="stop-color:#D1D4E1"/>
				<stop  offset="1" style="stop-color:#FFFFFF"/>
			</linearGradient>
			<path class="st16" d="M202.5,33.6h3V3.8h-2.8v-1c4.8-0.2,5.9-0.4,8.2-1.6l0.7,0.4c-0.1,2-0.2,4.2-0.2,6.6v9.3
				c2.3-2.3,4.2-3.5,6.7-3.5s4.9,1.3,6,3.3c0.6,1.1,0.8,2.3,0.8,4.8v11.4h2.7v1.2h-11v-1.2h2.5V20.2c0-1.9-0.2-2.6-0.8-3.2
				c-0.4-0.4-1.1-0.7-1.8-0.7c-1.2,0-2.6,0.6-3.7,1.5c-0.9,0.7-1.5,1.5-1.5,2.1v13.7h2.5v1.2h-11.2L202.5,33.6L202.5,33.6z"/>
		</g>
	</g>
</g>
</svg>
