<?xml version="1.0" encoding="utf-8"?>
<!-- Generator: Adobe Illustrator 25.1.0, SVG Export Plug-In . SVG Version: 6.00 Build 0)  -->
<svg version="1.1"
	 id="レイヤー_1" xmlns:cc="http://creativecommons.org/ns#" xmlns:dc="http://purl.org/dc/elements/1.1/" xmlns:inkscape="http://www.inkscape.org/namespaces/inkscape" xmlns:rdf="http://www.w3.org/1999/02/22-rdf-syntax-ns#" xmlns:sodipodi="http://sodipodi.sourceforge.net/DTD/sodipodi-0.dtd" xmlns:svg="http://www.w3.org/2000/svg"
	 xmlns="http://www.w3.org/2000/svg" xmlns:xlink="http://www.w3.org/1999/xlink" x="0px" y="0px" viewBox="0 0 231.1 42.2"
	 style="enable-background:new 0 0 231.1 42.2;" xml:space="preserve">
<style type="text/css">
	.st0{fill:url(#SVGID_1_);}
	.st1{fill:url(#SVGID_2_);}
	.st2{fill:url(#SVGID_3_);}
	.st3{fill:url(#SVGID_4_);}
	.st4{fill:url(#SVGID_5_);}
	.st5{fill:url(#SVGID_6_);}
	.st6{fill:url(#SVGID_7_);}
	.st7{opacity:0.75;}
	.st8{fill:#292F47;}
	.st9{fill:url(#SVGID_8_);}
	.st10{fill:url(#SVGID_9_);}
	.st11{fill:url(#SVGID_10_);}
	.st12{fill:url(#SVGID_11_);}
	.st13{fill:url(#SVGID_12_);}
	.st14{fill:url(#SVGID_13_);}
	.st15{fill:url(#SVGID_14_);}
	.st16{fill:url(#SVGID_15_);}
</style>
<sodipodi:namedview  bordercolor="#666666" borderopacity="1" gridtolerance="10" guidetolerance="10" id="namedview107" inkscape:current-layer="レイヤー_1" inkscape:cx="33.347621" inkscape:cy="11.59381" inkscape:pageopacity="0" inkscape:pageshadow="2" inkscape:window-height="480" inkscape:window-maximized="0" inkscape:window-width="734" inkscape:window-x="0" inkscape:window-y="0" inkscape:zoom="4.3962043" objecttolerance="10" pagecolor="#ffffff" showgrid="false">
	</sodipodi:namedview>
<g>
	<linearGradient id="SVGID_1_" gradientUnits="userSpaceOnUse" x1="6.7494" y1="21.6864" x2="8.8009" y2="21.6864">
		<stop  offset="0" style="stop-color:#EFF1F5"/>
		<stop  offset="0.5" style="stop-color:#D1D4E1"/>
		<stop  offset="1" style="stop-color:#ABB1C7"/>
	</linearGradient>
	<rect x="6.7" y="8.5" class="st0" width="2.1" height="26.5"/>
	<linearGradient id="SVGID_2_" gradientUnits="userSpaceOnUse" x1="11.3754" y1="21.6864" x2="13.561" y2="21.6864">
		<stop  offset="0" style="stop-color:#EFF1F5"/>
		<stop  offset="0.5" style="stop-color:#D1D4E1"/>
		<stop  offset="1" style="stop-color:#ABB1C7"/>
	</linearGradient>
	<rect x="11.4" y="8.5" class="st1" width="2.2" height="26.5"/>
	<linearGradient id="SVGID_3_" gradientUnits="userSpaceOnUse" x1="15.3779" y1="21.6864" x2="16.8461" y2="21.6864">
		<stop  offset="0" style="stop-color:#EFF1F5"/>
		<stop  offset="0.5" style="stop-color:#D1D4E1"/>
		<stop  offset="1" style="stop-color:#ABB1C7"/>
	</linearGradient>
	<rect x="15.4" y="8.5" class="st2" width="1.5" height="26.5"/>
	<linearGradient id="SVGID_4_" gradientUnits="userSpaceOnUse" x1="31.475" y1="21.6663" x2="33.7009" y2="21.6663">
		<stop  offset="0" style="stop-color:#EFF1F5"/>
		<stop  offset="0.5" style="stop-color:#D1D4E1"/>
		<stop  offset="1" style="stop-color:#ABB1C7"/>
	</linearGradient>
	<rect x="31.5" y="8.4" class="st3" width="2.2" height="26.4"/>
	<linearGradient id="SVGID_5_" gradientUnits="userSpaceOnUse" x1="37.8643" y1="21.7133" x2="39.9359" y2="21.7133">
		<stop  offset="0" style="stop-color:#EFF1F5"/>
		<stop  offset="0.5" style="stop-color:#D1D4E1"/>
		<stop  offset="1" style="stop-color:#ABB1C7"/>
	</linearGradient>
	<rect x="37.9" y="8.5" class="st4" width="2.1" height="26.4"/>
	<linearGradient id="SVGID_6_" gradientUnits="userSpaceOnUse" x1="19.3804" y1="21.6663" x2="28.9341" y2="21.6663">
		<stop  offset="0" style="stop-color:#EFF1F5"/>
		<stop  offset="0.5" style="stop-color:#D1D4E1"/>
		<stop  offset="1" style="stop-color:#ABB1C7"/>
	</linearGradient>
	<polygon class="st5" points="19.4,8.5 28.9,8.5 28.9,34.8 26.6,34.8 26.5,12.6 	"/>
	<linearGradient id="SVGID_7_" gradientUnits="userSpaceOnUse" x1="13.4765" y1="14.3685" x2="32.5" y2="33.392">
		<stop  offset="0" style="stop-color:#FFFFFF"/>
		<stop  offset="0.6854" style="stop-color:#6F7A9A"/>
		<stop  offset="1" style="stop-color:#6F7A9A"/>
	</linearGradient>
	<polygon class="st6" points="19.4,8.5 26.5,12.6 26.6,39.3 19.2,34.9 	"/>
</g>
<g>
	<g class="st7">
		<path class="st8" d="M50.2,35.9l2.4,0c0.7,0,1.2-0.2,1.5-0.6c0.3-0.5,1.2-2.8,2.3-6.3L61,14.6c1.2-3.9,2.1-6.8,3-10h3.2
			c0.8,2.9,1.6,5.3,2.4,7.7L73.9,25c1.3,3.9,2.6,7.5,3.8,10.8l3.9,0v1.2H66.4v-1.2l4.4,0l-3.2-10.2h-8.4l-1.4,4.6
			c-1.2,3.8-1.5,4.6-1.5,5c0,0.4,0.4,0.6,1.2,0.6l3,0v1.2H50.2V35.9z M67.1,24.3l-3.8-12.2l-3.8,12.2H67.1z"/>
		<path class="st8" d="M83.3,36.7c0.3-1.1,0.4-2,0.4-4.2c0-0.8,0-1.6,0-2.4h1.1c0.1,1.8,0.4,2.8,1.5,4.1c1.2,1.6,2.8,2.4,4.7,2.4
			c2.5,0,4.3-1.4,4.3-3.3c0-1.5-1.1-2.4-4.1-3.2c-2.6-0.7-4.4-1.5-5.4-2.3c-1.2-1-1.9-2.7-1.9-4.5c0-3.9,3-6.8,7-6.8
			c1.6,0,2.4,0.3,5,1.5l0.9-1l0.6,0.2c-0.1,1.6-0.2,2.4-0.2,3.3c0,0.8,0,1.7,0,2.6l-1,0.1c-0.3-1.8-0.5-2.6-1.2-3.5
			c-0.9-1.2-2.5-2-4.1-2c-2.2,0-3.8,1.3-3.8,3c0,1.8,1,2.6,4.7,3.7c2.9,0.9,3.8,1.3,4.9,2.2c1.1,1,1.9,2.6,1.9,4.4
			c0,4-3.2,6.7-7.8,6.7c-2.3,0-3.4-0.4-5.9-1.9l-1,1.1L83.3,36.7z"/>
		<path class="st8" d="M102.5,36.7c0.3-1.1,0.4-2,0.4-4.2c0-0.8,0-1.6,0-2.4h1.1c0.1,1.8,0.4,2.8,1.5,4.1c1.2,1.6,2.8,2.4,4.7,2.4
			c2.5,0,4.3-1.4,4.3-3.3c0-1.5-1.1-2.4-4.1-3.2c-2.6-0.7-4.4-1.5-5.4-2.3c-1.2-1-1.9-2.7-1.9-4.5c0-3.9,3-6.8,7-6.8
			c1.6,0,2.4,0.3,5,1.5l0.9-1l0.6,0.2c-0.1,1.6-0.2,2.4-0.2,3.3c0,0.8,0,1.7,0,2.6l-1,0.1c-0.3-1.8-0.5-2.6-1.2-3.5
			c-0.9-1.2-2.5-2-4.1-2c-2.2,0-3.8,1.3-3.8,3c0,1.8,1,2.6,4.7,3.7c2.9,0.9,3.8,1.3,4.9,2.2c1.1,1,1.9,2.6,1.9,4.4
			c0,4-3.2,6.7-7.8,6.7c-2.3,0-3.4-0.4-5.9-1.9l-1,1.1L102.5,36.7z"/>
		<path class="st8" d="M141.5,32.2c-2.3,4.1-4.8,5.6-9.3,5.6c-6.3,0-10.8-4.4-10.8-10.6c0-6.1,4.7-10.8,10.8-10.8
			c3,0,5.5,1.1,7.3,3.3c1.4,1.6,2.2,3.4,2.2,4.9c0,0.4-0.1,0.7-0.4,0.9c-0.3,0.2-1.1,0.2-5.6,0.2h-8.3v0.9c0,6.7,2,9.6,6.4,9.6
			c2.9,0,4.4-1,6.6-4.5L141.5,32.2z M136.4,24.5c-0.1-4.9-1.3-7-4-7c-2.8,0-4.4,2.3-4.7,7H136.4z"/>
		<path class="st8" d="M143.8,17.3c2.5-0.7,3.7-1.3,4.9-2.5c1.4-1.4,2-2.7,2.6-5.4h0.8c0,1.7-0.1,3.6-0.1,4.9l0,2.7h4.7v1.3H152
			l0,11.1c0,3.2,0,4.4,0.3,5.1c0.4,0.9,1,1.4,1.9,1.4c1.1,0,2-0.4,3.4-1.7l0.8,0.8c-1.9,1.9-3.7,2.6-6.1,2.6c-2.7,0-4.7-1-5.7-3
			c-0.5-1-0.7-1.9-0.7-3.7c0-0.9,0-2.2,0-3.4l0.2-9.3h-2.4V17.3z"/>
		<path class="st8" d="M180.9,32.2c-2.3,4.1-4.8,5.6-9.3,5.6c-6.3,0-10.8-4.4-10.8-10.6c0-6.1,4.7-10.8,10.8-10.8
			c3,0,5.5,1.1,7.3,3.3c1.4,1.6,2.2,3.4,2.2,4.9c0,0.4-0.1,0.7-0.4,0.9c-0.3,0.2-1.1,0.2-5.6,0.2h-8.3v0.9c0,6.7,2,9.6,6.4,9.6
			c2.9,0,4.4-1,6.6-4.5L180.9,32.2z M175.7,24.5c-0.1-4.9-1.3-7-4-7c-2.8,0-4.4,2.3-4.7,7H175.7z"/>
		<path class="st8" d="M203,34c-2.5,2.6-4.8,3.7-8.2,3.7c-6.1,0-10.6-4.5-10.6-10.5c0-6.1,4.8-10.8,10.9-10.8c4.3,0,7.6,2.2,7.6,5.2
			c0,1.5-1,2.5-2.4,2.5c-1.2,0-2.2-0.9-2.2-2c0-0.4,0.1-0.9,0.4-1.4c0.4-0.6,0.5-0.8,0.5-1c0-1.1-1.6-2-3.4-2
			c-1.4,0-2.6,0.5-3.4,1.5c-1,1.2-1.8,4.2-1.8,8.1c0,3,0.5,5.2,1.5,6.8c0.9,1.5,2.3,2.2,4.2,2.2c2.2,0,3.9-0.8,6-3L203,34z"/>
		<path class="st8" d="M205.1,35.9l3,0V6.1l-2.8,0V5.1c4.8-0.2,5.9-0.4,8.2-1.6l0.7,0.4c-0.1,2-0.2,4.2-0.2,6.6v9.3
			c2.3-2.3,4.2-3.5,6.7-3.5c2.5,0,4.9,1.3,6,3.3c0.6,1.1,0.8,2.3,0.8,4.8v11.4l2.7,0v1.2h-11v-1.2l2.5,0V22.5c0-1.9-0.2-2.6-0.8-3.2
			c-0.4-0.4-1.1-0.7-1.8-0.7c-1.2,0-2.6,0.6-3.7,1.5c-0.9,0.7-1.5,1.5-1.5,2.1v13.7l2.5,0v1.2h-11.2V35.9z"/>
	</g>
	<g>
		<g>
			<linearGradient id="SVGID_8_" gradientUnits="userSpaceOnUse" x1="49.1644" y1="19.7899" x2="80.6216" y2="19.7899">
				<stop  offset="0" style="stop-color:#EFF1F5"/>
				<stop  offset="0.5" style="stop-color:#D1D4E1"/>
				<stop  offset="1" style="stop-color:#FFFFFF"/>
			</linearGradient>
			<path class="st9" d="M49.2,34.9l2.4,0c0.7,0,1.2-0.2,1.5-0.6c0.3-0.5,1.2-2.8,2.3-6.3L60,13.6c1.2-3.9,2.1-6.8,3-10h3.2
				c0.8,2.9,1.6,5.3,2.4,7.7L72.9,24c1.3,3.9,2.6,7.5,3.8,10.8l3.9,0v1.2H65.4v-1.2l4.4,0l-3.2-10.2h-8.4l-1.4,4.6
				c-1.2,3.8-1.5,4.6-1.5,5c0,0.4,0.4,0.6,1.2,0.6l3,0v1.2H49.2V34.9z M66.1,23.3l-3.8-12.2l-3.8,12.2H66.1z"/>
			<linearGradient id="SVGID_9_" gradientUnits="userSpaceOnUse" x1="82.3004" y1="26.0459" x2="97.6313" y2="26.0459">
				<stop  offset="0" style="stop-color:#EFF1F5"/>
				<stop  offset="0.5" style="stop-color:#D1D4E1"/>
				<stop  offset="1" style="stop-color:#FFFFFF"/>
			</linearGradient>
			<path class="st10" d="M82.3,35.7c0.3-1.1,0.4-2,0.4-4.2c0-0.8,0-1.6,0-2.4h1.1c0.1,1.8,0.4,2.8,1.5,4.1c1.2,1.6,2.8,2.4,4.7,2.4
				c2.5,0,4.3-1.4,4.3-3.3c0-1.5-1.1-2.4-4.1-3.2c-2.6-0.7-4.4-1.5-5.4-2.3c-1.2-1-1.9-2.7-1.9-4.5c0-3.9,3-6.8,7-6.8
				c1.6,0,2.4,0.3,5,1.5l0.9-1l0.6,0.2c-0.1,1.6-0.2,2.4-0.2,3.3c0,0.8,0,1.7,0,2.6l-1,0.1c-0.3-1.8-0.5-2.6-1.2-3.5
				c-0.9-1.2-2.5-2-4.1-2c-2.2,0-3.8,1.3-3.8,3c0,1.8,1,2.6,4.7,3.7c2.9,0.9,3.8,1.3,4.9,2.2c1.1,1,1.9,2.6,1.9,4.4
				c0,4-3.2,6.7-7.8,6.7c-2.3,0-3.4-0.4-5.9-1.9l-1,1.1L82.3,35.7z"/>
			<linearGradient id="SVGID_10_" gradientUnits="userSpaceOnUse" x1="101.4675" y1="26.0459" x2="116.7984" y2="26.0459">
				<stop  offset="0" style="stop-color:#EFF1F5"/>
				<stop  offset="0.5" style="stop-color:#D1D4E1"/>
				<stop  offset="1" style="stop-color:#FFFFFF"/>
			</linearGradient>
			<path class="st11" d="M101.5,35.7c0.3-1.1,0.4-2,0.4-4.2c0-0.8,0-1.6,0-2.4h1.1c0.1,1.8,0.4,2.8,1.5,4.1c1.2,1.6,2.8,2.4,4.7,2.4
				c2.5,0,4.3-1.4,4.3-3.3c0-1.5-1.1-2.4-4.1-3.2c-2.6-0.7-4.4-1.5-5.4-2.3c-1.2-1-1.9-2.7-1.9-4.5c0-3.9,3-6.8,7-6.8
				c1.6,0,2.4,0.3,5,1.5l0.9-1l0.6,0.2c-0.1,1.6-0.2,2.4-0.2,3.3c0,0.8,0,1.7,0,2.6l-1,0.1c-0.3-1.8-0.5-2.6-1.2-3.5
				c-0.9-1.2-2.5-2-4.1-2c-2.2,0-3.8,1.3-3.8,3c0,1.8,1,2.6,4.7,3.7c2.9,0.9,3.8,1.3,4.9,2.2c1.1,1,1.9,2.6,1.9,4.4
				c0,4-3.2,6.7-7.8,6.7c-2.3,0-3.4-0.4-5.9-1.9l-1,1.1L101.5,35.7z"/>
			<linearGradient id="SVGID_11_" gradientUnits="userSpaceOnUse" x1="120.4587" y1="26.0459" x2="140.8132" y2="26.0459">
				<stop  offset="0" style="stop-color:#EFF1F5"/>
				<stop  offset="0.5" style="stop-color:#D1D4E1"/>
				<stop  offset="1" style="stop-color:#FFFFFF"/>
			</linearGradient>
			<path class="st12" d="M140.5,31.2c-2.3,4.1-4.8,5.6-9.3,5.6c-6.3,0-10.8-4.4-10.8-10.6c0-6.1,4.7-10.8,10.8-10.8
				c3,0,5.5,1.1,7.3,3.3c1.4,1.6,2.2,3.4,2.2,4.9c0,0.4-0.1,0.7-0.4,0.9c-0.3,0.2-1.1,0.2-5.6,0.2h-8.3v0.9c0,6.7,2,9.6,6.4,9.6
				c2.9,0,4.4-1,6.6-4.5L140.5,31.2z M135.4,23.5c-0.1-4.9-1.3-7-4-7c-2.8,0-4.4,2.3-4.7,7H135.4z"/>
			<linearGradient id="SVGID_12_" gradientUnits="userSpaceOnUse" x1="142.7558" y1="22.5656" x2="157.4271" y2="22.5656">
				<stop  offset="0" style="stop-color:#EFF1F5"/>
				<stop  offset="0.5" style="stop-color:#D1D4E1"/>
				<stop  offset="1" style="stop-color:#FFFFFF"/>
			</linearGradient>
			<path class="st13" d="M142.8,16.3c2.5-0.7,3.7-1.3,4.9-2.5c1.4-1.4,2-2.7,2.6-5.4h0.8c0,1.7-0.1,3.6-0.1,4.9l0,2.7h4.7v1.3H151
				l0,11.1c0,3.2,0,4.4,0.3,5.1c0.4,0.9,1,1.4,1.9,1.4c1.1,0,2-0.4,3.4-1.7l0.8,0.8c-1.9,1.9-3.7,2.6-6.1,2.6c-2.7,0-4.7-1-5.7-3
				c-0.5-1-0.7-1.9-0.7-3.7c0-0.9,0-2.2,0-3.4l0.2-9.3h-2.4V16.3z"/>
			<linearGradient id="SVGID_13_" gradientUnits="userSpaceOnUse" x1="159.7617" y1="26.0459" x2="180.1162" y2="26.0459">
				<stop  offset="0" style="stop-color:#EFF1F5"/>
				<stop  offset="0.5" style="stop-color:#D1D4E1"/>
				<stop  offset="1" style="stop-color:#FFFFFF"/>
			</linearGradient>
			<path class="st14" d="M179.9,31.2c-2.3,4.1-4.8,5.6-9.3,5.6c-6.3,0-10.8-4.4-10.8-10.6c0-6.1,4.7-10.8,10.8-10.8
				c3,0,5.5,1.1,7.3,3.3c1.4,1.6,2.2,3.4,2.2,4.9c0,0.4-0.1,0.7-0.4,0.9c-0.3,0.2-1.1,0.2-5.6,0.2h-8.3v0.9c0,6.7,2,9.6,6.4,9.6
				c2.9,0,4.4-1,6.6-4.5L179.9,31.2z M174.7,23.5c-0.1-4.9-1.3-7-4-7c-2.8,0-4.4,2.3-4.7,7H174.7z"/>
			<linearGradient id="SVGID_14_" gradientUnits="userSpaceOnUse" x1="183.1596" y1="26.0679" x2="201.9724" y2="26.0679">
				<stop  offset="0" style="stop-color:#EFF1F5"/>
				<stop  offset="0.5" style="stop-color:#D1D4E1"/>
				<stop  offset="1" style="stop-color:#FFFFFF"/>
			</linearGradient>
			<path class="st15" d="M202,33c-2.5,2.6-4.8,3.7-8.2,3.7c-6.1,0-10.6-4.5-10.6-10.5c0-6.1,4.8-10.8,10.9-10.8
				c4.3,0,7.6,2.2,7.6,5.2c0,1.5-1,2.5-2.4,2.5c-1.2,0-2.2-0.9-2.2-2c0-0.4,0.1-0.9,0.4-1.4c0.4-0.6,0.5-0.8,0.5-1
				c0-1.1-1.6-2-3.4-2c-1.4,0-2.6,0.5-3.4,1.5c-1,1.2-1.8,4.2-1.8,8.1c0,3,0.5,5.2,1.5,6.8c0.9,1.5,2.3,2.2,4.2,2.2
				c2.2,0,3.9-0.8,6-3L202,33z"/>
			<linearGradient id="SVGID_15_" gradientUnits="userSpaceOnUse" x1="204.1348" y1="19.2832" x2="229.1159" y2="19.2832">
				<stop  offset="0" style="stop-color:#EFF1F5"/>
				<stop  offset="0.5" style="stop-color:#D1D4E1"/>
				<stop  offset="1" style="stop-color:#FFFFFF"/>
			</linearGradient>
			<path class="st16" d="M204.1,34.9l3,0V5.1l-2.8,0V4.1c4.8-0.2,5.9-0.4,8.2-1.6l0.7,0.4c-0.1,2-0.2,4.2-0.2,6.6v9.3
				c2.3-2.3,4.2-3.5,6.7-3.5c2.5,0,4.9,1.3,6,3.3c0.6,1.1,0.8,2.3,0.8,4.8v11.4l2.7,0v1.2h-11v-1.2l2.5,0V21.5
				c0-1.9-0.2-2.6-0.8-3.2c-0.4-0.4-1.1-0.7-1.8-0.7c-1.2,0-2.6,0.6-3.7,1.5c-0.9,0.7-1.5,1.5-1.5,2.1v13.7l2.5,0v1.2h-11.2V34.9z"
				/>
		</g>
	</g>
</g>
</svg>
