<?xml version="1.0" encoding="utf-8"?>
<!-- Generator: Adobe Illustrator 25.1.0, SVG Export Plug-In . SVG Version: 6.00 Build 0)  -->
<svg version="1.1" id="レイヤー_1" xmlns="http://www.w3.org/2000/svg" xmlns:xlink="http://www.w3.org/1999/xlink" x="0px"
	 y="0px" viewBox="0 0 61 59" style="enable-background:new 0 0 61 59;" xml:space="preserve">
<style type="text/css">
	.st0{fill-rule:evenodd;clip-rule:evenodd;fill:#E8F9FF;}
	.st1{fill:#F2EDE0;}
	.st2{opacity:0.86;}
	.st3{fill:#B7B7B7;}
	.st4{fill:#E8F9FF;}
</style>
<g>
	<path class="st0" d="M27.9,106c-0.6-1.8-3.2-1.8-5.2-1.8c-1.9,0-4.5,1.8-5.8,2.9c0-0.6-1.3-1.2-1.9-1.8c-1.9-0.6-3.2-1.2-4.5-2.3
		c-2.6-1.8-7.1-2.9-10.3-2.9c-0.6,0-3.2,0.6-6.5,1.8c-1.3,0-3.2,0-3.9,0l0,0c0-0.6-0.6-0.6-1.3-0.6c-7.8,0-7.8,0-7.8,0
		c-0.6,0-0.6,0-0.6,0.6c0,14.6,0,14.6,0,14.6c0,0.6,0,1.2,0.6,1.2c7.8,0,7.8,0,7.8,0c0.6,0,1.3-0.6,1.3-1.2c0-2.9,0-2.9,0-2.9
		c2.6-0.6,5.8-0.6,7.1,0c3.2,1.2,11.6,4.1,13.6,4.1c1.3,0,4.5-1.8,8.4-3.5c1.3-0.6,1.3-0.6,1.3-0.6c2.6-1.2,5.2-4.1,7.1-5.3
		c0-0.6,0-0.6,0.6-0.6C28.6,107.1,28.6,106.5,27.9,106L27.9,106z M-12.2,115.9c-5.8,0-5.8,0-5.8,0c0-12.8,0-12.8,0-12.8
		c5.8,0,5.8,0,5.8,0l0,0c0,9.9,0,9.9,0,9.9V115.9L-12.2,115.9L-12.2,115.9z M25.3,107.1c-1.3,1.2-3.9,3.5-5.8,4.7
		c-1.3,0.6-1.3,0.6-1.3,0.6c-2.6,1.2-7.1,3.5-7.8,3.5c-1.3,0-9.1-2.3-12.3-4.1c-1.3,0-2.6-0.6-3.9-0.6c-1.8,0-3.8,0.6-4.4,0.6
		c0-8.2,0-8.2,0-8.2c0.6,0,2.6,0,4.5,0c3.2-1.2,5.2-1.8,6.5-1.8c1.9,0,5.8,0.6,8.4,2.9c1.3,0.6,3.2,1.8,4.5,2.3
		c0.6,0.6,1.3,0.6,1.9,1.2c-0.6,0.6-2.6,1.2-3.9,1.2c-1.3,0-4.5-1.2-6.5-2.3c-0.6-0.6-1.3,0-1.3,0c-0.6,0.6-0.6,1.2,0,1.2
		c0.6,0.6,5.2,2.9,7.8,2.9s5.2-1.8,5.8-2.3c1.3-1.2,3.9-2.9,5.2-2.9s2.6,0,3.2,0.6C26,106.5,26,106.5,25.3,107.1L25.3,107.1z"/>
</g>
<g>
	<g>
		<path class="st1" d="M125.7,119.3h-0.3V118c0-1.3-0.9-2.4-2.1-2.8v-1.2h1c0.3,0,0.5-0.1,0.6-0.3c0.1-0.2,0.2-0.5,0.1-0.7l-1.4-3.7
			c-0.1-0.3-0.4-0.5-0.7-0.5h-12.3c-0.3,0-0.6,0.2-0.7,0.5l-1.4,3.7c-0.1,0.2-0.1,0.5,0.1,0.7c0.1,0.2,0.4,0.3,0.6,0.3h1v11.2
			c0,0.4,0.4,0.8,0.8,0.8h14.6c0.4,0,0.8-0.4,0.8-0.8v-5.2C126.5,119.7,126.1,119.3,125.7,119.3L125.7,119.3z M123.9,118v1.3h-2.6
			V118c0-0.7,0.6-1.3,1.3-1.3S123.9,117.3,123.9,118L123.9,118z M111.2,110.4h11.3l0.8,2.1h-0.7h0h-11.5h0h-0.7L111.2,110.4z
			 M111.8,114.1h9.9v1.2c-1.2,0.3-2.1,1.5-2.1,2.8v1.3h-0.3c-0.4,0-0.8,0.4-0.8,0.8v4.4h-6.8V114.1z M124.9,124.5h-4.7v-3.7h4.7
			V124.5z"/>
	</g>
</g>
<g>
	<g class="st2">
		<path class="st3" d="M44.8,17.1h-0.8c-0.4,0-0.7-0.3-0.7-0.7c0-0.1,0.1-0.3,0.2-0.4c0.5-0.4,0.8-1,1.1-1.7c0.1,0,0.1,0.1,0.2,0.1
			c0.4,0,1-1,1-1.6c0-0.7-0.1-1.2-0.5-1.2c-0.1,0-0.1,0-0.2,0c0-1.8-0.5-4-3.2-4c-2.9,0-3.2,2.2-3.2,4c0,0-0.1,0-0.1,0
			c-0.4,0-0.5,0.5-0.5,1.2c0,0.7,0.5,1.6,1,1.6c0.1,0,0.1,0,0.2,0c0.3,0.6,0.7,1.2,1.1,1.7c0.1,0.1,0.2,0.2,0.2,0.4
			c0,0.4-0.3,0.7-0.7,0.7h-0.8c-1.7,0-3,1.4-3,3V21c0,0.5,0.4,1,1,1h10.1c0.5,0,1-0.4,1-1v-0.8C47.9,18.5,46.5,17.1,44.8,17.1
			L44.8,17.1z"/>
		<path class="st3" d="M53.9,8.8h-8.5c0.3,0.5,0.4,1.2,0.5,2c0.2,0.1,0.3,0.3,0.4,0.5h7.6c0.4,0,0.7-0.3,0.7-0.7V9.5
			C54.6,9.1,54.3,8.8,53.9,8.8L53.9,8.8z"/>
		<path class="st3" d="M53.9,13.4h-7.4c-0.2,0.8-0.7,1.6-1.4,1.8c0,0,0,0.1-0.1,0.1V16h8.9c0.4,0,0.7-0.3,0.7-0.7v-1.1
			C54.6,13.8,54.3,13.4,53.9,13.4L53.9,13.4z"/>
		<path class="st3" d="M53.9,18.1h-5.8c0.4,0.6,0.6,1.3,0.6,2.1v0.5h5.2c0.4,0,0.7-0.3,0.7-0.7v-1.1C54.6,18.4,54.3,18.1,53.9,18.1
			L53.9,18.1z"/>
		<path class="st3" d="M57,1.7H33.5c-2.4,0-4.4,2-4.4,4.4v17.3c0,2.4,2,4.4,4.4,4.4H57c2.4,0,4.4-2,4.4-4.4V6.1
			C61.4,3.7,59.4,1.7,57,1.7L57,1.7z M59.3,23.4c0,1.3-1,2.3-2.3,2.3H33.5c-1.3,0-2.3-1-2.3-2.3V6.1c0-1.3,1-2.3,2.3-2.3H57
			c1.3,0,2.3,1,2.3,2.3V23.4z"/>
	</g>
	<g>
		<g>
			<path class="st4" d="M43.8,16.1h-0.8c-0.4,0-0.7-0.3-0.7-0.7c0-0.1,0.1-0.3,0.2-0.4c0.5-0.4,0.8-1,1.1-1.7c0.1,0,0.1,0.1,0.2,0.1
				c0.4,0,1-1,1-1.6c0-0.7-0.1-1.2-0.5-1.2c-0.1,0-0.1,0-0.2,0c0-1.8-0.5-4-3.2-4c-2.9,0-3.2,2.2-3.2,4c0,0-0.1,0-0.1,0
				c-0.4,0-0.5,0.5-0.5,1.2c0,0.7,0.5,1.6,1,1.6c0.1,0,0.1,0,0.2,0c0.3,0.6,0.7,1.2,1.1,1.7c0.1,0.1,0.2,0.2,0.2,0.4
				c0,0.4-0.3,0.7-0.7,0.7h-0.8c-1.7,0-3,1.4-3,3V20c0,0.5,0.4,1,1,1h10.1c0.5,0,1-0.4,1-1v-0.8C46.9,17.5,45.5,16.1,43.8,16.1
				L43.8,16.1z"/>
			<path class="st4" d="M52.9,7.8h-8.5c0.3,0.5,0.4,1.2,0.5,2c0.2,0.1,0.3,0.3,0.4,0.5h7.6c0.4,0,0.7-0.3,0.7-0.7V8.5
				C53.6,8.1,53.3,7.8,52.9,7.8L52.9,7.8z"/>
			<path class="st4" d="M52.9,12.4h-7.4c-0.2,0.8-0.7,1.6-1.4,1.8c0,0,0,0.1-0.1,0.1V15h8.9c0.4,0,0.7-0.3,0.7-0.7v-1.1
				C53.6,12.8,53.3,12.4,52.9,12.4L52.9,12.4z"/>
			<path class="st4" d="M52.9,17.1h-5.8c0.4,0.6,0.6,1.3,0.6,2.1v0.5h5.2c0.4,0,0.7-0.3,0.7-0.7v-1.1C53.6,17.4,53.3,17.1,52.9,17.1
				L52.9,17.1z"/>
			<path class="st4" d="M56,0.7H32.5c-2.4,0-4.4,2-4.4,4.4v17.3c0,2.4,2,4.4,4.4,4.4H56c2.4,0,4.4-2,4.4-4.4V5.1
				C60.4,2.7,58.4,0.7,56,0.7L56,0.7z M58.3,22.4c0,1.3-1,2.3-2.3,2.3H32.5c-1.3,0-2.3-1-2.3-2.3V5.1c0-1.3,1-2.3,2.3-2.3H56
				c1.3,0,2.3,1,2.3,2.3V22.4z"/>
		</g>
	</g>
</g>
<g>
	<g class="st2">
		<path class="st3" d="M50.3,46.2c0,0-0.5-0.7-1.7-1.2c0,0-0.1,0-0.3-0.1c-1.1-0.5-2.1-0.8-2.1-0.8c-0.2-0.1-0.4-0.1-0.6-0.2
			c-0.7-0.4-1.3-0.8-1.3-0.8l-0.6-0.6c1-1.1,1.8-2.5,2-3.9c0.2-0.2,0.4-0.5,0.4-1c0.1-0.5,0.3-1.5,0-1.9c0,0,0-0.1-0.1-0.1
			c0.3-1.1,0.7-3.4-0.7-5c-0.1-0.2-0.9-1.1-2.6-1.6l-0.8-0.3c-1.3-0.4-2.1-0.5-2.2-0.5c-0.1,0-0.1,0-0.2,0c0,0-0.2,0.1-0.3,0
			c-0.3,0-0.8,0.1-0.9,0.2c-0.1,0-2.6,1.1-3.4,3.4c-0.1,0.2-0.4,1.2,0,3.6c-0.1,0-0.1,0.1-0.2,0.2c-0.3,0.4-0.1,1.4,0,1.9
			c0.1,0.5,0.3,0.8,0.4,1c0.2,1.4,0.8,2.7,1.7,3.7c0,0,0.6,1.1,0.7,1.2c2,3,2.3,8.9,2.3,9.6v0.1c0,2.1-1.1,2.8-1.6,3
			c-0.3,0.1-0.6,0.2-0.8,0.3c0.1-0.2,0.3-0.6,0.3-1.2c0,0-0.2-8.6-1.9-11.2c0,0-0.5-0.7-1.7-1.1c0,0-0.1,0-0.2-0.1
			c-1-0.5-2-0.8-2-0.8c-0.2-0.1-0.4-0.2-0.6-0.2c-0.7-0.4-1.2-0.8-1.2-0.8l-0.6-0.6c1-1,1.7-2.4,1.9-3.7c0.2-0.2,0.4-0.5,0.4-0.9
			c0.1-0.5,0.3-1.4,0-1.8l0-0.1c0.3-1.1,0.7-3.3-0.7-4.8c-0.1-0.1-0.9-1-2.5-1.5l-0.8-0.3c-1.3-0.4-2-0.5-2.1-0.5s-0.1,0-0.2,0
			c-0.1,0-0.2,0.1-0.3,0c-0.3,0-0.7,0.1-0.8,0.1c-0.1,0-2.5,1-3.3,3.3c-0.1,0.2-0.4,1.1,0,3.5c-0.1,0-0.1,0.1-0.2,0.1
			c-0.3,0.4-0.1,1.3,0,1.8c0.1,0.5,0.2,0.7,0.4,0.9c0.2,1.3,0.8,2.6,1.6,3.5l-0.2,0.4v0l0,0.1c0,0,0,0,0,0l0,0
			c-0.3,1-4.3,2.2-4.3,2.2c-1.2,0.4-1.7,1.1-1.7,1.1c-1.7,2.6-1.9,11.2-1.9,11.2c0,0.6,0.1,1,0.3,1.2c-0.3-0.1-0.5-0.2-0.8-0.3
			c-0.6-0.2-1.6-1-1.6-3v-0.1c0-0.7,0.3-6.5,2.3-9.5c0.1-0.1,0.5-0.6,1.1-1.1v0c1-1.1,1.8-2.5,2-3.9c0.2-0.2,0.4-0.5,0.5-1
			c0.1-0.5,0.3-1.5,0-1.9c0,0,0-0.1-0.1-0.1c0.3-1.1,0.7-3.4-0.7-5c-0.1-0.2-0.9-1.1-2.5-1.6l-0.8-0.3c-1.3-0.4-2.1-0.5-2.2-0.5
			c-0.1,0-0.1,0-0.2,0c-0.1,0-0.2,0.1-0.3,0c-0.3,0-0.8,0.1-0.9,0.1c-0.1,0-2.7,1.1-3.4,3.4c-0.1,0.2-0.4,1.2,0,3.6
			c-0.1,0-0.1,0.1-0.2,0.2c-0.3,0.4-0.1,1.4,0,1.9c0.1,0.5,0.3,0.8,0.4,1c0.2,1.4,0.9,2.7,1.7,3.7l-0.2,0.4v0l0,0c0,0,0,0,0,0l0,0
			c-0.4,1.1-4.5,2.3-4.5,2.3c-1.2,0.5-1.7,1.2-1.7,1.2c-1.8,2.7-2,8.6-2,8.6c0,1.4,0.6,1.5,0.6,1.5C6.4,58.2,13,58.6,13,58.6
			c0.3,0,0.7,0,1,0v0c0,0,2.5-0.1,5.3-0.6c3.4,0.8,6.9,1,6.9,1c0.3,0,0.6,0,1,0l0,0c0,0,3.7-0.2,7.2-1.1c3,0.6,5.6,0.7,5.6,0.7
			c0.3,0,0.7,0,1,0v0c0,0,6.5-0.3,10.7-2.2c0,0,0.6-0.1,0.6-1.5C52.3,54.9,52.1,48.9,50.3,46.2L50.3,46.2z"/>
	</g>
	<g>
		<g>
			<path class="st4" d="M49.3,45.2c0,0-0.5-0.7-1.7-1.2c0,0-0.1,0-0.3-0.1c-1.1-0.5-2.1-0.8-2.1-0.8c-0.2-0.1-0.4-0.1-0.6-0.2
				c-0.7-0.4-1.3-0.8-1.3-0.8l-0.6-0.6c1-1.1,1.8-2.5,2-3.9c0.2-0.2,0.4-0.5,0.4-1c0.1-0.5,0.3-1.5,0-1.9c0,0,0-0.1-0.1-0.1
				c0.3-1.1,0.7-3.4-0.7-5c-0.1-0.2-0.9-1.1-2.6-1.6l-0.8-0.3c-1.3-0.4-2.1-0.5-2.2-0.5c-0.1,0-0.1,0-0.2,0c0,0-0.2,0.1-0.3,0
				c-0.3,0-0.8,0.1-0.9,0.2c-0.1,0-2.6,1.1-3.4,3.4c-0.1,0.2-0.4,1.2,0,3.6c-0.1,0-0.1,0.1-0.2,0.2c-0.3,0.4-0.1,1.4,0,1.9
				c0.1,0.5,0.3,0.8,0.4,1c0.2,1.4,0.8,2.7,1.7,3.7c0,0,0.6,1.1,0.7,1.2c2,3,2.3,8.9,2.3,9.6v0.1c0,2.1-1.1,2.8-1.6,3
				c-0.3,0.1-0.6,0.2-0.8,0.3c0.1-0.2,0.3-0.6,0.3-1.2c0,0-0.2-8.6-1.9-11.2c0,0-0.5-0.7-1.7-1.1c0,0-0.1,0-0.2-0.1
				c-1-0.5-2-0.8-2-0.8c-0.2-0.1-0.4-0.2-0.6-0.2c-0.7-0.4-1.2-0.8-1.2-0.8l-0.6-0.6c1-1,1.7-2.4,1.9-3.7c0.2-0.2,0.4-0.5,0.4-0.9
				c0.1-0.5,0.3-1.4,0-1.8l0-0.1c0.3-1.1,0.7-3.3-0.7-4.8c-0.1-0.1-0.9-1-2.5-1.5l-0.8-0.3c-1.3-0.4-2-0.5-2.1-0.5s-0.1,0-0.2,0
				c-0.1,0-0.2,0.1-0.3,0c-0.3,0-0.7,0.1-0.8,0.1c-0.1,0-2.5,1-3.3,3.3c-0.1,0.2-0.4,1.1,0,3.5c-0.1,0-0.1,0.1-0.2,0.1
				c-0.3,0.4-0.1,1.3,0,1.8c0.1,0.5,0.2,0.7,0.4,0.9c0.2,1.3,0.8,2.6,1.6,3.5l-0.2,0.4v0l0,0.1c0,0,0,0,0,0l0,0
				c-0.3,1-4.3,2.2-4.3,2.2c-1.2,0.4-1.7,1.1-1.7,1.1c-1.7,2.6-1.9,11.2-1.9,11.2c0,0.6,0.1,1,0.3,1.2c-0.3-0.1-0.5-0.2-0.8-0.3
				c-0.6-0.2-1.6-1-1.6-3v-0.1c0-0.7,0.3-6.5,2.3-9.5c0.1-0.1,0.5-0.6,1.1-1.1v0c1-1.1,1.8-2.5,2-3.9c0.2-0.2,0.4-0.5,0.5-1
				c0.1-0.5,0.3-1.5,0-1.9c0,0,0-0.1-0.1-0.1c0.3-1.1,0.7-3.4-0.7-5c-0.1-0.2-0.9-1.1-2.5-1.6l-0.8-0.3c-1.3-0.4-2.1-0.5-2.2-0.5
				c-0.1,0-0.1,0-0.2,0c-0.1,0-0.2,0.1-0.3,0c-0.3,0-0.8,0.1-0.9,0.1c-0.1,0-2.7,1.1-3.4,3.4c-0.1,0.2-0.4,1.2,0,3.6
				c-0.1,0-0.1,0.1-0.2,0.2c-0.3,0.4-0.1,1.4,0,1.9c0.1,0.5,0.3,0.8,0.4,1c0.2,1.4,0.9,2.7,1.7,3.7l-0.2,0.4v0l0,0c0,0,0,0,0,0l0,0
				c-0.4,1.1-4.5,2.3-4.5,2.3c-1.2,0.5-1.7,1.2-1.7,1.2c-1.8,2.7-2,8.6-2,8.6c0,1.4,0.6,1.5,0.6,1.5C5.4,57.2,12,57.6,12,57.6
				c0.3,0,0.7,0,1,0v0c0,0,2.5-0.1,5.3-0.6c3.4,0.8,6.9,1,6.9,1c0.3,0,0.6,0,1,0l0,0c0,0,3.7-0.2,7.2-1.1c3,0.6,5.6,0.7,5.6,0.7
				c0.3,0,0.7,0,1,0v0c0,0,6.5-0.3,10.7-2.2c0,0,0.6-0.1,0.6-1.5C51.3,53.9,51.1,47.9,49.3,45.2L49.3,45.2z"/>
		</g>
	</g>
</g>
</svg>
