<?xml version="1.0" encoding="utf-8"?>
<!-- Generator: Adobe Illustrator 25.1.0, SVG Export Plug-In . SVG Version: 6.00 Build 0)  -->
<svg version="1.1" id="レイヤー_1" xmlns="http://www.w3.org/2000/svg" xmlns:xlink="http://www.w3.org/1999/xlink" x="0px"
	 y="0px" viewBox="0 0 61 59" style="enable-background:new 0 0 61 59;" xml:space="preserve">
<style type="text/css">
	.st0{fill-rule:evenodd;clip-rule:evenodd;fill:#E8F9FF;}
	.st1{fill:#F2EDE0;}
	.st2{opacity:0.86;}
	.st3{fill:#C9C9C9;}
	.st4{fill:#E8F9FF;}
</style>
<g>
	<path class="st0" d="M27.9,106c-0.6-1.8-3.2-1.8-5.2-1.8c-1.9,0-4.5,1.8-5.8,2.9c0-0.6-1.3-1.2-1.9-1.8c-1.9-0.6-3.2-1.2-4.5-2.3
		c-2.6-1.8-7.1-2.9-10.3-2.9c-0.6,0-3.2,0.6-6.5,1.8c-1.3,0-3.2,0-3.9,0l0,0c0-0.6-0.6-0.6-1.3-0.6c-7.8,0-7.8,0-7.8,0
		c-0.6,0-0.6,0-0.6,0.6c0,14.6,0,14.6,0,14.6c0,0.6,0,1.2,0.6,1.2c7.8,0,7.8,0,7.8,0c0.6,0,1.3-0.6,1.3-1.2c0-2.9,0-2.9,0-2.9
		c2.6-0.6,5.8-0.6,7.1,0c3.2,1.2,11.6,4.1,13.6,4.1c1.3,0,4.5-1.8,8.4-3.5c1.3-0.6,1.3-0.6,1.3-0.6c2.6-1.2,5.2-4.1,7.1-5.3
		c0-0.6,0-0.6,0.6-0.6C28.6,107.1,28.6,106.5,27.9,106L27.9,106z M-12.2,115.9c-5.8,0-5.8,0-5.8,0c0-12.8,0-12.8,0-12.8
		c5.8,0,5.8,0,5.8,0l0,0c0,9.9,0,9.9,0,9.9V115.9L-12.2,115.9L-12.2,115.9z M25.3,107.1c-1.3,1.2-3.9,3.5-5.8,4.7
		c-1.3,0.6-1.3,0.6-1.3,0.6c-2.6,1.2-7.1,3.5-7.8,3.5c-1.3,0-9.1-2.3-12.3-4.1c-1.3,0-2.6-0.6-3.9-0.6c-1.8,0-3.8,0.6-4.4,0.6
		c0-8.2,0-8.2,0-8.2c0.6,0,2.6,0,4.5,0c3.2-1.2,5.2-1.8,6.5-1.8c1.9,0,5.8,0.6,8.4,2.9c1.3,0.6,3.2,1.8,4.5,2.3
		c0.6,0.6,1.3,0.6,1.9,1.2c-0.6,0.6-2.6,1.2-3.9,1.2c-1.3,0-4.5-1.2-6.5-2.3c-0.6-0.6-1.3,0-1.3,0c-0.6,0.6-0.6,1.2,0,1.2
		c0.6,0.6,5.2,2.9,7.8,2.9s5.2-1.8,5.8-2.3c1.3-1.2,3.9-2.9,5.2-2.9s2.6,0,3.2,0.6C26,106.5,26,106.5,25.3,107.1L25.3,107.1z"/>
</g>
<g>
	<g>
		<path class="st1" d="M125.7,119.3h-0.3V118c0-1.3-0.9-2.4-2.1-2.8v-1.2h1c0.3,0,0.5-0.1,0.6-0.3c0.1-0.2,0.2-0.5,0.1-0.7l-1.4-3.7
			c-0.1-0.3-0.4-0.5-0.7-0.5h-12.3c-0.3,0-0.6,0.2-0.7,0.5l-1.4,3.7c-0.1,0.2-0.1,0.5,0.1,0.7c0.1,0.2,0.4,0.3,0.6,0.3h1v11.2
			c0,0.4,0.4,0.8,0.8,0.8h14.6c0.4,0,0.8-0.4,0.8-0.8v-5.2C126.5,119.7,126.1,119.3,125.7,119.3L125.7,119.3z M123.9,118v1.3h-2.6
			V118c0-0.7,0.6-1.3,1.3-1.3S123.9,117.3,123.9,118L123.9,118z M111.2,110.4h11.3l0.8,2.1h-0.7h0h-11.5h0h-0.7L111.2,110.4z
			 M111.8,114.1h9.9v1.2c-1.2,0.3-2.1,1.5-2.1,2.8v1.3h-0.3c-0.4,0-0.8,0.4-0.8,0.8v4.4h-6.8V114.1z M124.9,124.5h-4.7v-3.7h4.7
			V124.5z"/>
	</g>
</g>
<g>
	<g class="st2">
		<path class="st3" d="M39.3,19.8H14.5c-1,0-1.7,0.8-1.7,1.7v15.7H4.4c-1,0-1.7,0.8-1.7,1.7v17.5c0,1,0.8,1.7,1.7,1.7h34.9
			c1,0,1.7-0.8,1.7-1.7V21.6C41.1,20.6,40.3,19.8,39.3,19.8L39.3,19.8z M16.2,23.3h21.4v12.7L31,32.4c-0.5-0.3-1.2-0.3-1.7,0
			l-8.8,4.9h-4.3V23.3z M6.2,40.8h13.1v14H6.2V40.8z M37.6,54.8H22.8V40.1l7.4-4.1l7.4,4.1L37.6,54.8L37.6,54.8z"/>
		<path class="st3" d="M11,43H8.4c-0.2,0-0.4,0.2-0.4,0.4V46c0,0.2,0.2,0.4,0.4,0.4H11c0.2,0,0.4-0.2,0.4-0.4v-2.6
			C11.4,43.2,11.2,43,11,43L11,43z"/>
		<path class="st3" d="M17.1,43h-2.6c-0.2,0-0.4,0.2-0.4,0.4V46c0,0.2,0.2,0.4,0.4,0.4h2.6c0.2,0,0.4-0.2,0.4-0.4v-2.6
			C17.5,43.2,17.3,43,17.1,43L17.1,43z"/>
		<path class="st3" d="M11,49.1H8.4c-0.2,0-0.4,0.2-0.4,0.4v2.6c0,0.2,0.2,0.4,0.4,0.4H11c0.2,0,0.4-0.2,0.4-0.4v-2.6
			C11.4,49.3,11.2,49.1,11,49.1L11,49.1z"/>
		<path class="st3" d="M17.1,49.1h-2.6c-0.2,0-0.4,0.2-0.4,0.4v2.6c0,0.2,0.2,0.4,0.4,0.4h2.6c0.2,0,0.4-0.2,0.4-0.4v-2.6
			C17.5,49.3,17.3,49.1,17.1,49.1L17.1,49.1z"/>
		<path class="st3" d="M28.4,43h-2.6c-0.2,0-0.4,0.2-0.4,0.4V46c0,0.2,0.2,0.4,0.4,0.4h2.6c0.2,0,0.4-0.2,0.4-0.4v-2.6
			C28.9,43.2,28.7,43,28.4,43L28.4,43z"/>
		<path class="st3" d="M31.9,46.5h2.6c0.2,0,0.4-0.2,0.4-0.4v-2.6c0-0.2-0.2-0.4-0.4-0.4h-2.6c-0.2,0-0.4,0.2-0.4,0.4V46
			C31.5,46.3,31.7,46.5,31.9,46.5L31.9,46.5z"/>
		<path class="st3" d="M28.4,49.1h-2.6c-0.2,0-0.4,0.2-0.4,0.4v2.6c0,0.2,0.2,0.4,0.4,0.4h2.6c0.2,0,0.4-0.2,0.4-0.4v-2.6
			C28.9,49.3,28.7,49.1,28.4,49.1L28.4,49.1z"/>
		<path class="st3" d="M31.9,52.6h2.6c0.2,0,0.4-0.2,0.4-0.4v-2.6c0-0.2-0.2-0.4-0.4-0.4h-2.6c-0.2,0-0.4,0.2-0.4,0.4v2.6
			C31.5,52.4,31.7,52.6,31.9,52.6L31.9,52.6z"/>
		<path class="st3" d="M19.7,29.6h2.6c0.2,0,0.4-0.2,0.4-0.4v-2.6c0-0.2-0.2-0.4-0.4-0.4h-2.6c-0.2,0-0.4,0.2-0.4,0.4v2.6
			C19.3,29.4,19.5,29.6,19.7,29.6L19.7,29.6z"/>
		<path class="st3" d="M25.8,29.6h2.6c0.2,0,0.4-0.2,0.4-0.4v-2.6c0-0.2-0.2-0.4-0.4-0.4h-2.6c-0.2,0-0.4,0.2-0.4,0.4v2.6
			C25.4,29.4,25.6,29.6,25.8,29.6L25.8,29.6z"/>
		<path class="st3" d="M22.3,35.7c0.2,0,0.4-0.2,0.4-0.4v-2.6c0-0.2-0.2-0.4-0.4-0.4h-2.6c-0.2,0-0.4,0.2-0.4,0.4v2.6
			c0,0.2,0.2,0.4,0.4,0.4H22.3z"/>
		<path class="st3" d="M31.9,29.6h2.6c0.2,0,0.4-0.2,0.4-0.4v-2.6c0-0.2-0.2-0.4-0.4-0.4h-2.6c-0.2,0-0.4,0.2-0.4,0.4v2.6
			C31.5,29.4,31.7,29.6,31.9,29.6L31.9,29.6z"/>
	</g>
	<g>
		<g>
			<path class="st4" d="M38.3,18.8H13.5c-1,0-1.7,0.8-1.7,1.7v15.7H3.4c-1,0-1.7,0.8-1.7,1.7v17.5c0,1,0.8,1.7,1.7,1.7h34.9
				c1,0,1.7-0.8,1.7-1.7V20.6C40.1,19.6,39.3,18.8,38.3,18.8L38.3,18.8z M15.2,22.3h21.4v12.7L30,31.4c-0.5-0.3-1.2-0.3-1.7,0
				l-8.8,4.9h-4.3V22.3z M5.2,39.8h13.1v14H5.2V39.8z M36.6,53.8H21.8V39.1l7.4-4.1l7.4,4.1L36.6,53.8L36.6,53.8z"/>
			<path class="st4" d="M10,42H7.4c-0.2,0-0.4,0.2-0.4,0.4V45c0,0.2,0.2,0.4,0.4,0.4H10c0.2,0,0.4-0.2,0.4-0.4v-2.6
				C10.4,42.2,10.2,42,10,42L10,42z"/>
			<path class="st4" d="M16.1,42h-2.6c-0.2,0-0.4,0.2-0.4,0.4V45c0,0.2,0.2,0.4,0.4,0.4h2.6c0.2,0,0.4-0.2,0.4-0.4v-2.6
				C16.5,42.2,16.3,42,16.1,42L16.1,42z"/>
			<path class="st4" d="M10,48.1H7.4c-0.2,0-0.4,0.2-0.4,0.4v2.6c0,0.2,0.2,0.4,0.4,0.4H10c0.2,0,0.4-0.2,0.4-0.4v-2.6
				C10.4,48.3,10.2,48.1,10,48.1L10,48.1z"/>
			<path class="st4" d="M16.1,48.1h-2.6c-0.2,0-0.4,0.2-0.4,0.4v2.6c0,0.2,0.2,0.4,0.4,0.4h2.6c0.2,0,0.4-0.2,0.4-0.4v-2.6
				C16.5,48.3,16.3,48.1,16.1,48.1L16.1,48.1z"/>
			<path class="st4" d="M27.4,42h-2.6c-0.2,0-0.4,0.2-0.4,0.4V45c0,0.2,0.2,0.4,0.4,0.4h2.6c0.2,0,0.4-0.2,0.4-0.4v-2.6
				C27.9,42.2,27.7,42,27.4,42L27.4,42z"/>
			<path class="st4" d="M30.9,45.5h2.6c0.2,0,0.4-0.2,0.4-0.4v-2.6c0-0.2-0.2-0.4-0.4-0.4h-2.6c-0.2,0-0.4,0.2-0.4,0.4V45
				C30.5,45.3,30.7,45.5,30.9,45.5L30.9,45.5z"/>
			<path class="st4" d="M27.4,48.1h-2.6c-0.2,0-0.4,0.2-0.4,0.4v2.6c0,0.2,0.2,0.4,0.4,0.4h2.6c0.2,0,0.4-0.2,0.4-0.4v-2.6
				C27.9,48.3,27.7,48.1,27.4,48.1L27.4,48.1z"/>
			<path class="st4" d="M30.9,51.6h2.6c0.2,0,0.4-0.2,0.4-0.4v-2.6c0-0.2-0.2-0.4-0.4-0.4h-2.6c-0.2,0-0.4,0.2-0.4,0.4v2.6
				C30.5,51.4,30.7,51.6,30.9,51.6L30.9,51.6z"/>
			<path class="st4" d="M18.7,28.6h2.6c0.2,0,0.4-0.2,0.4-0.4v-2.6c0-0.2-0.2-0.4-0.4-0.4h-2.6c-0.2,0-0.4,0.2-0.4,0.4v2.6
				C18.3,28.4,18.5,28.6,18.7,28.6L18.7,28.6z"/>
			<path class="st4" d="M24.8,28.6h2.6c0.2,0,0.4-0.2,0.4-0.4v-2.6c0-0.2-0.2-0.4-0.4-0.4h-2.6c-0.2,0-0.4,0.2-0.4,0.4v2.6
				C24.4,28.4,24.6,28.6,24.8,28.6L24.8,28.6z"/>
			<path class="st4" d="M21.3,34.7c0.2,0,0.4-0.2,0.4-0.4v-2.6c0-0.2-0.2-0.4-0.4-0.4h-2.6c-0.2,0-0.4,0.2-0.4,0.4v2.6
				c0,0.2,0.2,0.4,0.4,0.4H21.3z"/>
			<path class="st4" d="M30.9,28.6h2.6c0.2,0,0.4-0.2,0.4-0.4v-2.6c0-0.2-0.2-0.4-0.4-0.4h-2.6c-0.2,0-0.4,0.2-0.4,0.4v2.6
				C30.5,28.4,30.7,28.6,30.9,28.6L30.9,28.6z"/>
		</g>
	</g>
</g>
<g>
	<g class="st2">
		<path class="st3" d="M59.9,7.5L47.7,2.1c-0.4-0.2-0.8-0.2-1.2,0L34.2,7.5c-0.6,0.3-0.9,0.8-0.9,1.4v11.2c0,7.6,6.2,13.8,13.8,13.8
			c7.6,0,13.8-6.2,13.8-13.8V8.9C60.8,8.3,60.5,7.7,59.9,7.5L59.9,7.5z M47,30.8V18H36.3v-8L47,5.2V18h10.7v2.2
			C57.8,26,53,30.8,47,30.8L47,30.8z"/>
	</g>
	<g>
		<g>
			<path class="st4" d="M58.9,6.5L46.7,1.1c-0.4-0.2-0.8-0.2-1.2,0L33.2,6.5c-0.6,0.3-0.9,0.8-0.9,1.4v11.2
				c0,7.6,6.2,13.8,13.8,13.8c7.6,0,13.8-6.2,13.8-13.8V7.9C59.8,7.3,59.5,6.7,58.9,6.5L58.9,6.5z M46,29.8V17H35.3v-8L46,4.2V17
				h10.7v2.2C56.8,25,52,29.8,46,29.8L46,29.8z"/>
		</g>
	</g>
</g>
</svg>
