<?xml version="1.0" encoding="utf-8"?>
<!-- Generator: Adobe Illustrator 25.1.0, SVG Export Plug-In . SVG Version: 6.00 Build 0)  -->
<svg version="1.1" id="レイヤー_1" xmlns="http://www.w3.org/2000/svg" xmlns:xlink="http://www.w3.org/1999/xlink" x="0px"
	 y="0px" viewBox="0 0 76 11" style="enable-background:new 0 0 76 11;" xml:space="preserve">
<style type="text/css">
	.st0{enable-background:new    ;}
	.st1{fill:url(#SVGID_1_);}
	.st2{fill:url(#SVGID_2_);}
	.st3{fill:url(#SVGID_3_);}
	.st4{fill:url(#SVGID_4_);}
	.st5{fill:url(#SVGID_5_);}
	.st6{fill:url(#SVGID_6_);}
	.st7{fill:url(#SVGID_7_);}
	.st8{fill:url(#SVGID_8_);}
</style>
<g class="st0">
	
		<radialGradient id="SVGID_1_" cx="5.05" cy="6.3564" r="3.4312" gradientTransform="matrix(1 0 0 -1 0 12)" gradientUnits="userSpaceOnUse">
		<stop  offset="0" style="stop-color:#92ADCC"/>
		<stop  offset="0.5" style="stop-color:#7299BF"/>
		<stop  offset="1" style="stop-color:#2977A7"/>
	</radialGradient>
	<path class="st1" d="M7.1,2.6l0.3-0.7h0.3l0.2,2.9H7.6C7.4,4,7.1,3.4,6.8,3.1C6.4,2.6,5.9,2.2,5.3,2.2S4.2,2.6,3.8,3.1
		C3.5,3.5,3.2,4.5,3.2,5.8c0,1.1,0.2,2,0.7,2.4c0.3,0.5,1,0.7,1.6,0.7s1.1-0.2,1.5-0.5c0.3-0.3,0.7-1,0.8-1.6h0.3
		c0,0.8-0.3,1.5-0.8,2s-1.1,0.7-2,0.7c-0.7,0-1.1-0.2-1.6-0.5C3.2,8.7,2.9,8.3,2.5,7.6S2,6.5,2,5.7C2,5,2.2,4.2,2.5,3.5
		c0.3-0.7,0.7-1.1,1.1-1.5c0.5-0.3,1-0.5,1.6-0.5c0.3,0,0.7,0,1,0.2C6.4,2.1,6.8,2.2,7.1,2.6z"/>
	
		<radialGradient id="SVGID_2_" cx="12.471" cy="6.3564" r="3.5791" gradientTransform="matrix(1 0 0 -1 0 12)" gradientUnits="userSpaceOnUse">
		<stop  offset="0" style="stop-color:#92ADCC"/>
		<stop  offset="0.5" style="stop-color:#7299BF"/>
		<stop  offset="1" style="stop-color:#2977A7"/>
	</radialGradient>
	<path class="st2" d="M12.4,1.9c0.7,0,1.1,0.2,1.8,0.5c0.5,0.3,1,0.8,1.3,1.3c0.2,0.5,0.3,1.1,0.3,2c0,0.7-0.2,1.3-0.5,2
		c-0.3,0.7-0.7,1-1.3,1.3c-0.5,0.3-1.1,0.5-1.6,0.5c-0.7,0-1.1-0.2-1.6-0.5c-0.5-0.3-1-0.8-1.3-1.3C9.2,7,9,6.3,9,5.7s0.2-1.3,0.5-2
		c0.3-0.7,0.7-1,1.3-1.3C11.3,2.1,11.8,1.9,12.4,1.9z M12.4,2.2c-0.7,0-1.1,0.3-1.6,0.8c-0.3,0.5-0.7,1.5-0.7,2.6
		c0,1.3,0.2,2.1,0.7,2.8c0.3,0.5,1,0.8,1.5,0.8c0.5,0,0.8-0.2,1.1-0.3c0.3-0.2,0.7-0.7,0.8-1.1c0.2-0.5,0.3-1.1,0.3-2
		s-0.2-1.6-0.3-2.1c-0.2-0.5-0.5-0.8-0.8-1.1C13.1,2.2,12.9,2.2,12.4,2.2z"/>
	
		<radialGradient id="SVGID_3_" cx="20.5665" cy="6.3715" r="3.7049" gradientTransform="matrix(1 0 0 -1 0 12)" gradientUnits="userSpaceOnUse">
		<stop  offset="0" style="stop-color:#92ADCC"/>
		<stop  offset="0.5" style="stop-color:#7299BF"/>
		<stop  offset="1" style="stop-color:#2977A7"/>
	</radialGradient>
	<path class="st3" d="M16.8,2.1h1.8L23,7.8V3.5c0-0.5-0.2-0.7-0.3-1c-0.2-0.2-0.5-0.3-0.8-0.3V2.1h2.6v0.3c-0.3,0-0.5,0-0.7,0.2
		c-0.2,0-0.2,0.2-0.3,0.3c-0.2,0.2-0.2,0.3-0.2,0.7v5.7h-0.5l-4.6-5.9v4.4c0,0.3,0.2,0.7,0.3,0.8c0.2,0.2,0.5,0.3,1,0.3v0.3h-2.8
		V8.9c0.3,0,0.7-0.2,0.8-0.3C17.8,8.4,18,8.1,18,7.8V2.9l-0.2-0.2c-0.2-0.2-0.3-0.3-0.3-0.3c-0.2,0-0.2,0-0.3,0h-0.3
		C16.8,2.4,16.8,2.1,16.8,2.1z"/>
	
		<radialGradient id="SVGID_4_" cx="27.9135" cy="6.3715" r="3.3655" gradientTransform="matrix(1 0 0 -1 0 12)" gradientUnits="userSpaceOnUse">
		<stop  offset="0" style="stop-color:#92ADCC"/>
		<stop  offset="0.5" style="stop-color:#7299BF"/>
		<stop  offset="1" style="stop-color:#2977A7"/>
	</radialGradient>
	<path class="st4" d="M25,2.1h5.9L31,4.8h-0.3c-0.2-1.6-0.8-2.4-1.8-2.4c-0.2,0-0.3,0-0.3,0.2c0,0-0.2,0.2-0.2,0.3v5.9
		c0,0.2,0,0.2,0.2,0.3c0,0,0.2,0.2,0.3,0.2h0.7v0.3h-3.4V8.9h0.8c0.2,0,0.2,0,0.3-0.2s0.2-0.2,0.2-0.2V2.7c0-0.2,0-0.2-0.2-0.3
		c0,0-0.2-0.2-0.3-0.2c-0.5,0-0.8,0.2-1.1,0.7c-0.3,0.3-0.5,1-0.5,1.8H25V2.1z"/>
	
		<radialGradient id="SVGID_5_" cx="34.8885" cy="6.3351" r="3.5334" gradientTransform="matrix(1 0 0 -1 0 12)" gradientUnits="userSpaceOnUse">
		<stop  offset="0" style="stop-color:#92ADCC"/>
		<stop  offset="0.5" style="stop-color:#7299BF"/>
		<stop  offset="1" style="stop-color:#2977A7"/>
	</radialGradient>
	<path class="st5" d="M31.5,2.1h3.7c0.7,0,1.3,0.2,1.6,0.5s0.7,0.8,0.7,1.3c0,0.3,0,0.7-0.2,0.8C37.1,5,37,5.2,36.7,5.3
		c-0.3,0-0.8,0.2-1.5,0.2c0.5,0.2,0.8,0.3,1,0.3s0.3,0.3,0.5,0.5C36.8,6.5,36.8,7,37,7.4c0.2,0.5,0.2,0.7,0.3,0.8
		c0,0.3,0.2,0.5,0.2,0.5c0.2,0,0.2,0,0.3-0.2C38,8.4,38,8.1,38,7.8h0.3c0,1.1-0.5,1.6-1.3,1.6c-0.2,0-0.5,0-0.7-0.2S36,8.9,36,8.7
		s-0.2-0.7-0.2-1.5c0-0.5-0.2-0.8-0.2-1c-0.2-0.2-0.3-0.3-0.5-0.5c-0.2-0.2-0.5-0.2-0.8-0.2h-0.7v2.9v0.2c0,0,0.2,0.2,0.3,0.2h0.7
		v0.3h-3.4V8.9h0.7c0.2,0,0.3,0,0.3-0.2c0,0,0.2-0.2,0.2-0.3V2.7c0-0.2,0-0.2-0.2-0.3s-0.2-0.2-0.3-0.2h-0.7V2.1H31.5z M33.7,5.3
		h0.8c0.7,0,1-0.2,1.3-0.3c0.3-0.2,0.5-0.7,0.5-1.1c0-0.3,0-0.7-0.2-1c-0.2-0.2-0.3-0.3-0.5-0.5S35,2.2,34.5,2.2c-0.3,0-0.7,0-0.7,0
		c-0.2,0.3-0.2,0.3-0.2,0.5V5.3z"/>
	
		<radialGradient id="SVGID_6_" cx="42.0812" cy="6.4469" r="3.6904" gradientTransform="matrix(1 0 0 -1 0 12)" gradientUnits="userSpaceOnUse">
		<stop  offset="0" style="stop-color:#92ADCC"/>
		<stop  offset="0.5" style="stop-color:#7299BF"/>
		<stop  offset="1" style="stop-color:#2977A7"/>
	</radialGradient>
	<path class="st6" d="M42,1.9h0.3l2.6,6.7c0.2,0.3,0.3,0.3,0.7,0.3h0.2v0.3h-2.9V8.9H43c0.3,0,0.5,0,0.7-0.2c0.2,0,0.2-0.2,0.2-0.2
		V8.4L43.2,7h-2.9l-0.3,0.8c-0.2,0.2-0.2,0.5-0.2,0.5c0,0.2,0,0.3,0.2,0.5c0.2,0.2,0.3,0.2,0.7,0.2h0.3v0.3h-2.6V8.9
		c0.3,0,0.5,0,0.7-0.2c0.2-0.2,0.3-0.3,0.5-0.7L42,1.9z M41.9,3.2l-1.3,3.3h2.6L41.9,3.2z"/>
	
		<radialGradient id="SVGID_7_" cx="49.4373" cy="6.3564" r="3.4296" gradientTransform="matrix(1 0 0 -1 0 12)" gradientUnits="userSpaceOnUse">
		<stop  offset="0" style="stop-color:#92ADCC"/>
		<stop  offset="0.5" style="stop-color:#7299BF"/>
		<stop  offset="1" style="stop-color:#2977A7"/>
	</radialGradient>
	<path class="st7" d="M51.4,2.6l0.3-0.7h0.3l0.2,2.9h-0.3c-0.2-0.8-0.5-1.5-0.8-1.8c-0.3-0.5-0.8-0.8-1.5-0.8
		c-0.7,0-1.1,0.3-1.5,0.8c-0.3,0.5-0.7,1.5-0.7,2.8c0,1.1,0.2,2,0.7,2.4c0.3,0.5,0.8,0.7,1.6,0.7c0.7,0,1.1-0.2,1.5-0.5
		c0.3-0.3,0.7-1,0.8-1.6h0.3c0,0.8-0.3,1.5-0.8,2s-1.1,0.7-1.8,0.7c-0.7,0-1.1-0.2-1.6-0.5s-1-0.8-1.1-1.3c-0.2-0.5-0.5-1.1-0.5-2
		c0-0.7,0.2-1.5,0.5-2.1c0.3-0.7,0.7-1.1,1.1-1.5s1-0.5,1.6-0.5c0.3,0,0.7,0,1,0.2C50.8,2.1,51.1,2.2,51.4,2.6z"/>
	
		<radialGradient id="SVGID_8_" cx="56.3237" cy="6.3715" r="3.3662" gradientTransform="matrix(1 0 0 -1 0 12)" gradientUnits="userSpaceOnUse">
		<stop  offset="0" style="stop-color:#92ADCC"/>
		<stop  offset="0.5" style="stop-color:#7299BF"/>
		<stop  offset="1" style="stop-color:#2977A7"/>
	</radialGradient>
	<path class="st8" d="M53.4,2.1h5.9l0.2,2.8h-0.3c-0.2-1.6-0.8-2.4-1.8-2.4c-0.2,0-0.3,0-0.3,0.2c0,0-0.2,0.2-0.2,0.3v5.9
		c0,0.2,0,0.2,0.2,0.3c0,0,0.2,0.2,0.3,0.2h0.7v0.3h-3.4V8.9h0.8c0.2,0,0.2,0,0.3-0.2c0.2-0.2,0.2-0.2,0.2-0.2V2.7
		c0-0.2,0-0.2-0.2-0.3c-0.2-0.2-0.2-0.2-0.3-0.2c-0.5,0-0.8,0.2-1.1,0.7c-0.3,0.3-0.5,1-0.5,1.8h-0.5L53.4,2.1z"/>
</g>
</svg>
