<?xml version="1.0" encoding="utf-8"?>
<!-- Generator: Adobe Illustrator 25.1.0, SVG Export Plug-In . SVG Version: 6.00 Build 0)  -->
<svg version="1.1" id="レイヤー_1" xmlns="http://www.w3.org/2000/svg" xmlns:xlink="http://www.w3.org/1999/xlink" x="0px"
	 y="0px" viewBox="0 0 76 11" style="enable-background:new 0 0 76 11;" xml:space="preserve">
<style type="text/css">
	.st0{enable-background:new    ;}
	.st1{fill:url(#SVGID_1_);}
	.st2{fill:url(#SVGID_2_);}
	.st3{fill:url(#SVGID_3_);}
	.st4{fill:url(#SVGID_4_);}
	.st5{fill:url(#SVGID_5_);}
	.st6{fill:url(#SVGID_6_);}
	.st7{fill:url(#SVGID_7_);}
	.st8{fill:url(#SVGID_8_);}
</style>
<g class="st0">
	<radialGradient id="SVGID_1_" cx="22.3523" cy="3.0938" r="2.1104" gradientUnits="userSpaceOnUse">
		<stop  offset="0" style="stop-color:#92ADCC"/>
		<stop  offset="0.5" style="stop-color:#7299BF"/>
		<stop  offset="1" style="stop-color:#2977A7"/>
	</radialGradient>
	<path class="st1" d="M23.6,1.2l0.2-0.4H24l0.1,1.8h-0.2c-0.1-0.5-0.3-0.9-0.5-1.1C23.2,1.2,22.9,1,22.5,1c-0.4,0-0.7,0.2-0.9,0.5
		c-0.2,0.3-0.4,0.9-0.4,1.7c0,0.7,0.1,1.2,0.4,1.5c0.2,0.3,0.6,0.4,1,0.4c0.4,0,0.7-0.1,0.9-0.3c0.2-0.2,0.4-0.6,0.5-1h0.2
		C24.2,4.3,24,4.7,23.7,5S23,5.4,22.5,5.4c-0.4,0-0.7-0.1-1-0.3C21.2,5,21,4.7,20.8,4.3c-0.2-0.4-0.3-0.7-0.3-1.2
		c0-0.4,0.1-0.9,0.3-1.3c0.2-0.4,0.4-0.7,0.7-0.9c0.3-0.2,0.6-0.3,1-0.3c0.2,0,0.4,0,0.6,0.1C23.2,0.9,23.4,1,23.6,1.2z"/>
	<radialGradient id="SVGID_2_" cx="26.9163" cy="3.0938" r="2.2023" gradientUnits="userSpaceOnUse">
		<stop  offset="0" style="stop-color:#92ADCC"/>
		<stop  offset="0.5" style="stop-color:#7299BF"/>
		<stop  offset="1" style="stop-color:#2977A7"/>
	</radialGradient>
	<path class="st2" d="M26.9,0.8c0.4,0,0.7,0.1,1.1,0.3c0.3,0.2,0.6,0.5,0.8,0.8C28.9,2.2,29,2.6,29,3.1c0,0.4-0.1,0.8-0.3,1.2
		c-0.2,0.4-0.4,0.6-0.8,0.8c-0.3,0.2-0.7,0.3-1,0.3c-0.4,0-0.7-0.1-1-0.3c-0.3-0.2-0.6-0.5-0.8-0.8c-0.2-0.4-0.3-0.8-0.3-1.2
		c0-0.4,0.1-0.8,0.3-1.2c0.2-0.4,0.4-0.6,0.8-0.8C26.2,0.9,26.5,0.8,26.9,0.8z M26.9,1c-0.4,0-0.7,0.2-1,0.5
		c-0.2,0.3-0.4,0.9-0.4,1.6c0,0.8,0.1,1.3,0.4,1.7c0.2,0.3,0.6,0.5,0.9,0.5c0.3,0,0.5-0.1,0.7-0.2c0.2-0.1,0.4-0.4,0.5-0.7
		c0.1-0.3,0.2-0.7,0.2-1.2c0-0.5-0.1-1-0.2-1.3c-0.1-0.3-0.3-0.5-0.5-0.7S27.2,1,26.9,1z"/>
	<radialGradient id="SVGID_3_" cx="31.8977" cy="3.0845" r="2.2797" gradientUnits="userSpaceOnUse">
		<stop  offset="0" style="stop-color:#92ADCC"/>
		<stop  offset="0.5" style="stop-color:#7299BF"/>
		<stop  offset="1" style="stop-color:#2977A7"/>
	</radialGradient>
	<path class="st3" d="M29.6,0.9h1.1l2.7,3.5V1.8c0-0.3-0.1-0.4-0.2-0.6c-0.1-0.1-0.3-0.2-0.5-0.2V0.9h1.6v0.2c-0.2,0-0.3,0-0.4,0.1
		c-0.1,0-0.1,0.1-0.2,0.2c-0.1,0.1-0.1,0.2-0.1,0.4v3.5h-0.3l-2.8-3.6v2.7c0,0.2,0.1,0.4,0.2,0.5C30.8,5,31,5.1,31.3,5.1v0.2h-1.7
		V5.1c0.2,0,0.4-0.1,0.5-0.2c0.1-0.1,0.2-0.3,0.2-0.5v-3l-0.1-0.1C30.1,1.2,30,1.1,30,1.1c-0.1,0-0.1,0-0.2,0h-0.2V0.9z"/>
	<radialGradient id="SVGID_4_" cx="36.4185" cy="3.0845" r="2.0709" gradientUnits="userSpaceOnUse">
		<stop  offset="0" style="stop-color:#92ADCC"/>
		<stop  offset="0.5" style="stop-color:#7299BF"/>
		<stop  offset="1" style="stop-color:#2977A7"/>
	</radialGradient>
	<path class="st4" d="M34.6,0.9h3.6l0.1,1.7h-0.2c-0.1-1-0.5-1.5-1.1-1.5c-0.1,0-0.2,0-0.2,0.1c0,0-0.1,0.1-0.1,0.2v3.6
		c0,0.1,0,0.1,0.1,0.2c0,0,0.1,0.1,0.2,0.1h0.4v0.2h-2.1V5.1h0.5c0.1,0,0.1,0,0.2-0.1s0.1-0.1,0.1-0.1V1.3c0-0.1,0-0.1-0.1-0.2
		c0,0-0.1-0.1-0.2-0.1c-0.3,0-0.5,0.1-0.7,0.4c-0.2,0.2-0.3,0.6-0.3,1.1h-0.2L34.6,0.9z"/>
	<radialGradient id="SVGID_5_" cx="40.7104" cy="3.1069" r="2.1742" gradientUnits="userSpaceOnUse">
		<stop  offset="0" style="stop-color:#92ADCC"/>
		<stop  offset="0.5" style="stop-color:#7299BF"/>
		<stop  offset="1" style="stop-color:#2977A7"/>
	</radialGradient>
	<path class="st5" d="M38.6,0.9h2.3c0.4,0,0.8,0.1,1,0.3s0.4,0.5,0.4,0.8c0,0.2,0,0.4-0.1,0.5c-0.1,0.2-0.2,0.3-0.4,0.4
		C41.6,2.9,41.3,3,40.9,3c0.3,0.1,0.5,0.2,0.6,0.2s0.2,0.2,0.3,0.3c0.1,0.1,0.1,0.4,0.2,0.7c0.1,0.3,0.1,0.4,0.2,0.5
		C42.2,4.9,42.3,5,42.3,5c0.1,0,0.1,0,0.2-0.1c0.1-0.1,0.1-0.3,0.1-0.5h0.2c0,0.7-0.3,1-0.8,1c-0.1,0-0.3,0-0.4-0.1
		s-0.2-0.2-0.2-0.3c0-0.1-0.1-0.4-0.1-0.9c0-0.3-0.1-0.5-0.1-0.6c-0.1-0.1-0.2-0.2-0.3-0.3s-0.3-0.1-0.5-0.1H40v1.8
		C40,4.9,40,5,40,5c0,0,0.1,0.1,0.2,0.1h0.4v0.2h-2.1V5.1h0.4c0.1,0,0.2,0,0.2-0.1c0,0,0.1-0.1,0.1-0.2V1.3c0-0.1,0-0.1-0.1-0.2
		s-0.1-0.1-0.2-0.1h-0.4V0.9z M40,2.9h0.5c0.4,0,0.6-0.1,0.8-0.2c0.2-0.1,0.3-0.4,0.3-0.7c0-0.2,0-0.4-0.1-0.6
		c-0.1-0.1-0.2-0.2-0.3-0.3c-0.1-0.1-0.4-0.1-0.7-0.1c-0.2,0-0.4,0-0.4,0C40,1.2,40,1.2,40,1.3V2.9z"/>
	<radialGradient id="SVGID_6_" cx="45.1362" cy="3.0381" r="2.2708" gradientUnits="userSpaceOnUse">
		<stop  offset="0" style="stop-color:#92ADCC"/>
		<stop  offset="0.5" style="stop-color:#7299BF"/>
		<stop  offset="1" style="stop-color:#2977A7"/>
	</radialGradient>
	<path class="st6" d="M45.1,0.8h0.2l1.6,4.1c0.1,0.2,0.2,0.2,0.4,0.2h0.1v0.2h-1.8V5.1h0.1c0.2,0,0.3,0,0.4-0.1
		c0.1,0,0.1-0.1,0.1-0.1c0,0,0-0.1,0-0.1l-0.4-0.9h-1.8l-0.2,0.5c-0.1,0.1-0.1,0.3-0.1,0.3c0,0.1,0,0.2,0.1,0.3
		c0.1,0.1,0.2,0.1,0.4,0.1h0.2v0.2h-1.6V5.1c0.2,0,0.3,0,0.4-0.1c0.1-0.1,0.2-0.2,0.3-0.4L45.1,0.8z M45,1.6l-0.8,2h1.6L45,1.6z"/>
	<radialGradient id="SVGID_7_" cx="49.6626" cy="3.0938" r="2.1103" gradientUnits="userSpaceOnUse">
		<stop  offset="0" style="stop-color:#92ADCC"/>
		<stop  offset="0.5" style="stop-color:#7299BF"/>
		<stop  offset="1" style="stop-color:#2977A7"/>
	</radialGradient>
	<path class="st7" d="M50.9,1.2l0.2-0.4h0.2l0.1,1.8h-0.2c-0.1-0.5-0.3-0.9-0.5-1.1C50.5,1.2,50.2,1,49.8,1c-0.4,0-0.7,0.2-0.9,0.5
		c-0.2,0.3-0.4,0.9-0.4,1.7c0,0.7,0.1,1.2,0.4,1.5c0.2,0.3,0.5,0.4,1,0.4c0.4,0,0.7-0.1,0.9-0.3c0.2-0.2,0.4-0.6,0.5-1h0.2
		C51.5,4.3,51.3,4.7,51,5c-0.3,0.3-0.7,0.4-1.1,0.4c-0.4,0-0.7-0.1-1-0.3c-0.3-0.2-0.6-0.5-0.7-0.8s-0.3-0.7-0.3-1.2
		c0-0.4,0.1-0.9,0.3-1.3c0.2-0.4,0.4-0.7,0.7-0.9c0.3-0.2,0.6-0.3,1-0.3c0.2,0,0.4,0,0.6,0.1C50.5,0.9,50.7,1,50.9,1.2z"/>
	<radialGradient id="SVGID_8_" cx="53.9009" cy="3.0845" r="2.0709" gradientUnits="userSpaceOnUse">
		<stop  offset="0" style="stop-color:#92ADCC"/>
		<stop  offset="0.5" style="stop-color:#7299BF"/>
		<stop  offset="1" style="stop-color:#2977A7"/>
	</radialGradient>
	<path class="st8" d="M52.1,0.9h3.6l0.1,1.7h-0.2c-0.1-1-0.5-1.5-1.1-1.5c-0.1,0-0.2,0-0.2,0.1c0,0-0.1,0.1-0.1,0.2v3.6
		c0,0.1,0,0.1,0.1,0.2c0,0,0.1,0.1,0.2,0.1h0.4v0.2h-2.1V5.1h0.5c0.1,0,0.1,0,0.2-0.1s0.1-0.1,0.1-0.1V1.3c0-0.1,0-0.1-0.1-0.2
		s-0.1-0.1-0.2-0.1c-0.3,0-0.5,0.1-0.7,0.4c-0.2,0.2-0.3,0.6-0.3,1.1H52L52.1,0.9z"/>
</g>
</svg>
