<?xml version="1.0" encoding="utf-8"?>
<!-- Generator: Adobe Illustrator 25.1.0, SVG Export Plug-In . SVG Version: 6.00 Build 0)  -->
<svg version="1.1" id="レイヤー_1" xmlns="http://www.w3.org/2000/svg" xmlns:xlink="http://www.w3.org/1999/xlink" x="0px"
	 y="0px" viewBox="0 0 76 11" style="enable-background:new 0 0 76 11;" xml:space="preserve">
<style type="text/css">
	.st0{enable-background:new    ;}
	.st1{fill:url(#SVGID_1_);}
	.st2{fill:url(#SVGID_2_);}
	.st3{fill:url(#SVGID_3_);}
	.st4{fill:url(#SVGID_4_);}
	.st5{fill:url(#SVGID_5_);}
	.st6{fill:url(#SVGID_6_);}
	.st7{fill:url(#SVGID_7_);}
	.st8{fill:url(#SVGID_8_);}
	.st9{fill:url(#SVGID_9_);}
	.st10{fill:url(#SVGID_10_);}
</style>
<g class="st0">
	<radialGradient id="SVGID_1_" cx="16.8997" cy="3.2468" r="1.7343" gradientUnits="userSpaceOnUse">
		<stop  offset="0" style="stop-color:#92ADCC"/>
		<stop  offset="0.5" style="stop-color:#7299BF"/>
		<stop  offset="1" style="stop-color:#2977A7"/>
	</radialGradient>
	<path class="st1" d="M15.9,1h2.1v0.2h-0.4c-0.2,0-0.3,0-0.3,0.1c0,0-0.1,0.1-0.1,0.2v3.4c0,0.1,0,0.2,0.1,0.3c0,0,0.1,0.1,0.3,0.1
		h0.4v0.2h-2.1V5.2h0.4c0.1,0,0.2,0,0.3-0.1c0,0,0.1-0.1,0.1-0.3V1.6c0-0.1,0-0.2-0.1-0.2c-0.1,0-0.2-0.1-0.3-0.1h-0.3V1z"/>
	<radialGradient id="SVGID_2_" cx="21.4231" cy="3.2468" r="2.2791" gradientUnits="userSpaceOnUse">
		<stop  offset="0" style="stop-color:#92ADCC"/>
		<stop  offset="0.5" style="stop-color:#7299BF"/>
		<stop  offset="1" style="stop-color:#2977A7"/>
	</radialGradient>
	<path class="st2" d="M19.1,1h1.1l2.7,3.5V2c0-0.3-0.1-0.4-0.2-0.6c-0.1-0.1-0.3-0.2-0.5-0.2V1h1.6v0.2c-0.2,0-0.3,0-0.4,0.1
		c-0.1,0-0.1,0.1-0.2,0.2c-0.1,0.1-0.1,0.2-0.1,0.4v3.5h-0.3L20,1.8v2.7c0,0.2,0.1,0.4,0.2,0.5s0.3,0.2,0.6,0.2v0.2h-1.7V5.2
		c0.2,0,0.4-0.1,0.5-0.2s0.2-0.3,0.2-0.5v-3l-0.1-0.1c-0.1-0.1-0.2-0.2-0.2-0.2c-0.1,0-0.1,0-0.2,0h-0.2V1z"/>
	<radialGradient id="SVGID_3_" cx="26.773" cy="3.2995" r="2.2643" gradientUnits="userSpaceOnUse">
		<stop  offset="0" style="stop-color:#92ADCC"/>
		<stop  offset="0.5" style="stop-color:#7299BF"/>
		<stop  offset="1" style="stop-color:#2977A7"/>
	</radialGradient>
	<path class="st3" d="M24.5,1h1.9v0.2h-0.3c-0.1,0-0.2,0-0.3,0s-0.1,0.1-0.1,0.1c0,0,0,0.1,0.1,0.2l0,0.1l1.2,3l1-2.8
		c0-0.1,0-0.1,0-0.2c0-0.1,0-0.2-0.1-0.3c-0.1-0.1-0.2-0.1-0.3-0.1h-0.3V1H29v0.2h-0.1c-0.1,0-0.2,0-0.3,0.1
		c-0.1,0.1-0.2,0.3-0.3,0.5l-1.4,3.7h-0.2l-1.6-4C25.1,1.5,25,1.4,25,1.3c-0.1-0.1-0.2-0.1-0.3-0.1h-0.1V1z"/>
	<radialGradient id="SVGID_4_" cx="31.9685" cy="3.2468" r="2.0579" gradientUnits="userSpaceOnUse">
		<stop  offset="0" style="stop-color:#92ADCC"/>
		<stop  offset="0.5" style="stop-color:#7299BF"/>
		<stop  offset="1" style="stop-color:#2977A7"/>
	</radialGradient>
	<path class="st4" d="M30.1,1h3.5l0.1,1.5h-0.2c-0.1-0.5-0.2-0.8-0.4-1c-0.2-0.2-0.4-0.3-0.7-0.3h-0.9c-0.1,0-0.1,0-0.2,0.1
		s-0.1,0.1-0.1,0.2v1.6h0.4c0.2,0,0.4-0.1,0.5-0.2c0.1-0.1,0.2-0.4,0.2-0.7h0.2v2.1h-0.2c0-0.3-0.1-0.6-0.2-0.7
		c-0.1-0.1-0.3-0.2-0.5-0.2h-0.3V5c0,0.1,0,0.1,0.1,0.1c0,0,0.1,0.1,0.2,0.1h0.7c0.7,0,1.2-0.5,1.3-1.4h0.2l-0.1,1.7h-3.7V5.2h0.3
		c0.1,0,0.2,0,0.3-0.1c0,0,0.1-0.1,0.1-0.2V1.5c0-0.1,0-0.1-0.1-0.2s-0.1-0.1-0.2-0.1h-0.4V1z"/>
	<radialGradient id="SVGID_5_" cx="36.8347" cy="3.2424" r="1.9921" gradientUnits="userSpaceOnUse">
		<stop  offset="0" style="stop-color:#92ADCC"/>
		<stop  offset="0.5" style="stop-color:#7299BF"/>
		<stop  offset="1" style="stop-color:#2977A7"/>
	</radialGradient>
	<path class="st5" d="M37.7,1.4L38,1h0.2l0,1.6H38c-0.1-0.5-0.3-0.9-0.6-1.1s-0.5-0.3-0.8-0.3c-0.3,0-0.5,0.1-0.7,0.2
		c-0.2,0.2-0.3,0.4-0.3,0.6c0,0.1,0,0.3,0.1,0.4c0.1,0.1,0.2,0.2,0.3,0.3s0.4,0.1,0.7,0.2c0.5,0.1,0.8,0.2,1,0.3
		c0.2,0.1,0.3,0.2,0.4,0.4c0.1,0.2,0.1,0.4,0.1,0.6c0,0.4-0.1,0.7-0.4,1c-0.3,0.3-0.6,0.4-1,0.4c-0.5,0-0.9-0.1-1.2-0.4l-0.3,0.4
		h-0.2V3.8h0.2c0.1,0.5,0.3,0.9,0.6,1.1c0.3,0.3,0.6,0.4,1,0.4c0.3,0,0.5-0.1,0.7-0.3C37.9,4.9,38,4.7,38,4.4c0-0.1,0-0.3-0.1-0.4
		s-0.2-0.2-0.3-0.3c-0.2-0.1-0.5-0.2-0.9-0.3c-0.5-0.1-0.8-0.2-1-0.4c-0.3-0.2-0.4-0.5-0.4-0.9c0-0.4,0.1-0.7,0.4-1s0.6-0.4,1-0.4
		c0.2,0,0.4,0,0.5,0.1C37.3,1.1,37.5,1.2,37.7,1.4z"/>
	<radialGradient id="SVGID_6_" cx="41.4754" cy="3.2468" r="2.0702" gradientUnits="userSpaceOnUse">
		<stop  offset="0" style="stop-color:#92ADCC"/>
		<stop  offset="0.5" style="stop-color:#7299BF"/>
		<stop  offset="1" style="stop-color:#2977A7"/>
	</radialGradient>
	<path class="st6" d="M39.7,1h3.6l0.1,1.7h-0.2c-0.1-1-0.5-1.5-1.1-1.5c-0.1,0-0.2,0-0.2,0.1c0,0-0.1,0.1-0.1,0.2V5
		c0,0.1,0,0.1,0.1,0.2c0,0,0.1,0.1,0.2,0.1h0.4v0.2h-2.1V5.2H41c0.1,0,0.1,0,0.2-0.1c0,0,0.1-0.1,0.1-0.1V1.5c0-0.1,0-0.1-0.1-0.2
		c0,0-0.1-0.1-0.2-0.1c-0.3,0-0.5,0.1-0.7,0.4c-0.2,0.2-0.3,0.6-0.3,1.1h-0.2L39.7,1z"/>
	<radialGradient id="SVGID_7_" cx="47.0806" cy="3.2468" r="2.5179" gradientUnits="userSpaceOnUse">
		<stop  offset="0" style="stop-color:#92ADCC"/>
		<stop  offset="0.5" style="stop-color:#7299BF"/>
		<stop  offset="1" style="stop-color:#2977A7"/>
	</radialGradient>
	<path class="st7" d="M44.3,1h1.5l1.3,3.5L48.3,1h1.5v0.2h-0.4c-0.1,0-0.2,0-0.3,0.1s-0.1,0.1-0.1,0.2V5c0,0.1,0,0.1,0.1,0.2
		c0.1,0,0.1,0.1,0.3,0.1h0.3v0.2h-2V5.2h0.4c0.1,0,0.2,0,0.2-0.1c0.1,0,0.1-0.1,0.1-0.2V1.2L47,5.5h-0.2l-1.6-4.2v3.2
		c0,0.2,0,0.3,0.1,0.4c0,0.1,0.1,0.2,0.2,0.2c0.1,0.1,0.2,0.1,0.4,0.1v0.2h-1.7V5.2c0.3,0,0.5-0.1,0.6-0.2C45,5,45,4.8,45,4.5V1.5
		c0-0.1,0-0.1-0.1-0.2c0,0-0.1-0.1-0.3-0.1h-0.4V1z"/>
	<radialGradient id="SVGID_8_" cx="52.9834" cy="3.2468" r="2.058" gradientUnits="userSpaceOnUse">
		<stop  offset="0" style="stop-color:#92ADCC"/>
		<stop  offset="0.5" style="stop-color:#7299BF"/>
		<stop  offset="1" style="stop-color:#2977A7"/>
	</radialGradient>
	<path class="st8" d="M51.1,1h3.5l0.1,1.5h-0.2c-0.1-0.5-0.2-0.8-0.4-1c-0.2-0.2-0.4-0.3-0.7-0.3h-0.9c-0.1,0-0.1,0-0.2,0.1
		s-0.1,0.1-0.1,0.2v1.6h0.4c0.2,0,0.4-0.1,0.5-0.2c0.1-0.1,0.2-0.4,0.2-0.7h0.2v2.1h-0.2c0-0.3-0.1-0.6-0.2-0.7
		c-0.1-0.1-0.3-0.2-0.5-0.2h-0.3V5c0,0.1,0,0.1,0.1,0.1c0,0,0.1,0.1,0.2,0.1h0.7c0.7,0,1.2-0.5,1.3-1.4h0.2l-0.1,1.7h-3.7V5.2h0.3
		c0.1,0,0.2,0,0.3-0.1c0,0,0.1-0.1,0.1-0.2V1.5c0-0.1,0-0.1-0.1-0.2s-0.1-0.1-0.2-0.1h-0.4V1z"/>
	<radialGradient id="SVGID_9_" cx="58.4278" cy="3.2468" r="2.279" gradientUnits="userSpaceOnUse">
		<stop  offset="0" style="stop-color:#92ADCC"/>
		<stop  offset="0.5" style="stop-color:#7299BF"/>
		<stop  offset="1" style="stop-color:#2977A7"/>
	</radialGradient>
	<path class="st9" d="M56.1,1h1.1l2.7,3.5V2c0-0.3-0.1-0.4-0.2-0.6c-0.1-0.1-0.3-0.2-0.5-0.2V1h1.6v0.2c-0.2,0-0.3,0-0.4,0.1
		c-0.1,0-0.1,0.1-0.2,0.2c-0.1,0.1-0.1,0.2-0.1,0.4v3.5h-0.3L57,1.8v2.7c0,0.2,0.1,0.4,0.2,0.5c0.1,0.1,0.3,0.2,0.6,0.2v0.2h-1.7
		V5.2c0.2,0,0.4-0.1,0.5-0.2c0.1-0.1,0.2-0.3,0.2-0.5v-3l-0.1-0.1c-0.1-0.1-0.2-0.2-0.2-0.2c-0.1,0-0.1,0-0.2,0h-0.2V1z"/>
	<radialGradient id="SVGID_10_" cx="63.6323" cy="3.2468" r="2.0703" gradientUnits="userSpaceOnUse">
		<stop  offset="0" style="stop-color:#92ADCC"/>
		<stop  offset="0.5" style="stop-color:#7299BF"/>
		<stop  offset="1" style="stop-color:#2977A7"/>
	</radialGradient>
	<path class="st10" d="M61.8,1h3.6l0.1,1.7h-0.2c-0.1-1-0.5-1.5-1.1-1.5c-0.1,0-0.2,0-0.2,0.1c0,0-0.1,0.1-0.1,0.2V5
		c0,0.1,0,0.1,0.1,0.2c0,0,0.1,0.1,0.2,0.1h0.4v0.2h-2.1V5.2h0.5c0.1,0,0.1,0,0.2-0.1c0,0,0.1-0.1,0.1-0.1V1.5c0-0.1,0-0.1-0.1-0.2
		c0,0-0.1-0.1-0.2-0.1c-0.3,0-0.5,0.1-0.7,0.4C62.1,1.9,62,2.2,62,2.7h-0.2L61.8,1z"/>
</g>
</svg>
