<?xml version="1.0" encoding="utf-8"?>
<!-- Generator: Adobe Illustrator 25.1.0, SVG Export Plug-In . SVG Version: 6.00 Build 0)  -->
<svg version="1.1" id="レイヤー_1" xmlns="http://www.w3.org/2000/svg" xmlns:xlink="http://www.w3.org/1999/xlink" x="0px"
	 y="0px" viewBox="0 0 76 11" style="enable-background:new 0 0 76 11;" xml:space="preserve">
<style type="text/css">
	.st0{enable-background:new    ;}
	.st1{fill:url(#SVGID_1_);}
	.st2{fill:url(#SVGID_2_);}
	.st3{fill:url(#SVGID_3_);}
	.st4{fill:url(#SVGID_4_);}
	.st5{fill:url(#SVGID_5_);}
	.st6{fill:url(#SVGID_6_);}
	.st7{fill:url(#SVGID_7_);}
	.st8{fill:url(#SVGID_8_);}
	.st9{fill:url(#SVGID_9_);}
	.st10{fill:url(#SVGID_10_);}
</style>
<g class="st0">
	
		<radialGradient id="SVGID_1_" cx="1.2093" cy="4.0355" r="2.1004" gradientTransform="matrix(1 0 0 -1 0 12)" gradientUnits="userSpaceOnUse">
		<stop  offset="0" style="stop-color:#92ADCC"/>
		<stop  offset="0.5" style="stop-color:#7299BF"/>
		<stop  offset="1" style="stop-color:#2977A7"/>
	</radialGradient>
	<path class="st1" d="M0,5.2h2.5v0.2H2.1c-0.2,0-0.4,0-0.4,0.1c0,0-0.1,0.1-0.1,0.2V10c0,0.1,0,0.2,0.1,0.4c0,0,0.1,0.1,0.4,0.1h0.5
		v0.2H0v-0.4h0.5c0.1,0,0.2,0,0.4-0.1c0,0,0.1-0.1,0.1-0.4V6c0-0.1,0-0.2-0.1-0.2S0.6,5.6,0.5,5.6H0.1V5.2H0z"/>
	
		<radialGradient id="SVGID_2_" cx="6.6812" cy="4.0394" r="2.757" gradientTransform="matrix(1 0 0 -1 0 12)" gradientUnits="userSpaceOnUse">
		<stop  offset="0" style="stop-color:#92ADCC"/>
		<stop  offset="0.5" style="stop-color:#7299BF"/>
		<stop  offset="1" style="stop-color:#2977A7"/>
	</radialGradient>
	<path class="st2" d="M3.9,5.2h1.3l3.3,4.2v-3c0-0.4-0.1-0.5-0.2-0.7C8.1,5.6,7.9,5.5,7.6,5.5V5.2h1.9v0.2c-0.2,0-0.4,0-0.5,0.1
		C9,5.6,9,5.7,8.8,5.8S8.7,6.1,8.7,6.3v4.2H8.3L5,6.2v3.3c0,0.2,0.1,0.5,0.2,0.6c0.1,0.1,0.4,0.2,0.7,0.2v0.2H3.9v-0.2
		c0.2,0,0.5-0.1,0.6-0.2C4.6,10,4.7,9.7,4.7,9.5V5.8L4.6,5.7C4.5,5.6,4.4,5.5,4.4,5.5c-0.1,0-0.1,0-0.2,0H3.9
		C3.9,5.5,3.9,5.2,3.9,5.2z"/>
	
		<radialGradient id="SVGID_3_" cx="13.1528" cy="3.9756" r="2.7382" gradientTransform="matrix(1 0 0 -1 0 12)" gradientUnits="userSpaceOnUse">
		<stop  offset="0" style="stop-color:#92ADCC"/>
		<stop  offset="0.5" style="stop-color:#7299BF"/>
		<stop  offset="1" style="stop-color:#2977A7"/>
	</radialGradient>
	<path class="st3" d="M10.4,5.2h2.3v0.2h-0.4c-0.1,0-0.2,0-0.4,0s-0.1,0.1-0.1,0.1s0,0.1,0.1,0.2V6l1.5,3.6l1.2-3.4
		c0-0.1,0-0.1,0-0.2c0-0.1,0-0.2-0.1-0.4c-0.1-0.1-0.2-0.1-0.4-0.1h-0.4V5.2h2.1v0.2h-0.1c-0.1,0-0.2,0-0.4,0.1
		C15.2,5.7,15.1,6,15,6.2l-1.7,4.5h-0.2l-1.9-4.8c0,0-0.1-0.1-0.1-0.2c-0.1-0.1-0.2-0.1-0.4-0.1h-0.1V5.2H10.4z"/>
	
		<radialGradient id="SVGID_4_" cx="19.4377" cy="4.0355" r="2.4915" gradientTransform="matrix(1 0 0 -1 0 12)" gradientUnits="userSpaceOnUse">
		<stop  offset="0" style="stop-color:#92ADCC"/>
		<stop  offset="0.5" style="stop-color:#7299BF"/>
		<stop  offset="1" style="stop-color:#2977A7"/>
	</radialGradient>
	<path class="st4" d="M17.2,5.2h4.2l0.1,1.8h-0.2c-0.1-0.6-0.2-1-0.5-1.2c-0.2-0.2-0.5-0.4-0.8-0.4h-1.1c-0.1,0-0.1,0-0.2,0.1
		c-0.1,0.1-0.1,0.1-0.1,0.2v1.9H19c0.2,0,0.5-0.1,0.6-0.2s0.2-0.5,0.2-0.8h0.2v2.5h-0.2c0-0.4-0.1-0.7-0.2-0.8
		c-0.1-0.1-0.4-0.2-0.6-0.2h-0.4v1.9c0,0.1,0,0.1,0.1,0.1c0,0,0.1,0.1,0.2,0.1h0.8c0.8,0,1.5-0.6,1.6-1.7h0.2l-0.1,2.1h-4.5v-0.4
		h0.4c0.1,0,0.2,0,0.4-0.1c0,0,0.1-0.1,0.1-0.2V5.8c0-0.1,0-0.1-0.1-0.2c-0.1-0.1-0.1-0.1-0.2-0.1h-0.5V5.2H17.2z"/>
	
		<radialGradient id="SVGID_5_" cx="25.3242" cy="4.0447" r="2.4098" gradientTransform="matrix(1 0 0 -1 0 12)" gradientUnits="userSpaceOnUse">
		<stop  offset="0" style="stop-color:#92ADCC"/>
		<stop  offset="0.5" style="stop-color:#7299BF"/>
		<stop  offset="1" style="stop-color:#2977A7"/>
	</radialGradient>
	<path class="st5" d="M26.4,5.7l0.4-0.5H27v1.9h-0.2c-0.1-0.6-0.4-1.1-0.7-1.3c-0.4-0.2-0.6-0.4-1-0.4c-0.4,0-0.6,0.1-0.8,0.2
		C24,6,23.8,6.2,23.8,6.5c0,0.1,0,0.4,0.1,0.5c0.1,0.1,0.2,0.2,0.4,0.4c0.1,0.1,0.5,0.1,0.8,0.2c0.6,0.1,1,0.2,1.2,0.4
		c0.2,0.1,0.4,0.2,0.5,0.5C27,8.6,27,8.9,27,9.1c0,0.5-0.1,0.8-0.5,1.2c-0.4,0.4-0.7,0.5-1.2,0.5c-0.6,0-1.1-0.1-1.5-0.5l-0.4,0.5
		h-0.2V8.6h0.2c0.1,0.6,0.4,1.1,0.7,1.3c0.4,0.4,0.7,0.5,1.2,0.5c0.4,0,0.6-0.1,0.8-0.4c0.4-0.1,0.5-0.4,0.5-0.7
		c0-0.1,0-0.4-0.1-0.5c-0.1-0.1-0.2-0.2-0.4-0.4c-0.2-0.1-0.6-0.2-1.1-0.4c-0.6-0.1-1-0.2-1.2-0.5c-0.4-0.2-0.5-0.6-0.5-1.1
		s0.1-0.8,0.5-1.2s0.7-0.5,1.2-0.5c0.2,0,0.5,0,0.6,0.1C25.9,5.4,26.1,5.5,26.4,5.7z"/>
	
		<radialGradient id="SVGID_6_" cx="30.938" cy="4.0355" r="2.5063" gradientTransform="matrix(1 0 0 -1 0 12)" gradientUnits="userSpaceOnUse">
		<stop  offset="0" style="stop-color:#92ADCC"/>
		<stop  offset="0.5" style="stop-color:#7299BF"/>
		<stop  offset="1" style="stop-color:#2977A7"/>
	</radialGradient>
	<path class="st6" d="M28.8,5.2h4.4l0.1,2.1H33c-0.1-1.2-0.6-1.8-1.3-1.8c-0.1,0-0.2,0-0.2,0.1c0,0-0.1,0.1-0.1,0.2v4.2
		c0,0.1,0,0.1,0.1,0.2c0,0,0.1,0.1,0.2,0.1h0.5v0.2h-2.5v-0.4h0.7c0.1,0,0.1,0,0.2-0.1l0.1-0.1V5.8c0-0.1,0-0.1-0.1-0.2
		c0,0-0.1-0.1-0.2-0.1c-0.4,0-0.6,0.1-0.8,0.5c-0.2,0.2-0.4,0.7-0.4,1.3h-0.2L28.8,5.2z"/>
	
		<radialGradient id="SVGID_7_" cx="37.7185" cy="4.0355" r="3.0476" gradientTransform="matrix(1 0 0 -1 0 12)" gradientUnits="userSpaceOnUse">
		<stop  offset="0" style="stop-color:#92ADCC"/>
		<stop  offset="0.5" style="stop-color:#7299BF"/>
		<stop  offset="1" style="stop-color:#2977A7"/>
	</radialGradient>
	<path class="st7" d="M34.4,5.2h1.8l1.6,4.2l1.5-4.2H41v0.2h-0.5c-0.1,0-0.2,0-0.4,0.1C40,5.7,40,5.7,40,5.8v4.2
		c0,0.1,0,0.1,0.1,0.2c0.1,0,0.1,0.1,0.4,0.1h0.4v0.2h-2.4v-0.4H39c0.1,0,0.2,0,0.2-0.1c0.1,0,0.1-0.1,0.1-0.2V5.5l-1.7,5.2h-0.2
		l-1.9-5.1v3.9c0,0.2,0,0.4,0.1,0.5c0,0.1,0.1,0.2,0.2,0.2c0.1,0.1,0.2,0.1,0.5,0.1v0.2h-2.1v-0.2c0.4,0,0.6-0.1,0.7-0.2
		c0.2,0,0.2-0.2,0.2-0.6V5.8c0-0.1,0-0.1-0.1-0.2c0,0-0.1-0.1-0.4-0.1h-0.5V5.2H34.4z"/>
	
		<radialGradient id="SVGID_8_" cx="44.859" cy="4.0355" r="2.4917" gradientTransform="matrix(1 0 0 -1 0 12)" gradientUnits="userSpaceOnUse">
		<stop  offset="0" style="stop-color:#92ADCC"/>
		<stop  offset="0.5" style="stop-color:#7299BF"/>
		<stop  offset="1" style="stop-color:#2977A7"/>
	</radialGradient>
	<path class="st8" d="M42.6,5.2h4.2l0.1,1.8h-0.2c-0.1-0.6-0.2-1-0.5-1.2s-0.5-0.4-0.8-0.4h-1.1c-0.1,0-0.1,0-0.2,0.1
		c-0.1,0.1-0.1,0.1-0.1,0.2v1.9h0.5c0.2,0,0.5-0.1,0.6-0.2c0.1-0.1,0.2-0.5,0.2-0.8h0.2v2.5h-0.2c0-0.4-0.1-0.7-0.2-0.8
		c-0.1-0.1-0.4-0.2-0.6-0.2H44v1.9c0,0.1,0,0.1,0.1,0.1c0,0,0.1,0.1,0.2,0.1h0.8c0.8,0,1.5-0.6,1.6-1.7h0.2l-0.1,2.1h-4.5v-0.4h0.4
		c0.1,0,0.2,0,0.4-0.1c0,0,0.1-0.1,0.1-0.2V5.8c0-0.1,0-0.1-0.1-0.2c-0.1-0.1-0.1-0.1-0.2-0.1h-0.5V5.2H42.6z"/>
	
		<radialGradient id="SVGID_9_" cx="51.4449" cy="4.0394" r="2.7569" gradientTransform="matrix(1 0 0 -1 0 12)" gradientUnits="userSpaceOnUse">
		<stop  offset="0" style="stop-color:#92ADCC"/>
		<stop  offset="0.5" style="stop-color:#7299BF"/>
		<stop  offset="1" style="stop-color:#2977A7"/>
	</radialGradient>
	<path class="st9" d="M48.6,5.2H50l3.3,4.2v-3c0-0.4-0.1-0.5-0.2-0.7c-0.1-0.1-0.4-0.2-0.6-0.2V5.2h1.9v0.2c-0.2,0-0.4,0-0.5,0.1
		c-0.1,0-0.1,0.1-0.2,0.2s-0.1,0.2-0.1,0.5v4.2h-0.4l-3.4-4.4v3.3c0,0.2,0.1,0.5,0.2,0.6c0.1,0.1,0.4,0.2,0.7,0.2v0.2h-2.1v-0.2
		c0.2,0,0.5-0.1,0.6-0.2c0.1-0.1,0.2-0.4,0.2-0.6V5.8l-0.1-0.1c-0.1-0.1-0.2-0.2-0.2-0.2c-0.1,0-0.1,0-0.2,0h-0.2V5.2z"/>
	
		<radialGradient id="SVGID_10_" cx="57.7407" cy="4.0355" r="2.5065" gradientTransform="matrix(1 0 0 -1 0 12)" gradientUnits="userSpaceOnUse">
		<stop  offset="0" style="stop-color:#92ADCC"/>
		<stop  offset="0.5" style="stop-color:#7299BF"/>
		<stop  offset="1" style="stop-color:#2977A7"/>
	</radialGradient>
	<path class="st10" d="M55.5,5.2h4.4L60,7.3h-0.2c-0.1-1.2-0.6-1.8-1.3-1.8c-0.1,0-0.2,0-0.2,0.1c0,0-0.1,0.1-0.1,0.2v4.2
		c0,0.1,0,0.1,0.1,0.2c0,0,0.1,0.1,0.2,0.1h0.5v0.2h-2.5v-0.4H57c0.1,0,0.1,0,0.2-0.1l0.1-0.1V5.8c0-0.1,0-0.1-0.1-0.2
		c0,0-0.1-0.1-0.2-0.1c-0.4,0-0.6,0.1-0.8,0.5c-0.2,0.4-0.4,0.7-0.4,1.3h-0.2V5.2z"/>
</g>
</svg>
