<?xml version="1.0" encoding="utf-8"?>
<!-- Generator: Adobe Illustrator 25.1.0, SVG Export Plug-In . SVG Version: 6.00 Build 0)  -->
<svg version="1.1" id="レイヤー_1" xmlns="http://www.w3.org/2000/svg" xmlns:xlink="http://www.w3.org/1999/xlink" x="0px"
	 y="0px" viewBox="0 0 76 11" style="enable-background:new 0 0 76 11;" xml:space="preserve">
<style type="text/css">
	.st0{enable-background:new    ;}
	.st1{fill:url(#SVGID_1_);}
	.st2{fill:url(#SVGID_2_);}
	.st3{fill:url(#SVGID_3_);}
	.st4{fill:url(#SVGID_4_);}
	.st5{fill:url(#SVGID_5_);}
	.st6{fill:url(#SVGID_6_);}
	.st7{fill:url(#SVGID_7_);}
	.st8{fill:url(#SVGID_8_);}
	.st9{fill:url(#SVGID_9_);}
</style>
<g class="st0">
	
		<radialGradient id="SVGID_1_" cx="3.9885" cy="195.4174" r="3.5871" gradientTransform="matrix(1 0 0 1 0 -188)" gradientUnits="userSpaceOnUse">
		<stop  offset="0" style="stop-color:#92ADCC"/>
		<stop  offset="0.5" style="stop-color:#7299BF"/>
		<stop  offset="1" style="stop-color:#2977A7"/>
	</radialGradient>
	<path class="st1" d="M0,4.3h2.1l1.9,5l1.7-5h2.1v0.3H7.3c-0.1,0-0.3,0-0.4,0.1c0,0-0.1,0.1-0.1,0.3v5c0,0.1,0,0.1,0.1,0.3
		C7,10.4,7,10.4,7.3,10.4h0.4v0.3H4.8v-0.4h0.6c0.1,0,0.3,0,0.3-0.1c0.1,0,0.1-0.1,0.1-0.3V4.6l-2.1,6H3.4l-2-6v4.6
		c0,0.3,0,0.4,0.1,0.6c0,0.1,0.1,0.3,0.3,0.3c0.1,0.1,0.3,0.1,0.6,0.1v0.3H0v-0.1c0.4,0,0.7-0.1,0.9-0.3S1,9.6,1,9.3V4.9
		c0-0.1,0-0.1-0.1-0.3c0,0-0.1-0.1-0.4-0.1L0,4.3L0,4.3z"/>
	
		<radialGradient id="SVGID_2_" cx="11.4225" cy="195.4174" r="2.9317" gradientTransform="matrix(1 0 0 1 0 -188)" gradientUnits="userSpaceOnUse">
		<stop  offset="0" style="stop-color:#92ADCC"/>
		<stop  offset="0.5" style="stop-color:#7299BF"/>
		<stop  offset="1" style="stop-color:#2977A7"/>
	</radialGradient>
	<path class="st2" d="M8.7,4.3h5l0.1,2.1h-0.3C13.4,5.7,13.2,5.3,13,5c-0.3-0.3-0.6-0.4-1-0.4h-1.3c-0.1,0-0.1,0-0.3,0.1
		c-0.1,0.1-0.1,0.1-0.1,0.3v2.3h0.6c0.3,0,0.6-0.1,0.7-0.3c0.1-0.1,0.3-0.6,0.3-1h0.3v3h-0.3c0-0.4-0.1-0.9-0.3-1
		c-0.1-0.1-0.4-0.3-0.7-0.3h-0.4v2.6c0,0.1,0,0.1,0.1,0.1c0.1,0,0.1,0.1,0.3,0.1h1c1,0,1.7-0.7,1.9-2H14L13.8,11H8.5v-0.7H9
		c0.1,0,0.3,0,0.4-0.1c0,0,0.1-0.1,0.1-0.3v-5c0-0.1,0-0.1-0.1-0.3c0,0-0.1-0.1-0.3-0.1H8.5V4.3H8.7z"/>
	
		<radialGradient id="SVGID_3_" cx="17.8452" cy="195.4174" r="3.1009" gradientTransform="matrix(1 0 0 1 0 -188)" gradientUnits="userSpaceOnUse">
		<stop  offset="0" style="stop-color:#92ADCC"/>
		<stop  offset="0.5" style="stop-color:#7299BF"/>
		<stop  offset="1" style="stop-color:#2977A7"/>
	</radialGradient>
	<path class="st3" d="M14.8,4.3h3.3c0.4,0,0.9,0.1,1.3,0.3c0.4,0.3,0.7,0.6,1.1,1.1c0.3,0.6,0.4,1.1,0.4,1.9c0,0.6-0.1,1.1-0.3,1.6
		c-0.1,0.3-0.3,0.7-0.6,0.9c-0.3,0.3-0.6,0.4-1,0.6c-0.3,0.1-0.7,0.1-1.1,0.1h-3v-0.4h0.6c0.1,0,0.3,0,0.3-0.1S16,10,16,9.9v-5
		c0-0.1,0-0.1-0.1-0.1c0,0-0.1-0.1-0.3-0.1h-0.7C14.8,4.6,14.8,4.3,14.8,4.3z M17.1,4.6c-0.1,0-0.3,0-0.3,0.1c0,0-0.1,0.1-0.1,0.3
		v5.1c0,0.1,0,0.1,0.1,0.3c0.1,0.1,0.1,0.1,0.4,0.1h0.6c0.4,0,0.9-0.1,1.3-0.4c0.3-0.1,0.4-0.4,0.6-0.7c0.1-0.4,0.3-1,0.3-1.7
		c0-1-0.1-1.9-0.6-2.3c-0.3-0.4-0.9-0.6-1.4-0.6h-0.9V4.6z"/>
	
		<radialGradient id="SVGID_4_" cx="23.1488" cy="195.4174" r="2.4708" gradientTransform="matrix(1 0 0 1 0 -188)" gradientUnits="userSpaceOnUse">
		<stop  offset="0" style="stop-color:#92ADCC"/>
		<stop  offset="0.5" style="stop-color:#7299BF"/>
		<stop  offset="1" style="stop-color:#2977A7"/>
	</radialGradient>
	<path class="st4" d="M21.6,4.3h3v0.3h-0.6c-0.3,0-0.4,0-0.4,0.1S23.5,4.9,23.5,5v4.8c0,0.1,0,0.3,0.1,0.4c0,0,0.1,0.1,0.4,0.1h0.6
		v0.3h-3v-0.4h0.6c0.1,0,0.3,0,0.4-0.1c0,0,0.1-0.1,0.1-0.4V5c0-0.1,0-0.3-0.1-0.3s-0.3-0.1-0.4-0.1h-0.4V4.3H21.6z"/>
	
		<radialGradient id="SVGID_5_" cx="28.1022" cy="195.3513" r="3.2341" gradientTransform="matrix(1 0 0 1 0 -188)" gradientUnits="userSpaceOnUse">
		<stop  offset="0" style="stop-color:#92ADCC"/>
		<stop  offset="0.5" style="stop-color:#7299BF"/>
		<stop  offset="1" style="stop-color:#2977A7"/>
	</radialGradient>
	<path class="st5" d="M28.1,4.2h0.3l2.3,5.8c0.1,0.3,0.3,0.3,0.6,0.3h0.1v0.3h-2.6v-0.3h0.1c0.3,0,0.4,0,0.6-0.1
		c0.1,0,0.1-0.1,0.1-0.1V9.9l-0.6-1.3h-2.6l-0.3,0.7c-0.1,0.1-0.1,0.4-0.1,0.4c0,0.1,0,0.3,0.1,0.4c0.1,0.1,0.3,0.1,0.6,0.1h0.3v0.3
		h-2.3v-0.3c0.3,0,0.4,0,0.6-0.1c0.1-0.1,0.3-0.3,0.4-0.6L28.1,4.2z M27.9,5.3l-1.1,2.8h2.3L27.9,5.3z"/>
	
		<radialGradient id="SVGID_6_" cx="33.7559" cy="195.4174" r="2.9494" gradientTransform="matrix(1 0 0 1 0 -188)" gradientUnits="userSpaceOnUse">
		<stop  offset="0" style="stop-color:#92ADCC"/>
		<stop  offset="0.5" style="stop-color:#7299BF"/>
		<stop  offset="1" style="stop-color:#2977A7"/>
	</radialGradient>
	<path class="st6" d="M31.2,4.3h5.1l0.1,2.4h-0.3c-0.1-1.4-0.7-2.1-1.6-2.1c-0.1,0-0.3,0-0.3,0.1c0,0-0.1,0.1-0.1,0.3v5.1
		c0-0.1,0,0,0.1,0s0.1,0.1,0.3,0.1h0.6v0.3h-3v-0.3h0.7c0.1,0,0.1,0,0.3-0.1c0.1-0.1,0.1-0.1,0.1-0.1V4.9c0-0.1,0-0.1-0.1-0.3
		c0,0-0.1-0.1-0.3-0.1c-0.4,0-0.7,0.1-1,0.6c-0.3,0.3-0.4,0.9-0.4,1.6h-0.3V4.3z"/>
	
		<radialGradient id="SVGID_7_" cx="38.4492" cy="195.4174" r="2.4708" gradientTransform="matrix(1 0 0 1 0 -188)" gradientUnits="userSpaceOnUse">
		<stop  offset="0" style="stop-color:#92ADCC"/>
		<stop  offset="0.5" style="stop-color:#7299BF"/>
		<stop  offset="1" style="stop-color:#2977A7"/>
	</radialGradient>
	<path class="st7" d="M37,4.3h2.8v0.3h-0.6c-0.3,0-0.4,0-0.4,0.1S38.7,4.9,38.7,5v4.8c0,0.1,0,0.3,0.1,0.4c0,0,0.1,0.1,0.4,0.1h0.6
		v0.3H37v-0.4h0.6c0.1,0,0.3,0,0.4-0.1c0,0,0.1-0.1,0.1-0.4V5c0-0.1,0-0.3-0.1-0.3s-0.3-0.1-0.4-0.1H37V4.3z"/>
	
		<radialGradient id="SVGID_8_" cx="43.6585" cy="195.4307" r="3.1367" gradientTransform="matrix(1 0 0 1 0 -188)" gradientUnits="userSpaceOnUse">
		<stop  offset="0" style="stop-color:#92ADCC"/>
		<stop  offset="0.5" style="stop-color:#7299BF"/>
		<stop  offset="1" style="stop-color:#2977A7"/>
	</radialGradient>
	<path class="st8" d="M43.6,4.2c0.6,0,1,0.1,1.6,0.4c0.4,0.3,0.9,0.7,1.1,1.1c0.3,0.6,0.4,1.1,0.4,1.7s-0.1,1.1-0.4,1.7
		c-0.3,0.6-0.7,0.9-1.1,1.1c-0.4,0.3-1,0.4-1.4,0.4c-0.6,0-1-0.1-1.4-0.4c-0.4-0.3-0.9-0.7-1.1-1.1c-0.3-0.6-0.4-1.1-0.4-1.7
		s0.1-1.1,0.4-1.7s0.6-0.9,1.1-1.1C42.6,4.3,43.2,4.2,43.6,4.2z M43.7,4.4c-0.6,0-1,0.3-1.4,0.7c-0.4,0.4-0.6,1.3-0.6,2.3
		c0,1.1,0.1,1.9,0.6,2.4c0.4,0.3,0.9,0.6,1.3,0.6s0.7-0.1,1-0.3s0.6-0.6,0.7-1c0.1-0.4,0.3-1,0.3-1.7S45.4,6,45.3,5.6
		c-0.1-0.4-0.4-0.7-0.7-1C44.3,4.6,44,4.4,43.7,4.4z"/>
	
		<radialGradient id="SVGID_9_" cx="50.7523" cy="195.4174" r="3.2466" gradientTransform="matrix(1 0 0 1 0 -188)" gradientUnits="userSpaceOnUse">
		<stop  offset="0" style="stop-color:#92ADCC"/>
		<stop  offset="0.5" style="stop-color:#7299BF"/>
		<stop  offset="1" style="stop-color:#2977A7"/>
	</radialGradient>
	<path class="st9" d="M47.4,4.3H49l3.8,5V5.6c0-0.4-0.1-0.6-0.3-0.9c-0.1-0.1-0.4-0.3-0.7-0.3V4.3h2.3v0.3c-0.3,0-0.4,0-0.6,0.1
		c-0.1,0-0.1,0.1-0.3,0.3c-0.1,0.1-0.1,0.3-0.1,0.6v5h-0.4l-4-5.1v3.8c0,0.3,0.1,0.6,0.3,0.7c0.3,0.1,0.4,0.3,0.9,0.3v0.3h-2.4v-0.3
		c0.3,0,0.6-0.1,0.7-0.3c0.1-0.3,0.3-0.4,0.3-0.7V5l-0.1-0.1C48.1,4.7,48,4.6,48,4.6c-0.1,0-0.1,0-0.3,0h-0.3V4.3z"/>
</g>
</svg>
