<?xml version="1.0" encoding="utf-8"?>
<!-- Generator: Adobe Illustrator 25.1.0, SVG Export Plug-In . SVG Version: 6.00 Build 0)  -->
<svg version="1.1" id="レイヤー_1" xmlns="http://www.w3.org/2000/svg" xmlns:xlink="http://www.w3.org/1999/xlink" x="0px"
	 y="0px" viewBox="0 0 76 11" style="enable-background:new 0 0 76 11;" xml:space="preserve">
<style type="text/css">
	.st0{enable-background:new    ;}
	.st1{fill:url(#SVGID_1_);}
	.st2{fill:url(#SVGID_2_);}
	.st3{fill:url(#SVGID_3_);}
	.st4{fill:url(#SVGID_4_);}
	.st5{fill:url(#SVGID_5_);}
	.st6{fill:url(#SVGID_6_);}
	.st7{fill:url(#SVGID_7_);}
	.st8{fill:url(#SVGID_8_);}
	.st9{fill:url(#SVGID_9_);}
</style>
<g class="st0">
	
		<radialGradient id="SVGID_1_" cx="21.8005" cy="8.9155" r="2.5187" gradientTransform="matrix(1 0 0 -1 0 12)" gradientUnits="userSpaceOnUse">
		<stop  offset="0" style="stop-color:#92ADCC"/>
		<stop  offset="0.5" style="stop-color:#7299BF"/>
		<stop  offset="1" style="stop-color:#2977A7"/>
	</radialGradient>
	<path class="st1" d="M19,0.9h1.5l1.3,3.5L23,0.9h1.5v0.2h-0.4c-0.1,0-0.2,0-0.3,0.1c0,0-0.1,0.1-0.1,0.2v3.5c0,0.1,0,0.1,0.1,0.2
		s0.1,0.1,0.3,0.1h0.3v0.2h-2V5.1h0.4c0.1,0,0.2,0,0.2-0.1c0.1,0,0.1-0.1,0.1-0.2V1.1l-1.5,4.2h-0.2L20,1.1v3.2c0,0.2,0,0.3,0.1,0.4
		c0,0.1,0.1,0.2,0.2,0.2C20.4,5,20.5,5,20.7,5v0.2H19V5.1c0.3,0,0.5-0.1,0.6-0.2s0.1-0.3,0.1-0.5V1.3c0-0.1,0-0.1-0.1-0.2
		c0,0-0.1-0.1-0.3-0.1L19,0.9L19,0.9z"/>
	
		<radialGradient id="SVGID_2_" cx="27.0203" cy="8.9155" r="2.0585" gradientTransform="matrix(1 0 0 -1 0 12)" gradientUnits="userSpaceOnUse">
		<stop  offset="0" style="stop-color:#92ADCC"/>
		<stop  offset="0.5" style="stop-color:#7299BF"/>
		<stop  offset="1" style="stop-color:#2977A7"/>
	</radialGradient>
	<path class="st2" d="M25.1,0.9h3.5l0.1,1.5h-0.2c-0.1-0.5-0.2-0.8-0.4-1c-0.2-0.2-0.4-0.3-0.7-0.3h-0.9c-0.1,0-0.1,0-0.2,0.1
		s-0.1,0.1-0.1,0.2V3h0.4c0.2,0,0.4-0.1,0.5-0.2c0.1-0.1,0.2-0.4,0.2-0.7h0.2v2.1h-0.2c0-0.3-0.1-0.6-0.2-0.7
		c-0.1-0.1-0.3-0.2-0.5-0.2h-0.3v1.8c0,0.1,0,0.1,0.1,0.1s0.1,0.1,0.2,0.1h0.7c0.7,0,1.2-0.5,1.3-1.4h0.2l-0.1,1.7H25V5.1h0.3
		c0.1,0,0.2,0,0.3-0.1c0,0,0.1-0.1,0.1-0.2V1.3c0-0.1,0-0.1-0.1-0.2c0,0-0.1-0.1-0.2-0.1H25V0.9H25.1z"/>
	
		<radialGradient id="SVGID_3_" cx="31.53" cy="8.9155" r="2.1773" gradientTransform="matrix(1 0 0 -1 0 12)" gradientUnits="userSpaceOnUse">
		<stop  offset="0" style="stop-color:#92ADCC"/>
		<stop  offset="0.5" style="stop-color:#7299BF"/>
		<stop  offset="1" style="stop-color:#2977A7"/>
	</radialGradient>
	<path class="st3" d="M29.4,0.9h2.3c0.3,0,0.6,0.1,0.9,0.2c0.3,0.2,0.5,0.4,0.8,0.8c0.2,0.4,0.3,0.8,0.3,1.3c0,0.4-0.1,0.8-0.2,1.1
		c-0.1,0.2-0.2,0.5-0.4,0.6c-0.2,0.2-0.4,0.3-0.7,0.4c-0.2,0.1-0.5,0.1-0.8,0.1h-2.1V5.1h0.4c0.1,0,0.2,0,0.2-0.1s0.1-0.1,0.1-0.2
		V1.3c0-0.1,0-0.1-0.1-0.1c0,0-0.1-0.1-0.2-0.1h-0.5C29.4,1.1,29.4,0.9,29.4,0.9z M31,1.1c-0.1,0-0.2,0-0.2,0.1c0,0-0.1,0.1-0.1,0.2
		V5c0,0.1,0,0.1,0.1,0.2s0.1,0.1,0.3,0.1h0.4c0.3,0,0.6-0.1,0.9-0.3c0.2-0.1,0.3-0.3,0.4-0.5C32.9,4.2,33,3.8,33,3.3
		c0-0.7-0.1-1.3-0.4-1.6c-0.2-0.3-0.6-0.4-1-0.4H31V1.1z"/>
	
		<radialGradient id="SVGID_4_" cx="35.2539" cy="8.9155" r="1.7349" gradientTransform="matrix(1 0 0 -1 0 12)" gradientUnits="userSpaceOnUse">
		<stop  offset="0" style="stop-color:#92ADCC"/>
		<stop  offset="0.5" style="stop-color:#7299BF"/>
		<stop  offset="1" style="stop-color:#2977A7"/>
	</radialGradient>
	<path class="st4" d="M34.2,0.9h2.1v0.2h-0.4c-0.2,0-0.3,0-0.3,0.1s-0.1,0.1-0.1,0.2v3.4c0,0.1,0,0.2,0.1,0.3c0,0,0.1,0.1,0.3,0.1
		h0.4v0.2h-2.1V5.1h0.4c0.1,0,0.2,0,0.3-0.1c0,0,0.1-0.1,0.1-0.3V1.4c0-0.1,0-0.2-0.1-0.2s-0.2-0.1-0.3-0.1h-0.3V0.9H34.2z"/>
	
		<radialGradient id="SVGID_5_" cx="38.7319" cy="8.9619" r="2.2708" gradientTransform="matrix(1 0 0 -1 0 12)" gradientUnits="userSpaceOnUse">
		<stop  offset="0" style="stop-color:#92ADCC"/>
		<stop  offset="0.5" style="stop-color:#7299BF"/>
		<stop  offset="1" style="stop-color:#2977A7"/>
	</radialGradient>
	<path class="st5" d="M38.7,0.8h0.2l1.6,4.1c0.1,0.2,0.2,0.2,0.4,0.2H41v0.2h-1.8V5.1h0.1c0.2,0,0.3,0,0.4-0.1
		c0.1,0,0.1-0.1,0.1-0.1V4.8l-0.4-0.9h-1.8l-0.2,0.5c-0.1,0.1-0.1,0.3-0.1,0.3c0,0.1,0,0.2,0.1,0.3c0.1,0.1,0.2,0.1,0.4,0.1H38v0.2
		h-1.6V5.1c0.2,0,0.3,0,0.4-0.1c0.1-0.1,0.2-0.2,0.3-0.4L38.7,0.8z M38.6,1.6l-0.8,2h1.6L38.6,1.6z"/>
	
		<radialGradient id="SVGID_6_" cx="42.7017" cy="8.9155" r="2.0709" gradientTransform="matrix(1 0 0 -1 0 12)" gradientUnits="userSpaceOnUse">
		<stop  offset="0" style="stop-color:#92ADCC"/>
		<stop  offset="0.5" style="stop-color:#7299BF"/>
		<stop  offset="1" style="stop-color:#2977A7"/>
	</radialGradient>
	<path class="st6" d="M40.9,0.9h3.6l0.1,1.7h-0.2c-0.1-1-0.5-1.5-1.1-1.5c-0.1,0-0.2,0-0.2,0.1c0,0-0.1,0.1-0.1,0.2V5
		c0-0.1,0,0,0.1,0s0.1,0.1,0.2,0.1h0.4v0.2h-2.1V5.1h0.5c0.1,0,0.1,0,0.2-0.1s0.1-0.1,0.1-0.1V1.3c0-0.1,0-0.1-0.1-0.2
		c0,0-0.1-0.1-0.2-0.1c-0.3,0-0.5,0.1-0.7,0.4c-0.2,0.2-0.3,0.6-0.3,1.1h-0.2V0.9z"/>
	
		<radialGradient id="SVGID_7_" cx="45.9971" cy="8.9155" r="1.7349" gradientTransform="matrix(1 0 0 -1 0 12)" gradientUnits="userSpaceOnUse">
		<stop  offset="0" style="stop-color:#92ADCC"/>
		<stop  offset="0.5" style="stop-color:#7299BF"/>
		<stop  offset="1" style="stop-color:#2977A7"/>
	</radialGradient>
	<path class="st7" d="M45,0.9h2v0.2h-0.4c-0.2,0-0.3,0-0.3,0.1s-0.1,0.1-0.1,0.2v3.4c0,0.1,0,0.2,0.1,0.3c0,0,0.1,0.1,0.3,0.1H47
		v0.2h-2V5.1h0.4c0.1,0,0.2,0,0.3-0.1c0,0,0.1-0.1,0.1-0.3V1.4c0-0.1,0-0.2-0.1-0.2s-0.2-0.1-0.3-0.1H45V0.9z"/>
	
		<radialGradient id="SVGID_8_" cx="49.6548" cy="8.9062" r="2.2024" gradientTransform="matrix(1 0 0 -1 0 12)" gradientUnits="userSpaceOnUse">
		<stop  offset="0" style="stop-color:#92ADCC"/>
		<stop  offset="0.5" style="stop-color:#7299BF"/>
		<stop  offset="1" style="stop-color:#2977A7"/>
	</radialGradient>
	<path class="st8" d="M49.6,0.8c0.4,0,0.7,0.1,1.1,0.3c0.3,0.2,0.6,0.5,0.8,0.8c0.2,0.4,0.3,0.8,0.3,1.2s-0.1,0.8-0.3,1.2
		S51,4.9,50.7,5.1s-0.7,0.3-1,0.3c-0.4,0-0.7-0.1-1-0.3c-0.3-0.2-0.6-0.5-0.8-0.8c-0.2-0.4-0.3-0.8-0.3-1.2s0.1-0.8,0.3-1.2
		s0.4-0.6,0.8-0.8C48.9,0.9,49.3,0.8,49.6,0.8z M49.7,1c-0.4,0-0.7,0.2-1,0.5s-0.4,0.9-0.4,1.6c0,0.8,0.1,1.3,0.4,1.7
		C49,5,49.3,5.2,49.6,5.2s0.5-0.1,0.7-0.2s0.4-0.4,0.5-0.7C50.9,4,51,3.6,51,3.1s-0.1-1-0.2-1.3c-0.1-0.3-0.3-0.5-0.5-0.7
		C50.1,1.1,49.9,1,49.7,1z"/>
	
		<radialGradient id="SVGID_9_" cx="54.6357" cy="8.9155" r="2.2796" gradientTransform="matrix(1 0 0 -1 0 12)" gradientUnits="userSpaceOnUse">
		<stop  offset="0" style="stop-color:#92ADCC"/>
		<stop  offset="0.5" style="stop-color:#7299BF"/>
		<stop  offset="1" style="stop-color:#2977A7"/>
	</radialGradient>
	<path class="st9" d="M52.3,0.9h1.1l2.7,3.5V1.8c0-0.3-0.1-0.4-0.2-0.6C55.8,1.1,55.6,1,55.4,1V0.9H57v0.2c-0.2,0-0.3,0-0.4,0.1
		c-0.1,0-0.1,0.1-0.2,0.2c-0.1,0.1-0.1,0.2-0.1,0.4v3.5H56l-2.8-3.6v2.7c0,0.2,0.1,0.4,0.2,0.5C53.6,5,53.7,5.1,54,5.1v0.2h-1.7V5.1
		c0.2,0,0.4-0.1,0.5-0.2C52.9,4.7,53,4.6,53,4.4v-3l-0.1-0.1c-0.1-0.1-0.2-0.2-0.2-0.2c-0.1,0-0.1,0-0.2,0h-0.2V0.9z"/>
</g>
</svg>
