<?xml version="1.0" encoding="utf-8"?>
<!-- Generator: Adobe Illustrator 25.1.0, SVG Export Plug-In . SVG Version: 6.00 Build 0)  -->
<svg version="1.1" id="レイヤー_1" xmlns="http://www.w3.org/2000/svg" xmlns:xlink="http://www.w3.org/1999/xlink" x="0px"
	 y="0px" viewBox="0 0 76 11" style="enable-background:new 0 0 76 11;" xml:space="preserve">
<style type="text/css">
	.st0{enable-background:new    ;}
	.st1{fill:url(#SVGID_1_);}
	.st2{fill:url(#SVGID_2_);}
	.st3{fill:url(#SVGID_3_);}
	.st4{fill:url(#SVGID_4_);}
	.st5{fill:url(#SVGID_5_);}
	.st6{fill:url(#SVGID_6_);}
	.st7{fill:url(#SVGID_7_);}
</style>
<g class="st0">
	<radialGradient id="SVGID_1_" cx="25.5491" cy="3.0801" r="1.9924" gradientUnits="userSpaceOnUse">
		<stop  offset="0" style="stop-color:#92ADCC"/>
		<stop  offset="0.5" style="stop-color:#7299BF"/>
		<stop  offset="1" style="stop-color:#2977A7"/>
	</radialGradient>
	<path class="st1" d="M26.4,1.2l0.3-0.4h0.2l0,1.6h-0.2c-0.1-0.5-0.3-0.9-0.6-1.1C25.9,1.1,25.6,1,25.3,1c-0.3,0-0.5,0.1-0.7,0.2
		c-0.2,0.2-0.3,0.4-0.3,0.6c0,0.1,0,0.3,0.1,0.4c0.1,0.1,0.2,0.2,0.3,0.3s0.4,0.1,0.7,0.2c0.5,0.1,0.8,0.2,1,0.3s0.3,0.2,0.4,0.4
		c0.1,0.2,0.1,0.4,0.1,0.6c0,0.4-0.1,0.7-0.4,1c-0.3,0.3-0.6,0.4-1,0.4c-0.5,0-0.9-0.1-1.2-0.4l-0.3,0.4h-0.2V3.6h0.2
		c0.1,0.5,0.3,0.9,0.6,1.1c0.3,0.3,0.6,0.4,1,0.4c0.3,0,0.5-0.1,0.7-0.3c0.2-0.2,0.3-0.4,0.3-0.6c0-0.1,0-0.3-0.1-0.4
		s-0.2-0.2-0.3-0.3c-0.2-0.1-0.5-0.2-0.9-0.3c-0.5-0.1-0.8-0.2-1-0.4C24.1,2.8,24,2.5,24,2.1c0-0.4,0.1-0.7,0.4-1s0.6-0.4,1-0.4
		c0.2,0,0.4,0,0.5,0.1C26,0.9,26.2,1,26.4,1.2z"/>
	<radialGradient id="SVGID_2_" cx="29.7078" cy="3.0845" r="2.0585" gradientUnits="userSpaceOnUse">
		<stop  offset="0" style="stop-color:#92ADCC"/>
		<stop  offset="0.5" style="stop-color:#7299BF"/>
		<stop  offset="1" style="stop-color:#2977A7"/>
	</radialGradient>
	<path class="st2" d="M27.8,0.9h3.5l0.1,1.5h-0.2c-0.1-0.5-0.2-0.8-0.4-1c-0.2-0.2-0.4-0.3-0.7-0.3h-0.9c-0.1,0-0.1,0-0.2,0.1
		s-0.1,0.1-0.1,0.2v1.6h0.4c0.2,0,0.4-0.1,0.5-0.2c0.1-0.1,0.2-0.4,0.2-0.7h0.2v2.1h-0.2c0-0.3-0.1-0.6-0.2-0.7
		c-0.1-0.1-0.3-0.2-0.5-0.2h-0.3v1.8c0,0.1,0,0.1,0.1,0.1s0.1,0.1,0.2,0.1h0.7c0.7,0,1.2-0.5,1.3-1.4h0.2l-0.1,1.7h-3.7V5.1h0.3
		c0.1,0,0.2,0,0.3-0.1c0,0,0.1-0.1,0.1-0.2V1.3c0-0.1,0-0.1-0.1-0.2c0,0-0.1-0.1-0.2-0.1h-0.4V0.9z"/>
	<radialGradient id="SVGID_3_" cx="33.9861" cy="3.0845" r="2.0737" gradientUnits="userSpaceOnUse">
		<stop  offset="0" style="stop-color:#92ADCC"/>
		<stop  offset="0.5" style="stop-color:#7299BF"/>
		<stop  offset="1" style="stop-color:#2977A7"/>
	</radialGradient>
	<path class="st3" d="M32.1,0.9h2.1v0.2h-0.5c-0.1,0-0.1,0-0.2,0.1s-0.1,0.1-0.1,0.2v3.5c0,0.1,0,0.1,0.1,0.2c0,0,0.1,0.1,0.3,0.1
		h0.6c0.3,0,0.6-0.1,0.8-0.3c0.2-0.2,0.4-0.6,0.5-1.2h0.2l-0.1,1.7h-3.7V5.1h0.4c0.1,0,0.2,0,0.3-0.1s0.1-0.1,0.1-0.2V1.3
		c0-0.1,0-0.1-0.1-0.2s-0.1-0.1-0.2-0.1h-0.5V0.9z"/>
	<radialGradient id="SVGID_4_" cx="38.1011" cy="3.0845" r="2.0736" gradientUnits="userSpaceOnUse">
		<stop  offset="0" style="stop-color:#92ADCC"/>
		<stop  offset="0.5" style="stop-color:#7299BF"/>
		<stop  offset="1" style="stop-color:#2977A7"/>
	</radialGradient>
	<path class="st4" d="M36.2,0.9h2.1v0.2h-0.5c-0.1,0-0.1,0-0.2,0.1s-0.1,0.1-0.1,0.2v3.5c0,0.1,0,0.1,0.1,0.2c0,0,0.1,0.1,0.3,0.1
		h0.6c0.3,0,0.6-0.1,0.8-0.3c0.2-0.2,0.4-0.6,0.5-1.2H40l-0.1,1.7h-3.7V5.1h0.4c0.1,0,0.2,0,0.3-0.1s0.1-0.1,0.1-0.2V1.3
		c0-0.1,0-0.1-0.1-0.2s-0.1-0.1-0.2-0.1h-0.5V0.9z"/>
	<radialGradient id="SVGID_5_" cx="41.373" cy="3.0845" r="1.7349" gradientUnits="userSpaceOnUse">
		<stop  offset="0" style="stop-color:#92ADCC"/>
		<stop  offset="0.5" style="stop-color:#7299BF"/>
		<stop  offset="1" style="stop-color:#2977A7"/>
	</radialGradient>
	<path class="st5" d="M40.3,0.9h2.1v0.2H42c-0.2,0-0.3,0-0.3,0.1s-0.1,0.1-0.1,0.2v3.4c0,0.1,0,0.2,0.1,0.3c0,0,0.1,0.1,0.3,0.1h0.4
		v0.2h-2.1V5.1h0.4c0.1,0,0.2,0,0.3-0.1s0.1-0.1,0.1-0.3V1.4c0-0.1,0-0.2-0.1-0.2c-0.1,0-0.2-0.1-0.3-0.1h-0.3V0.9z"/>
	<radialGradient id="SVGID_6_" cx="45.2124" cy="3.0845" r="2.2799" gradientUnits="userSpaceOnUse">
		<stop  offset="0" style="stop-color:#92ADCC"/>
		<stop  offset="0.5" style="stop-color:#7299BF"/>
		<stop  offset="1" style="stop-color:#2977A7"/>
	</radialGradient>
	<path class="st6" d="M42.9,0.9h1.1l2.7,3.5V1.8c0-0.3-0.1-0.4-0.2-0.6c-0.1-0.1-0.3-0.2-0.5-0.2V0.9h1.6v0.2c-0.2,0-0.3,0-0.4,0.1
		c-0.1,0-0.1,0.1-0.2,0.2c-0.1,0.1-0.1,0.2-0.1,0.4v3.5h-0.3l-2.8-3.6v2.7c0,0.2,0.1,0.4,0.2,0.5c0.1,0.1,0.3,0.2,0.6,0.2v0.2h-1.7
		V5.1c0.2,0,0.4-0.1,0.5-0.2c0.1-0.1,0.2-0.3,0.2-0.5v-3l-0.1-0.1c-0.1-0.1-0.2-0.2-0.2-0.2c-0.1,0-0.1,0-0.2,0h-0.2V0.9z"/>
	<radialGradient id="SVGID_7_" cx="50.1294" cy="3.0908" r="2.2445" gradientUnits="userSpaceOnUse">
		<stop  offset="0" style="stop-color:#92ADCC"/>
		<stop  offset="0.5" style="stop-color:#7299BF"/>
		<stop  offset="1" style="stop-color:#2977A7"/>
	</radialGradient>
	<path class="st7" d="M51.1,1.2l0.2-0.4h0.2l0.1,1.8h-0.2C51.3,2,51.2,1.7,51,1.4C50.7,1.1,50.4,1,50.1,1c-0.3,0-0.5,0.1-0.7,0.2
		c-0.2,0.1-0.4,0.4-0.5,0.7s-0.2,0.7-0.2,1.2c0,0.5,0.1,0.9,0.2,1.2s0.3,0.5,0.5,0.6s0.4,0.2,0.7,0.2c0.4,0,0.6-0.1,0.8-0.3
		c0.2-0.2,0.3-0.5,0.3-0.8V3.7c0-0.1,0-0.1-0.1-0.2c-0.1,0-0.1-0.1-0.3-0.1h-0.4V3.3h1.9v0.2H52c-0.1,0-0.2,0-0.2,0.1
		s-0.1,0.1-0.1,0.2v1.7h-0.2c-0.1-0.3-0.1-0.5-0.2-0.8c-0.2,0.2-0.3,0.4-0.5,0.6c-0.2,0.1-0.4,0.2-0.7,0.2c-0.4,0-0.7-0.1-1-0.3
		c-0.3-0.2-0.6-0.5-0.8-0.8C48.1,3.9,48,3.5,48,3.1c0-0.4,0.1-0.8,0.3-1.2s0.4-0.6,0.8-0.8c0.3-0.2,0.7-0.3,1-0.3
		c0.2,0,0.4,0,0.5,0.1C50.7,0.9,50.9,1,51.1,1.2z"/>
</g>
</svg>
