<?xml version="1.0" encoding="utf-8"?>
<!-- Generator: Adobe Illustrator 25.1.0, SVG Export Plug-In . SVG Version: 6.00 Build 0)  -->
<svg version="1.1" id="レイヤー_1" xmlns="http://www.w3.org/2000/svg" xmlns:xlink="http://www.w3.org/1999/xlink" x="0px"
	 y="0px" viewBox="0 0 61.9 11" style="enable-background:new 0 0 61.9 11;" xml:space="preserve">
<style type="text/css">
	.st0{enable-background:new    ;}
	.st1{fill:url(#SVGID_1_);}
	.st2{fill:url(#SVGID_2_);}
	.st3{fill:url(#SVGID_3_);}
	.st4{fill:url(#SVGID_4_);}
	.st5{fill:url(#SVGID_5_);}
	.st6{fill:url(#SVGID_6_);}
	.st7{fill:url(#SVGID_7_);}
</style>
<g class="st0">
	
		<radialGradient id="SVGID_1_" cx="2.4289" cy="4.4992" r="2.7667" gradientTransform="matrix(1 0 0 -1 0 12)" gradientUnits="userSpaceOnUse">
		<stop  offset="0" style="stop-color:#92ADCC"/>
		<stop  offset="0.5" style="stop-color:#7299BF"/>
		<stop  offset="1" style="stop-color:#2977A7"/>
	</radialGradient>
	<path class="st1" d="M3.6,4.9L4,4.3h0.3v2.2H4C3.9,5.9,3.6,5.3,3.2,5C2.9,4.8,2.5,4.6,2.1,4.6c-0.4,0-0.7,0.1-1,0.3
		C0.8,5.2,0.7,5.4,0.7,5.7c0,0.1,0,0.4,0.1,0.6C1,6.4,1.1,6.6,1.2,6.7s0.6,0.1,1,0.3c0.7,0.1,1.1,0.3,1.4,0.4S4,7.7,4.2,7.9
		c0.1,0.3,0.1,0.6,0.1,0.8c0,0.6-0.1,1-0.6,1.4c-0.4,0.4-0.8,0.6-1.4,0.6c-0.7,0-1.2-0.1-1.7-0.6l-0.4,0.6H0V8.2h0.3
		c0.1,0.7,0.4,1.2,0.8,1.5c0.4,0.4,0.8,0.6,1.4,0.6c0.4,0,0.7-0.1,1-0.4c0.3-0.3,0.4-0.6,0.4-0.8c0-0.1,0-0.4-0.1-0.6
		S3.5,8.2,3.3,8.1C3.1,7.9,2.6,7.8,2.1,7.7C1.4,7.5,1,7.4,0.7,7.1c-0.3,0-0.4-0.4-0.4-1s0.1-1,0.6-1.4s0.8-0.6,1.4-0.6
		c0.3,0,0.6,0,0.7,0.1C3.1,4.5,3.3,4.6,3.6,4.9z"/>
	
		<radialGradient id="SVGID_2_" cx="8.2038" cy="4.4931" r="2.8585" gradientTransform="matrix(1 0 0 -1 0 12)" gradientUnits="userSpaceOnUse">
		<stop  offset="0" style="stop-color:#92ADCC"/>
		<stop  offset="0.5" style="stop-color:#7299BF"/>
		<stop  offset="1" style="stop-color:#2977A7"/>
	</radialGradient>
	<path class="st2" d="M5.6,4.5h4.9l0.1,2.1h-0.3C10.1,5.9,10,5.4,9.7,5.2c-0.3-0.3-0.6-0.4-1-0.4H7.5c-0.1,0-0.1,0-0.3,0.1
		C7.1,5,7.1,5,7.1,5.2v2.2h0.6c0.3,0,0.6-0.1,0.7-0.3c0.1-0.1,0.3-0.6,0.3-1h0.3v2.9H8.6c0-0.4-0.1-0.8-0.3-1
		C8.2,7.9,7.9,7.8,7.6,7.8H7.2v2.5c0,0.1,0,0.1,0.1,0.1c0.1,0,0.1,0.1,0.3,0.1h1c1,0,1.7-0.7,1.8-1.9h0.3L10.6,11H5.4v-0.7h0.4
		c0.1,0,0.3,0,0.4-0.1c0,0,0.1-0.1,0.1-0.3V5c0-0.1,0-0.1-0.1-0.3c0,0-0.1-0.1-0.3-0.1H5.4V4.5H5.6z"/>
	
		<radialGradient id="SVGID_3_" cx="14.1449" cy="4.4931" r="2.8796" gradientTransform="matrix(1 0 0 -1 0 12)" gradientUnits="userSpaceOnUse">
		<stop  offset="0" style="stop-color:#92ADCC"/>
		<stop  offset="0.5" style="stop-color:#7299BF"/>
		<stop  offset="1" style="stop-color:#2977A7"/>
	</radialGradient>
	<path class="st3" d="M11.5,4.5h2.9v0.3h-0.7c-0.1,0-0.1,0-0.3,0.1C13.3,5,13.3,5,13.3,5.2V10c0,0.1,0,0.1,0.1,0.3
		c0,0,0.1,0.1,0.4,0.1h0.8c0.4,0,0.8-0.1,1.1-0.4c0.3-0.3,0.6-0.8,0.7-1.7h0.3l-0.1,2.4h-5.1v-0.4h0.6c0.1,0,0.3,0,0.4-0.1
		c0.1-0.1,0.1-0.1,0.1-0.3V5c0-0.1,0-0.1-0.1-0.3c-0.1-0.1-0.1-0.1-0.3-0.1h-0.7C11.5,4.6,11.5,4.5,11.5,4.5z"/>
	
		<radialGradient id="SVGID_4_" cx="19.8576" cy="4.4931" r="2.8802" gradientTransform="matrix(1 0 0 -1 0 12)" gradientUnits="userSpaceOnUse">
		<stop  offset="0" style="stop-color:#92ADCC"/>
		<stop  offset="0.5" style="stop-color:#7299BF"/>
		<stop  offset="1" style="stop-color:#2977A7"/>
	</radialGradient>
	<path class="st4" d="M17.2,4.5h2.9v0.3h-0.7c-0.1,0-0.1,0-0.3,0.1C19,5,19,5,19,5.2V10c0,0.1,0,0.1,0.1,0.3c0,0,0.1,0.1,0.4,0.1
		h0.8c0.4,0,0.8-0.1,1.1-0.4c0.3-0.3,0.6-0.8,0.7-1.7h0.3l-0.1,2.4h-5.1v-0.4h0.6c0.1,0,0.3,0,0.4-0.1c0.1-0.1,0.1-0.1,0.1-0.3V5
		c0-0.1,0-0.1-0.1-0.3c-0.1-0.1-0.1-0.1-0.3-0.1h-0.7V4.5z"/>
	
		<radialGradient id="SVGID_5_" cx="24.4026" cy="4.4931" r="2.4092" gradientTransform="matrix(1 0 0 -1 0 12)" gradientUnits="userSpaceOnUse">
		<stop  offset="0" style="stop-color:#92ADCC"/>
		<stop  offset="0.5" style="stop-color:#7299BF"/>
		<stop  offset="1" style="stop-color:#2977A7"/>
	</radialGradient>
	<path class="st5" d="M22.9,4.5h2.9v0.3h-0.6c-0.3,0-0.4,0-0.4,0.1c0,0.1-0.1,0.1-0.1,0.3v4.7c0,0.1,0,0.3,0.1,0.4
		c0,0,0.1,0.1,0.4,0.1h0.6v0.3h-2.9v-0.4h0.6c0.1,0,0.3,0,0.4-0.1C24,10,24,10,24,9.8V5.2c0-0.1,0-0.3-0.1-0.3
		c-0.1,0-0.3-0.1-0.4-0.1h-0.4V4.5H22.9z"/>
	
		<radialGradient id="SVGID_6_" cx="29.7342" cy="4.4931" r="3.166" gradientTransform="matrix(1 0 0 -1 0 12)" gradientUnits="userSpaceOnUse">
		<stop  offset="0" style="stop-color:#92ADCC"/>
		<stop  offset="0.5" style="stop-color:#7299BF"/>
		<stop  offset="1" style="stop-color:#2977A7"/>
	</radialGradient>
	<path class="st6" d="M26.5,4.5h1.5l3.7,4.9V5.7c0-0.4-0.1-0.6-0.3-0.8c-0.1-0.1-0.4-0.3-0.7-0.3V4.5H33v0.3c-0.3,0-0.4,0-0.6,0.1
		c-0.1,0-0.1,0.1-0.3,0.3c-0.1,0.1-0.1,0.3-0.1,0.6v4.9h-0.4l-3.9-5v3.7c0,0.3,0.1,0.6,0.3,0.7c0.1,0.1,0.4,0.3,0.8,0.3v0.3h-2.4
		v-0.3c0.3,0,0.6-0.1,0.7-0.3c0.1-0.1,0.3-0.4,0.3-0.7V5.2L27.4,5c-0.1-0.1-0.3-0.3-0.3-0.3c-0.1,0-0.1,0-0.3,0h-0.3
		C26.5,4.8,26.5,4.5,26.5,4.5z"/>
	
		<radialGradient id="SVGID_7_" cx="36.5621" cy="4.4844" r="3.1168" gradientTransform="matrix(1 0 0 -1 0 12)" gradientUnits="userSpaceOnUse">
		<stop  offset="0" style="stop-color:#92ADCC"/>
		<stop  offset="0.5" style="stop-color:#7299BF"/>
		<stop  offset="1" style="stop-color:#2977A7"/>
	</radialGradient>
	<path class="st7" d="M37.9,4.9l0.3-0.6h0.3l0.1,2.5h-0.3C38.2,6,38,5.6,37.8,5.2c-0.4-0.4-0.8-0.6-1.2-0.6c-0.4,0-0.7,0.1-1,0.3
		c-0.3,0.1-0.6,0.6-0.7,1c-0.1,0.4-0.3,1-0.3,1.7s0.1,1.2,0.3,1.7c0.1,0.4,0.4,0.7,0.7,0.8c0.3,0.1,0.6,0.3,1,0.3
		c0.6,0,0.8-0.1,1.1-0.4C37.9,9.6,38,9.2,38,8.8V8.4c0-0.1,0-0.1-0.1-0.3c-0.1,0-0.1-0.1-0.4-0.1h-0.6V7.8h2.6v0.3h-0.4
		c-0.1,0-0.3,0-0.3,0.1c0,0.1-0.1,0.1-0.1,0.3v2.4h-0.3c-0.1-0.4-0.1-0.7-0.3-1.1c-0.3,0.3-0.4,0.6-0.7,0.8c-0.3,0.1-0.6,0.3-1,0.3
		c-0.6,0-1-0.1-1.4-0.4c-0.4-0.3-0.8-0.7-1.1-1.1c-0.3-0.7-0.4-1.2-0.4-1.8s0.1-1.1,0.4-1.7s0.6-0.8,1.1-1.1c0.4-0.3,1-0.4,1.4-0.4
		c0.3,0,0.6,0,0.7,0.1C37.4,4.5,37.6,4.6,37.9,4.9z"/>
</g>
</svg>
