<?xml version="1.0" encoding="utf-8"?>
<!-- Generator: Adobe Illustrator 25.1.0, SVG Export Plug-In . SVG Version: 6.00 Build 0)  -->
<svg version="1.1" id="レイヤー_1" xmlns="http://www.w3.org/2000/svg" xmlns:xlink="http://www.w3.org/1999/xlink" x="0px"
	 y="0px" viewBox="0 0 61 59" style="enable-background:new 0 0 61 59;" xml:space="preserve">
<style type="text/css">
	.st0{opacity:0.75;}
	.st1{fill:#D1D1D1;}
	.st2{fill:#E8F9FF;}
</style>
<g>
	<g class="st0">
		<path class="st1" d="M28.7,35.5c0.1-0.3,0.1-0.6,0.1-0.9v-1c0-1.9-1.5-3.7-4.3-4.9c-2.5-1.2-5.9-1.8-9.5-1.8
			c-3.6,0-6.9,0.6-9.5,1.8c-2.7,1.3-4.3,3-4.3,4.9v1c0,1.9,1.5,3.6,4.1,4.9c-0.1,0.3-0.1,0.7-0.1,0.9v0.2c-2.6,1.3-4,3-4,4.8v1
			c0,1.3,0.7,2.5,2,3.6c-0.2,0.4-0.3,0.9-0.3,1.4v1c0,1.9,1.5,3.7,4.3,4.9c2.5,1.2,5.9,1.8,9.5,1.8c3.6,0,6.9-0.6,9.5-1.8
			c2.7-1.3,4.3-3,4.3-4.9v-1c0-1.3-0.7-2.5-2-3.6c0.2-0.4,0.3-0.9,0.3-1.4v-0.2c2.6-1.3,4-3,4-4.8v-1C32.8,38.5,31.3,36.8,28.7,35.5
			L28.7,35.5z M3.3,32.8c0.4-1,1.5-1.9,3.1-2.6c2.3-1.1,5.4-1.7,8.7-1.7c3.3,0,6.4,0.6,8.7,1.7c1.6,0.7,2.7,1.7,3.1,2.6
			c-1.4,2.3-6.3,4-11.8,4C9.6,36.8,4.7,35.2,3.3,32.8L3.3,32.8z M3.3,44.6c0.3-0.8,1.1-1.5,2.3-2.2c0.4,1.5,1.9,2.9,4.1,3.9
			c2.5,1.2,5.9,1.8,9.5,1.8c0.3,0,0.7,0,1,0c-1.6,0.3-3.3,0.5-5.1,0.5C9.6,48.6,4.7,46.9,3.3,44.6L3.3,44.6z M28.6,50.5
			c-1.4,2.3-6.3,4-11.8,4c-4.8,0-9.1-1.3-11.1-3.1c2.5,1.1,5.8,1.8,9.4,1.8c3.6,0,6.9-0.6,9.5-1.8c1.3-0.6,2.4-1.3,3.1-2.1
			C28.1,49.6,28.4,50,28.6,50.5L28.6,50.5z M19.1,43.6c-4.8,0-9.1-1.3-11.1-3.2c2.1,0.6,4.5,0.9,7.1,0.9c3.6,0,6.9-0.6,9.5-1.8
			c1.5-0.7,2.7-1.6,3.4-2.5c1.5,0.7,2.6,1.6,2.9,2.6C29.5,41.9,24.6,43.6,19.1,43.6L19.1,43.6z"/>
	</g>
	<g>
		<g>
			<g>
				<path class="st2" d="M27.7,34.5c0.1-0.3,0.1-0.6,0.1-0.9v-1c0-1.9-1.5-3.7-4.3-4.9c-2.5-1.2-5.9-1.8-9.5-1.8
					c-3.6,0-6.9,0.6-9.5,1.8c-2.7,1.3-4.3,3-4.3,4.9v1c0,1.9,1.5,3.6,4.1,4.9c-0.1,0.3-0.1,0.7-0.1,0.9v0.2c-2.6,1.3-4,3-4,4.8v1
					c0,1.3,0.7,2.5,2,3.6c-0.2,0.4-0.3,0.9-0.3,1.4v1c0,1.9,1.5,3.7,4.3,4.9c2.5,1.2,5.9,1.8,9.5,1.8c3.6,0,6.9-0.6,9.5-1.8
					c2.7-1.3,4.3-3,4.3-4.9v-1c0-1.3-0.7-2.5-2-3.6c0.2-0.4,0.3-0.9,0.3-1.4v-0.2c2.6-1.3,4-3,4-4.8v-1
					C31.8,37.5,30.3,35.8,27.7,34.5L27.7,34.5z M2.3,31.8c0.4-1,1.5-1.9,3.1-2.6c2.3-1.1,5.4-1.7,8.7-1.7c3.3,0,6.4,0.6,8.7,1.7
					c1.6,0.7,2.7,1.7,3.1,2.6c-1.4,2.3-6.3,4-11.8,4C8.6,35.8,3.7,34.2,2.3,31.8L2.3,31.8z M2.3,43.6c0.3-0.8,1.1-1.5,2.3-2.2
					c0.4,1.5,1.9,2.9,4.1,3.9c2.5,1.2,5.9,1.8,9.5,1.8c0.3,0,0.7,0,1,0c-1.6,0.3-3.3,0.5-5.1,0.5C8.6,47.6,3.7,45.9,2.3,43.6
					L2.3,43.6z M27.6,49.5c-1.4,2.3-6.3,4-11.8,4c-4.8,0-9.1-1.3-11.1-3.1c2.5,1.1,5.8,1.8,9.4,1.8c3.6,0,6.9-0.6,9.5-1.8
					c1.3-0.6,2.4-1.3,3.1-2.1C27.1,48.6,27.4,49,27.6,49.5L27.6,49.5z M18.1,42.6c-4.8,0-9.1-1.3-11.1-3.2c2.1,0.6,4.5,0.9,7.1,0.9
					c3.6,0,6.9-0.6,9.5-1.8c1.5-0.7,2.7-1.6,3.4-2.5c1.5,0.7,2.6,1.6,2.9,2.6C28.5,40.9,23.6,42.6,18.1,42.6L18.1,42.6z"/>
			</g>
		</g>
	</g>
</g>
<g>
	<g class="st0">
		<path class="st1" d="M24.5,2.7v6.6h2.2v18.9c0,1.7,1.4,3.1,3.1,3.1H42v1.7c-1.2,0.5-2.1,1.8-2.1,3.3c0,2,1.4,3.5,3.2,3.5
			c1.7,0,3.2-1.6,3.2-3.5c0-1.5-0.9-2.8-2.1-3.3v-1.7h12.1c1.7,0,3.1-1.4,3.1-3.1V9.2h2.2V2.7H24.5z M43.1,37.4c-0.6,0-1-0.5-1-1.2
			c0-0.6,0.5-1.2,1-1.2c0.6,0,1,0.5,1,1.2C44.1,36.9,43.7,37.4,43.1,37.4L43.1,37.4z M57.3,28.1c0,0.4-0.4,0.7-1,0.7H29.9
			c-0.6,0-1-0.4-1-0.7V9.2h28.4V28.1z"/>
		<path class="st1" d="M33.6,26.1h21.5c0.2,0,0.3-0.2,0.3-0.3v-1.5c0-0.2-0.1-0.3-0.3-0.3h-2.4v-4.2c0-0.3-0.3-0.6-0.6-0.6h-1.4
			c-0.3,0-0.6,0.3-0.6,0.6V24H49v-7.2c0-0.3-0.3-0.6-0.6-0.6H47c-0.3,0-0.6,0.3-0.6,0.6V24h-1.1V12.7c0-0.4-0.3-0.8-0.7-0.8h-1.1
			c-0.4,0-0.7,0.4-0.7,0.8V24h-1.1v-4.2c0-0.2-0.2-0.4-0.4-0.4h-1.8c-0.2,0-0.4,0.2-0.4,0.4V24h-1.1v-8.4c0-0.4-0.3-0.8-0.7-0.8
			h-1.1c-0.4,0-0.7,0.4-0.7,0.8V24h-2c-0.2,0-0.3,0.1-0.3,0.3v1.5C33.3,26,33.4,26.1,33.6,26.1L33.6,26.1z"/>
	</g>
	<g>
		<g>
			<path class="st2" d="M23.5,1.7v6.6h2.2v18.9c0,1.7,1.4,3.1,3.1,3.1H41v1.7c-1.2,0.5-2.1,1.8-2.1,3.3c0,2,1.4,3.5,3.2,3.5
				c1.7,0,3.2-1.6,3.2-3.5c0-1.5-0.9-2.8-2.1-3.3v-1.7h12.1c1.7,0,3.1-1.4,3.1-3.1V8.2h2.2V1.7H23.5z M42.1,36.4c-0.6,0-1-0.5-1-1.2
				c0-0.6,0.5-1.2,1-1.2c0.6,0,1,0.5,1,1.2C43.1,35.9,42.7,36.4,42.1,36.4L42.1,36.4z M56.3,27.1c0,0.4-0.4,0.7-1,0.7H28.9
				c-0.6,0-1-0.4-1-0.7V8.2h28.4V27.1z"/>
			<path class="st2" d="M32.6,25.1h21.5c0.2,0,0.3-0.2,0.3-0.3v-1.5c0-0.2-0.1-0.3-0.3-0.3h-2.4v-4.2c0-0.3-0.3-0.6-0.6-0.6h-1.4
				c-0.3,0-0.6,0.3-0.6,0.6V23H48v-7.2c0-0.3-0.3-0.6-0.6-0.6H46c-0.3,0-0.6,0.3-0.6,0.6V23h-1.1V11.7c0-0.4-0.3-0.8-0.7-0.8h-1.1
				c-0.4,0-0.7,0.4-0.7,0.8V23h-1.1v-4.2c0-0.2-0.2-0.4-0.4-0.4h-1.8c-0.2,0-0.4,0.2-0.4,0.4V23h-1.1v-8.4c0-0.4-0.3-0.8-0.7-0.8
				h-1.1c-0.4,0-0.7,0.4-0.7,0.8V23h-2c-0.2,0-0.3,0.1-0.3,0.3v1.5C32.3,25,32.4,25.1,32.6,25.1L32.6,25.1z"/>
		</g>
	</g>
</g>
</svg>
