<?xml version="1.0" encoding="utf-8"?>
<!-- Generator: Adobe Illustrator 25.1.0, SVG Export Plug-In . SVG Version: 6.00 Build 0)  -->
<svg version="1.1" id="レイヤー_1" xmlns="http://www.w3.org/2000/svg" xmlns:xlink="http://www.w3.org/1999/xlink" x="0px"
	 y="0px" viewBox="0 0 61 59" style="enable-background:new 0 0 61 59;" xml:space="preserve">
<style type="text/css">
	.st0{opacity:0.75;}
	.st1{fill-rule:evenodd;clip-rule:evenodd;fill:#D1D1D1;}
	.st2{fill-rule:evenodd;clip-rule:evenodd;fill:#E8F9FF;}
	.st3{fill:#D1D1D1;}
	.st4{fill:#E8F9FF;}
</style>
<g>
	<g class="st0">
		<polygon class="st1" points="7.7,59.1 7.7,48.5 2.2,54.1 1.7,53.6 1.7,59.1 7.7,59.1 		"/>
		<polygon class="st1" points="15,59.1 15,50.3 10.6,45.5 8.9,47 8.9,59.1 15,59.1 		"/>
		<polygon class="st1" points="22,59.1 22,47.6 16.9,52.4 16,51.4 16,59.1 22,59.1 		"/>
		<polygon class="st1" points="29.3,59.1 29.3,41 23.3,46.6 23.3,59.1 29.3,59.1 		"/>
		<path class="st1" d="M29.1,35c-11.9,11-11.9,11-11.9,11c-5.6-5.8-5.6-5.8-5.6-5.8c-0.3-0.3-0.6-0.4-1-0.4c-0.3,0-0.7,0.2-0.9,0.4
			c-8.1,8.1-8.1,8.1-8.1,8.1c0,2.9,0,2.9,0,2.9c0.6,0.5,0.6,0.5,0.6,0.5c8.4-8.5,8.4-8.5,8.4-8.5c5.6,5.6,5.6,5.6,5.6,5.6
			c0.4,0.6,1.3,0.6,1.9,0.2c11.2-10.4,11.2-10.4,11.2-10.4c0-3.3,0-3.3,0-3.3L29.1,35L29.1,35L29.1,35z"/>
	</g>
	<g>
		<g>
			<polygon class="st2" points="6.7,58.1 6.7,47.5 1.2,53.1 0.7,52.6 0.7,58.1 6.7,58.1 			"/>
			<polygon class="st2" points="14,58.1 14,49.3 9.6,44.5 7.9,46 7.9,58.1 14,58.1 			"/>
			<polygon class="st2" points="21,58.1 21,46.6 15.9,51.4 15,50.4 15,58.1 21,58.1 			"/>
			<polygon class="st2" points="28.3,58.1 28.3,40 22.3,45.6 22.3,58.1 28.3,58.1 			"/>
			<path class="st2" d="M28.1,34c-11.9,11-11.9,11-11.9,11c-5.6-5.8-5.6-5.8-5.6-5.8c-0.3-0.3-0.6-0.4-1-0.4c-0.3,0-0.7,0.2-0.9,0.4
				c-8.1,8.1-8.1,8.1-8.1,8.1c0,2.9,0,2.9,0,2.9c0.6,0.5,0.6,0.5,0.6,0.5C9.6,42,9.6,42,9.6,42c5.6,5.6,5.6,5.6,5.6,5.6
				c0.4,0.6,1.3,0.6,1.9,0.2c11.2-10.4,11.2-10.4,11.2-10.4c0-3.3,0-3.3,0-3.3L28.1,34L28.1,34L28.1,34z"/>
		</g>
	</g>
</g>
<g>
	<g class="st0">
		<path class="st1" d="M35.8,1.7c-2.6,0-4.4,2.1-4.4,4.4c0,1.2,0.6,2.3,1.5,3.2c-5.5,8.1-5.5,8.1-5.5,8.1c-0.3-0.3-0.9-0.6-1.5-0.6
			c-1.7,0-3.2,1.2-3.8,2.3c-3.2-1.7-3.2-1.7-3.2-1.7c0.3-0.3,0.3-0.9,0.3-1.5c0-2.6-2.1-4.4-4.4-4.4s-4.4,1.7-4.4,4.4
			c0,1.2,0.6,2.3,1.5,3.2c-2.4,3-2.4,3-2.4,3c-0.6-0.3-1.5-0.6-2.3-0.6c-2.6,0-4.4,1.7-4.4,4.4c0,2.3,1.7,4.4,4.4,4.4
			c2.3,0,4.4-2.1,4.4-4.4c0-1.2-0.6-2.1-1.2-2.9c2.3-3.2,2.3-3.2,2.3-3.2c0.6,0.3,1.5,0.6,2.1,0.6c1.5,0,2.9-0.9,3.5-2.1
			c3.2,2.1,3.2,2.1,3.2,2.1c0,0.3,0,0.6,0,1.2c0,2.3,1.7,4.4,4.4,4.4c2.3,0,4.4-2.1,4.4-4.4c0-1.5-0.9-2.9-1.7-3.5
			c5.3-8.1,5.3-8.1,5.3-8.1c0.6,0.3,1.2,0.6,2.1,0.6c2.3,0,4.4-2.1,4.4-4.4C40.1,3.8,38.1,1.7,35.8,1.7L35.8,1.7z M7.3,28
			C6.1,28,5,27.1,5,25.9c0-1.5,1.2-2.3,2.3-2.3s2.1,0.9,2.1,2.3C9.3,27.1,8.4,28,7.3,28L7.3,28z M14.9,18.1c-1.2,0-2.1-0.9-2.1-2.1
			s0.9-2.3,2.1-2.3s2.3,1.2,2.3,2.3C17.2,17.2,16,18.1,14.9,18.1L14.9,18.1z M25.9,23.6c-1.2,0-2.3-0.9-2.3-2.1
			c0-1.5,1.2-2.3,2.3-2.3c1.2,0,2.1,0.9,2.1,2.3C27.9,22.8,27,23.6,25.9,23.6L25.9,23.6z M35.8,8.1c-1.5,0-2.3-0.9-2.3-2.1
			s0.9-2.3,2.3-2.3c1.2,0,2.1,1.2,2.1,2.3C37.8,7.3,36.9,8.1,35.8,8.1L35.8,8.1z"/>
	</g>
	<g>
		<g>
			<path class="st2" d="M34.8,0.7c-2.6,0-4.4,2.1-4.4,4.4c0,1.2,0.6,2.3,1.5,3.2c-5.5,8.1-5.5,8.1-5.5,8.1c-0.3-0.3-0.9-0.6-1.5-0.6
				c-1.7,0-3.2,1.2-3.8,2.3c-3.2-1.7-3.2-1.7-3.2-1.7c0.3-0.3,0.3-0.9,0.3-1.5c0-2.6-2.1-4.4-4.4-4.4S9.5,12.3,9.5,15
				c0,1.2,0.6,2.3,1.5,3.2c-2.4,3-2.4,3-2.4,3c-0.6-0.3-1.5-0.6-2.3-0.6c-2.6,0-4.4,1.7-4.4,4.4c0,2.3,1.7,4.4,4.4,4.4
				c2.3,0,4.4-2.1,4.4-4.4c0-1.2-0.6-2.1-1.2-2.9c2.3-3.2,2.3-3.2,2.3-3.2c0.6,0.3,1.5,0.6,2.1,0.6c1.5,0,2.9-0.9,3.5-2.1
				c3.2,2.1,3.2,2.1,3.2,2.1c0,0.3,0,0.6,0,1.2c0,2.3,1.7,4.4,4.4,4.4c2.3,0,4.4-2.1,4.4-4.4c0-1.5-0.9-2.9-1.7-3.5
				c5.3-8.1,5.3-8.1,5.3-8.1c0.6,0.3,1.2,0.6,2.1,0.6c2.3,0,4.4-2.1,4.4-4.4C39.1,2.8,37.1,0.7,34.8,0.7L34.8,0.7z M6.3,27
				C5.1,27,4,26.1,4,24.9c0-1.5,1.2-2.3,2.3-2.3s2.1,0.9,2.1,2.3C8.3,26.1,7.4,27,6.3,27L6.3,27z M13.9,17.1c-1.2,0-2.1-0.9-2.1-2.1
				s0.9-2.3,2.1-2.3s2.3,1.2,2.3,2.3C16.2,16.2,15,17.1,13.9,17.1L13.9,17.1z M24.9,22.6c-1.2,0-2.3-0.9-2.3-2.1
				c0-1.5,1.2-2.3,2.3-2.3c1.2,0,2.1,0.9,2.1,2.3C26.9,21.8,26,22.6,24.9,22.6L24.9,22.6z M34.8,7.1c-1.5,0-2.3-0.9-2.3-2.1
				s0.9-2.3,2.3-2.3c1.2,0,2.1,1.2,2.1,2.3C36.8,6.3,35.9,7.1,34.8,7.1L34.8,7.1z"/>
		</g>
	</g>
</g>
<g>
	<g class="st0">
		<path class="st3" d="M57.8,31.4c-1,1.1-1.9,2.2-2.6,3.8c-0.3,0.7-1,1.2-1.8,1.2c-0.8,0-1.5-0.5-1.8-1.2c-0.8-1.9-1.9-3.1-3-4.4
			c-0.3-0.3-0.6-0.6-0.8-0.9c0,0,0,0,0,0c-1.1,0.3-1.9,1.8-1.4,2.9c0.3,0.8,2.7,0.6,2.5,2.4c-0.2,1.4,1.7,1.8,2.3,1.7
			c0.7-0.1,1.7,1.1,1.2,1.6c-0.5,0.5-1.5,0.5-1.3,1.8c0,0.4,1.2,0.3,1.2,0.9c0,0.6-0.6,1.2-0.1,1.9c0.1,0.1,0.2,0.3,0.3,0.3
			c-2.2,2-5.2,3.3-8.4,3.3c-6.8,0-12.4-5.6-12.4-12.4c0-2.1,0.5-4,1.4-5.8c0,2.2,1.2,4.1,1.7,4.6c1.8,1.8,4.5,1.2,4.8,2.8
			c0.3,1.5-1.8,1.5-1.7,2.7c0.1,1.2,2.9,1.5,2.3,2.5c-0.8,1.4,0.6,1.5,0.2,3.3c-0.2,1,1.2,1.1,1.7,0.4c0.4-0.6,0.3-1.2,1.1-2.1
			c1-1,3.2-1.2,3-2.9c-0.4-2.8-3.2-3.3-4.4-3.9c-1.4-0.7-1-2.5-1.3-3.4c-0.4-1.2-1.8,0.3-2.5-0.4c-1.2-1.2,0.2-2.8,1.2-2.8
			c2.2,0.1,2.8,2.2,3.6,2.1c0.8-0.1,1.3-1.2,1.4-1.7c0.3-1.3-0.5-0.7-0.8-1.3c-0.4-0.9,1.5-1.7,2.2-2.4c0.1-0.1,0.2-0.2,0.2-0.3
			c0.2-0.4-0.1-0.8-0.6-1.1c-1-0.6-2.8-1.1-2.8-2c0-0.6,1-0.8,2.3-0.9c0.2,0,0.4,0,0.6,0c0.1-0.6,0.3-1.2,0.5-1.7
			c-0.6-0.1-1.2-0.1-1.8-0.1c-7.8,0-14.1,6.3-14.1,14.1c0,7.8,6.3,14.1,14.1,14.1c7.8,0,14.1-6.3,14.1-14.1
			C58.2,33.5,58,32.4,57.8,31.4L57.8,31.4z M52.8,16.8c-4,0.4-6.7,4.2-6,8.2c0.7,4,4.4,5.2,6.2,9.8c0.2,0.4,0.7,0.4,0.9,0
			c2-5,6.4-6,6.4-11.2C60.3,19.6,56.8,16.4,52.8,16.8L52.8,16.8z M53.4,27.1c-2,0-3.6-1.6-3.6-3.6s1.6-3.6,3.6-3.6
			c2,0,3.6,1.6,3.6,3.6S55.4,27.1,53.4,27.1L53.4,27.1z"/>
	</g>
	<g>
		<g>
			<g>
				<path class="st4" d="M56.8,30.4c-1,1.1-1.9,2.2-2.6,3.8c-0.3,0.7-1,1.2-1.8,1.2c-0.8,0-1.5-0.5-1.8-1.2c-0.8-1.9-1.9-3.1-3-4.4
					c-0.3-0.3-0.6-0.6-0.8-0.9c0,0,0,0,0,0c-1.1,0.3-1.9,1.8-1.4,2.9c0.3,0.8,2.7,0.6,2.5,2.4c-0.2,1.4,1.7,1.8,2.3,1.7
					c0.7-0.1,1.7,1.1,1.2,1.6c-0.5,0.5-1.5,0.5-1.3,1.8c0,0.4,1.2,0.3,1.2,0.9c0,0.6-0.6,1.2-0.1,1.9c0.1,0.1,0.2,0.3,0.3,0.3
					c-2.2,2-5.2,3.3-8.4,3.3c-6.8,0-12.4-5.6-12.4-12.4c0-2.1,0.5-4,1.4-5.8c0,2.2,1.2,4.1,1.7,4.6c1.8,1.8,4.5,1.2,4.8,2.8
					c0.3,1.5-1.8,1.5-1.7,2.7c0.1,1.2,2.9,1.5,2.3,2.5c-0.8,1.4,0.6,1.5,0.2,3.3c-0.2,1,1.2,1.1,1.7,0.4c0.4-0.6,0.3-1.2,1.1-2.1
					c1-1,3.2-1.2,3-2.9c-0.4-2.8-3.2-3.3-4.4-3.9c-1.4-0.7-1-2.5-1.3-3.4c-0.4-1.2-1.8,0.3-2.5-0.4c-1.2-1.2,0.2-2.8,1.2-2.8
					c2.2,0.1,2.8,2.2,3.6,2.1c0.8-0.1,1.3-1.2,1.4-1.7c0.3-1.3-0.5-0.7-0.8-1.3c-0.4-0.9,1.5-1.7,2.2-2.4c0.1-0.1,0.2-0.2,0.2-0.3
					c0.2-0.4-0.1-0.8-0.6-1.1c-1-0.6-2.8-1.1-2.8-2c0-0.6,1-0.8,2.3-0.9c0.2,0,0.4,0,0.6,0c0.1-0.6,0.3-1.2,0.5-1.7
					c-0.6-0.1-1.2-0.1-1.8-0.1c-7.8,0-14.1,6.3-14.1,14.1c0,7.8,6.3,14.1,14.1,14.1c7.8,0,14.1-6.3,14.1-14.1
					C57.2,32.5,57,31.4,56.8,30.4L56.8,30.4z M51.8,15.8c-4,0.4-6.7,4.2-6,8.2c0.7,4,4.4,5.2,6.2,9.8c0.2,0.4,0.7,0.4,0.9,0
					c2-5,6.4-6,6.4-11.2C59.3,18.6,55.8,15.4,51.8,15.8L51.8,15.8z M52.4,26.1c-2,0-3.6-1.6-3.6-3.6s1.6-3.6,3.6-3.6
					c2,0,3.6,1.6,3.6,3.6S54.4,26.1,52.4,26.1L52.4,26.1z"/>
			</g>
		</g>
	</g>
</g>
</svg>
