<?xml version="1.0" encoding="utf-8"?>
<!-- Generator: Adobe Illustrator 25.1.0, SVG Export Plug-In . SVG Version: 6.00 Build 0)  -->
<svg version="1.1" id="レイヤー_1" xmlns="http://www.w3.org/2000/svg" xmlns:xlink="http://www.w3.org/1999/xlink" x="0px"
	 y="0px" viewBox="0 0 61 59" style="enable-background:new 0 0 61 59;" xml:space="preserve">
<style type="text/css">
	.st0{opacity:0.75;}
	.st1{fill-rule:evenodd;clip-rule:evenodd;fill:#D1D1D1;}
	.st2{fill-rule:evenodd;clip-rule:evenodd;fill:#E8F9FF;}
	.st3{fill:#D1D1D1;}
	.st4{fill:#E8F9FF;}
</style>
<g>
	<g class="st0">
		<path class="st1" d="M56.2,9.1V1.7h-4.1V6l-6.7-4.9L28.8,14l2.7,3.4l1.6-1.1V32h24.7V16.3l1.6,1.1L62,14L56.2,9.1L56.2,9.1
			L56.2,9.1z M55.3,29.6h-5.4v-9.2h-8.7v9.2h-5.4v-15l9.6-7.6l9.7,7.6v15H55.3L55.3,29.6z"/>
	</g>
	<g>
		<g>
			<path class="st2" d="M55.2,8.1V0.7h-4.1V5l-6.7-4.9L27.8,13l2.7,3.4l1.6-1.1V31h24.7V15.3l1.6,1.1L61,13L55.2,8.1L55.2,8.1
				L55.2,8.1z M54.3,28.6h-5.4v-9.2h-8.7v9.2h-5.4v-15l9.6-7.6l9.7,7.6v15H54.3L54.3,28.6z"/>
		</g>
	</g>
</g>
<g>
	<g class="st0">
		<path class="st3" d="M12.4,59.2H19v-6.8h4v6.8h6.6V28.9H12.4V59.2z M22.2,32.5h4v4h-4V32.5z M22.2,38.9h4v4h-4V38.9z M22.2,45.3h4
			v4h-4V45.3z M15.8,32.5h4v4h-4V32.5z M15.8,38.9h4v4h-4V38.9z M15.8,45.3h4v4h-4V45.3z"/>
		<path class="st3" d="M31.1,31.6V53h2.6v6.2h6V31.6H31.1z M36.6,50.1H33v-3.6h3.6V50.1z M36.6,44.3H33v-3.6h3.6V44.3z M36.6,38.5
			H33v-3.6h3.6V38.5z"/>
		<path class="st3" d="M2.2,59.2h6V53h2.6V31.6H2.2V59.2z M5.4,34.9H9v3.6H5.4V34.9z M5.4,40.7H9v3.6H5.4V40.7z M5.4,46.5H9v3.6H5.4
			V46.5z"/>
	</g>
	<g>
		<g>
			<path class="st4" d="M11.4,58.2H18v-6.8h4v6.8h6.6V27.9H11.4V58.2z M21.2,31.5h4v4h-4V31.5z M21.2,37.9h4v4h-4V37.9z M21.2,44.3
				h4v4h-4V44.3z M14.8,31.5h4v4h-4V31.5z M14.8,37.9h4v4h-4V37.9z M14.8,44.3h4v4h-4V44.3z"/>
			<path class="st4" d="M30.1,30.6V52h2.6v6.2h6V30.6H30.1z M35.6,49.1H32v-3.6h3.6V49.1z M35.6,43.3H32v-3.6h3.6V43.3z M35.6,37.5
				H32v-3.6h3.6V37.5z"/>
			<path class="st4" d="M1.2,58.2h6V52h2.6V30.6H1.2V58.2z M4.4,33.9H8v3.6H4.4V33.9z M4.4,39.7H8v3.6H4.4V39.7z M4.4,45.5H8v3.6
				H4.4V45.5z"/>
		</g>
	</g>
</g>
</svg>
