<?xml version="1.0" encoding="utf-8"?>
<!-- Generator: Adobe Illustrator 25.2.0, SVG Export Plug-In . SVG Version: 6.00 Build 0)  -->
<svg version="1.1" id="レイヤー_1" xmlns="http://www.w3.org/2000/svg" xmlns:xlink="http://www.w3.org/1999/xlink" x="0px"
	 y="0px" viewBox="0 0 178.9 30" style="enable-background:new 0 0 178.9 30;" xml:space="preserve">
<style type="text/css">
	.st0{fill:url(#SVGID_1_);}
	.st1{fill:url(#SVGID_2_);}
	.st2{fill:url(#SVGID_3_);}
	.st3{fill:url(#SVGID_4_);}
	.st4{fill:url(#SVGID_5_);}
	.st5{fill:url(#SVGID_6_);}
	.st6{fill:url(#SVGID_7_);}
	.st7{opacity:0.75;}
	.st8{fill:#6F7A9A;}
</style>
<g>
	
		<linearGradient id="SVGID_1_" gradientUnits="userSpaceOnUse" x1="1.709" y1="15.2281" x2="3.3201" y2="15.2281" gradientTransform="matrix(1 0 0 -1 0 30.3457)">
		<stop  offset="0" style="stop-color:#EFF1F5"/>
		<stop  offset="0.5" style="stop-color:#D1D4E1"/>
		<stop  offset="1" style="stop-color:#ABB1C7"/>
	</linearGradient>
	<rect x="1.7" y="4.7" class="st0" width="1.6" height="20.8"/>
	
		<linearGradient id="SVGID_2_" gradientUnits="userSpaceOnUse" x1="5.3419" y1="15.2281" x2="7.0583" y2="15.2281" gradientTransform="matrix(1 0 0 -1 0 30.3457)">
		<stop  offset="0" style="stop-color:#EFF1F5"/>
		<stop  offset="0.5" style="stop-color:#D1D4E1"/>
		<stop  offset="1" style="stop-color:#ABB1C7"/>
	</linearGradient>
	<rect x="5.4" y="4.7" class="st1" width="1.7" height="20.8"/>
	
		<linearGradient id="SVGID_3_" gradientUnits="userSpaceOnUse" x1="8.4852" y1="15.2281" x2="9.6382" y2="15.2281" gradientTransform="matrix(1 0 0 -1 0 30.3457)">
		<stop  offset="0" style="stop-color:#EFF1F5"/>
		<stop  offset="0.5" style="stop-color:#D1D4E1"/>
		<stop  offset="1" style="stop-color:#ABB1C7"/>
	</linearGradient>
	<rect x="8.5" y="4.7" class="st2" width="1.2" height="20.8"/>
	
		<linearGradient id="SVGID_4_" gradientUnits="userSpaceOnUse" x1="21.1266" y1="15.3459" x2="22.8747" y2="15.3459" gradientTransform="matrix(1 0 0 -1 0 30.3457)">
		<stop  offset="0" style="stop-color:#EFF1F5"/>
		<stop  offset="0.5" style="stop-color:#D1D4E1"/>
		<stop  offset="1" style="stop-color:#ABB1C7"/>
	</linearGradient>
	<rect x="21.1" y="4.6" class="st3" width="1.7" height="20.7"/>
	
		<linearGradient id="SVGID_5_" gradientUnits="userSpaceOnUse" x1="26.1443" y1="15.2674" x2="27.7712" y2="15.2674" gradientTransform="matrix(1 0 0 -1 0 30.3457)">
		<stop  offset="0" style="stop-color:#EFF1F5"/>
		<stop  offset="0.5" style="stop-color:#D1D4E1"/>
		<stop  offset="1" style="stop-color:#ABB1C7"/>
	</linearGradient>
	<rect x="26.2" y="4.7" class="st4" width="1.6" height="20.7"/>
	
		<linearGradient id="SVGID_6_" gradientUnits="userSpaceOnUse" x1="11.6284" y1="15.3067" x2="19.1312" y2="15.3067" gradientTransform="matrix(1 0 0 -1 0 30.3457)">
		<stop  offset="0" style="stop-color:#EFF1F5"/>
		<stop  offset="0.5" style="stop-color:#D1D4E1"/>
		<stop  offset="1" style="stop-color:#ABB1C7"/>
	</linearGradient>
	<polygon class="st5" points="11.6,4.7 19.1,4.7 19.1,25.4 17.3,25.4 17.2,7.9 	"/>
	
		<linearGradient id="SVGID_7_" gradientUnits="userSpaceOnUse" x1="6.9888" y1="21.0219" x2="21.9285" y2="6.0822" gradientTransform="matrix(1 0 0 -1 0 30.3457)">
		<stop  offset="0" style="stop-color:#FFFFFF"/>
		<stop  offset="0.6854" style="stop-color:#6F7A9A"/>
		<stop  offset="1" style="stop-color:#6F7A9A"/>
	</linearGradient>
	<polygon class="st6" points="11.6,4.7 17.2,7.9 17.3,28.9 11.5,25.4 	"/>
</g>
<g>
	<g class="st7">
		<path class="st8" d="M35.8,26.2h1.9c0.5,0,0.9-0.2,1.2-0.5c0.2-0.4,0.9-2.2,1.8-4.9l3.6-11.3c0.9-3.1,1.6-5.3,2.4-7.9h2.5
			c0.6,2.3,1.3,4.2,1.9,6l3.4,10c1,3.1,2,5.9,3,8.5h3.1v0.9H48.6v-0.9H52l-2.5-8h-6.6l-1.1,3.6c-0.9,3-1.2,3.6-1.2,3.9
			c0,0.3,0.3,0.5,0.9,0.5h2.4v0.9h-8.1V26.2z M49.1,17.1l-3-9.6l-3,9.6H49.1z"/>
		<path class="st8" d="M61.8,26.9c0.2-0.9,0.3-1.6,0.3-3.3c0-0.6,0-1.3,0-1.9H63c0.1,1.4,0.3,2.2,1.2,3.2c0.9,1.3,2.2,1.9,3.7,1.9
			c2,0,3.4-1.1,3.4-2.6c0-1.2-0.9-1.9-3.2-2.5c-2-0.5-3.5-1.2-4.2-1.8c-0.9-0.8-1.5-2.1-1.5-3.5c0-3.1,2.4-5.3,5.5-5.3
			c1.3,0,1.9,0.2,3.9,1.2l0.7-0.8l0.5,0.2c-0.1,1.3-0.2,1.9-0.2,2.6c0,0.6,0,1.3,0,2L72,16.3c-0.2-1.4-0.4-2-0.9-2.7
			c-0.7-0.9-2-1.6-3.2-1.6c-1.7,0-3,1-3,2.4c0,1.4,0.8,2,3.7,2.9c2.3,0.7,3,1,3.8,1.7c0.9,0.8,1.5,2,1.5,3.5c0,3.1-2.5,5.3-6.1,5.3
			c-1.8,0-2.7-0.3-4.6-1.5L62.3,27L61.8,26.9z"/>
		<path class="st8" d="M76.9,26.9c0.2-0.9,0.3-1.6,0.3-3.3c0-0.6,0-1.3,0-1.9h0.9c0.1,1.4,0.3,2.2,1.2,3.2c0.9,1.3,2.2,1.9,3.7,1.9
			c2,0,3.4-1.1,3.4-2.6c0-1.2-0.9-1.9-3.2-2.5c-2-0.5-3.5-1.2-4.2-1.8c-0.9-0.8-1.5-2.1-1.5-3.5c0-3.1,2.4-5.3,5.5-5.3
			c1.3,0,1.9,0.2,3.9,1.2l0.7-0.8l0.5,0.2c-0.1,1.3-0.2,1.9-0.2,2.6c0,0.6,0,1.3,0,2L87,16.3c-0.2-1.4-0.4-2-0.9-2.7
			c-0.7-0.9-2-1.6-3.2-1.6c-1.7,0-3,1-3,2.4c0,1.4,0.8,2,3.7,2.9c2.3,0.7,3,1,3.8,1.7c0.9,0.8,1.5,2,1.5,3.5c0,3.1-2.5,5.3-6.1,5.3
			c-1.8,0-2.7-0.3-4.6-1.5L77.4,27L76.9,26.9z"/>
		<path class="st8" d="M107.5,23.3c-1.8,3.2-3.8,4.4-7.3,4.4c-4.9,0-8.5-3.5-8.5-8.3c0-4.8,3.7-8.5,8.5-8.5c2.4,0,4.3,0.9,5.7,2.6
			c1.1,1.3,1.7,2.7,1.7,3.8c0,0.3-0.1,0.5-0.3,0.7c-0.2,0.2-0.9,0.2-4.4,0.2h-6.5v0.7c0,5.3,1.6,7.5,5,7.5c2.3,0,3.5-0.8,5.2-3.5
			L107.5,23.3z M103.5,17.3c-0.1-3.8-1-5.5-3.1-5.5c-2.2,0-3.5,1.8-3.7,5.5H103.5z"/>
		<path class="st8" d="M109.3,11.6c2-0.5,2.9-1,3.8-2c1.1-1.1,1.6-2.1,2-4.2h0.6c0,1.3-0.1,2.8-0.1,3.8v2.1h3.7v1h-3.7v8.7
			c0,2.5,0,3.5,0.2,4c0.3,0.7,0.8,1.1,1.5,1.1c0.9,0,1.6-0.3,2.7-1.3l0.6,0.6c-1.5,1.5-2.9,2-4.8,2c-2.1,0-3.7-0.8-4.5-2.4
			c-0.4-0.8-0.5-1.5-0.5-2.9c0-0.7,0-1.7,0-2.7l0.2-7.3h-1.9L109.3,11.6L109.3,11.6z"/>
		<path class="st8" d="M138.5,23.3c-1.8,3.2-3.8,4.4-7.3,4.4c-4.9,0-8.5-3.5-8.5-8.3c0-4.8,3.7-8.5,8.5-8.5c2.4,0,4.3,0.9,5.7,2.6
			c1.1,1.3,1.7,2.7,1.7,3.8c0,0.3-0.1,0.5-0.3,0.7c-0.2,0.2-0.9,0.2-4.4,0.2h-6.5v0.7c0,5.3,1.6,7.5,5,7.5c2.3,0,3.5-0.8,5.2-3.5
			L138.5,23.3z M134.4,17.3c-0.1-3.8-1-5.5-3.1-5.5c-2.2,0-3.5,1.8-3.7,5.5H134.4z"/>
		<path class="st8" d="M155.8,24.7c-2,2-3.8,2.9-6.4,2.9c-4.8,0-8.3-3.5-8.3-8.2c0-4.8,3.8-8.5,8.6-8.5c3.4,0,6,1.7,6,4.1
			c0,1.2-0.8,2-1.9,2c-0.9,0-1.7-0.7-1.7-1.6c0-0.3,0.1-0.7,0.3-1.1c0.3-0.5,0.4-0.6,0.4-0.8c0-0.9-1.3-1.6-2.7-1.6
			c-1.1,0-2,0.4-2.7,1.2c-0.8,0.9-1.4,3.3-1.4,6.4c0,2.4,0.4,4.1,1.2,5.3c0.7,1.2,1.8,1.7,3.3,1.7c1.7,0,3.1-0.6,4.7-2.4L155.8,24.7
			z"/>
		<path class="st8" d="M157.5,26.2h2.4V2.8h-2.2V2c3.8-0.2,4.6-0.3,6.4-1.3l0.5,0.3c-0.1,1.6-0.2,3.3-0.2,5.2v7.3
			c1.8-1.8,3.3-2.7,5.3-2.7s3.8,1,4.7,2.6c0.5,0.9,0.6,1.8,0.6,3.8v9h2.1v0.9h-8.6v-0.9h2V15.7c0-1.5-0.2-2-0.6-2.5
			c-0.3-0.3-0.9-0.5-1.4-0.5c-0.9,0-2,0.5-2.9,1.2c-0.7,0.5-1.2,1.2-1.2,1.6v10.8h2v0.9h-8.8L157.5,26.2L157.5,26.2z"/>
	</g>
	<g>
		<g>
			<path class="st8" d="M35,25.4h1.9c0.5,0,0.9-0.2,1.2-0.5c0.2-0.4,0.9-2.2,1.8-4.9l3.6-11.3c0.9-3.1,1.6-5.3,2.4-7.9h2.5
				c0.6,2.3,1.3,4.2,1.9,6l3.4,10c1,3.1,2,5.9,3,8.5h3.1v0.9H47.8v-0.9h3.5l-2.5-8h-6.6L41,21c-0.9,3-1.2,3.6-1.2,3.9
				c0,0.3,0.3,0.5,0.9,0.5h2.4v0.9H35V25.4z M48.3,16.3l-3-9.6l-3,9.6H48.3z"/>
			<path class="st8" d="M61,26.1c0.2-0.9,0.3-1.6,0.3-3.3c0-0.6,0-1.3,0-1.9h0.9c0.1,1.4,0.3,2.2,1.2,3.2c0.9,1.3,2.2,1.9,3.7,1.9
				c2,0,3.4-1.1,3.4-2.6c0-1.2-0.9-1.9-3.2-2.5c-2-0.5-3.5-1.2-4.2-1.8c-0.9-0.8-1.5-2.1-1.5-3.5c0-3.1,2.4-5.3,5.5-5.3
				c1.3,0,1.9,0.2,3.9,1.2l0.7-0.8l0.5,0.2C72,12,72,12.6,72,13.4c0,0.6,0,1.3,0,2l-0.8,0.1c-0.2-1.4-0.4-2-0.9-2.7
				c-0.7-0.9-2-1.6-3.2-1.6c-1.7,0-3,1-3,2.4c0,1.4,0.8,2,3.7,2.9c2.3,0.7,3,1,3.8,1.7c0.9,0.8,1.5,2,1.5,3.5c0,3.1-2.5,5.3-6.1,5.3
				c-1.8,0-2.7-0.3-4.6-1.5l-0.8,0.9L61,26.1z"/>
			<path class="st8" d="M76.1,26.1c0.2-0.9,0.3-1.6,0.3-3.3c0-0.6,0-1.3,0-1.9h0.9c0.1,1.4,0.3,2.2,1.2,3.2c0.9,1.3,2.2,1.9,3.7,1.9
				c2,0,3.4-1.1,3.4-2.6c0-1.2-0.9-1.9-3.2-2.5c-2-0.5-3.5-1.2-4.2-1.8c-0.9-0.8-1.5-2.1-1.5-3.5c0-3.1,2.4-5.3,5.5-5.3
				c1.3,0,1.9,0.2,3.9,1.2l0.7-0.8l0.5,0.2C87.1,12,87,12.6,87,13.4c0,0.6,0,1.3,0,2l-0.8,0.1c-0.2-1.4-0.4-2-0.9-2.7
				c-0.7-0.9-2-1.6-3.2-1.6c-1.7,0-3,1-3,2.4c0,1.4,0.8,2,3.7,2.9c2.3,0.7,3,1,3.8,1.7c0.9,0.8,1.5,2,1.5,3.5c0,3.1-2.5,5.3-6.1,5.3
				c-1.8,0-2.7-0.3-4.6-1.5l-0.8,0.9L76.1,26.1z"/>
			<path class="st8" d="M106.7,22.5c-1.8,3.2-3.8,4.4-7.3,4.4c-4.9,0-8.5-3.5-8.5-8.3c0-4.8,3.7-8.5,8.5-8.5c2.4,0,4.3,0.9,5.7,2.6
				c1.1,1.3,1.7,2.7,1.7,3.8c0,0.3-0.1,0.5-0.3,0.7c-0.2,0.2-0.9,0.2-4.4,0.2h-6.5v0.7c0,5.3,1.6,7.5,5,7.5c2.3,0,3.5-0.8,5.2-3.5
				L106.7,22.5z M102.7,16.5c-0.1-3.8-1-5.5-3.1-5.5c-2.2,0-3.5,1.8-3.7,5.5H102.7z"/>
			<path class="st8" d="M108.6,10.8c2-0.5,2.9-1,3.8-2c1.1-1.1,1.6-2.1,2-4.2h0.6c0,1.3-0.1,2.8-0.1,3.8v2.1h3.7v1H115v8.7
				c0,2.5,0,3.5,0.2,4c0.3,0.7,0.8,1.1,1.5,1.1c0.9,0,1.6-0.3,2.7-1.3l0.6,0.6c-1.5,1.5-2.9,2-4.8,2c-2.1,0-3.7-0.8-4.5-2.4
				c-0.4-0.8-0.5-1.5-0.5-2.9c0-0.7,0-1.7,0-2.7l0.2-7.3h-1.9L108.6,10.8L108.6,10.8z"/>
			<path class="st8" d="M137.7,22.5c-1.8,3.2-3.8,4.4-7.3,4.4c-4.9,0-8.5-3.5-8.5-8.3c0-4.8,3.7-8.5,8.5-8.5c2.4,0,4.3,0.9,5.7,2.6
				c1.1,1.3,1.7,2.7,1.7,3.8c0,0.3-0.1,0.5-0.3,0.7c-0.2,0.2-0.9,0.2-4.4,0.2h-6.5v0.7c0,5.3,1.6,7.5,5,7.5c2.3,0,3.5-0.8,5.2-3.5
				L137.7,22.5z M133.6,16.5c-0.1-3.8-1-5.5-3.1-5.5c-2.2,0-3.5,1.8-3.7,5.5H133.6z"/>
			<path class="st8" d="M155,24c-2,2-3.8,2.9-6.4,2.9c-4.8,0-8.3-3.5-8.3-8.2c0-4.8,3.8-8.5,8.6-8.5c3.4,0,6,1.7,6,4.1
				c0,1.2-0.8,2-1.9,2c-0.9,0-1.7-0.7-1.7-1.6c0-0.3,0.1-0.7,0.3-1.1c0.3-0.5,0.4-0.6,0.4-0.8c0-0.9-1.3-1.6-2.7-1.6
				c-1.1,0-2,0.4-2.7,1.2c-0.8,0.9-1.4,3.3-1.4,6.4c0,2.4,0.4,4.1,1.2,5.3c0.7,1.2,1.8,1.7,3.3,1.7c1.7,0,3.1-0.6,4.7-2.4L155,24z"
				/>
			<path class="st8" d="M156.7,25.4h2.4V2h-2.2V1.3c3.8-0.2,4.6-0.3,6.4-1.3l0.5,0.3c-0.1,1.6-0.2,3.3-0.2,5.2v7.3
				c1.8-1.8,3.3-2.7,5.3-2.7s3.8,1,4.7,2.6c0.5,0.9,0.6,1.8,0.6,3.8v9h2.1v0.9h-8.6v-0.9h2V14.9c0-1.5-0.2-2-0.6-2.5
				c-0.3-0.3-0.9-0.5-1.4-0.5c-0.9,0-2,0.5-2.9,1.2c-0.7,0.5-1.2,1.2-1.2,1.6v10.8h2v0.9h-8.8L156.7,25.4L156.7,25.4z"/>
		</g>
	</g>
</g>
</svg>
