<?xml version="1.0" encoding="utf-8"?>
<!-- Generator: Adobe Illustrator 25.1.0, SVG Export Plug-In . SVG Version: 6.00 Build 0)  -->
<svg version="1.1" id="レイヤー_1" xmlns="http://www.w3.org/2000/svg" xmlns:xlink="http://www.w3.org/1999/xlink" x="0px"
	 y="0px" viewBox="0 0 61 59" style="enable-background:new 0 0 61 59;" xml:space="preserve">
<style type="text/css">
	.st0{opacity:0.86;}
	.st1{fill:#B7B7B7;}
	.st2{fill:#E8F9FF;}
</style>
<g>
	<g class="st0">
		<path class="st1" d="M117.1-42.7c0,0-0.5-0.7-1.7-1.2c0,0-0.1,0-0.3-0.1c-1.1-0.5-2.1-0.8-2.1-0.8c-0.2-0.1-0.4-0.1-0.6-0.2
			c-0.7-0.4-1.3-0.8-1.3-0.8l-0.6-0.6c1-1.1,1.8-2.5,2-3.9c0.2-0.2,0.4-0.5,0.4-1c0.1-0.5,0.3-1.5,0-1.9c0,0,0-0.1-0.1-0.1
			c0.3-1.1,0.7-3.4-0.7-5c-0.1-0.2-0.9-1.1-2.6-1.6l-0.8-0.3c-1.3-0.4-2.1-0.5-2.2-0.5c-0.1,0-0.1,0-0.2,0c0,0-0.2,0.1-0.3,0
			c-0.3,0-0.8,0.1-0.9,0.2c-0.1,0-2.6,1.1-3.4,3.4c-0.1,0.2-0.4,1.2,0,3.6c-0.1,0-0.1,0.1-0.2,0.2c-0.3,0.4-0.1,1.4,0,1.9
			c0.1,0.5,0.3,0.8,0.4,1c0.2,1.4,0.8,2.7,1.7,3.7c0,0,0.6,1.1,0.7,1.2c2,3,2.3,8.9,2.3,9.6v0.1c0,2.1-1.1,2.8-1.6,3
			c-0.3,0.1-0.6,0.2-0.8,0.3c0.1-0.2,0.3-0.6,0.3-1.2c0,0-0.2-8.6-1.9-11.2c0,0-0.5-0.7-1.7-1.1c0,0-0.1,0-0.2-0.1
			c-1-0.5-2-0.8-2-0.8c-0.2-0.1-0.4-0.2-0.6-0.2c-0.7-0.4-1.2-0.8-1.2-0.8l-0.6-0.6c1-1,1.7-2.4,1.9-3.7c0.2-0.2,0.4-0.5,0.4-0.9
			c0.1-0.5,0.3-1.4,0-1.8l0-0.1c0.3-1.1,0.7-3.3-0.7-4.8c-0.1-0.1-0.9-1-2.5-1.5l-0.8-0.3c-1.3-0.4-2-0.5-2.1-0.5s-0.1,0-0.2,0
			c-0.1,0-0.2,0.1-0.3,0c-0.3,0-0.7,0.1-0.8,0.1c-0.1,0-2.5,1-3.3,3.3c-0.1,0.2-0.4,1.1,0,3.5c-0.1,0-0.1,0.1-0.2,0.1
			c-0.3,0.4-0.1,1.3,0,1.8c0.1,0.5,0.2,0.7,0.4,0.9c0.2,1.3,0.8,2.6,1.6,3.5l-0.2,0.4v0l0,0.1c0,0,0,0,0,0l0,0
			c-0.3,1-4.3,2.2-4.3,2.2c-1.2,0.4-1.7,1.1-1.7,1.1c-1.7,2.6-1.9,11.2-1.9,11.2c0,0.6,0.1,1,0.3,1.2c-0.3-0.1-0.5-0.2-0.8-0.3
			c-0.6-0.2-1.6-1-1.6-3v-0.1c0-0.7,0.3-6.5,2.3-9.5c0.1-0.1,0.5-0.6,1.1-1.1v0c1-1.1,1.8-2.5,2-3.9c0.2-0.2,0.4-0.5,0.5-1
			c0.1-0.5,0.3-1.5,0-1.9c0,0,0-0.1-0.1-0.1c0.3-1.1,0.7-3.4-0.7-5c-0.1-0.2-0.9-1.1-2.5-1.6L81.9-60c-1.3-0.4-2.1-0.5-2.2-0.5
			c-0.1,0-0.1,0-0.2,0c-0.1,0-0.2,0.1-0.3,0c-0.3,0-0.8,0.1-0.9,0.1c-0.1,0-2.7,1.1-3.4,3.4c-0.1,0.2-0.4,1.2,0,3.6
			c-0.1,0-0.1,0.1-0.2,0.2c-0.3,0.4-0.1,1.4,0,1.9c0.1,0.5,0.3,0.8,0.4,1c0.2,1.4,0.9,2.7,1.7,3.7l-0.2,0.4v0l0,0c0,0,0,0,0,0l0,0
			c-0.4,1.1-4.5,2.3-4.5,2.3c-1.2,0.5-1.7,1.2-1.7,1.2c-1.8,2.7-2,8.6-2,8.6c0,1.4,0.6,1.5,0.6,1.5c4.2,1.9,10.7,2.2,10.7,2.2
			c0.3,0,0.7,0,1,0v0c0,0,2.5-0.1,5.3-0.6c3.4,0.8,6.9,1,6.9,1c0.3,0,0.6,0,1,0l0,0c0,0,3.7-0.2,7.2-1.1c3,0.6,5.6,0.7,5.6,0.7
			c0.3,0,0.7,0,1,0v0c0,0,6.5-0.3,10.7-2.2c0,0,0.6-0.1,0.6-1.5C119.1-34,118.9-40,117.1-42.7L117.1-42.7z"/>
	</g>
	<g>
		<g>
			<path class="st2" d="M116.1-43.7c0,0-0.5-0.7-1.7-1.2c0,0-0.1,0-0.3-0.1c-1.1-0.5-2.1-0.8-2.1-0.8c-0.2-0.1-0.4-0.1-0.6-0.2
				c-0.7-0.4-1.3-0.8-1.3-0.8l-0.6-0.6c1-1.1,1.8-2.5,2-3.9c0.2-0.2,0.4-0.5,0.4-1c0.1-0.5,0.3-1.5,0-1.9c0,0,0-0.1-0.1-0.1
				c0.3-1.1,0.7-3.4-0.7-5c-0.1-0.2-0.9-1.1-2.6-1.6l-0.8-0.3c-1.3-0.4-2.1-0.5-2.2-0.5c-0.1,0-0.1,0-0.2,0c0,0-0.2,0.1-0.3,0
				c-0.3,0-0.8,0.1-0.9,0.2c-0.1,0-2.6,1.1-3.4,3.4c-0.1,0.2-0.4,1.2,0,3.6c-0.1,0-0.1,0.1-0.2,0.2c-0.3,0.4-0.1,1.4,0,1.9
				c0.1,0.5,0.3,0.8,0.4,1c0.2,1.4,0.8,2.7,1.7,3.7c0,0,0.6,1.1,0.7,1.2c2,3,2.3,8.9,2.3,9.6v0.1c0,2.1-1.1,2.8-1.6,3
				c-0.3,0.1-0.6,0.2-0.8,0.3c0.1-0.2,0.3-0.6,0.3-1.2c0,0-0.2-8.6-1.9-11.2c0,0-0.5-0.7-1.7-1.1c0,0-0.1,0-0.2-0.1
				c-1-0.5-2-0.8-2-0.8c-0.2-0.1-0.4-0.2-0.6-0.2c-0.7-0.4-1.2-0.8-1.2-0.8l-0.6-0.6c1-1,1.7-2.4,1.9-3.7c0.2-0.2,0.4-0.5,0.4-0.9
				c0.1-0.5,0.3-1.4,0-1.8l0-0.1c0.3-1.1,0.7-3.3-0.7-4.8c-0.1-0.1-0.9-1-2.5-1.5l-0.8-0.3c-1.3-0.4-2-0.5-2.1-0.5s-0.1,0-0.2,0
				c-0.1,0-0.2,0.1-0.3,0c-0.3,0-0.7,0.1-0.8,0.1c-0.1,0-2.5,1-3.3,3.3c-0.1,0.2-0.4,1.1,0,3.5c-0.1,0-0.1,0.1-0.2,0.1
				c-0.3,0.4-0.1,1.3,0,1.8c0.1,0.5,0.2,0.7,0.4,0.9c0.2,1.3,0.8,2.6,1.6,3.5l-0.2,0.4v0l0,0.1c0,0,0,0,0,0l0,0
				c-0.3,1-4.3,2.2-4.3,2.2c-1.2,0.4-1.7,1.1-1.7,1.1c-1.7,2.6-1.9,11.2-1.9,11.2c0,0.6,0.1,1,0.3,1.2c-0.3-0.1-0.5-0.2-0.8-0.3
				c-0.6-0.2-1.6-1-1.6-3v-0.1c0-0.7,0.3-6.5,2.3-9.5c0.1-0.1,0.5-0.6,1.1-1.1v0c1-1.1,1.8-2.5,2-3.9c0.2-0.2,0.4-0.5,0.5-1
				c0.1-0.5,0.3-1.5,0-1.9c0,0,0-0.1-0.1-0.1c0.3-1.1,0.7-3.4-0.7-5c-0.1-0.2-0.9-1.1-2.5-1.6L80.9-61c-1.3-0.4-2.1-0.5-2.2-0.5
				c-0.1,0-0.1,0-0.2,0c-0.1,0-0.2,0.1-0.3,0c-0.3,0-0.8,0.1-0.9,0.1c-0.1,0-2.7,1.1-3.4,3.4c-0.1,0.2-0.4,1.2,0,3.6
				c-0.1,0-0.1,0.1-0.2,0.2c-0.3,0.4-0.1,1.4,0,1.9c0.1,0.5,0.3,0.8,0.4,1c0.2,1.4,0.9,2.7,1.7,3.7l-0.2,0.4v0l0,0c0,0,0,0,0,0l0,0
				c-0.4,1.1-4.5,2.3-4.5,2.3c-1.2,0.5-1.7,1.2-1.7,1.2c-1.8,2.7-2,8.6-2,8.6c0,1.4,0.6,1.5,0.6,1.5c4.2,1.9,10.7,2.2,10.7,2.2
				c0.3,0,0.7,0,1,0v0c0,0,2.5-0.1,5.3-0.6c3.4,0.8,6.9,1,6.9,1c0.3,0,0.6,0,1,0l0,0c0,0,3.7-0.2,7.2-1.1c3,0.6,5.6,0.7,5.6,0.7
				c0.3,0,0.7,0,1,0v0c0,0,6.5-0.3,10.7-2.2c0,0,0.6-0.1,0.6-1.5C118.1-35,117.9-41,116.1-43.7L116.1-43.7z"/>
		</g>
	</g>
</g>
<g>
	<g class="st0">
		<path class="st1" d="M42.7,17.4c0.1,0.5,0.6,1.3,0.9,1.3c0,0,0.1,0,0.1,0c0.3,0.5,0.6,0.9,0.9,1.2h2.6c0.3-0.3,0.6-0.8,0.8-1.2
			c0,0,0.1,0.1,0.1,0.1c0.4,0,0.8-0.8,0.8-1.3c0-0.6,0-1-0.4-1c0,0-0.1,0-0.1,0c0-1.6-0.4-3.7-2.9-3.7c-2.3,0-2.6,2.1-2.5,3.7
			c0,0-0.1,0-0.1,0C42.6,16.4,42.6,16.8,42.7,17.4L42.7,17.4z"/>
		<path class="st1" d="M56.5,15.6l0.2-1c0.1-0.4-0.2-0.7-0.5-0.7h-7.4c0.2,0.5,0.4,1.1,0.4,1.9c0.2,0.1,0.3,0.3,0.4,0.5h6.3
			C56.2,16.2,56.5,15.9,56.5,15.6L56.5,15.6z"/>
		<path class="st1" d="M55.3,19.9c0.3,0,0.6-0.2,0.6-0.5l0.1-0.9c0-0.3-0.2-0.6-0.5-0.6h-5.9c-0.2,0.6-0.6,1.2-1.1,1.4
			c0,0,0,0.1-0.1,0.1l0,0.5H55.3z"/>
		<path class="st1" d="M38.8,19.6l-1.2-8.1c0-1,0.8-1.8,1.8-1.8h18.4c1,0,1.8,0.8,1.8,1.8l-1.1,8h1.6l1.1-8c0-1.9-1.5-3.4-3.4-3.4
			H39.4c-1.9,0-3.4,1.5-3.4,3.4l1.2,8.1H38.8z"/>
		<path class="st1" d="M36.9,20.7c-0.3,0-0.6,0.1-0.9,0.4c-0.2,0.3-0.3,0.6-0.3,0.9l0.9,6.5h23.9l0.9-6.5c0.1-0.3,0-0.7-0.3-0.9
			c-0.2-0.3-0.5-0.4-0.9-0.4H36.9z"/>
		<path class="st1" d="M56.7,6.8L57,5.6c0-0.1,0-0.3-0.1-0.4C56.8,5.1,56.7,5,56.6,5H40c-0.1,0-0.3,0.1-0.3,0.2
			c-0.1,0.1-0.1,0.2-0.1,0.4l0.3,1.3H56.7z"/>
		<path class="st1" d="M55,4l0.2-1.3c0-0.1,0-0.3-0.1-0.4c-0.1-0.1-0.2-0.2-0.3-0.2H41.7c-0.1,0-0.3,0.1-0.3,0.2
			c-0.1,0.1-0.1,0.2-0.1,0.4L41.5,4H55z"/>
	</g>
	<g>
		<g>
			<path class="st2" d="M41.7,16.4c0.1,0.5,0.6,1.3,0.9,1.3c0,0,0.1,0,0.1,0c0.3,0.5,0.6,0.9,0.9,1.2h2.6c0.3-0.3,0.6-0.8,0.8-1.2
				c0,0,0.1,0.1,0.1,0.1c0.4,0,0.8-0.8,0.8-1.3c0-0.6,0-1-0.4-1c0,0-0.1,0-0.1,0c0-1.6-0.4-3.7-2.9-3.7c-2.3,0-2.6,2.1-2.5,3.7
				c0,0-0.1,0-0.1,0C41.6,15.4,41.6,15.8,41.7,16.4L41.7,16.4z"/>
			<path class="st2" d="M55.5,14.6l0.2-1c0.1-0.4-0.2-0.7-0.5-0.7h-7.4c0.2,0.5,0.4,1.1,0.4,1.9c0.2,0.1,0.3,0.3,0.4,0.5h6.3
				C55.2,15.2,55.5,14.9,55.5,14.6L55.5,14.6z"/>
			<path class="st2" d="M54.3,18.9c0.3,0,0.6-0.2,0.6-0.5l0.1-0.9c0-0.3-0.2-0.6-0.5-0.6h-5.9c-0.2,0.6-0.6,1.2-1.1,1.4
				c0,0,0,0.1-0.1,0.1l0,0.5H54.3z"/>
			<g>
				<path class="st2" d="M37.8,18.6l-1.2-8.1c0-1,0.8-1.8,1.8-1.8h18.4c1,0,1.8,0.8,1.8,1.8l-1.1,8h1.6l1.1-8c0-1.9-1.5-3.4-3.4-3.4
					H38.4c-1.9,0-3.4,1.5-3.4,3.4l1.2,8.1H37.8z"/>
				<path class="st2" d="M35.9,19.7c-0.3,0-0.6,0.1-0.9,0.4c-0.2,0.3-0.3,0.6-0.3,0.9l0.9,6.5h23.9l0.9-6.5c0.1-0.3,0-0.7-0.3-0.9
					c-0.2-0.3-0.5-0.4-0.9-0.4H35.9z"/>
			</g>
			<path class="st2" d="M55.7,5.8L56,4.6c0-0.1,0-0.3-0.1-0.4C55.8,4.1,55.7,4,55.6,4H39c-0.1,0-0.3,0.1-0.3,0.2
				c-0.1,0.1-0.1,0.2-0.1,0.4l0.3,1.3H55.7z"/>
			<path class="st2" d="M54,3l0.2-1.3c0-0.1,0-0.3-0.1-0.4c-0.1-0.1-0.2-0.2-0.3-0.2H40.7c-0.1,0-0.3,0.1-0.3,0.2
				c-0.1,0.1-0.1,0.2-0.1,0.4L40.5,3H54z"/>
		</g>
	</g>
</g>
<g>
	<g class="st0">
		<path class="st1" d="M17.6,42.2c0.1,0.2,0.1,0.3,0.2,0.5c0.2,0.4,0.4,0.8,0.6,1.2c0.1,0.2,0.3,0.4,0.4,0.5
			c-0.2,0.1-0.3,0.2-0.3,0.4l-2.1,0.6c-1,0.3-1.8,3.4-2.1,5.3c1.9,1.2,4.2,1.8,6.6,1.8l0,0c0.3,0,0.6,0,0.8,0c2.1-0.1,4-0.8,5.8-1.8
			c-0.4-2-1.1-5-2.1-5.3l-2.1-0.6c0-0.1-0.2-0.3-0.3-0.4c0.2-0.2,0.3-0.4,0.4-0.5c0.3-0.4,0.5-0.8,0.6-1.2c0.1-0.2,0.1-0.3,0.2-0.5
			c0.2-0.2,0.3-0.4,0.3-0.7v-0.7c0-0.2-0.1-0.4-0.2-0.5v-0.9c0-1.6-1.3-3-3-3h-1c-1.6,0-3,1.3-3,3v0.9c-0.1,0.2-0.2,0.3-0.2,0.5v0.7
			C17.3,41.8,17.4,42.1,17.6,42.2L17.6,42.2z M20.3,47.2c0,0.1-0.1,0.1-0.1,0.2c0,0,0,0,0,0c-0.1,0-0.1,0-0.2-0.1l-0.5-0.7
			c0,0,0-0.1,0-0.1v-1.1c0-0.1,0-0.1,0.1-0.2c0.1,0,0.1,0,0.2,0c0.2,0.1,0.3,0.1,0.5,0.2c0.1,0,0.2,0.1,0.2,0.2V46c0,0,0,0,0.1,0
			c0,0,0.1,0.1,0,0.1L20.3,47.2z M22.3,46.5c0,0,0,0.1,0,0.1l-0.5,0.7c0,0-0.1,0.1-0.2,0.1c0,0,0,0,0,0c-0.1,0-0.1-0.1-0.1-0.2
			l-0.1-1c0-0.1,0-0.1,0-0.1c0,0,0,0,0.1,0v-0.5c0-0.1,0.1-0.2,0.2-0.2c0.2,0,0.3-0.1,0.5-0.2c0.1,0,0.1,0,0.2,0
			c0.1,0,0.1,0.1,0.1,0.2V46.5z M18.3,41.1c0-0.1,0.1-0.2,0.2-0.2h0.1v-0.3c0-0.1,0-0.1,0.1-0.2c0.3-0.1,0.8-0.4,1.3-0.4
			c0.4,0,0.8,0.1,1,0.4c0.3,0.4,0.7,0.5,1.2,0.5c0.2,0,0.5-0.1,0.8-0.2c0.1,0,0.1,0,0.2,0c0,0,0,0,0.1,0.1h0.1
			c0.1,0,0.2,0.1,0.2,0.2v0.3c0,0.1,0,0.1-0.1,0.2l-0.2,0.1l0,0.1c-0.1,0.4-0.3,1-0.7,1.6c-0.5,0.7-0.9,1-1.1,1h-1
			c-0.2,0-0.7-0.3-1.1-1c-0.4-0.5-0.6-1.1-0.7-1.6l0-0.1l-0.2-0.1c-0.1,0-0.1-0.1-0.1-0.2V41.1L18.3,41.1z"/>
		<path class="st1" d="M12.7,33.7c-1.6,0-3,1.3-3,3v0.9c-0.1,0.1-0.2,0.3-0.2,0.5v0.7c0,0.3,0.1,0.5,0.3,0.7c0,0.2,0.1,0.3,0.2,0.5
			c0.2,0.4,0.4,0.8,0.6,1.2c0.1,0.2,0.3,0.4,0.4,0.6c-0.2,0.1-0.3,0.2-0.3,0.4l-2.1,0.6c-0.1,0-0.2,0.1-0.2,0.1
			c0.7,3,2.5,5.6,4.9,7.4h0.2c0.1-0.4,0.2-0.9,0.3-1.4c0.8-3.3,1.6-3.9,2.3-4.1l1.6-0.5c-0.3-0.4-0.5-0.9-0.7-1.3
			c-0.1-0.1-0.1-0.3-0.2-0.4c0,0-0.1-0.1-0.1-0.1l-1.3-0.4c-0.1-0.2-0.2-0.3-0.3-0.4c0.2-0.2,0.3-0.4,0.4-0.6
			c0.3-0.4,0.5-0.8,0.6-1.2c0.1-0.2,0.1-0.3,0.2-0.5c0.2-0.2,0.3-0.4,0.3-0.7v-0.7c0-0.2-0.1-0.4-0.2-0.5v-0.9c0-1.6-1.3-3-3-3H12.7
			z M12.6,44.4c0,0.1-0.1,0.1-0.1,0.2c0,0,0,0,0,0c-0.1,0-0.1,0-0.2-0.1l-0.5-0.7c0,0,0-0.1,0-0.1v-1.1c0-0.1,0-0.1,0.1-0.2
			c0.1,0,0.1,0,0.2,0c0.2,0.1,0.3,0.1,0.5,0.2c0.1,0,0.2,0.1,0.2,0.2v0.5c0,0,0,0,0.1,0c0,0,0,0.1,0,0.1L12.6,44.4z M14.7,43.7
			c0,0,0,0.1,0,0.1l-0.5,0.7c0,0-0.1,0.1-0.2,0.1c0,0,0,0,0,0c-0.1,0-0.1-0.1-0.1-0.2l-0.1-1c0-0.1,0-0.1,0-0.1c0,0,0,0,0.1,0v-0.5
			c0-0.1,0.1-0.2,0.2-0.2c0.1,0,0.3-0.1,0.5-0.2c0.1,0,0.1,0,0.2,0c0.1,0,0.1,0.1,0.1,0.2V43.7z M15.3,38.1c0.1,0,0.1,0,0.2,0
			c0,0,0,0,0.1,0.1h0.1c0.1,0,0.2,0.1,0.2,0.2v0.3c0,0.1,0,0.1-0.1,0.2L15.5,39l0,0.1c-0.1,0.4-0.3,1-0.7,1.6c-0.5,0.7-0.9,1-1.1,1
			h-1c-0.2,0-0.7-0.3-1.1-1c-0.4-0.5-0.6-1.1-0.7-1.6l0-0.1l-0.2-0.1c0,0-0.1-0.1-0.1-0.2v-0.3c0-0.1,0.1-0.2,0.2-0.2h0.1v-0.3
			c0-0.1,0-0.1,0.1-0.2c0.3-0.1,0.8-0.3,1.3-0.3c0.4,0,0.8,0.1,1.1,0.4c0.3,0.3,0.7,0.5,1.2,0.5C14.7,38.3,15,38.2,15.3,38.1
			L15.3,38.1z"/>
		<path class="st1" d="M25.5,44.8c0.6,0.2,1.5,0.8,2.3,4.1c0.1,0.5,0.2,1,0.3,1.4h0.2c0.8-0.6,1.5-1.2,2.1-1.9
			c1.4-1.6,2.3-3.5,2.8-5.4c-0.1-0.1-0.2-0.1-0.2-0.1l-2.1-0.6c0-0.2-0.2-0.3-0.3-0.4c0.2-0.2,0.3-0.4,0.4-0.6
			c0.3-0.4,0.5-0.8,0.6-1.2c0.1-0.2,0.1-0.3,0.2-0.5c0.2-0.2,0.3-0.4,0.3-0.7v-0.7c0-0.2-0.1-0.4-0.2-0.5v-0.9c0-1.6-1.3-3-3-3h-1
			c-1.6,0-3,1.3-3,3v0.9c-0.1,0.1-0.2,0.3-0.2,0.5v0.7c0,0.3,0.1,0.5,0.3,0.7c0.1,0.2,0.1,0.3,0.2,0.5c0.2,0.4,0.4,0.8,0.6,1.2
			c0.1,0.2,0.3,0.4,0.4,0.6c-0.2,0.1-0.3,0.2-0.3,0.4l-1.3,0.4c0,0-0.1,0.1-0.1,0.1c0,0.1-0.1,0.3-0.1,0.4c-0.2,0.4-0.4,0.9-0.7,1.3
			L25.5,44.8z M28,44.4c0,0.1-0.1,0.1-0.1,0.2c0,0,0,0,0,0c-0.1,0-0.1,0-0.2-0.1l-0.5-0.7c0,0,0-0.1,0-0.1v-1.1c0-0.1,0-0.1,0.1-0.2
			c0.1,0,0.1,0,0.2,0c0.2,0.1,0.3,0.1,0.5,0.2c0.1,0,0.2,0.1,0.2,0.2v0.5c0,0,0,0,0.1,0c0,0,0,0.1,0,0.1L28,44.4z M30,43.7
			c0,0,0,0.1,0,0.1l-0.5,0.7c0,0-0.1,0.1-0.1,0.1c0,0,0,0-0.1,0c-0.1,0-0.1-0.1-0.1-0.2l-0.1-1c0-0.1,0-0.1,0-0.1c0,0,0,0,0.1,0
			v-0.5c0-0.1,0.1-0.2,0.2-0.2c0.2,0,0.3-0.1,0.5-0.2c0.1,0,0.1,0,0.2,0c0.1,0,0.1,0.1,0.1,0.2V43.7L30,43.7z M26.2,39L26.2,39
			L26,38.8c-0.1,0-0.1-0.1-0.1-0.2v-0.3c0-0.1,0.1-0.2,0.2-0.2h0.1v-0.3c0-0.1,0-0.1,0.1-0.2c0.3-0.1,0.8-0.3,1.3-0.3
			c0.4,0,0.8,0.1,1.1,0.4c0.3,0.3,0.7,0.5,1.2,0.5c0.2,0,0.5-0.1,0.7-0.2c0.1,0,0.1,0,0.2,0c0,0,0,0,0.1,0.1h0.1
			c0.1,0,0.2,0.1,0.2,0.2v0.3c0,0.1,0,0.1-0.1,0.2L30.9,39l0,0.1c-0.1,0.4-0.3,1-0.7,1.6c-0.5,0.7-0.9,1-1.1,1h-1
			c-0.2,0-0.7-0.3-1.1-1C26.5,40.1,26.3,39.5,26.2,39L26.2,39z"/>
		<path class="st1" d="M38.3,39.6c-0.2-2.4-0.8-4.7-1.9-6.8c-0.8-1.6-1.9-3.1-3.2-4.3l0.4-0.7c0.2-0.3,0.2-0.8,0.1-1.1
			s-0.5-0.6-1-0.6l-4.9-0.3c-0.4,0-0.8,0.2-1,0.5c-0.2,0.3-0.2,0.8-0.1,1.1l2.2,4.4c0.2,0.4,0.5,0.6,1,0.6c0.4,0,0.8-0.2,1-0.5
			l0.2-0.3c2.1,2.3,3.3,5.2,3.5,8.3c0.5,7.6-5.3,14.2-12.9,14.7c-7.6,0.5-14.2-5.3-14.7-12.9c-0.3-5.2,2.2-10,6.6-12.7
			c0.9-0.5,1.1-1.6,0.6-2.5c-0.3-0.6-1-0.9-1.7-0.9c-0.3,0-0.6,0.1-0.8,0.3C6.2,29.2,3,35.4,3.5,41.9c0.3,4.6,2.4,8.9,5.9,12
			c3.5,3.1,8,4.6,12.6,4.3s8.9-2.4,12-5.9C37.1,48.7,38.6,44.2,38.3,39.6L38.3,39.6z"/>
	</g>
	<g>
		<g>
			<path class="st2" d="M16.6,41.2c0.1,0.2,0.1,0.3,0.2,0.5c0.2,0.4,0.4,0.8,0.6,1.2c0.1,0.2,0.3,0.4,0.4,0.5
				c-0.2,0.1-0.3,0.2-0.3,0.4l-2.1,0.6c-1,0.3-1.8,3.4-2.1,5.3c1.9,1.2,4.2,1.8,6.6,1.8l0,0c0.3,0,0.6,0,0.8,0
				c2.1-0.1,4-0.8,5.8-1.8c-0.4-2-1.1-5-2.1-5.3l-2.1-0.6c0-0.1-0.2-0.3-0.3-0.4c0.2-0.2,0.3-0.4,0.4-0.5c0.3-0.4,0.5-0.8,0.6-1.2
				c0.1-0.2,0.1-0.3,0.2-0.5c0.2-0.2,0.3-0.4,0.3-0.7v-0.7c0-0.2-0.1-0.4-0.2-0.5v-0.9c0-1.6-1.3-3-3-3h-1c-1.6,0-3,1.3-3,3v0.9
				c-0.1,0.2-0.2,0.3-0.2,0.5v0.7C16.3,40.8,16.4,41.1,16.6,41.2L16.6,41.2z M19.3,46.2c0,0.1-0.1,0.1-0.1,0.2c0,0,0,0,0,0
				c-0.1,0-0.1,0-0.2-0.1l-0.5-0.7c0,0,0-0.1,0-0.1v-1.1c0-0.1,0-0.1,0.1-0.2c0.1,0,0.1,0,0.2,0c0.2,0.1,0.3,0.1,0.5,0.2
				c0.1,0,0.2,0.1,0.2,0.2V45c0,0,0,0,0.1,0c0,0,0.1,0.1,0,0.1L19.3,46.2z M21.3,45.5c0,0,0,0.1,0,0.1l-0.5,0.7c0,0-0.1,0.1-0.2,0.1
				c0,0,0,0,0,0c-0.1,0-0.1-0.1-0.1-0.2l-0.1-1c0-0.1,0-0.1,0-0.1c0,0,0,0,0.1,0v-0.5c0-0.1,0.1-0.2,0.2-0.2c0.2,0,0.3-0.1,0.5-0.2
				c0.1,0,0.1,0,0.2,0c0.1,0,0.1,0.1,0.1,0.2V45.5z M17.3,40.1c0-0.1,0.1-0.2,0.2-0.2h0.1v-0.3c0-0.1,0-0.1,0.1-0.2
				c0.3-0.1,0.8-0.4,1.3-0.4c0.4,0,0.8,0.1,1,0.4c0.3,0.4,0.7,0.5,1.2,0.5c0.2,0,0.5-0.1,0.8-0.2c0.1,0,0.1,0,0.2,0c0,0,0,0,0.1,0.1
				h0.1c0.1,0,0.2,0.1,0.2,0.2v0.3c0,0.1,0,0.1-0.1,0.2l-0.2,0.1l0,0.1c-0.1,0.4-0.3,1-0.7,1.6c-0.5,0.7-0.9,1-1.1,1h-1
				c-0.2,0-0.7-0.3-1.1-1c-0.4-0.5-0.6-1.1-0.7-1.6l0-0.1l-0.2-0.1c-0.1,0-0.1-0.1-0.1-0.2V40.1L17.3,40.1z"/>
			<path class="st2" d="M11.7,32.7c-1.6,0-3,1.3-3,3v0.9c-0.1,0.1-0.2,0.3-0.2,0.5v0.7c0,0.3,0.1,0.5,0.3,0.7C9,38.7,9,38.8,9.1,39
				c0.2,0.4,0.4,0.8,0.6,1.2c0.1,0.2,0.3,0.4,0.4,0.6C10,40.9,9.9,41,9.9,41.1l-2.1,0.6c-0.1,0-0.2,0.1-0.2,0.1
				c0.7,3,2.5,5.6,4.9,7.4h0.2c0.1-0.4,0.2-0.9,0.3-1.4c0.8-3.3,1.6-3.9,2.3-4.1l1.6-0.5c-0.3-0.4-0.5-0.9-0.7-1.3
				c-0.1-0.1-0.1-0.3-0.2-0.4c0,0-0.1-0.1-0.1-0.1l-1.3-0.4c-0.1-0.2-0.2-0.3-0.3-0.4c0.2-0.2,0.3-0.4,0.4-0.6
				c0.3-0.4,0.5-0.8,0.6-1.2c0.1-0.2,0.1-0.3,0.2-0.5c0.2-0.2,0.3-0.4,0.3-0.7v-0.7c0-0.2-0.1-0.4-0.2-0.5v-0.9c0-1.6-1.3-3-3-3
				H11.7z M11.6,43.4c0,0.1-0.1,0.1-0.1,0.2c0,0,0,0,0,0c-0.1,0-0.1,0-0.2-0.1l-0.5-0.7c0,0,0-0.1,0-0.1v-1.1c0-0.1,0-0.1,0.1-0.2
				c0.1,0,0.1,0,0.2,0c0.2,0.1,0.3,0.1,0.5,0.2c0.1,0,0.2,0.1,0.2,0.2v0.5c0,0,0,0,0.1,0c0,0,0,0.1,0,0.1L11.6,43.4z M13.7,42.7
				c0,0,0,0.1,0,0.1l-0.5,0.7c0,0-0.1,0.1-0.2,0.1c0,0,0,0,0,0c-0.1,0-0.1-0.1-0.1-0.2l-0.1-1c0-0.1,0-0.1,0-0.1c0,0,0,0,0.1,0v-0.5
				c0-0.1,0.1-0.2,0.2-0.2c0.1,0,0.3-0.1,0.5-0.2c0.1,0,0.1,0,0.2,0c0.1,0,0.1,0.1,0.1,0.2V42.7z M14.3,37.1c0.1,0,0.1,0,0.2,0
				c0,0,0,0,0.1,0.1h0.1c0.1,0,0.2,0.1,0.2,0.2v0.3c0,0.1,0,0.1-0.1,0.2L14.5,38l0,0.1c-0.1,0.4-0.3,1-0.7,1.6c-0.5,0.7-0.9,1-1.1,1
				h-1c-0.2,0-0.7-0.3-1.1-1c-0.4-0.5-0.6-1.1-0.7-1.6l0-0.1l-0.2-0.1c0,0-0.1-0.1-0.1-0.2v-0.3c0-0.1,0.1-0.2,0.2-0.2h0.1v-0.3
				c0-0.1,0-0.1,0.1-0.2c0.3-0.1,0.8-0.3,1.3-0.3c0.4,0,0.8,0.1,1.1,0.4c0.3,0.3,0.7,0.5,1.2,0.5C13.7,37.3,14,37.2,14.3,37.1
				L14.3,37.1z"/>
			<g>
				<path class="st2" d="M24.5,43.8c0.6,0.2,1.5,0.8,2.3,4.1c0.1,0.5,0.2,1,0.3,1.4h0.2c0.8-0.6,1.5-1.2,2.1-1.9
					c1.4-1.6,2.3-3.5,2.8-5.4c-0.1-0.1-0.2-0.1-0.2-0.1l-2.1-0.6c0-0.2-0.2-0.3-0.3-0.4c0.2-0.2,0.3-0.4,0.4-0.6
					c0.3-0.4,0.5-0.8,0.6-1.2c0.1-0.2,0.1-0.3,0.2-0.5c0.2-0.2,0.3-0.4,0.3-0.7v-0.7c0-0.2-0.1-0.4-0.2-0.5v-0.9c0-1.6-1.3-3-3-3h-1
					c-1.6,0-3,1.3-3,3v0.9c-0.1,0.1-0.2,0.3-0.2,0.5v0.7c0,0.3,0.1,0.5,0.3,0.7c0.1,0.2,0.1,0.3,0.2,0.5c0.2,0.4,0.4,0.8,0.6,1.2
					c0.1,0.2,0.3,0.4,0.4,0.6c-0.2,0.1-0.3,0.2-0.3,0.4l-1.3,0.4c0,0-0.1,0.1-0.1,0.1c0,0.1-0.1,0.3-0.1,0.4
					c-0.2,0.4-0.4,0.9-0.7,1.3L24.5,43.8z M27,43.4c0,0.1-0.1,0.1-0.1,0.2c0,0,0,0,0,0c-0.1,0-0.1,0-0.2-0.1l-0.5-0.7
					c0,0,0-0.1,0-0.1v-1.1c0-0.1,0-0.1,0.1-0.2c0.1,0,0.1,0,0.2,0c0.2,0.1,0.3,0.1,0.5,0.2c0.1,0,0.2,0.1,0.2,0.2v0.5c0,0,0,0,0.1,0
					c0,0,0,0.1,0,0.1L27,43.4z M29,42.7c0,0,0,0.1,0,0.1l-0.5,0.7c0,0-0.1,0.1-0.1,0.1c0,0,0,0-0.1,0c-0.1,0-0.1-0.1-0.1-0.2l-0.1-1
					c0-0.1,0-0.1,0-0.1c0,0,0,0,0.1,0v-0.5c0-0.1,0.1-0.2,0.2-0.2c0.2,0,0.3-0.1,0.5-0.2c0.1,0,0.1,0,0.2,0c0.1,0,0.1,0.1,0.1,0.2
					V42.7L29,42.7z M25.2,38L25.2,38L25,37.8c-0.1,0-0.1-0.1-0.1-0.2v-0.3c0-0.1,0.1-0.2,0.2-0.2h0.1v-0.3c0-0.1,0-0.1,0.1-0.2
					c0.3-0.1,0.8-0.3,1.3-0.3c0.4,0,0.8,0.1,1.1,0.4c0.3,0.3,0.7,0.5,1.2,0.5c0.2,0,0.5-0.1,0.7-0.2c0.1,0,0.1,0,0.2,0
					c0,0,0,0,0.1,0.1h0.1c0.1,0,0.2,0.1,0.2,0.2v0.3c0,0.1,0,0.1-0.1,0.2L29.9,38l0,0.1c-0.1,0.4-0.3,1-0.7,1.6
					c-0.5,0.7-0.9,1-1.1,1h-1c-0.2,0-0.7-0.3-1.1-1C25.5,39.1,25.3,38.5,25.2,38L25.2,38z"/>
				<path class="st2" d="M37.3,38.6c-0.2-2.4-0.8-4.7-1.9-6.8c-0.8-1.6-1.9-3.1-3.2-4.3l0.4-0.7c0.2-0.3,0.2-0.8,0.1-1.1
					s-0.5-0.6-1-0.6l-4.9-0.3c-0.4,0-0.8,0.2-1,0.5c-0.2,0.3-0.2,0.8-0.1,1.1l2.2,4.4c0.2,0.4,0.5,0.6,1,0.6c0.4,0,0.8-0.2,1-0.5
					l0.2-0.3c2.1,2.3,3.3,5.2,3.5,8.3c0.5,7.6-5.3,14.2-12.9,14.7c-7.6,0.5-14.2-5.3-14.7-12.9c-0.3-5.2,2.2-10,6.6-12.7
					c0.9-0.5,1.1-1.6,0.6-2.5c-0.3-0.6-1-0.9-1.7-0.9c-0.3,0-0.6,0.1-0.8,0.3C5.2,28.2,2,34.4,2.5,40.9c0.3,4.6,2.4,8.9,5.9,12
					c3.5,3.1,8,4.6,12.6,4.3s8.9-2.4,12-5.9C36.1,47.7,37.6,43.2,37.3,38.6L37.3,38.6z"/>
			</g>
		</g>
	</g>
</g>
</svg>
