<?xml version="1.0" encoding="utf-8"?>
<!-- Generator: Adobe Illustrator 25.1.0, SVG Export Plug-In . SVG Version: 6.00 Build 0)  -->
<svg version="1.1" id="レイヤー_1" xmlns="http://www.w3.org/2000/svg" xmlns:xlink="http://www.w3.org/1999/xlink" x="0px"
	 y="0px" viewBox="0 0 61 59" style="enable-background:new 0 0 61 59;" xml:space="preserve">
<style type="text/css">
	.st0{opacity:0.86;}
	.st1{fill:#B7B7B7;}
	.st2{fill:#E8F9FF;}
</style>
<g>
	<g class="st0">
		<rect x="30.2" y="14.5" class="st1" width="5.5" height="16.2"/>
		<path class="st1" d="M61.3,29.6L54.8,23l-0.8,0.5l-1.3-1.3c2-2.8,1.8-6.8-0.8-9.3c-0.2-0.2-0.4-0.3-0.6-0.5V2.2h-5.5v8.7
			c-0.8,0.1-1.6,0.3-2.3,0.7V9H38v21.8h5.5v-6.2c0.7,0.4,1.5,0.6,2.3,0.7v5.5h5.5v-6.4l0.8,0.8l-0.5,1l6.6,6.6c0,0,1.4,0,2.3-1
			C61.4,30.8,61.3,29.6,61.3,29.6L61.3,29.6z M42.8,14.1c2.2-2.2,5.7-2.2,7.9,0c2.2,2.2,2.2,5.7,0,7.9c-2.2,2.2-5.7,2.2-7.9,0
			C40.6,19.9,40.6,16.3,42.8,14.1L42.8,14.1z"/>
	</g>
	<g>
		<g>
			<rect x="29.2" y="13.5" class="st2" width="5.5" height="16.2"/>
			<path class="st2" d="M60.3,28.6L53.8,22l-0.8,0.5l-1.3-1.3c2-2.8,1.8-6.8-0.8-9.3c-0.2-0.2-0.4-0.3-0.6-0.5V1.2h-5.5v8.7
				c-0.8,0.1-1.6,0.3-2.3,0.7V8H37v21.8h5.5v-6.2c0.7,0.4,1.5,0.6,2.3,0.7v5.5h5.5v-6.4l0.8,0.8l-0.5,1l6.6,6.6c0,0,1.4,0,2.3-1
				C60.4,29.8,60.3,28.6,60.3,28.6L60.3,28.6z M41.8,13.1c2.2-2.2,5.7-2.2,7.9,0c2.2,2.2,2.2,5.7,0,7.9c-2.2,2.2-5.7,2.2-7.9,0
				C39.6,18.9,39.6,15.3,41.8,13.1L41.8,13.1z"/>
		</g>
	</g>
</g>
<g>
	<g class="st0">
		<path class="st1" d="M37.3,52.9h-0.8v-3.2c0-4.6-3.1-8.7-7.6-9.8l-3.3-0.8c1.4-1.2,2.5-2.9,3.2-4.7c1.1-0.2,2.1-1.1,2.3-3.1
			c0.2-1.9-0.5-2.7-1.3-3.1c0-0.6-0.1-1.2-0.1-1.7c-0.5-5.3-4.4-9.1-8.4-8.3c-0.6,0.1-1.3,0.1-1.9,0c-2.6-0.4-5.3,1.6-6.6,3.6
			c-1.7,2.7-1.5,5.2-1.1,6.4c-0.8,0.4-1.3,1.2-1.2,3c0.2,1.9,1.1,2.8,2.2,3.1c0.8,1.9,1.9,3.6,3.3,4.8l-3.3,0.8
			C8.1,41.1,5,45.1,5,49.7l0,3.2H4.2c-0.7,0-1.3,0.4-1.3,1.1v2.8c0,0.7,0.5,1.3,1.2,1.3h33.1c0.7,0,1.2-0.6,1.2-1.3v-2.7
			C38.5,53.4,38,52.9,37.3,52.9L37.3,52.9z M27.8,41.5l-2.2,1.7c-0.2,0.2-0.5,0.3-0.8,0.2c-0.3,0-0.6-0.2-0.7-0.4l-1.6-2.2
			c0.4-0.1,0.7-0.2,1.1-0.4L27.8,41.5z M13.3,29.2c0-0.1,0-0.2,0-0.4c0.5-1.8,1.7-3.3,3.5-4c0.3-0.1,0.7-0.3,1-0.5
			c0.1-0.1,0.2,0,0.3,0.1c0.1,0.1,0.1,0.2,0,0.3c-0.3,0.5-0.7,0.9-1.1,1.4c-0.1,0.2-0.2,0.4-0.1,0.6c0.1,0.2,0.3,0.3,0.5,0.3
			c1.9-0.3,5-1.2,7.3-3.2c0.5-0.5,1.4-0.5,1.9,0.1c0.1,0.1,0.1,0.1,0.2,0.2c0.5,0.6,0.8,1.2,1,2C28,27,28,28,28,29.2
			c0,4.6-3.3,10.1-7.4,10.1C16.6,39.4,13.3,33.8,13.3,29.2L13.3,29.2z M17.8,40.4c0.4,0.2,0.7,0.3,1.1,0.4L17.4,43
			c-0.2,0.2-0.4,0.4-0.7,0.4c-0.3,0-0.6,0-0.8-0.2l-2.2-1.7L17.8,40.4z M16.4,56.3h-5v-5.6c0-0.2-0.2-0.4-0.5-0.4
			c-0.2,0-0.5,0.2-0.5,0.4l0,2.2l-3.8,0l0-3.2c0-3.3,2-6.3,5-7.6l3.7,3c0.4,0.4,1,0.5,1.6,0.4c0.6-0.1,1.1-0.4,1.4-0.8l0.3-0.4
			L18.5,45c-0.2,0.7,0.3,1.4,1.1,1.4L16.4,56.3z M34.8,52.9l-3.8,0v-2.2c0-0.2-0.2-0.4-0.4-0.4c-0.2,0-0.5,0.2-0.5,0.4v5.6h-5
			l-3.2-9.9c0.7,0,1.3-0.7,1.1-1.4l-0.2-0.8l0.3,0.4c0.3,0.5,0.8,0.8,1.4,0.8c0.6,0.1,1.1-0.1,1.6-0.4l3.7-3c3,1.3,5,4.3,5,7.6V52.9
			z"/>
	</g>
	<g>
		<g>
			<g>
				<path class="st2" d="M36.3,51.9h-0.8v-3.2c0-4.6-3.1-8.7-7.6-9.8l-3.3-0.8c1.4-1.2,2.5-2.9,3.2-4.7c1.1-0.2,2.1-1.1,2.3-3.1
					c0.2-1.9-0.5-2.7-1.3-3.1c0-0.6-0.1-1.2-0.1-1.7c-0.5-5.3-4.4-9.1-8.4-8.3c-0.6,0.1-1.3,0.1-1.9,0c-2.6-0.4-5.3,1.6-6.6,3.6
					c-1.7,2.7-1.5,5.2-1.1,6.4c-0.8,0.4-1.3,1.2-1.2,3c0.2,1.9,1.1,2.8,2.2,3.1c0.8,1.9,1.9,3.6,3.3,4.8l-3.3,0.8
					C7.1,40.1,4,44.1,4,48.7l0,3.2H3.2c-0.7,0-1.3,0.4-1.3,1.1v2.8c0,0.7,0.5,1.3,1.2,1.3h33.1c0.7,0,1.2-0.6,1.2-1.3v-2.7
					C37.5,52.4,37,51.9,36.3,51.9L36.3,51.9z M26.8,40.5l-2.2,1.7c-0.2,0.2-0.5,0.3-0.8,0.2c-0.3,0-0.6-0.2-0.7-0.4l-1.6-2.2
					c0.4-0.1,0.7-0.2,1.1-0.4L26.8,40.5z M12.3,28.2c0-0.1,0-0.2,0-0.4c0.5-1.8,1.7-3.3,3.5-4c0.3-0.1,0.7-0.3,1-0.5
					c0.1-0.1,0.2,0,0.3,0.1c0.1,0.1,0.1,0.2,0,0.3c-0.3,0.5-0.7,0.9-1.1,1.4c-0.1,0.2-0.2,0.4-0.1,0.6c0.1,0.2,0.3,0.3,0.5,0.3
					c1.9-0.3,5-1.2,7.3-3.2c0.5-0.5,1.4-0.5,1.9,0.1c0.1,0.1,0.1,0.1,0.2,0.2c0.5,0.6,0.8,1.2,1,2C27,26,27,27,27,28.2
					c0,4.6-3.3,10.1-7.4,10.1C15.6,38.4,12.3,32.8,12.3,28.2L12.3,28.2z M16.8,39.4c0.4,0.2,0.7,0.3,1.1,0.4L16.4,42
					c-0.2,0.2-0.4,0.4-0.7,0.4c-0.3,0-0.6,0-0.8-0.2l-2.2-1.7L16.8,39.4z M15.4,55.3h-5v-5.6c0-0.2-0.2-0.4-0.5-0.4
					c-0.2,0-0.5,0.2-0.5,0.4l0,2.2l-3.8,0l0-3.2c0-3.3,2-6.3,5-7.6l3.7,3c0.4,0.4,1,0.5,1.6,0.4c0.6-0.1,1.1-0.4,1.4-0.8l0.3-0.4
					L17.5,44c-0.2,0.7,0.3,1.4,1.1,1.4L15.4,55.3z M33.8,51.9l-3.8,0v-2.2c0-0.2-0.2-0.4-0.4-0.4c-0.2,0-0.5,0.2-0.5,0.4v5.6h-5
					l-3.2-9.9c0.7,0,1.3-0.7,1.1-1.4l-0.2-0.8l0.3,0.4c0.3,0.5,0.8,0.8,1.4,0.8c0.6,0.1,1.1-0.1,1.6-0.4l3.7-3c3,1.3,5,4.3,5,7.6
					V51.9z"/>
			</g>
		</g>
	</g>
</g>
<g>
	<g class="st0">
		<path class="st1" d="M117.1-42.7c0,0-0.5-0.7-1.7-1.2c0,0-0.1,0-0.3-0.1c-1.1-0.5-2.1-0.8-2.1-0.8c-0.2-0.1-0.4-0.1-0.6-0.2
			c-0.7-0.4-1.3-0.8-1.3-0.8l-0.6-0.6c1-1.1,1.8-2.5,2-3.9c0.2-0.2,0.4-0.5,0.4-1c0.1-0.5,0.3-1.5,0-1.9c0,0,0-0.1-0.1-0.1
			c0.3-1.1,0.7-3.4-0.7-5c-0.1-0.2-0.9-1.1-2.6-1.6l-0.8-0.3c-1.3-0.4-2.1-0.5-2.2-0.5c-0.1,0-0.1,0-0.2,0c0,0-0.2,0.1-0.3,0
			c-0.3,0-0.8,0.1-0.9,0.2c-0.1,0-2.6,1.1-3.4,3.4c-0.1,0.2-0.4,1.2,0,3.6c-0.1,0-0.1,0.1-0.2,0.2c-0.3,0.4-0.1,1.4,0,1.9
			c0.1,0.5,0.3,0.8,0.4,1c0.2,1.4,0.8,2.7,1.7,3.7c0,0,0.6,1.1,0.7,1.2c2,3,2.3,8.9,2.3,9.6v0.1c0,2.1-1.1,2.8-1.6,3
			c-0.3,0.1-0.6,0.2-0.8,0.3c0.1-0.2,0.3-0.6,0.3-1.2c0,0-0.2-8.6-1.9-11.2c0,0-0.5-0.7-1.7-1.1c0,0-0.1,0-0.2-0.1
			c-1-0.5-2-0.8-2-0.8c-0.2-0.1-0.4-0.2-0.6-0.2c-0.7-0.4-1.2-0.8-1.2-0.8l-0.6-0.6c1-1,1.7-2.4,1.9-3.7c0.2-0.2,0.4-0.5,0.4-0.9
			c0.1-0.5,0.3-1.4,0-1.8l0-0.1c0.3-1.1,0.7-3.3-0.7-4.8c-0.1-0.1-0.9-1-2.5-1.5l-0.8-0.3c-1.3-0.4-2-0.5-2.1-0.5s-0.1,0-0.2,0
			c-0.1,0-0.2,0.1-0.3,0c-0.3,0-0.7,0.1-0.8,0.1c-0.1,0-2.5,1-3.3,3.3c-0.1,0.2-0.4,1.1,0,3.5c-0.1,0-0.1,0.1-0.2,0.1
			c-0.3,0.4-0.1,1.3,0,1.8c0.1,0.5,0.2,0.7,0.4,0.9c0.2,1.3,0.8,2.6,1.6,3.5l-0.2,0.4v0l0,0.1c0,0,0,0,0,0l0,0
			c-0.3,1-4.3,2.2-4.3,2.2c-1.2,0.4-1.7,1.1-1.7,1.1c-1.7,2.6-1.9,11.2-1.9,11.2c0,0.6,0.1,1,0.3,1.2c-0.3-0.1-0.5-0.2-0.8-0.3
			c-0.6-0.2-1.6-1-1.6-3v-0.1c0-0.7,0.3-6.5,2.3-9.5c0.1-0.1,0.5-0.6,1.1-1.1v0c1-1.1,1.8-2.5,2-3.9c0.2-0.2,0.4-0.5,0.5-1
			c0.1-0.5,0.3-1.5,0-1.9c0,0,0-0.1-0.1-0.1c0.3-1.1,0.7-3.4-0.7-5c-0.1-0.2-0.9-1.1-2.5-1.6L81.9-60c-1.3-0.4-2.1-0.5-2.2-0.5
			c-0.1,0-0.1,0-0.2,0c-0.1,0-0.2,0.1-0.3,0c-0.3,0-0.8,0.1-0.9,0.1c-0.1,0-2.7,1.1-3.4,3.4c-0.1,0.2-0.4,1.2,0,3.6
			c-0.1,0-0.1,0.1-0.2,0.2c-0.3,0.4-0.1,1.4,0,1.9c0.1,0.5,0.3,0.8,0.4,1c0.2,1.4,0.9,2.7,1.7,3.7l-0.2,0.4v0l0,0c0,0,0,0,0,0l0,0
			c-0.4,1.1-4.5,2.3-4.5,2.3c-1.2,0.5-1.7,1.2-1.7,1.2c-1.8,2.7-2,8.6-2,8.6c0,1.4,0.6,1.5,0.6,1.5c4.2,1.9,10.7,2.2,10.7,2.2
			c0.3,0,0.7,0,1,0v0c0,0,2.5-0.1,5.3-0.6c3.4,0.8,6.9,1,6.9,1c0.3,0,0.6,0,1,0l0,0c0,0,3.7-0.2,7.2-1.1c3,0.6,5.6,0.7,5.6,0.7
			c0.3,0,0.7,0,1,0v0c0,0,6.5-0.3,10.7-2.2c0,0,0.6-0.1,0.6-1.5C119.1-34,118.9-40,117.1-42.7L117.1-42.7z"/>
	</g>
	<g>
		<g>
			<path class="st2" d="M116.1-43.7c0,0-0.5-0.7-1.7-1.2c0,0-0.1,0-0.3-0.1c-1.1-0.5-2.1-0.8-2.1-0.8c-0.2-0.1-0.4-0.1-0.6-0.2
				c-0.7-0.4-1.3-0.8-1.3-0.8l-0.6-0.6c1-1.1,1.8-2.5,2-3.9c0.2-0.2,0.4-0.5,0.4-1c0.1-0.5,0.3-1.5,0-1.9c0,0,0-0.1-0.1-0.1
				c0.3-1.1,0.7-3.4-0.7-5c-0.1-0.2-0.9-1.1-2.6-1.6l-0.8-0.3c-1.3-0.4-2.1-0.5-2.2-0.5c-0.1,0-0.1,0-0.2,0c0,0-0.2,0.1-0.3,0
				c-0.3,0-0.8,0.1-0.9,0.2c-0.1,0-2.6,1.1-3.4,3.4c-0.1,0.2-0.4,1.2,0,3.6c-0.1,0-0.1,0.1-0.2,0.2c-0.3,0.4-0.1,1.4,0,1.9
				c0.1,0.5,0.3,0.8,0.4,1c0.2,1.4,0.8,2.7,1.7,3.7c0,0,0.6,1.1,0.7,1.2c2,3,2.3,8.9,2.3,9.6v0.1c0,2.1-1.1,2.8-1.6,3
				c-0.3,0.1-0.6,0.2-0.8,0.3c0.1-0.2,0.3-0.6,0.3-1.2c0,0-0.2-8.6-1.9-11.2c0,0-0.5-0.7-1.7-1.1c0,0-0.1,0-0.2-0.1
				c-1-0.5-2-0.8-2-0.8c-0.2-0.1-0.4-0.2-0.6-0.2c-0.7-0.4-1.2-0.8-1.2-0.8l-0.6-0.6c1-1,1.7-2.4,1.9-3.7c0.2-0.2,0.4-0.5,0.4-0.9
				c0.1-0.5,0.3-1.4,0-1.8l0-0.1c0.3-1.1,0.7-3.3-0.7-4.8c-0.1-0.1-0.9-1-2.5-1.5l-0.8-0.3c-1.3-0.4-2-0.5-2.1-0.5s-0.1,0-0.2,0
				c-0.1,0-0.2,0.1-0.3,0c-0.3,0-0.7,0.1-0.8,0.1c-0.1,0-2.5,1-3.3,3.3c-0.1,0.2-0.4,1.1,0,3.5c-0.1,0-0.1,0.1-0.2,0.1
				c-0.3,0.4-0.1,1.3,0,1.8c0.1,0.5,0.2,0.7,0.4,0.9c0.2,1.3,0.8,2.6,1.6,3.5l-0.2,0.4v0l0,0.1c0,0,0,0,0,0l0,0
				c-0.3,1-4.3,2.2-4.3,2.2c-1.2,0.4-1.7,1.1-1.7,1.1c-1.7,2.6-1.9,11.2-1.9,11.2c0,0.6,0.1,1,0.3,1.2c-0.3-0.1-0.5-0.2-0.8-0.3
				c-0.6-0.2-1.6-1-1.6-3v-0.1c0-0.7,0.3-6.5,2.3-9.5c0.1-0.1,0.5-0.6,1.1-1.1v0c1-1.1,1.8-2.5,2-3.9c0.2-0.2,0.4-0.5,0.5-1
				c0.1-0.5,0.3-1.5,0-1.9c0,0,0-0.1-0.1-0.1c0.3-1.1,0.7-3.4-0.7-5c-0.1-0.2-0.9-1.1-2.5-1.6L80.9-61c-1.3-0.4-2.1-0.5-2.2-0.5
				c-0.1,0-0.1,0-0.2,0c-0.1,0-0.2,0.1-0.3,0c-0.3,0-0.8,0.1-0.9,0.1c-0.1,0-2.7,1.1-3.4,3.4c-0.1,0.2-0.4,1.2,0,3.6
				c-0.1,0-0.1,0.1-0.2,0.2c-0.3,0.4-0.1,1.4,0,1.9c0.1,0.5,0.3,0.8,0.4,1c0.2,1.4,0.9,2.7,1.7,3.7l-0.2,0.4v0l0,0c0,0,0,0,0,0l0,0
				c-0.4,1.1-4.5,2.3-4.5,2.3c-1.2,0.5-1.7,1.2-1.7,1.2c-1.8,2.7-2,8.6-2,8.6c0,1.4,0.6,1.5,0.6,1.5c4.2,1.9,10.7,2.2,10.7,2.2
				c0.3,0,0.7,0,1,0v0c0,0,2.5-0.1,5.3-0.6c3.4,0.8,6.9,1,6.9,1c0.3,0,0.6,0,1,0l0,0c0,0,3.7-0.2,7.2-1.1c3,0.6,5.6,0.7,5.6,0.7
				c0.3,0,0.7,0,1,0v0c0,0,6.5-0.3,10.7-2.2c0,0,0.6-0.1,0.6-1.5C118.1-35,117.9-41,116.1-43.7L116.1-43.7z"/>
		</g>
	</g>
</g>
</svg>
