<?xml version="1.0" encoding="utf-8"?>
<!-- Generator: Adobe Illustrator 25.1.0, SVG Export Plug-In . SVG Version: 6.00 Build 0)  -->
<svg version="1.1" id="レイヤー_1" xmlns="http://www.w3.org/2000/svg" xmlns:xlink="http://www.w3.org/1999/xlink" x="0px"
	 y="0px" viewBox="0 0 61 59" style="enable-background:new 0 0 61 59;" xml:space="preserve">
<style type="text/css">
	.st0{opacity:0.86;}
	.st1{fill:#B7B7B7;}
	.st2{fill:#E8F9FF;}
</style>
<g>
	<g class="st0">
		<path class="st1" d="M117.1-42.7c0,0-0.5-0.7-1.7-1.2c0,0-0.1,0-0.3-0.1c-1.1-0.5-2.1-0.8-2.1-0.8c-0.2-0.1-0.4-0.1-0.6-0.2
			c-0.7-0.4-1.3-0.8-1.3-0.8l-0.6-0.6c1-1.1,1.8-2.5,2-3.9c0.2-0.2,0.4-0.5,0.4-1c0.1-0.5,0.3-1.5,0-1.9c0,0,0-0.1-0.1-0.1
			c0.3-1.1,0.7-3.4-0.7-5c-0.1-0.2-0.9-1.1-2.6-1.6l-0.8-0.3c-1.3-0.4-2.1-0.5-2.2-0.5c-0.1,0-0.1,0-0.2,0c0,0-0.2,0.1-0.3,0
			c-0.3,0-0.8,0.1-0.9,0.2c-0.1,0-2.6,1.1-3.4,3.4c-0.1,0.2-0.4,1.2,0,3.6c-0.1,0-0.1,0.1-0.2,0.2c-0.3,0.4-0.1,1.4,0,1.9
			c0.1,0.5,0.3,0.8,0.4,1c0.2,1.4,0.8,2.7,1.7,3.7c0,0,0.6,1.1,0.7,1.2c2,3,2.3,8.9,2.3,9.6v0.1c0,2.1-1.1,2.8-1.6,3
			c-0.3,0.1-0.6,0.2-0.8,0.3c0.1-0.2,0.3-0.6,0.3-1.2c0,0-0.2-8.6-1.9-11.2c0,0-0.5-0.7-1.7-1.1c0,0-0.1,0-0.2-0.1
			c-1-0.5-2-0.8-2-0.8c-0.2-0.1-0.4-0.2-0.6-0.2c-0.7-0.4-1.2-0.8-1.2-0.8l-0.6-0.6c1-1,1.7-2.4,1.9-3.7c0.2-0.2,0.4-0.5,0.4-0.9
			c0.1-0.5,0.3-1.4,0-1.8l0-0.1c0.3-1.1,0.7-3.3-0.7-4.8c-0.1-0.1-0.9-1-2.5-1.5l-0.8-0.3c-1.3-0.4-2-0.5-2.1-0.5s-0.1,0-0.2,0
			c-0.1,0-0.2,0.1-0.3,0c-0.3,0-0.7,0.1-0.8,0.1c-0.1,0-2.5,1-3.3,3.3c-0.1,0.2-0.4,1.1,0,3.5c-0.1,0-0.1,0.1-0.2,0.1
			c-0.3,0.4-0.1,1.3,0,1.8c0.1,0.5,0.2,0.7,0.4,0.9c0.2,1.3,0.8,2.6,1.6,3.5l-0.2,0.4v0l0,0.1c0,0,0,0,0,0l0,0
			c-0.3,1-4.3,2.2-4.3,2.2c-1.2,0.4-1.7,1.1-1.7,1.1c-1.7,2.6-1.9,11.2-1.9,11.2c0,0.6,0.1,1,0.3,1.2c-0.3-0.1-0.5-0.2-0.8-0.3
			c-0.6-0.2-1.6-1-1.6-3v-0.1c0-0.7,0.3-6.5,2.3-9.5c0.1-0.1,0.5-0.6,1.1-1.1v0c1-1.1,1.8-2.5,2-3.9c0.2-0.2,0.4-0.5,0.5-1
			c0.1-0.5,0.3-1.5,0-1.9c0,0,0-0.1-0.1-0.1c0.3-1.1,0.7-3.4-0.7-5c-0.1-0.2-0.9-1.1-2.5-1.6L81.9-60c-1.3-0.4-2.1-0.5-2.2-0.5
			c-0.1,0-0.1,0-0.2,0c-0.1,0-0.2,0.1-0.3,0c-0.3,0-0.8,0.1-0.9,0.1c-0.1,0-2.7,1.1-3.4,3.4c-0.1,0.2-0.4,1.2,0,3.6
			c-0.1,0-0.1,0.1-0.2,0.2c-0.3,0.4-0.1,1.4,0,1.9c0.1,0.5,0.3,0.8,0.4,1c0.2,1.4,0.9,2.7,1.7,3.7l-0.2,0.4v0l0,0c0,0,0,0,0,0l0,0
			c-0.4,1.1-4.5,2.3-4.5,2.3c-1.2,0.5-1.7,1.2-1.7,1.2c-1.8,2.7-2,8.6-2,8.6c0,1.4,0.6,1.5,0.6,1.5c4.2,1.9,10.7,2.2,10.7,2.2
			c0.3,0,0.7,0,1,0v0c0,0,2.5-0.1,5.3-0.6c3.4,0.8,6.9,1,6.9,1c0.3,0,0.6,0,1,0l0,0c0,0,3.7-0.2,7.2-1.1c3,0.6,5.6,0.7,5.6,0.7
			c0.3,0,0.7,0,1,0v0c0,0,6.5-0.3,10.7-2.2c0,0,0.6-0.1,0.6-1.5C119.1-34,118.9-40,117.1-42.7L117.1-42.7z"/>
	</g>
	<g>
		<g>
			<path class="st2" d="M116.1-43.7c0,0-0.5-0.7-1.7-1.2c0,0-0.1,0-0.3-0.1c-1.1-0.5-2.1-0.8-2.1-0.8c-0.2-0.1-0.4-0.1-0.6-0.2
				c-0.7-0.4-1.3-0.8-1.3-0.8l-0.6-0.6c1-1.1,1.8-2.5,2-3.9c0.2-0.2,0.4-0.5,0.4-1c0.1-0.5,0.3-1.5,0-1.9c0,0,0-0.1-0.1-0.1
				c0.3-1.1,0.7-3.4-0.7-5c-0.1-0.2-0.9-1.1-2.6-1.6l-0.8-0.3c-1.3-0.4-2.1-0.5-2.2-0.5c-0.1,0-0.1,0-0.2,0c0,0-0.2,0.1-0.3,0
				c-0.3,0-0.8,0.1-0.9,0.2c-0.1,0-2.6,1.1-3.4,3.4c-0.1,0.2-0.4,1.2,0,3.6c-0.1,0-0.1,0.1-0.2,0.2c-0.3,0.4-0.1,1.4,0,1.9
				c0.1,0.5,0.3,0.8,0.4,1c0.2,1.4,0.8,2.7,1.7,3.7c0,0,0.6,1.1,0.7,1.2c2,3,2.3,8.9,2.3,9.6v0.1c0,2.1-1.1,2.8-1.6,3
				c-0.3,0.1-0.6,0.2-0.8,0.3c0.1-0.2,0.3-0.6,0.3-1.2c0,0-0.2-8.6-1.9-11.2c0,0-0.5-0.7-1.7-1.1c0,0-0.1,0-0.2-0.1
				c-1-0.5-2-0.8-2-0.8c-0.2-0.1-0.4-0.2-0.6-0.2c-0.7-0.4-1.2-0.8-1.2-0.8l-0.6-0.6c1-1,1.7-2.4,1.9-3.7c0.2-0.2,0.4-0.5,0.4-0.9
				c0.1-0.5,0.3-1.4,0-1.8l0-0.1c0.3-1.1,0.7-3.3-0.7-4.8c-0.1-0.1-0.9-1-2.5-1.5l-0.8-0.3c-1.3-0.4-2-0.5-2.1-0.5s-0.1,0-0.2,0
				c-0.1,0-0.2,0.1-0.3,0c-0.3,0-0.7,0.1-0.8,0.1c-0.1,0-2.5,1-3.3,3.3c-0.1,0.2-0.4,1.1,0,3.5c-0.1,0-0.1,0.1-0.2,0.1
				c-0.3,0.4-0.1,1.3,0,1.8c0.1,0.5,0.2,0.7,0.4,0.9c0.2,1.3,0.8,2.6,1.6,3.5l-0.2,0.4v0l0,0.1c0,0,0,0,0,0l0,0
				c-0.3,1-4.3,2.2-4.3,2.2c-1.2,0.4-1.7,1.1-1.7,1.1c-1.7,2.6-1.9,11.2-1.9,11.2c0,0.6,0.1,1,0.3,1.2c-0.3-0.1-0.5-0.2-0.8-0.3
				c-0.6-0.2-1.6-1-1.6-3v-0.1c0-0.7,0.3-6.5,2.3-9.5c0.1-0.1,0.5-0.6,1.1-1.1v0c1-1.1,1.8-2.5,2-3.9c0.2-0.2,0.4-0.5,0.5-1
				c0.1-0.5,0.3-1.5,0-1.9c0,0,0-0.1-0.1-0.1c0.3-1.1,0.7-3.4-0.7-5c-0.1-0.2-0.9-1.1-2.5-1.6L80.9-61c-1.3-0.4-2.1-0.5-2.2-0.5
				c-0.1,0-0.1,0-0.2,0c-0.1,0-0.2,0.1-0.3,0c-0.3,0-0.8,0.1-0.9,0.1c-0.1,0-2.7,1.1-3.4,3.4c-0.1,0.2-0.4,1.2,0,3.6
				c-0.1,0-0.1,0.1-0.2,0.2c-0.3,0.4-0.1,1.4,0,1.9c0.1,0.5,0.3,0.8,0.4,1c0.2,1.4,0.9,2.7,1.7,3.7l-0.2,0.4v0l0,0c0,0,0,0,0,0l0,0
				c-0.4,1.1-4.5,2.3-4.5,2.3c-1.2,0.5-1.7,1.2-1.7,1.2c-1.8,2.7-2,8.6-2,8.6c0,1.4,0.6,1.5,0.6,1.5c4.2,1.9,10.7,2.2,10.7,2.2
				c0.3,0,0.7,0,1,0v0c0,0,2.5-0.1,5.3-0.6c3.4,0.8,6.9,1,6.9,1c0.3,0,0.6,0,1,0l0,0c0,0,3.7-0.2,7.2-1.1c3,0.6,5.6,0.7,5.6,0.7
				c0.3,0,0.7,0,1,0v0c0,0,6.5-0.3,10.7-2.2c0,0,0.6-0.1,0.6-1.5C118.1-35,117.9-41,116.1-43.7L116.1-43.7z"/>
		</g>
	</g>
</g>
<g>
	<g class="st0">
		<path class="st1" d="M28.5,40.3C28.5,40.3,28.5,40.2,28.5,40.3c0-0.1,0-0.1,0-0.1c0,0,0,0,0,0c0,0,0-0.1,0-0.1c0,0,0,0,0,0
			c0,0,0,0,0-0.1c0,0,0,0,0,0c0,0,0,0,0,0c0,0,0,0,0-0.1c0,0,0,0,0,0c0,0,0-0.1-0.1-0.1c0,0,0,0,0,0c0,0,0,0-0.1-0.1c0,0,0,0,0,0
			c0,0-0.1,0-0.1-0.1l-12-6.8l6.9-4.3l11.6,6.6l-4.9,3.1c-0.4,0.2-0.5,0.7-0.3,1.1c0.2,0.4,0.7,0.5,1.1,0.3l6-3.8
			c0.2-0.2,0.4-0.4,0.4-0.7c0-0.3-0.2-0.5-0.4-0.7l-13.2-7.5c-0.3-0.1-0.6-0.1-0.8,0l-8.5,5.3c0,0,0,0,0,0l-4.2,2.7c0,0,0,0,0,0
			l-8.5,5.3C1.1,40.3,1,40.6,1,40.9c0,0.3,0.2,0.5,0.4,0.7l13.2,7.5c0.1,0.1,0.3,0.1,0.4,0.1c0.1,0,0.3,0,0.4-0.1l6-3.8
			c0.4-0.2,0.5-0.7,0.3-1.1c-0.2-0.4-0.7-0.5-1.1-0.3L15,47.4L3.4,40.8l6.9-4.3l12.3,7v9.3c0,0.3,0.2,0.6,0.4,0.7
			c0.1,0.1,0.3,0.1,0.4,0.1c0.2,0,0.3,0,0.4-0.1l4.2-2.7c0.2-0.1,0.4-0.4,0.4-0.7L28.5,40.3C28.5,40.4,28.5,40.3,28.5,40.3
			C28.5,40.3,28.5,40.3,28.5,40.3L28.5,40.3z M24.3,51.3V43c0-0.3-0.2-0.6-0.4-0.7l-12-6.8l2.7-1.7l11.6,6.6l-1,0.6
			c-0.4,0.2-0.5,0.7-0.3,1.1c0.2,0.2,0.4,0.4,0.7,0.4c0.1,0,0.3,0,0.4-0.1l0.9-0.6v7.8L24.3,51.3z"/>
		<path class="st1" d="M35.7,37.6l-6,3.8c-0.4,0.2-0.5,0.7-0.3,1.1c0.2,0.2,0.4,0.4,0.7,0.4c0.1,0,0.3,0,0.4-0.1l6-3.8
			c0.4-0.2,0.5-0.7,0.3-1.1C36.6,37.5,36.1,37.4,35.7,37.6L35.7,37.6z"/>
		<path class="st1" d="M20.6,47.1L15,50.7L2.2,43.4c-0.4-0.2-0.9-0.1-1.1,0.3c-0.2,0.4-0.1,0.9,0.3,1.1l13.2,7.5
			c0.1,0.1,0.3,0.1,0.4,0.1c0.1,0,0.3,0,0.4-0.1l6-3.8c0.4-0.2,0.5-0.7,0.3-1.1C21.5,47,21,46.9,20.6,47.1L20.6,47.1z"/>
		<path class="st1" d="M35.7,40.8l-6,3.8c-0.4,0.2-0.5,0.7-0.3,1.1c0.2,0.2,0.4,0.4,0.7,0.4c0.1,0,0.3,0,0.4-0.1l6-3.8
			c0.4-0.2,0.5-0.7,0.3-1.1C36.6,40.7,36.1,40.6,35.7,40.8L35.7,40.8z"/>
		<path class="st1" d="M20.6,50.4L15,53.9L2.2,46.7c-0.4-0.2-0.9-0.1-1.1,0.3c-0.2,0.4-0.1,0.9,0.3,1.1l13.2,7.5
			c0.1,0.1,0.3,0.1,0.4,0.1c0.1,0,0.3,0,0.4-0.1l6-3.8c0.4-0.2,0.5-0.7,0.3-1.1C21.5,50.3,21,50.1,20.6,50.4L20.6,50.4z"/>
		<path class="st1" d="M35.7,44.1l-6,3.8c-0.4,0.2-0.5,0.7-0.3,1.1c0.2,0.2,0.4,0.4,0.7,0.4c0.1,0,0.3,0,0.4-0.1l6-3.8
			c0.4-0.2,0.5-0.7,0.3-1.1C36.6,44,36.1,43.9,35.7,44.1L35.7,44.1z"/>
		<path class="st1" d="M20.6,53.6L15,57.2L2.2,49.9c-0.4-0.2-0.9-0.1-1.1,0.3c-0.2,0.4-0.1,0.9,0.3,1.1l13.2,7.5
			c0.1,0.1,0.3,0.1,0.4,0.1c0.1,0,0.3,0,0.4-0.1l6-3.8c0.4-0.2,0.5-0.7,0.3-1.1C21.5,53.5,21,53.4,20.6,53.6L20.6,53.6z"/>
	</g>
	<g>
		<g>
			<g>
				<path class="st2" d="M27.5,39.3C27.5,39.3,27.5,39.2,27.5,39.3c0-0.1,0-0.1,0-0.1c0,0,0,0,0,0c0,0,0-0.1,0-0.1c0,0,0,0,0,0
					c0,0,0,0,0-0.1c0,0,0,0,0,0c0,0,0,0,0,0c0,0,0,0,0-0.1c0,0,0,0,0,0c0,0,0-0.1-0.1-0.1c0,0,0,0,0,0c0,0,0,0-0.1-0.1c0,0,0,0,0,0
					c0,0-0.1,0-0.1-0.1l-12-6.8l6.9-4.3l11.6,6.6l-4.9,3.1c-0.4,0.2-0.5,0.7-0.3,1.1c0.2,0.4,0.7,0.5,1.1,0.3l6-3.8
					c0.2-0.2,0.4-0.4,0.4-0.7c0-0.3-0.2-0.5-0.4-0.7l-13.2-7.5c-0.3-0.1-0.6-0.1-0.8,0l-8.5,5.3c0,0,0,0,0,0l-4.2,2.7c0,0,0,0,0,0
					l-8.5,5.3C0.1,39.3,0,39.6,0,39.9c0,0.3,0.2,0.5,0.4,0.7l13.2,7.5c0.1,0.1,0.3,0.1,0.4,0.1c0.1,0,0.3,0,0.4-0.1l6-3.8
					c0.4-0.2,0.5-0.7,0.3-1.1c-0.2-0.4-0.7-0.5-1.1-0.3L14,46.4L2.4,39.8l6.9-4.3l12.3,7v9.3c0,0.3,0.2,0.6,0.4,0.7
					c0.1,0.1,0.3,0.1,0.4,0.1c0.2,0,0.3,0,0.4-0.1l4.2-2.7c0.2-0.1,0.4-0.4,0.4-0.7L27.5,39.3C27.5,39.4,27.5,39.3,27.5,39.3
					C27.5,39.3,27.5,39.3,27.5,39.3L27.5,39.3z M23.3,50.3V42c0-0.3-0.2-0.6-0.4-0.7l-12-6.8l2.7-1.7l11.6,6.6l-1,0.6
					c-0.4,0.2-0.5,0.7-0.3,1.1c0.2,0.2,0.4,0.4,0.7,0.4c0.1,0,0.3,0,0.4-0.1l0.9-0.6v7.8L23.3,50.3z"/>
				<path class="st2" d="M34.7,36.6l-6,3.8c-0.4,0.2-0.5,0.7-0.3,1.1c0.2,0.2,0.4,0.4,0.7,0.4c0.1,0,0.3,0,0.4-0.1l6-3.8
					c0.4-0.2,0.5-0.7,0.3-1.1C35.6,36.5,35.1,36.4,34.7,36.6L34.7,36.6z"/>
				<path class="st2" d="M19.6,46.1L14,49.7L1.2,42.4c-0.4-0.2-0.9-0.1-1.1,0.3c-0.2,0.4-0.1,0.9,0.3,1.1l13.2,7.5
					c0.1,0.1,0.3,0.1,0.4,0.1c0.1,0,0.3,0,0.4-0.1l6-3.8c0.4-0.2,0.5-0.7,0.3-1.1C20.5,46,20,45.9,19.6,46.1L19.6,46.1z"/>
				<path class="st2" d="M34.7,39.8l-6,3.8c-0.4,0.2-0.5,0.7-0.3,1.1c0.2,0.2,0.4,0.4,0.7,0.4c0.1,0,0.3,0,0.4-0.1l6-3.8
					c0.4-0.2,0.5-0.7,0.3-1.1C35.6,39.7,35.1,39.6,34.7,39.8L34.7,39.8z"/>
				<path class="st2" d="M19.6,49.4L14,52.9L1.2,45.7c-0.4-0.2-0.9-0.1-1.1,0.3c-0.2,0.4-0.1,0.9,0.3,1.1l13.2,7.5
					c0.1,0.1,0.3,0.1,0.4,0.1c0.1,0,0.3,0,0.4-0.1l6-3.8c0.4-0.2,0.5-0.7,0.3-1.1C20.5,49.3,20,49.1,19.6,49.4L19.6,49.4z"/>
				<path class="st2" d="M34.7,43.1l-6,3.8c-0.4,0.2-0.5,0.7-0.3,1.1c0.2,0.2,0.4,0.4,0.7,0.4c0.1,0,0.3,0,0.4-0.1l6-3.8
					c0.4-0.2,0.5-0.7,0.3-1.1C35.6,43,35.1,42.9,34.7,43.1L34.7,43.1z"/>
				<path class="st2" d="M19.6,52.6L14,56.2L1.2,48.9c-0.4-0.2-0.9-0.1-1.1,0.3c-0.2,0.4-0.1,0.9,0.3,1.1l13.2,7.5
					c0.1,0.1,0.3,0.1,0.4,0.1c0.1,0,0.3,0,0.4-0.1l6-3.8c0.4-0.2,0.5-0.7,0.3-1.1C20.5,52.5,20,52.4,19.6,52.6L19.6,52.6z"/>
			</g>
		</g>
	</g>
</g>
<g>
	<g class="st0">
		<path class="st1" d="M58.9,28.5H31.3c-0.8,0-1.4,0.6-1.4,1.4c0,0.8,0.6,1.4,1.4,1.4h27.6c0.8,0,1.4-0.6,1.4-1.4
			C60.2,29.1,59.6,28.5,58.9,28.5L58.9,28.5z"/>
		<path class="st1" d="M33,24.9c-0.8,0-1.4,0.6-1.4,1.4c0,0.8,0.6,1.4,1.4,1.4h24.2c0.8,0,1.4-0.6,1.4-1.4c0-0.8-0.6-1.4-1.4-1.4
			h-0.3V12.5h0.3c0.4,0,0.7-0.3,0.7-0.7c0-0.4-0.3-0.7-0.7-0.7H33c-0.4,0-0.7,0.3-0.7,0.7c0,0.4,0.3,0.7,0.7,0.7h0.3v12.4H33z
			 M54,12.5v12.4h-4.1V12.5H54z M47.1,12.5v12.4H43V12.5H47.1z M36.1,12.5h4.1v12.4h-4.1V12.5z"/>
		<path class="st1" d="M31.3,9.9h27.6c0.8,0,1.4-0.6,1.4-1.4c0-0.6-0.4-1.1-0.9-1.3L45.6,1c-0.4-0.2-0.8-0.2-1.1,0L30.7,7.2
			c-0.6,0.3-0.9,0.9-0.8,1.6C30.1,9.4,30.6,9.9,31.3,9.9L31.3,9.9z"/>
	</g>
	<g>
		<g>
			<path class="st2" d="M57.9,27.5H30.3c-0.8,0-1.4,0.6-1.4,1.4c0,0.8,0.6,1.4,1.4,1.4h27.6c0.8,0,1.4-0.6,1.4-1.4
				C59.2,28.1,58.6,27.5,57.9,27.5L57.9,27.5z"/>
			<g>
				<path class="st2" d="M32,23.9c-0.8,0-1.4,0.6-1.4,1.4c0,0.8,0.6,1.4,1.4,1.4h24.2c0.8,0,1.4-0.6,1.4-1.4c0-0.8-0.6-1.4-1.4-1.4
					h-0.3V11.5h0.3c0.4,0,0.7-0.3,0.7-0.7c0-0.4-0.3-0.7-0.7-0.7H32c-0.4,0-0.7,0.3-0.7,0.7c0,0.4,0.3,0.7,0.7,0.7h0.3v12.4H32z
					 M53,11.5v12.4h-4.1V11.5H53z M46.1,11.5v12.4H42V11.5H46.1z M35.1,11.5h4.1v12.4h-4.1V11.5z"/>
				<path class="st2" d="M30.3,8.9h27.6c0.8,0,1.4-0.6,1.4-1.4c0-0.6-0.4-1.1-0.9-1.3L44.6,0c-0.4-0.2-0.8-0.2-1.1,0L29.7,6.2
					c-0.6,0.3-0.9,0.9-0.8,1.6C29.1,8.4,29.6,8.9,30.3,8.9L30.3,8.9z"/>
			</g>
		</g>
	</g>
</g>
</svg>
