<?xml version="1.0" encoding="utf-8"?>
<!-- Generator: Adobe Illustrator 25.2.0, SVG Export Plug-In . SVG Version: 6.00 Build 0)  -->
<svg version="1.1" id="レイヤー_1" xmlns="http://www.w3.org/2000/svg" xmlns:xlink="http://www.w3.org/1999/xlink" x="0px"
	 y="0px" viewBox="0 0 202 23" style="enable-background:new 0 0 202 23;" xml:space="preserve">
<style type="text/css">
	.st0{enable-background:new    ;}
	.st1{fill:url(#SVGID_1_);}
	.st2{fill:url(#SVGID_2_);}
	.st3{fill:url(#SVGID_3_);}
	.st4{fill:url(#SVGID_4_);}
	.st5{fill:url(#SVGID_5_);}
	.st6{fill:url(#SVGID_6_);}
</style>
<g class="st0">
	<radialGradient id="SVGID_1_" cx="49.9967" cy="12.3399" r="7.8764" gradientUnits="userSpaceOnUse">
		<stop  offset="0" style="stop-color:#92ADCC"/>
		<stop  offset="0.5" style="stop-color:#7299BF"/>
		<stop  offset="1" style="stop-color:#2977A7"/>
	</radialGradient>
	<path class="st1" d="M42.6,4h8.7c1.7,0,3,0.4,3.9,1.1c0.9,0.7,1.4,1.7,1.4,2.8c0,0.9-0.3,1.7-0.9,2.4c-0.6,0.7-1.6,1.2-2.8,1.6
		c1.6,0.3,2.7,0.8,3.5,1.6c0.8,0.7,1.2,1.6,1.2,2.7c0,0.8-0.2,1.6-0.7,2.2c-0.4,0.6-1.2,1.2-2.2,1.6c-1,0.4-2.2,0.7-3.5,0.7h-8.4
		v-0.8H44c0.4,0,0.7-0.1,0.9-0.2c0.2-0.1,0.3-0.3,0.3-0.5V5.8c0-0.3-0.1-0.6-0.3-0.7C44.7,5,44.4,4.9,44,4.9h-1.5V4z M47.5,11.7h3.1
		c1,0,1.7-0.3,2.3-0.9c0.6-0.6,0.9-1.5,0.9-2.8c0-0.8-0.1-1.4-0.4-1.9c-0.3-0.4-0.7-0.8-1.2-1c-0.5-0.2-1.4-0.3-2.7-0.3
		c-0.9,0-1.5,0.1-1.7,0.2c-0.2,0.1-0.3,0.4-0.3,0.7V11.7z M47.5,12.5v6.4c0,0.3,0.1,0.5,0.3,0.7c0.2,0.2,0.5,0.2,1,0.2h2
		c1.3,0,2.3-0.3,3-0.9c0.6-0.6,1-1.5,1-2.7c0-1.1-0.3-2-1-2.7c-0.7-0.7-1.6-1-2.7-1H47.5z"/>
	<radialGradient id="SVGID_2_" cx="68.8805" cy="12.4245" r="8.1107" gradientUnits="userSpaceOnUse">
		<stop  offset="0" style="stop-color:#92ADCC"/>
		<stop  offset="0.5" style="stop-color:#7299BF"/>
		<stop  offset="1" style="stop-color:#2977A7"/>
	</radialGradient>
	<path class="st2" d="M61.1,4h8.6c1.7,0,3,0.4,3.9,1.1c0.9,0.8,1.4,1.7,1.4,3c0,0.7-0.2,1.4-0.5,2c-0.4,0.6-0.9,1-1.6,1.4
		c-0.7,0.3-1.8,0.6-3.2,0.7c1.1,0.3,1.8,0.6,2.2,0.9c0.4,0.3,0.7,0.6,1,1.1c0.2,0.4,0.5,1.4,0.8,2.7c0.2,1,0.5,1.7,0.7,2
		c0.2,0.3,0.4,0.4,0.6,0.4c0.2,0,0.4-0.2,0.6-0.5c0.2-0.3,0.3-0.9,0.4-1.8h0.8c-0.1,2.5-1.1,3.8-2.8,3.8c-0.5,0-1-0.1-1.4-0.4
		c-0.4-0.3-0.7-0.7-0.9-1.2c-0.2-0.4-0.3-1.5-0.5-3.2c-0.1-1-0.3-1.7-0.5-2.1c-0.2-0.4-0.6-0.8-1.1-1c-0.5-0.3-1.1-0.4-1.9-0.4h-1.4
		V19c0,0.3,0.1,0.5,0.2,0.6c0.2,0.1,0.5,0.2,0.8,0.2h1.6v0.8h-7.7v-0.8h1.6c0.4,0,0.6-0.1,0.8-0.2c0.2-0.1,0.3-0.3,0.3-0.6V5.7
		c0-0.3-0.1-0.5-0.3-0.6c-0.2-0.1-0.4-0.2-0.8-0.2h-1.6V4z M66.1,11.7h2c1.3,0,2.3-0.2,3.1-0.7c0.7-0.5,1.1-1.4,1.1-2.7
		c0-0.9-0.1-1.6-0.4-2.1c-0.3-0.5-0.6-0.9-1.1-1c-0.5-0.2-1.4-0.3-2.7-0.3c-0.9,0-1.4,0.1-1.6,0.2c-0.2,0.1-0.3,0.3-0.3,0.6V11.7z"
		/>
	<radialGradient id="SVGID_3_" cx="87.7597" cy="12.165" r="8.4708" gradientUnits="userSpaceOnUse">
		<stop  offset="0" style="stop-color:#92ADCC"/>
		<stop  offset="0.5" style="stop-color:#7299BF"/>
		<stop  offset="1" style="stop-color:#2977A7"/>
	</radialGradient>
	<path class="st3" d="M87.5,3.7h0.8l6,15.2c0.2,0.6,0.7,0.9,1.5,0.9h0.5v0.8h-6.6v-0.8h0.5c0.7,0,1.2-0.1,1.5-0.2
		c0.2-0.1,0.3-0.3,0.3-0.5c0-0.1,0-0.3-0.1-0.4l-1.4-3.5h-6.6l-0.8,2c-0.2,0.5-0.3,1-0.3,1.3c0,0.4,0.2,0.7,0.5,0.9
		c0.3,0.3,0.8,0.4,1.5,0.4h0.6v0.8h-6v-0.8c0.6,0,1.2-0.1,1.5-0.4c0.4-0.3,0.7-0.8,1-1.6L87.5,3.7z M87.2,6.9l-3,7.4h5.9L87.2,6.9z"
		/>
	<radialGradient id="SVGID_4_" cx="108.1005" cy="12.3399" r="8.503" gradientUnits="userSpaceOnUse">
		<stop  offset="0" style="stop-color:#92ADCC"/>
		<stop  offset="0.5" style="stop-color:#7299BF"/>
		<stop  offset="1" style="stop-color:#2977A7"/>
	</radialGradient>
	<path class="st4" d="M99.4,4h4l10,13.1V7.6c0-1-0.2-1.7-0.7-2.1c-0.4-0.4-1-0.6-1.8-0.7V4h5.8v0.8c-0.6,0-1,0.1-1.3,0.2
		c-0.3,0.2-0.6,0.5-0.8,0.9c-0.2,0.4-0.3,0.9-0.3,1.4v13.2h-1.1L102.9,7.1v10c0,0.9,0.2,1.6,0.7,2c0.5,0.4,1.2,0.7,2.1,0.7v0.8h-6.3
		v-0.8c0.8,0,1.4-0.3,1.9-0.8c0.5-0.5,0.7-1.1,0.7-1.8V6l-0.2-0.2c-0.4-0.4-0.6-0.6-0.8-0.7c-0.2-0.1-0.5-0.2-0.8-0.2h-0.8V4z"/>
	<radialGradient id="SVGID_5_" cx="128.2895" cy="12.3399" r="8.1129" gradientUnits="userSpaceOnUse">
		<stop  offset="0" style="stop-color:#92ADCC"/>
		<stop  offset="0.5" style="stop-color:#7299BF"/>
		<stop  offset="1" style="stop-color:#2977A7"/>
	</radialGradient>
	<path class="st5" d="M120.4,4h8.6c1.3,0,2.4,0.2,3.2,0.7c1.1,0.6,2.1,1.5,2.8,2.8c0.8,1.3,1.2,2.9,1.2,4.7c0,1.5-0.2,2.8-0.7,4
		c-0.4,0.9-0.9,1.7-1.6,2.4c-0.7,0.7-1.6,1.2-2.7,1.6c-0.8,0.3-1.8,0.4-3.1,0.4h-7.7v-0.8h1.6c0.4,0,0.7-0.1,0.8-0.2
		c0.2-0.1,0.2-0.3,0.2-0.6V5.6c0-0.2-0.1-0.4-0.2-0.6c-0.2-0.1-0.4-0.2-0.7-0.2h-1.7V4z M126.4,4.9c-0.3,0-0.6,0.1-0.7,0.2
		c-0.2,0.1-0.2,0.4-0.2,0.6V19c0,0.3,0.1,0.5,0.3,0.6c0.2,0.1,0.5,0.2,1,0.2h1.4c1.3,0,2.4-0.3,3.3-1c0.6-0.4,1.1-1,1.4-1.8
		c0.4-1.1,0.7-2.5,0.7-4.4c0-2.8-0.5-4.8-1.5-6.1c-0.8-1.1-2.1-1.6-3.7-1.6H126.4z"/>
	<radialGradient id="SVGID_6_" cx="147.3431" cy="12.3225" r="7.4337" gradientUnits="userSpaceOnUse">
		<stop  offset="0" style="stop-color:#92ADCC"/>
		<stop  offset="0.5" style="stop-color:#7299BF"/>
		<stop  offset="1" style="stop-color:#2977A7"/>
	</radialGradient>
	<path class="st6" d="M150.5,5.3l1-1.5h0.8l0.1,6.1h-0.7c-0.5-1.9-1.2-3.2-2.1-4.1c-0.9-0.9-2-1.3-3.1-1.3c-1,0-1.8,0.3-2.4,0.9
		c-0.6,0.6-0.9,1.3-0.9,2.2c0,0.5,0.1,1,0.4,1.4s0.6,0.7,1.1,1s1.4,0.5,2.7,0.8c1.9,0.4,3.2,0.8,3.9,1.2c0.7,0.4,1.3,0.9,1.7,1.6
		c0.4,0.6,0.6,1.4,0.6,2.2c0,1.5-0.5,2.7-1.5,3.7s-2.3,1.5-3.9,1.5c-1.7,0-3.2-0.6-4.5-1.7l-1.3,1.6h-0.8v-6.4h0.8
		c0.3,1.8,1,3.2,2.1,4.2c1.1,1,2.3,1.5,3.7,1.5c1.1,0,2-0.3,2.7-1c0.7-0.7,1.1-1.5,1.1-2.4c0-0.5-0.1-1-0.4-1.4
		c-0.3-0.4-0.7-0.7-1.2-1c-0.6-0.3-1.7-0.6-3.4-1c-1.8-0.4-3.1-0.9-3.8-1.5c-0.9-0.8-1.4-1.8-1.4-3.2c0-1.5,0.5-2.7,1.4-3.6
		c0.9-0.9,2.1-1.4,3.6-1.4c0.7,0,1.4,0.1,2,0.4C149.2,4.3,149.8,4.7,150.5,5.3z"/>
</g>
</svg>
