<?xml version="1.0" encoding="utf-8"?>
<!-- Generator: Adobe Illustrator 25.2.0, SVG Export Plug-In . SVG Version: 6.00 Build 0)  -->
<svg version="1.1" id="レイヤー_1" xmlns="http://www.w3.org/2000/svg" xmlns:xlink="http://www.w3.org/1999/xlink" x="0px"
	 y="0px" viewBox="0 0 184.5 23" style="enable-background:new 0 0 184.5 23;" xml:space="preserve">
<style type="text/css">
	.st0{enable-background:new    ;}
	.st1{fill:url(#SVGID_1_);}
	.st2{fill:url(#SVGID_2_);}
	.st3{fill:url(#SVGID_3_);}
	.st4{fill:url(#SVGID_4_);}
	.st5{fill:url(#SVGID_5_);}
	.st6{fill:url(#SVGID_6_);}
	.st7{fill:url(#SVGID_7_);}
</style>
<g class="st0">
	<radialGradient id="SVGID_1_" cx="27.2246" cy="11.9165" r="7.7418" gradientUnits="userSpaceOnUse">
		<stop  offset="0" style="stop-color:#92ADCC"/>
		<stop  offset="0.5" style="stop-color:#7299BF"/>
		<stop  offset="1" style="stop-color:#2977A7"/>
	</radialGradient>
	<path class="st1" d="M31.9,5l0.8-1.6h0.7l0.3,6.6h-0.7c-0.5-1.8-1.1-3.2-1.8-4.1c-0.9-1.1-2-1.6-3.3-1.6c-1.4,0-2.5,0.6-3.3,1.8
		c-0.9,1.2-1.3,3.3-1.3,6.2c0,2.5,0.5,4.3,1.5,5.6c0.8,1.1,2,1.6,3.5,1.6c1.3,0,2.4-0.4,3.3-1.3s1.5-2.1,1.8-3.9h0.8
		c-0.2,1.9-0.9,3.4-2,4.5s-2.5,1.6-4.2,1.6c-1.4,0-2.6-0.3-3.8-1c-1.1-0.7-2-1.7-2.7-3c-0.7-1.3-1-2.7-1-4.2c0-1.6,0.4-3.2,1.1-4.6
		c0.7-1.4,1.6-2.5,2.7-3.2c1.1-0.7,2.3-1.1,3.5-1.1c0.7,0,1.4,0.1,2.1,0.4C30.4,4,31.1,4.4,31.9,5z"/>
	<radialGradient id="SVGID_2_" cx="47.9504" cy="11.9165" r="8.0793" gradientUnits="userSpaceOnUse">
		<stop  offset="0" style="stop-color:#92ADCC"/>
		<stop  offset="0.5" style="stop-color:#7299BF"/>
		<stop  offset="1" style="stop-color:#2977A7"/>
	</radialGradient>
	<path class="st2" d="M47.8,3.4c1.4,0,2.7,0.4,3.9,1.1s2.1,1.7,2.8,3c0.7,1.3,1,2.8,1,4.4c0,1.6-0.3,3.1-1,4.4
		c-0.7,1.3-1.6,2.3-2.8,3.1c-1.2,0.7-2.5,1.1-3.8,1.1c-1.3,0-2.5-0.4-3.7-1.1c-1.1-0.7-2.1-1.7-2.8-3.1s-1-2.8-1-4.4
		c0-1.6,0.3-3.1,1-4.3c0.7-1.3,1.6-2.3,2.8-3S46.5,3.4,47.8,3.4z M48,4.2c-1.4,0-2.6,0.6-3.5,1.8c-0.9,1.2-1.3,3.1-1.3,5.8
		c0,2.9,0.5,4.9,1.4,6.1c0.9,1.1,2,1.7,3.4,1.7c0.9,0,1.8-0.3,2.5-0.8c0.7-0.5,1.3-1.3,1.7-2.4c0.4-1.1,0.6-2.6,0.6-4.4
		c0-2-0.2-3.5-0.6-4.6s-1-1.9-1.7-2.4C49.7,4.5,48.9,4.2,48,4.2z"/>
	<radialGradient id="SVGID_3_" cx="71.3015" cy="11.8833" r="9.239" gradientUnits="userSpaceOnUse">
		<stop  offset="0" style="stop-color:#92ADCC"/>
		<stop  offset="0.5" style="stop-color:#7299BF"/>
		<stop  offset="1" style="stop-color:#2977A7"/>
	</radialGradient>
	<path class="st3" d="M61.1,3.7h5.4l4.9,12.9l4.5-12.9h5.6v0.8h-1.4c-0.5,0-0.8,0.1-1,0.2c-0.2,0.1-0.2,0.4-0.2,0.7v12.9
		c0,0.3,0.1,0.5,0.3,0.6c0.2,0.1,0.5,0.2,1,0.2h1.2v0.8H74v-0.8h1.4c0.4,0,0.7-0.1,0.9-0.2c0.2-0.2,0.3-0.3,0.3-0.6V4.5l-5.4,15.5
		h-0.7L64.6,4.6v11.9c0,0.7,0.1,1.2,0.3,1.6c0.2,0.3,0.4,0.6,0.8,0.8c0.3,0.2,0.9,0.3,1.6,0.3v0.8h-6.2v-0.8c1-0.1,1.7-0.3,2.1-0.7
		c0.4-0.4,0.5-1,0.5-2V5.3c0-0.3-0.1-0.5-0.3-0.6c-0.2-0.1-0.5-0.2-1-0.2h-1.4V3.7z"/>
	<radialGradient id="SVGID_4_" cx="93.7847" cy="11.8833" r="7.5336" gradientUnits="userSpaceOnUse">
		<stop  offset="0" style="stop-color:#92ADCC"/>
		<stop  offset="0.5" style="stop-color:#7299BF"/>
		<stop  offset="1" style="stop-color:#2977A7"/>
	</radialGradient>
	<path class="st4" d="M86.9,3.7H95c1.8,0,3.2,0.4,4.2,1.2c1,0.8,1.4,1.9,1.4,3.2c0,1.3-0.4,2.4-1.3,3c-1.2,1-2.7,1.4-4.5,1.4h-2.9
		v5.6c0,0.3,0.1,0.6,0.2,0.7c0.2,0.2,0.5,0.3,0.8,0.3h1.9v0.8h-7.9v-0.8h1.6c0.3,0,0.6-0.1,0.7-0.2c0.2-0.1,0.2-0.3,0.2-0.5v-13
		c0-0.3-0.1-0.6-0.3-0.7s-0.6-0.2-1.1-0.2h-1.2V3.7z M91.9,11.9h2.2c1.4,0,2.4-0.3,3-0.9c0.6-0.6,0.9-1.6,0.9-2.9
		c0-0.9-0.1-1.7-0.4-2.2S97,5,96.4,4.8c-0.5-0.2-1.4-0.4-2.7-0.4c-0.8,0-1.3,0.1-1.5,0.2c-0.2,0.2-0.3,0.4-0.3,0.8V11.9z"/>
	<radialGradient id="SVGID_5_" cx="111.6265" cy="11.7119" r="8.3298" gradientUnits="userSpaceOnUse">
		<stop  offset="0" style="stop-color:#92ADCC"/>
		<stop  offset="0.5" style="stop-color:#7299BF"/>
		<stop  offset="1" style="stop-color:#2977A7"/>
	</radialGradient>
	<path class="st5" d="M111.4,3.4h0.7l5.9,15c0.2,0.6,0.7,0.9,1.4,0.9h0.5v0.8h-6.5v-0.8h0.5c0.7,0,1.2-0.1,1.4-0.2
		c0.2-0.1,0.3-0.3,0.3-0.5c0-0.1,0-0.3-0.1-0.4l-1.4-3.5h-6.5l-0.8,2c-0.2,0.5-0.3,1-0.3,1.3c0,0.4,0.2,0.7,0.5,0.9
		c0.3,0.3,0.8,0.4,1.5,0.4h0.6v0.8h-5.9v-0.8c0.6,0,1.1-0.1,1.5-0.4s0.7-0.8,1-1.6L111.4,3.4z M111.1,6.5l-2.9,7.3h5.8L111.1,6.5z"
		/>
	<radialGradient id="SVGID_6_" cx="133.2808" cy="11.8833" r="8.3625" gradientUnits="userSpaceOnUse">
		<stop  offset="0" style="stop-color:#92ADCC"/>
		<stop  offset="0.5" style="stop-color:#7299BF"/>
		<stop  offset="1" style="stop-color:#2977A7"/>
	</radialGradient>
	<path class="st6" d="M124.7,3.7h3.9l9.9,12.8V7.3c0-0.9-0.2-1.6-0.6-2.1c-0.4-0.4-1-0.6-1.7-0.6V3.7h5.7v0.8c-0.6,0-1,0.1-1.3,0.2
		c-0.3,0.2-0.5,0.5-0.8,0.9s-0.3,0.9-0.3,1.4v13h-1L128.2,6.7v9.9c0,0.9,0.2,1.6,0.7,2s1.1,0.7,2.1,0.7v0.8h-6.2v-0.8
		c0.8,0,1.4-0.3,1.9-0.8c0.5-0.5,0.7-1.1,0.7-1.8V5.6l-0.2-0.2c-0.4-0.4-0.6-0.6-0.8-0.7c-0.2-0.1-0.5-0.2-0.8-0.2h-0.7V3.7z"/>
	<radialGradient id="SVGID_7_" cx="154.2441" cy="11.8833" r="8.1585" gradientUnits="userSpaceOnUse">
		<stop  offset="0" style="stop-color:#92ADCC"/>
		<stop  offset="0.5" style="stop-color:#7299BF"/>
		<stop  offset="1" style="stop-color:#2977A7"/>
	</radialGradient>
	<path class="st7" d="M146.1,3.7h7.2v0.8h-0.8c-0.7,0-1.1,0.1-1.3,0.2c-0.2,0.1-0.3,0.2-0.3,0.4c0,0.2,0.1,0.4,0.2,0.5l4.1,6.4
		l3-5.5c0.1-0.2,0.2-0.5,0.2-0.8c0-0.4-0.1-0.7-0.4-0.9c-0.3-0.2-0.6-0.3-1.1-0.3h-0.8V3.7h6.2v0.8c-0.7,0-1.3,0.1-1.7,0.4
		c-0.4,0.3-0.8,0.7-1.2,1.4l-3.8,6.9v5.2c0,0.3,0.1,0.5,0.2,0.6c0.2,0.2,0.5,0.2,1,0.2h1.4v0.8h-7.5v-0.8h1.5c0.4,0,0.7-0.1,0.9-0.2
		c0.2-0.1,0.3-0.3,0.3-0.6v-5l-5.1-7.9c-0.2-0.3-0.5-0.6-0.8-0.7c-0.3-0.1-0.8-0.2-1.5-0.2V3.7z"/>
</g>
</svg>
