<?xml version="1.0" encoding="utf-8"?>
<!-- Generator: Adobe Illustrator 25.2.0, SVG Export Plug-In . SVG Version: 6.00 Build 0)  -->
<svg version="1.1" id="レイヤー_1" xmlns="http://www.w3.org/2000/svg" xmlns:xlink="http://www.w3.org/1999/xlink" x="0px"
	 y="0px" viewBox="0 0 110 12" style="enable-background:new 0 0 110 12;" xml:space="preserve">
<style type="text/css">
	.st0{enable-background:new    ;}
	.st1{fill:url(#SVGID_1_);}
	.st2{fill:url(#SVGID_2_);}
	.st3{fill:url(#SVGID_3_);}
	.st4{fill:url(#SVGID_4_);}
	.st5{fill:url(#SVGID_5_);}
	.st6{fill:url(#SVGID_6_);}
	.st7{fill:url(#SVGID_7_);}
	.st8{fill:url(#SVGID_8_);}
</style>
<g class="st0">
	
		<radialGradient id="SVGID_1_" cx="20.5142" cy="8.1724" r="3.9129" gradientTransform="matrix(1 0 0 -1 0 14)" gradientUnits="userSpaceOnUse">
		<stop  offset="0" style="stop-color:#92ADCC"/>
		<stop  offset="0.5" style="stop-color:#7299BF"/>
		<stop  offset="1" style="stop-color:#2977A7"/>
	</radialGradient>
	<path class="st1" d="M20.4,1.7c0.7,0,1.3,0.2,1.9,0.5c0.6,0.4,1,0.8,1.4,1.5s0.5,1.3,0.5,2.1S24,7.3,23.7,8
		c-0.3,0.6-0.8,1.1-1.4,1.5S21.1,10,20.5,10c-0.6,0-1.2-0.2-1.8-0.5c-0.6-0.3-1-0.8-1.3-1.5c-0.3-0.6-0.5-1.4-0.5-2.2
		s0.2-1.5,0.5-2.1s0.8-1.1,1.3-1.5C19.2,1.9,19.8,1.7,20.4,1.7z M20.5,2.1c-0.7,0-1.3,0.3-1.7,0.9c-0.4,0.6-0.6,1.5-0.6,2.8
		c0,1.4,0.2,2.4,0.7,2.9c0.4,0.5,1,0.8,1.6,0.8c0.5,0,0.9-0.1,1.2-0.4C22,8.9,22.3,8.5,22.5,8s0.3-1.2,0.3-2.1s-0.1-1.7-0.3-2.2
		c-0.2-0.5-0.5-0.9-0.8-1.2C21.4,2.2,21,2.1,20.5,2.1z"/>
	
		<radialGradient id="SVGID_2_" cx="30.7188" cy="8.0947" r="4.0245" gradientTransform="matrix(1 0 0 -1 0 14)" gradientUnits="userSpaceOnUse">
		<stop  offset="0" style="stop-color:#92ADCC"/>
		<stop  offset="0.5" style="stop-color:#7299BF"/>
		<stop  offset="1" style="stop-color:#2977A7"/>
	</radialGradient>
	<path class="st2" d="M26.7,1.9H30v0.4h-0.6c-0.2,0-0.4,0-0.5,0.1s-0.1,0.1-0.1,0.2c0,0.1,0,0.2,0.1,0.3L29,3l2.1,5.3l1.8-5.1
		C33,3.2,33,3,33,2.9c0-0.2-0.1-0.4-0.2-0.5c-0.1-0.1-0.3-0.2-0.5-0.2h-0.5V1.9h2.9v0.4h-0.2c-0.2,0-0.4,0.1-0.5,0.3
		S33.6,3,33.5,3.3L31,10h-0.4l-2.8-7.1c-0.1-0.2-0.2-0.4-0.3-0.5S27.2,2.3,27,2.3h-0.3V1.9z"/>
	
		<radialGradient id="SVGID_3_" cx="40.731" cy="8.1885" r="3.6578" gradientTransform="matrix(1 0 0 -1 0 14)" gradientUnits="userSpaceOnUse">
		<stop  offset="0" style="stop-color:#92ADCC"/>
		<stop  offset="0.5" style="stop-color:#7299BF"/>
		<stop  offset="1" style="stop-color:#2977A7"/>
	</radialGradient>
	<path class="st3" d="M37.4,1.9h6.3l0.1,2.7h-0.4c-0.1-0.8-0.4-1.4-0.7-1.8c-0.3-0.3-0.7-0.5-1.2-0.5H40c-0.1,0-0.2,0-0.3,0.1
		s-0.1,0.2-0.1,0.3v2.8h0.7c0.4,0,0.7-0.1,0.9-0.4s0.3-0.7,0.4-1.2H42v3.7h-0.4c0-0.6-0.1-1-0.4-1.3C41,6,40.7,5.9,40.3,5.9h-0.6V9
		c0,0.1,0,0.2,0.1,0.3s0.2,0.1,0.4,0.1h1.2c1.3,0,2.1-0.8,2.3-2.5h0.4l-0.1,3h-6.5V9.4H38c0.2,0,0.4,0,0.4-0.1
		c0.1-0.1,0.1-0.2,0.1-0.3V2.7c0-0.1,0-0.2-0.1-0.3S38.2,2.3,38,2.3h-0.6C37.4,2.3,37.4,1.9,37.4,1.9z"/>
	
		<radialGradient id="SVGID_4_" cx="50.5991" cy="8.15" r="3.8627" gradientTransform="matrix(1 0 0 -1 0 14)" gradientUnits="userSpaceOnUse">
		<stop  offset="0" style="stop-color:#92ADCC"/>
		<stop  offset="0.5" style="stop-color:#7299BF"/>
		<stop  offset="1" style="stop-color:#2977A7"/>
	</radialGradient>
	<path class="st4" d="M46.9,1.9H51c0.8,0,1.4,0.2,1.8,0.5c0.4,0.4,0.7,0.8,0.7,1.4c0,0.3-0.1,0.7-0.3,0.9C53,5,52.8,5.2,52.5,5.4
		c-0.3,0.2-0.8,0.3-1.5,0.4c0.4,0.1,0.8,0.2,1,0.4s0.3,0.3,0.5,0.5c0.1,0.2,0.2,0.6,0.4,1.3c0.1,0.5,0.2,0.8,0.3,1
		c0.1,0.1,0.2,0.2,0.3,0.2s0.2-0.1,0.3-0.2c0.1-0.3,0.1-0.6,0.2-1h0.4c-0.1,1.2-0.5,1.8-1.3,1.8c-0.3,0-0.5-0.1-0.7-0.2
		C52.2,9.5,52.1,9.3,52,9c-0.1-0.2-0.2-0.7-0.3-1.5c-0.1-0.5-0.1-0.8-0.3-1c-0.1-0.2-0.3-0.4-0.5-0.5S50.4,5.8,50,5.8h-0.6V9
		c0,0.1,0,0.2,0.1,0.3s0.2,0.1,0.4,0.1h0.8v0.4H47V9.4h0.8c0.2,0,0.3,0,0.4-0.1c0.1-0.1,0.1-0.2,0.1-0.3V2.7c0-0.1,0-0.2-0.1-0.3
		S48,2.3,47.8,2.3H47L46.9,1.9L46.9,1.9z M49.3,5.5h0.9c0.6,0,1.1-0.1,1.5-0.4c0.4-0.2,0.5-0.7,0.5-1.3c0-0.4-0.1-0.7-0.2-1
		s-0.3-0.4-0.5-0.5s-0.6-0.1-1.3-0.1c-0.4,0-0.7,0-0.8,0.1s-0.2,0.2-0.2,0.3L49.3,5.5L49.3,5.5z"/>
	
		<radialGradient id="SVGID_5_" cx="60.05" cy="8.0947" r="4.0254" gradientTransform="matrix(1 0 0 -1 0 14)" gradientUnits="userSpaceOnUse">
		<stop  offset="0" style="stop-color:#92ADCC"/>
		<stop  offset="0.5" style="stop-color:#7299BF"/>
		<stop  offset="1" style="stop-color:#2977A7"/>
	</radialGradient>
	<path class="st5" d="M56.1,1.9h3.3v0.4h-0.6c-0.2,0-0.4,0-0.5,0.1s-0.1,0.1-0.1,0.2c0,0.1,0,0.2,0.1,0.3V3l2.1,5.3l1.8-5.1
		c0-0.1,0.1-0.2,0.1-0.4s-0.1-0.4-0.2-0.5s-0.3-0.2-0.5-0.2h-0.5V1.9H64v0.4h-0.2c-0.2,0-0.4,0.1-0.5,0.3S62.9,3,62.8,3.3L60.4,10
		H60l-2.8-7.1c-0.1-0.2-0.2-0.4-0.3-0.5s-0.3-0.1-0.5-0.1h-0.3V1.9z"/>
	
		<radialGradient id="SVGID_6_" cx="68.2495" cy="8.1885" r="3.0827" gradientTransform="matrix(1 0 0 -1 0 14)" gradientUnits="userSpaceOnUse">
		<stop  offset="0" style="stop-color:#92ADCC"/>
		<stop  offset="0.5" style="stop-color:#7299BF"/>
		<stop  offset="1" style="stop-color:#2977A7"/>
	</radialGradient>
	<path class="st6" d="M66.4,1.9h3.7v0.4h-0.6c-0.3,0-0.5,0-0.5,0.1c-0.1,0.1-0.1,0.2-0.1,0.4v6c0,0.2,0,0.4,0.1,0.5s0.2,0.1,0.5,0.1
		h0.7v0.4h-3.7V9.4h0.7c0.2,0,0.4,0,0.5-0.1s0.1-0.2,0.1-0.5v-6c0-0.2,0-0.4-0.1-0.4c-0.1-0.1-0.3-0.1-0.6-0.1h-0.6L66.4,1.9
		L66.4,1.9z"/>
	
		<radialGradient id="SVGID_7_" cx="76.5239" cy="8.1885" r="3.6578" gradientTransform="matrix(1 0 0 -1 0 14)" gradientUnits="userSpaceOnUse">
		<stop  offset="0" style="stop-color:#92ADCC"/>
		<stop  offset="0.5" style="stop-color:#7299BF"/>
		<stop  offset="1" style="stop-color:#2977A7"/>
	</radialGradient>
	<path class="st7" d="M73.2,1.9h6.3l0.1,2.7h-0.4c-0.1-0.8-0.4-1.4-0.7-1.8c-0.3-0.3-0.7-0.5-1.2-0.5h-1.6c-0.1,0-0.2,0-0.3,0.1
		c-0.1,0.1-0.1,0.2-0.1,0.3v2.8H76c0.4,0,0.7-0.1,0.9-0.4c0.2-0.3,0.3-0.7,0.4-1.2h0.4v3.7h-0.4c0-0.6-0.1-1-0.4-1.3
		C76.7,6,76.4,5.9,76,5.9h-0.6V9c0,0.1,0,0.2,0.1,0.3s0.2,0.1,0.4,0.1h1.2c1.3,0,2.1-0.8,2.3-2.5h0.4l-0.1,3h-6.5V9.4h0.5
		c0.2,0,0.4,0,0.4-0.1c0.1-0.1,0.1-0.2,0.1-0.3V2.7c0-0.1,0-0.2-0.1-0.3s-0.2-0.1-0.4-0.1h-0.6L73.2,1.9L73.2,1.9z"/>
	
		<radialGradient id="SVGID_8_" cx="87.8296" cy="8.0947" r="4.6906" gradientTransform="matrix(1 0 0 -1 0 14)" gradientUnits="userSpaceOnUse">
		<stop  offset="0" style="stop-color:#92ADCC"/>
		<stop  offset="0.5" style="stop-color:#7299BF"/>
		<stop  offset="1" style="stop-color:#2977A7"/>
	</radialGradient>
	<path class="st8" d="M82.6,1.9h2.6v0.4H85c-0.3,0-0.5,0-0.5,0.1c-0.1,0-0.1,0.1-0.1,0.2c0,0.1,0,0.2,0.1,0.3V3l1.6,5l1.4-4.6
		c-0.2-0.5-0.3-0.8-0.4-0.9c-0.1-0.1-0.3-0.1-0.5-0.1h-0.5V1.9h3.3v0.4h-0.3c-0.3,0-0.5,0-0.6,0.1c-0.1,0-0.1,0.1-0.1,0.2
		c0,0.1,0,0.1,0,0.2L90.1,8l1.4-4.5c0.1-0.2,0.1-0.3,0.1-0.5s-0.1-0.4-0.2-0.5s-0.3-0.2-0.5-0.2h-0.2V1.9h2.5v0.4
		c-0.2,0-0.4,0.1-0.5,0.2c-0.1,0.1-0.2,0.2-0.3,0.3S92,3.1,91.9,3.5L90,10h-0.4l-1.8-5.8L86,10h-0.4l-2.2-7
		c-0.1-0.3-0.2-0.5-0.3-0.5c-0.1-0.1-0.3-0.1-0.5-0.1V1.9z"/>
</g>
</svg>
