<?xml version="1.0" encoding="utf-8"?>
<!-- Generator: Adobe Illustrator 25.2.0, SVG Export Plug-In . SVG Version: 6.00 Build 0)  -->
<svg version="1.1" id="レイヤー_1" xmlns="http://www.w3.org/2000/svg" xmlns:xlink="http://www.w3.org/1999/xlink" x="0px"
	 y="0px" viewBox="0 0 202 23" style="enable-background:new 0 0 202 23;" xml:space="preserve">
<style type="text/css">
	.st0{enable-background:new    ;}
	.st1{fill:url(#SVGID_1_);}
	.st2{fill:url(#SVGID_2_);}
	.st3{fill:url(#SVGID_3_);}
	.st4{fill:url(#SVGID_4_);}
	.st5{fill:url(#SVGID_5_);}
	.st6{fill:url(#SVGID_6_);}
</style>
<g class="st0">
	<radialGradient id="SVGID_1_" cx="76.9578" cy="11.0089" r="4.0307" gradientUnits="userSpaceOnUse">
		<stop  offset="0" style="stop-color:#92ADCC"/>
		<stop  offset="0.5" style="stop-color:#7299BF"/>
		<stop  offset="1" style="stop-color:#2977A7"/>
	</radialGradient>
	<path class="st1" d="M73.2,6.8h4.4c0.9,0,1.5,0.2,2,0.6c0.5,0.4,0.7,0.9,0.7,1.4c0,0.5-0.2,0.9-0.5,1.2c-0.3,0.3-0.8,0.6-1.5,0.8
		c0.8,0.2,1.4,0.4,1.8,0.8c0.4,0.4,0.6,0.8,0.6,1.4c0,0.4-0.1,0.8-0.3,1.1c-0.2,0.3-0.6,0.6-1.1,0.8c-0.5,0.2-1.1,0.3-1.8,0.3h-4.3
		v-0.4h0.7c0.2,0,0.4,0,0.5-0.1c0.1-0.1,0.1-0.1,0.1-0.2V7.7c0-0.2,0-0.3-0.1-0.4c-0.1-0.1-0.2-0.1-0.4-0.1h-0.7V6.8z M75.7,10.7
		h1.6c0.5,0,0.9-0.1,1.2-0.4c0.3-0.3,0.4-0.8,0.4-1.4c0-0.4-0.1-0.7-0.2-1c-0.1-0.2-0.3-0.4-0.6-0.5c-0.3-0.1-0.7-0.2-1.4-0.2
		c-0.5,0-0.8,0-0.9,0.1c-0.1,0.1-0.2,0.2-0.2,0.4V10.7z M75.7,11.1v3.3c0,0.2,0,0.3,0.1,0.3c0.1,0.1,0.3,0.1,0.5,0.1h1
		c0.7,0,1.2-0.2,1.5-0.5c0.3-0.3,0.5-0.8,0.5-1.4c0-0.6-0.2-1-0.5-1.4c-0.3-0.3-0.8-0.5-1.4-0.5H75.7z"/>
	<radialGradient id="SVGID_2_" cx="86.6217" cy="11.0522" r="4.1507" gradientUnits="userSpaceOnUse">
		<stop  offset="0" style="stop-color:#92ADCC"/>
		<stop  offset="0.5" style="stop-color:#7299BF"/>
		<stop  offset="1" style="stop-color:#2977A7"/>
	</radialGradient>
	<path class="st2" d="M82.6,6.8H87c0.9,0,1.5,0.2,2,0.6c0.5,0.4,0.7,0.9,0.7,1.5c0,0.4-0.1,0.7-0.3,1c-0.2,0.3-0.5,0.5-0.8,0.7
		c-0.4,0.2-0.9,0.3-1.7,0.4c0.5,0.1,0.9,0.3,1.1,0.4c0.2,0.1,0.4,0.3,0.5,0.6c0.1,0.2,0.3,0.7,0.4,1.4c0.1,0.5,0.2,0.8,0.4,1
		c0.1,0.1,0.2,0.2,0.3,0.2c0.1,0,0.2-0.1,0.3-0.3c0.1-0.2,0.2-0.5,0.2-0.9h0.4c-0.1,1.3-0.6,2-1.4,2c-0.3,0-0.5-0.1-0.7-0.2
		c-0.2-0.1-0.4-0.4-0.5-0.6c-0.1-0.2-0.2-0.7-0.3-1.6c-0.1-0.5-0.1-0.9-0.3-1.1c-0.1-0.2-0.3-0.4-0.6-0.5c-0.3-0.1-0.6-0.2-0.9-0.2
		h-0.7v3.3c0,0.1,0,0.2,0.1,0.3c0.1,0.1,0.2,0.1,0.4,0.1h0.8v0.4h-4v-0.4h0.8c0.2,0,0.3,0,0.4-0.1c0.1-0.1,0.1-0.2,0.1-0.3V7.6
		c0-0.1,0-0.3-0.1-0.3c-0.1-0.1-0.2-0.1-0.4-0.1h-0.8V6.8z M85.2,10.7h1c0.7,0,1.2-0.1,1.6-0.4c0.4-0.3,0.6-0.7,0.6-1.4
		c0-0.4-0.1-0.8-0.2-1.1c-0.1-0.3-0.3-0.4-0.6-0.5c-0.2-0.1-0.7-0.1-1.4-0.1c-0.5,0-0.7,0-0.8,0.1c-0.1,0.1-0.2,0.2-0.2,0.3V10.7z"
		/>
	<radialGradient id="SVGID_3_" cx="96.2831" cy="10.9194" r="4.3349" gradientUnits="userSpaceOnUse">
		<stop  offset="0" style="stop-color:#92ADCC"/>
		<stop  offset="0.5" style="stop-color:#7299BF"/>
		<stop  offset="1" style="stop-color:#2977A7"/>
	</radialGradient>
	<path class="st3" d="M96.2,6.6h0.4l3.1,7.8c0.1,0.3,0.4,0.5,0.8,0.5h0.3v0.4h-3.4v-0.4h0.3c0.4,0,0.6,0,0.7-0.1
		c0.1-0.1,0.1-0.1,0.1-0.2c0-0.1,0-0.1,0-0.2l-0.7-1.8h-3.4l-0.4,1c-0.1,0.3-0.2,0.5-0.2,0.7c0,0.2,0.1,0.3,0.3,0.5
		c0.2,0.1,0.4,0.2,0.8,0.2H95v0.4H92v-0.4c0.3,0,0.6-0.1,0.8-0.2c0.2-0.1,0.4-0.4,0.5-0.8L96.2,6.6z M96,8.2L94.5,12h3L96,8.2z"/>
	<radialGradient id="SVGID_4_" cx="106.6926" cy="11.0089" r="4.3514" gradientUnits="userSpaceOnUse">
		<stop  offset="0" style="stop-color:#92ADCC"/>
		<stop  offset="0.5" style="stop-color:#7299BF"/>
		<stop  offset="1" style="stop-color:#2977A7"/>
	</radialGradient>
	<path class="st4" d="M102.2,6.8h2l5.1,6.7V8.6c0-0.5-0.1-0.8-0.3-1.1c-0.2-0.2-0.5-0.3-0.9-0.3V6.8h3v0.4c-0.3,0-0.5,0-0.7,0.1
		c-0.2,0.1-0.3,0.2-0.4,0.5c-0.1,0.2-0.2,0.5-0.2,0.7v6.8h-0.5l-5.3-7v5.1c0,0.5,0.1,0.8,0.4,1c0.2,0.2,0.6,0.3,1.1,0.4v0.4h-3.2
		v-0.4c0.4,0,0.7-0.1,1-0.4c0.2-0.3,0.4-0.6,0.4-0.9V7.7l-0.1-0.1c-0.2-0.2-0.3-0.3-0.4-0.4c-0.1-0.1-0.3-0.1-0.4-0.1h-0.4V6.8z"/>
	<radialGradient id="SVGID_5_" cx="117.0243" cy="11.0089" r="4.1518" gradientUnits="userSpaceOnUse">
		<stop  offset="0" style="stop-color:#92ADCC"/>
		<stop  offset="0.5" style="stop-color:#7299BF"/>
		<stop  offset="1" style="stop-color:#2977A7"/>
	</radialGradient>
	<path class="st5" d="M113,6.8h4.4c0.7,0,1.2,0.1,1.7,0.3c0.6,0.3,1.1,0.8,1.4,1.5c0.4,0.7,0.6,1.5,0.6,2.4c0,0.8-0.1,1.5-0.4,2.1
		c-0.2,0.5-0.5,0.9-0.8,1.2c-0.4,0.4-0.8,0.6-1.4,0.8c-0.4,0.1-0.9,0.2-1.6,0.2H113v-0.4h0.8c0.2,0,0.3,0,0.4-0.1
		c0.1-0.1,0.1-0.2,0.1-0.3V7.6c0-0.1,0-0.2-0.1-0.3c-0.1-0.1-0.2-0.1-0.4-0.1H113V6.8z M116.1,7.2c-0.2,0-0.3,0-0.4,0.1
		c-0.1,0.1-0.1,0.2-0.1,0.3v6.8c0,0.1,0,0.2,0.1,0.3c0.1,0.1,0.3,0.1,0.5,0.1h0.7c0.6,0,1.2-0.2,1.7-0.5c0.3-0.2,0.6-0.5,0.7-0.9
		c0.2-0.5,0.3-1.3,0.3-2.3c0-1.4-0.2-2.5-0.7-3.1c-0.4-0.6-1.1-0.8-1.9-0.8H116.1z"/>
	<radialGradient id="SVGID_6_" cx="126.775" cy="11" r="3.8042" gradientUnits="userSpaceOnUse">
		<stop  offset="0" style="stop-color:#92ADCC"/>
		<stop  offset="0.5" style="stop-color:#7299BF"/>
		<stop  offset="1" style="stop-color:#2977A7"/>
	</radialGradient>
	<path class="st6" d="M128.4,7.4l0.5-0.7h0.4l0,3.1H129c-0.2-1-0.6-1.6-1.1-2.1c-0.5-0.4-1-0.7-1.6-0.7c-0.5,0-0.9,0.2-1.2,0.5
		c-0.3,0.3-0.5,0.7-0.5,1.1c0,0.3,0.1,0.5,0.2,0.7c0.1,0.2,0.3,0.4,0.5,0.5c0.2,0.1,0.7,0.3,1.4,0.4c0.9,0.2,1.6,0.4,2,0.6
		c0.4,0.2,0.7,0.5,0.9,0.8c0.2,0.3,0.3,0.7,0.3,1.1c0,0.8-0.3,1.4-0.8,1.9c-0.5,0.5-1.2,0.8-2,0.8c-0.9,0-1.6-0.3-2.3-0.9l-0.7,0.8
		h-0.4v-3.3h0.4c0.2,0.9,0.5,1.6,1.1,2.2c0.6,0.5,1.2,0.8,1.9,0.8c0.6,0,1-0.2,1.4-0.5c0.4-0.3,0.5-0.7,0.5-1.2
		c0-0.3-0.1-0.5-0.2-0.7c-0.1-0.2-0.3-0.4-0.6-0.5c-0.3-0.1-0.9-0.3-1.7-0.5c-0.9-0.2-1.6-0.5-1.9-0.7c-0.5-0.4-0.7-0.9-0.7-1.7
		c0-0.7,0.2-1.4,0.7-1.8c0.5-0.5,1.1-0.7,1.8-0.7c0.4,0,0.7,0.1,1,0.2C127.7,6.9,128,7.1,128.4,7.4z"/>
</g>
</svg>
