<?xml version="1.0" encoding="utf-8"?>
<!-- Generator: Adobe Illustrator 25.2.0, SVG Export Plug-In . SVG Version: 6.00 Build 0)  -->
<svg version="1.1" id="レイヤー_1" xmlns="http://www.w3.org/2000/svg" xmlns:xlink="http://www.w3.org/1999/xlink" x="0px"
	 y="0px" viewBox="0 0 167 139.8" style="enable-background:new 0 0 167 139.8;" xml:space="preserve">
<style type="text/css">
	.st0{fill:url(#SVGID_1_);}
	.st1{fill:url(#SVGID_2_);}
	.st2{fill:url(#SVGID_3_);}
	.st3{fill:url(#SVGID_4_);}
	.st4{fill:url(#SVGID_5_);}
	.st5{fill:url(#SVGID_6_);}
	.st6{fill:url(#SVGID_7_);}
	.st7{fill:url(#SVGID_8_);}
	.st8{fill:url(#SVGID_9_);}
	.st9{opacity:0.75;}
	.st10{fill:#1268C6;}
	.st11{fill:url(#SVGID_10_);}
	.st12{fill:url(#SVGID_11_);}
	.st13{fill:url(#SVGID_12_);}
	.st14{fill:url(#SVGID_13_);}
	.st15{fill:url(#SVGID_14_);}
	.st16{fill:url(#SVGID_15_);}
	.st17{fill:url(#SVGID_16_);}
	.st18{fill:url(#SVGID_17_);}
	.st19{fill:url(#SVGID_18_);}
	.st20{fill:url(#SVGID_19_);}
</style>
<linearGradient id="SVGID_1_" gradientUnits="userSpaceOnUse" x1="19.1688" y1="34.2402" x2="62.8354" y2="34.2402" gradientTransform="matrix(-0.766 0.6428 -0.6428 -0.766 111.8704 94.425)">
	<stop  offset="0" style="stop-color:#95B6DA"/>
	<stop  offset="0.5" style="stop-color:#77A6D1"/>
	<stop  offset="0.5816" style="stop-color:#669FCD"/>
	<stop  offset="0.753" style="stop-color:#4794C7"/>
	<stop  offset="0.8986" style="stop-color:#348DC2"/>
	<stop  offset="1" style="stop-color:#2D8AC1"/>
</linearGradient>
<polygon class="st0" points="43,110.1 74.1,79.2 73.9,79 42.8,109.9 "/>
<linearGradient id="SVGID_2_" gradientUnits="userSpaceOnUse" x1="6.8165" y1="21.296" x2="50.4832" y2="21.296" gradientTransform="matrix(0.766 0.6428 0.6428 -0.766 72.9123 92.9251)">
	<stop  offset="0" style="stop-color:#95B6DA"/>
	<stop  offset="0.5" style="stop-color:#77A6D1"/>
	<stop  offset="0.5816" style="stop-color:#669FCD"/>
	<stop  offset="0.753" style="stop-color:#4794C7"/>
	<stop  offset="0.8986" style="stop-color:#348DC2"/>
	<stop  offset="1" style="stop-color:#2D8AC1"/>
</linearGradient>
<polygon class="st1" points="124,110.6 92.9,79.7 93.1,79.5 124.2,110.3 "/>
<linearGradient id="SVGID_3_" gradientUnits="userSpaceOnUse" x1="13.7408" y1="40.7091" x2="57.4074" y2="40.7091" gradientTransform="matrix(-0.766 -0.6428 -0.6428 0.766 111.8704 40.5624)">
	<stop  offset="0" style="stop-color:#95B6DA"/>
	<stop  offset="0.5" style="stop-color:#77A6D1"/>
	<stop  offset="0.5816" style="stop-color:#669FCD"/>
	<stop  offset="0.753" style="stop-color:#4794C7"/>
	<stop  offset="0.8986" style="stop-color:#348DC2"/>
	<stop  offset="1" style="stop-color:#2D8AC1"/>
</linearGradient>
<polygon class="st2" points="43,33.3 74.1,64.2 73.9,64.4 42.8,33.6 "/>
<linearGradient id="SVGID_4_" gradientUnits="userSpaceOnUse" x1="1.3885" y1="27.7649" x2="45.0552" y2="27.7649" gradientTransform="matrix(0.766 -0.6428 0.6428 0.766 72.9123 42.0622)">
	<stop  offset="0" style="stop-color:#95B6DA"/>
	<stop  offset="0.5" style="stop-color:#77A6D1"/>
	<stop  offset="0.5816" style="stop-color:#669FCD"/>
	<stop  offset="0.753" style="stop-color:#4794C7"/>
	<stop  offset="0.8986" style="stop-color:#348DC2"/>
	<stop  offset="1" style="stop-color:#2D8AC1"/>
</linearGradient>
<polygon class="st3" points="124,32.9 92.9,63.7 93.1,63.9 124.2,33.1 "/>
<linearGradient id="SVGID_5_" gradientUnits="userSpaceOnUse" x1="52.1241" y1="69.8987" x2="114.8759" y2="69.8987">
	<stop  offset="0" style="stop-color:#95B6DA"/>
	<stop  offset="0.5" style="stop-color:#77A6D1"/>
	<stop  offset="0.5816" style="stop-color:#669FCD"/>
	<stop  offset="0.753" style="stop-color:#4794C7"/>
	<stop  offset="0.8986" style="stop-color:#348DC2"/>
	<stop  offset="1" style="stop-color:#2D8AC1"/>
</linearGradient>
<polygon class="st4" points="99.2,42.7 67.8,42.7 52.1,69.9 67.8,97.1 99.2,97.1 114.9,69.9 "/>
<linearGradient id="SVGID_6_" gradientUnits="userSpaceOnUse" x1="8.6519" y1="33.3376" x2="58.7977" y2="33.3376">
	<stop  offset="0" style="stop-color:#95B6DA"/>
	<stop  offset="0.5" style="stop-color:#77A6D1"/>
	<stop  offset="0.5816" style="stop-color:#669FCD"/>
	<stop  offset="0.753" style="stop-color:#4794C7"/>
	<stop  offset="0.8986" style="stop-color:#348DC2"/>
	<stop  offset="1" style="stop-color:#2D8AC1"/>
</linearGradient>
<polygon class="st5" points="46.3,11.6 21.2,11.6 8.7,33.3 21.2,55.1 46.3,55.1 58.8,33.3 "/>
<linearGradient id="SVGID_7_" gradientUnits="userSpaceOnUse" x1="110.2776" y1="32.8614" x2="160.4234" y2="32.8614">
	<stop  offset="0" style="stop-color:#95B6DA"/>
	<stop  offset="0.5" style="stop-color:#77A6D1"/>
	<stop  offset="0.5816" style="stop-color:#669FCD"/>
	<stop  offset="0.753" style="stop-color:#4794C7"/>
	<stop  offset="0.8986" style="stop-color:#348DC2"/>
	<stop  offset="1" style="stop-color:#2D8AC1"/>
</linearGradient>
<polygon class="st6" points="147.9,11.1 122.8,11.1 110.3,32.9 122.8,54.6 147.9,54.6 160.4,32.9 "/>
<linearGradient id="SVGID_8_" gradientUnits="userSpaceOnUse" x1="7.6142" y1="113.6052" x2="57.76" y2="113.6052">
	<stop  offset="0" style="stop-color:#95B6DA"/>
	<stop  offset="0.5" style="stop-color:#77A6D1"/>
	<stop  offset="0.5816" style="stop-color:#669FCD"/>
	<stop  offset="0.753" style="stop-color:#4794C7"/>
	<stop  offset="0.8986" style="stop-color:#348DC2"/>
	<stop  offset="1" style="stop-color:#2D8AC1"/>
</linearGradient>
<polygon class="st7" points="45.2,91.9 20.2,91.9 7.6,113.6 20.2,135.3 45.2,135.3 57.8,113.6 "/>
<linearGradient id="SVGID_9_" gradientUnits="userSpaceOnUse" x1="109.24" y1="113.129" x2="159.3858" y2="113.129">
	<stop  offset="0" style="stop-color:#95B6DA"/>
	<stop  offset="0.5" style="stop-color:#77A6D1"/>
	<stop  offset="0.5816" style="stop-color:#669FCD"/>
	<stop  offset="0.753" style="stop-color:#4794C7"/>
	<stop  offset="0.8986" style="stop-color:#348DC2"/>
	<stop  offset="1" style="stop-color:#2D8AC1"/>
</linearGradient>
<polygon class="st8" points="146.8,91.4 121.8,91.4 109.2,113.1 121.8,134.8 146.8,134.8 159.4,113.1 "/>
<g>
	<g class="st9">
		<path class="st10" d="M23.2,32h7.4c0.3-0.4,0.6-0.6,0.6-0.6s0.3,0.2,0.8,0.6c0.2,0.2,0.3,0.4,0.3,0.4c0,0.1,0,0.2-0.1,0.2
			c-0.1,0-0.2,0.1-0.4,0.1c-0.1,0-0.2,0-0.3,0.1c-0.4,0.3-0.8,0.6-1.1,0.8c0,0,0,0,0,0c-0.1,0-0.1,0-0.1-0.1c0,0,0,0,0,0
			c0.2-0.4,0.4-0.8,0.5-1.2h-7.5c0,0.5-0.1,0.9-0.3,1.2c-0.2,0.3-0.5,0.4-0.8,0.4c-0.2,0-0.3-0.1-0.4-0.2c-0.1-0.1-0.1-0.2-0.1-0.4
			c0-0.3,0.2-0.5,0.5-0.6c0.3-0.2,0.6-0.4,0.7-0.6c0.1-0.2,0.2-0.5,0.2-0.8c0,0,0-0.1,0.1-0.1c0,0,0.1,0,0.1,0
			C23.1,31.5,23.2,31.7,23.2,32z M26.4,33.1c0,0.1-0.1,0.2-0.4,0.3c0,1.5-0.4,2.5-1.2,3.2c-0.7,0.6-1.7,1.1-3.2,1.3
			c-0.1,0-0.1,0-0.1-0.1c0,0,0-0.1,0-0.1c1.3-0.5,2.2-1.1,2.6-1.8c0.4-0.6,0.6-1.5,0.6-2.7c0-0.2,0-0.3,0-0.5
			c0.7,0.1,1.1,0.1,1.3,0.2C26.3,32.9,26.4,33,26.4,33.1z M27.4,29v1.4h2.1c0.4-0.5,0.7-0.8,0.8-0.8c0.1,0,0.3,0.2,0.8,0.5
			c0.2,0.2,0.3,0.3,0.3,0.4c0,0.1-0.1,0.1-0.2,0.1h-7.5c-0.2,0-0.5,0-0.8,0.1l-0.1-0.4c0.3,0.1,0.6,0.1,0.9,0.1h2.6V29h-3.6
			c-0.2,0-0.5,0-0.9,0.1l-0.1-0.4c0.3,0.1,0.6,0.1,0.9,0.1h3.6v-0.5c0-0.4,0-0.8-0.1-1.2c1.1,0.1,1.6,0.2,1.6,0.4
			c0,0.1-0.1,0.2-0.4,0.3v1h3c0.4-0.5,0.7-0.8,0.8-0.8c0.1,0,0.3,0.2,0.8,0.5c0.2,0.2,0.4,0.3,0.4,0.4c0,0.1-0.1,0.1-0.2,0.1H27.4z
			 M32.4,36.9c0,0.3-0.2,0.5-0.6,0.7c-0.4,0.1-1.2,0.2-2.3,0.2c-0.9,0-1.5-0.1-1.8-0.2c-0.2-0.1-0.3-0.4-0.3-0.8v-2c0-0.7,0-1.3,0-2
			c0.8,0.1,1.3,0.2,1.4,0.2c0.1,0,0.2,0.1,0.2,0.2c0,0.1-0.1,0.2-0.4,0.3v2.9c0,0.2,0.1,0.3,0.2,0.4c0.1,0.1,0.4,0.1,0.9,0.1
			c0.6,0,0.9,0,1.2-0.1c0.2-0.1,0.3-0.2,0.5-0.5c0.1-0.2,0.3-0.6,0.4-1.2c0,0,0,0,0.1,0c0,0,0.1,0,0.1,0l0,1.3c0,0.1,0,0.2,0.1,0.2
			C32.2,36.5,32.4,36.7,32.4,36.9z"/>
		<path class="st10" d="M38.3,36.7c0,0.1-0.1,0.2-0.3,0.2c-0.1,0-0.2,0-0.3,0c-0.6,0.3-1.2,0.6-1.9,0.8c-0.6,0.1-1.3,0.2-2.1,0.3
			c0,0-0.1,0-0.1-0.1c0,0,0-0.1,0-0.1c1-0.3,1.8-0.8,2.5-1.3c0.3-0.2,0.6-0.5,0.7-0.7C37.9,36.3,38.3,36.6,38.3,36.7z M35.6,30
			L35.6,30c0,0.3-0.2,0.5-0.7,0.5c-0.3,0-0.4-0.1-0.4-0.4l0.1-1.6c0-0.4,0-0.9-0.1-1.3c0.4,0.2,0.9,0.4,1.3,0.6h6.7
			c0.3-0.4,0.5-0.6,0.6-0.6s0.3,0.1,0.7,0.4c0.2,0.2,0.3,0.3,0.3,0.3c0,0.1-0.1,0.2-0.3,0.4v0.3l0,1.4c0,0.3-0.2,0.4-0.7,0.4
			c-0.3,0-0.5-0.1-0.5-0.4V30H35.6z M41.4,35.5h-4.9c0,0.3-0.2,0.4-0.7,0.4c-0.3,0-0.5-0.1-0.5-0.4c0.1-1,0.1-2,0.1-3.2
			c0-0.8,0-1.5-0.1-2c0.4,0.2,0.9,0.4,1.3,0.6h4.7c0.3-0.3,0.5-0.5,0.6-0.5c0.1,0,0.3,0.1,0.7,0.4c0.2,0.1,0.3,0.2,0.3,0.3
			s-0.1,0.2-0.3,0.4v0.6l0.1,3.2c0,0.3-0.2,0.4-0.7,0.4C41.6,35.9,41.4,35.7,41.4,35.5z M37.1,29.7V28h-1.6v1.7H37.1z M41.4,32.4
			v-1.1h-4.9v1.1H41.4z M41.4,33.7v-1.1h-4.9v1.1H41.4z M41.4,35.3V34h-4.9v1.2H41.4z M38.2,29.7h1.6V28h-1.6V29.7z M43.5,37.4
			c0,0.2-0.1,0.3-0.2,0.4c-0.1,0.1-0.3,0.2-0.4,0.2c-0.2,0-0.5-0.1-0.7-0.4c-0.7-0.6-1.5-1.1-2.4-1.4c0,0,0,0,0-0.1
			c0-0.1,0-0.1,0.1-0.1c1.3,0,2.2,0.1,2.9,0.4C43.2,36.7,43.5,37,43.5,37.4z M42.5,29.7V28h-1.6v1.7H42.5z"/>
	</g>
	<g>
		<g>
			<linearGradient id="SVGID_10_" gradientUnits="userSpaceOnUse" x1="21.2461" y1="37.6723" x2="31.2135" y2="27.7049">
				<stop  offset="0" style="stop-color:#FFFFFF"/>
				<stop  offset="0.5169" style="stop-color:#8DD1EB"/>
				<stop  offset="0.5225" style="stop-color:#00A6D7"/>
				<stop  offset="0.7753" style="stop-color:#008AB1"/>
				<stop  offset="0.9888" style="stop-color:#007095"/>
			</linearGradient>
			<path class="st11" d="M22.7,31.5h7.4c0.3-0.4,0.6-0.6,0.6-0.6s0.3,0.2,0.8,0.6c0.2,0.2,0.3,0.4,0.3,0.4c0,0.1,0,0.2-0.1,0.2
				c-0.1,0-0.2,0.1-0.4,0.1c-0.1,0-0.2,0-0.3,0.1c-0.4,0.3-0.8,0.6-1.1,0.8c0,0,0,0,0,0c-0.1,0-0.1,0-0.1-0.1c0,0,0,0,0,0
				c0.2-0.4,0.4-0.8,0.5-1.2h-7.5c0,0.5-0.1,0.9-0.3,1.2c-0.2,0.3-0.5,0.4-0.8,0.4c-0.2,0-0.3-0.1-0.4-0.2C21.1,33.1,21,33,21,32.8
				c0-0.3,0.2-0.5,0.5-0.6c0.3-0.2,0.6-0.4,0.7-0.6c0.1-0.2,0.2-0.5,0.2-0.8c0,0,0-0.1,0.1-0.1c0,0,0.1,0,0.1,0
				C22.6,31,22.7,31.2,22.7,31.5z M25.9,32.6c0,0.1-0.1,0.2-0.4,0.3c0,1.5-0.4,2.5-1.2,3.2c-0.7,0.6-1.7,1.1-3.2,1.3
				c-0.1,0-0.1,0-0.1-0.1c0,0,0-0.1,0-0.1c1.3-0.5,2.2-1.1,2.6-1.8c0.4-0.6,0.6-1.5,0.6-2.7c0-0.2,0-0.3,0-0.5
				c0.7,0.1,1.1,0.1,1.3,0.2C25.8,32.4,25.9,32.5,25.9,32.6z M26.9,28.5v1.4H29c0.4-0.5,0.7-0.8,0.8-0.8c0.1,0,0.3,0.2,0.8,0.5
				c0.2,0.2,0.3,0.3,0.3,0.4c0,0.1-0.1,0.1-0.2,0.1h-7.5c-0.2,0-0.5,0-0.8,0.1l-0.1-0.4c0.3,0.1,0.6,0.1,0.9,0.1h2.6v-1.4h-3.6
				c-0.2,0-0.5,0-0.9,0.1l-0.1-0.4c0.3,0.1,0.6,0.1,0.9,0.1h3.6v-0.5c0-0.4,0-0.8-0.1-1.2c1.1,0.1,1.6,0.2,1.6,0.4
				c0,0.1-0.1,0.2-0.4,0.3v1h3c0.4-0.5,0.7-0.8,0.8-0.8c0.1,0,0.3,0.2,0.8,0.5c0.2,0.2,0.4,0.3,0.4,0.4c0,0.1-0.1,0.1-0.2,0.1H26.9z
				 M31.9,36.4c0,0.3-0.2,0.5-0.6,0.7c-0.4,0.1-1.2,0.2-2.3,0.2c-0.9,0-1.5-0.1-1.8-0.2c-0.2-0.1-0.3-0.4-0.3-0.8v-2
				c0-0.7,0-1.3,0-2c0.8,0.1,1.3,0.2,1.4,0.2c0.1,0,0.2,0.1,0.2,0.2c0,0.1-0.1,0.2-0.4,0.3v2.9c0,0.2,0.1,0.3,0.2,0.4
				c0.1,0.1,0.4,0.1,0.9,0.1c0.6,0,0.9,0,1.2-0.1c0.2-0.1,0.3-0.2,0.5-0.5c0.1-0.2,0.3-0.6,0.4-1.2c0,0,0,0,0.1,0c0,0,0.1,0,0.1,0
				l0,1.3c0,0.1,0,0.2,0.1,0.2C31.7,36,31.9,36.2,31.9,36.4z"/>
			<linearGradient id="SVGID_11_" gradientUnits="userSpaceOnUse" x1="33.0481" y1="37.2913" x2="43.1864" y2="27.1529">
				<stop  offset="0" style="stop-color:#FFFFFF"/>
				<stop  offset="0.5169" style="stop-color:#8DD1EB"/>
				<stop  offset="0.5225" style="stop-color:#00A6D7"/>
				<stop  offset="0.7753" style="stop-color:#008AB1"/>
				<stop  offset="0.9888" style="stop-color:#007095"/>
			</linearGradient>
			<path class="st12" d="M37.8,36.2c0,0.1-0.1,0.2-0.3,0.2c-0.1,0-0.2,0-0.3,0c-0.6,0.3-1.2,0.6-1.9,0.8c-0.6,0.1-1.3,0.2-2.1,0.3
				c0,0-0.1,0-0.1-0.1c0,0,0-0.1,0-0.1c1-0.3,1.8-0.8,2.5-1.3c0.3-0.2,0.6-0.5,0.7-0.7C37.4,35.8,37.8,36.1,37.8,36.2z M35.1,29.5
				L35.1,29.5c0,0.3-0.2,0.5-0.7,0.5c-0.3,0-0.4-0.1-0.4-0.4l0.1-1.6c0-0.4,0-0.9-0.1-1.3c0.4,0.2,0.9,0.4,1.3,0.6h6.7
				c0.3-0.4,0.5-0.6,0.6-0.6s0.3,0.1,0.7,0.4c0.2,0.2,0.3,0.3,0.3,0.3c0,0.1-0.1,0.2-0.3,0.4v0.3l0,1.4c0,0.3-0.2,0.4-0.7,0.4
				c-0.3,0-0.5-0.1-0.5-0.4v-0.1H35.1z M40.9,35H36c0,0.3-0.2,0.4-0.7,0.4c-0.3,0-0.5-0.1-0.5-0.4c0.1-1,0.1-2,0.1-3.2
				c0-0.8,0-1.5-0.1-2c0.4,0.2,0.9,0.4,1.3,0.6h4.7c0.3-0.3,0.5-0.5,0.6-0.5c0.1,0,0.3,0.1,0.7,0.4c0.2,0.1,0.3,0.2,0.3,0.3
				s-0.1,0.2-0.3,0.4v0.6l0.1,3.2c0,0.3-0.2,0.4-0.7,0.4C41.1,35.4,40.9,35.2,40.9,35z M36.6,29.2v-1.7h-1.6v1.7H36.6z M40.9,31.9
				v-1.1H36v1.1H40.9z M40.9,33.2v-1.1H36v1.1H40.9z M40.9,34.8v-1.2H36v1.2H40.9z M37.7,29.2h1.6v-1.7h-1.6V29.2z M43,36.9
				c0,0.2-0.1,0.3-0.2,0.4c-0.1,0.1-0.3,0.2-0.4,0.2c-0.2,0-0.5-0.1-0.7-0.4c-0.7-0.6-1.5-1.1-2.4-1.4c0,0,0,0,0-0.1
				c0-0.1,0-0.1,0.1-0.1c1.3,0,2.2,0.1,2.9,0.4C42.7,36.2,43,36.5,43,36.9z M42,29.2v-1.7h-1.6v1.7H42z"/>
		</g>
	</g>
</g>
<g>
	<g class="st9">
		<path class="st10" d="M126.4,30.2c-0.4,0.5-0.9,1-1.4,1.4c0,0,0,0,0,0c-0.1,0-0.1,0-0.1-0.1c0,0,0,0,0,0c0.8-0.9,1.4-2.1,1.9-3.6
			c0.3-0.9,0.5-1.6,0.6-2.4c1.1,0.3,1.6,0.5,1.6,0.7c0,0.1-0.1,0.2-0.4,0.3c-0.4,1.1-0.9,2-1.5,2.9c0.3,0.1,0.5,0.1,0.6,0.1
			c0.1,0,0.1,0.1,0.1,0.1c0,0.1-0.1,0.2-0.3,0.3v6.2c0,0.3-0.2,0.5-0.6,0.5c-0.3,0-0.5-0.1-0.5-0.4c0-1,0.1-2.1,0.1-3.2V30.2z
			 M132.5,32.2c0,0.8,0,1.6,0,2.6c0,0.7,0,1.1,0,1.2c0,0.4-0.3,0.5-0.8,0.5c-0.4,0-0.5-0.1-0.5-0.4c0,0,0-0.5,0-1.4
			c0-0.8,0-1.7,0-2.5h-1.7v0.3c0,0.3-0.2,0.4-0.7,0.4c-0.3,0-0.5-0.1-0.5-0.4c0.1-0.8,0.1-1.7,0.1-2.8c0-0.6,0-1.2-0.1-1.7
			c0.3,0.1,0.7,0.3,1.2,0.6h1.6c0-1.5,0-2.5-0.1-2.9c0.8,0.1,1.2,0.1,1.4,0.2c0.2,0,0.2,0.1,0.2,0.2c0,0.1,0,0.1-0.1,0.1
			c0,0-0.2,0.1-0.3,0.2v2.2h1.8c0.3-0.4,0.5-0.6,0.6-0.6s0.3,0.2,0.7,0.5c0.2,0.2,0.3,0.3,0.3,0.4c0,0.1-0.1,0.2-0.3,0.4v0.5l0,2.7
			c0,0.3-0.2,0.5-0.7,0.5c-0.3,0-0.5-0.1-0.5-0.4v-0.3H132.5z M131.4,31.9v-3.1h-1.7v3.1H131.4z M132.5,31.9h1.9v-3.1h-1.9l0,1.8
			V31.9z"/>
		<path class="st10" d="M143,26.5c0.8,1.1,1.6,1.9,2.6,2.5c0.8,0.5,1.8,0.9,2.9,1.1c0,0,0,0,0,0.1s0,0.1,0,0.1
			c-0.2,0-0.4,0.1-0.5,0.3c-0.1,0.1-0.2,0.4-0.3,0.7c0,0.2-0.1,0.2-0.2,0.2c-0.1,0-0.2-0.1-0.4-0.2c-0.6-0.3-1.2-0.8-1.8-1.3
			c-0.9-0.9-1.7-1.9-2.4-3.3c-0.7,1.2-1.5,2.2-2.5,3c-0.9,0.7-1.9,1.3-3.2,1.8c0,0,0,0,0,0c-0.1,0-0.1,0-0.1-0.1c0,0,0,0,0,0
			c0.8-0.5,1.7-1.2,2.4-2c0.7-0.7,1.2-1.4,1.6-2.2c0.3-0.6,0.6-1.1,0.7-1.6c0.9,0.2,1.4,0.4,1.5,0.4c0.1,0,0.2,0.1,0.2,0.2
			C143.5,26.2,143.3,26.3,143,26.5z M141.7,30.3c0,0.1-0.1,0.2-0.3,0.3c0,1.3-0.1,2.2-0.4,3c-0.2,0.8-0.6,1.4-1.2,1.8
			c-0.5,0.4-1.3,0.8-2.3,1.2c0,0,0,0,0,0c0,0-0.1,0-0.1-0.1c0,0,0,0,0,0c0.7-0.4,1.1-0.7,1.4-1c0.3-0.3,0.5-0.6,0.7-0.9
			c0.4-0.8,0.7-1.9,0.7-3.3c0-0.4,0-0.8-0.1-1.1c0.7,0.1,1.2,0.1,1.3,0.1C141.7,30.2,141.7,30.3,141.7,30.3z M145.1,30.3
			c0,0.1-0.1,0.2-0.4,0.3v0.9l0.1,4.5c0,0.3-0.2,0.5-0.7,0.5c-0.4,0-0.5-0.1-0.5-0.4l0-3.5c0-1.2,0-2.1-0.1-2.6
			c0.7,0.1,1.1,0.1,1.3,0.1C145,30.2,145.1,30.3,145.1,30.3z"/>
	</g>
	<g>
		<g>
			<linearGradient id="SVGID_12_" gradientUnits="userSpaceOnUse" x1="124.9488" y1="34.9261" x2="133.5186" y2="26.3563">
				<stop  offset="0" style="stop-color:#FFFFFF"/>
				<stop  offset="0.5169" style="stop-color:#8DD1EB"/>
				<stop  offset="0.5225" style="stop-color:#00A6D7"/>
				<stop  offset="0.7753" style="stop-color:#008AB1"/>
				<stop  offset="0.9888" style="stop-color:#007095"/>
			</linearGradient>
			<path class="st13" d="M125.9,29.7c-0.4,0.5-0.9,1-1.4,1.4c0,0,0,0,0,0c-0.1,0-0.1,0-0.1-0.1c0,0,0,0,0,0c0.8-0.9,1.4-2.1,1.9-3.6
				c0.3-0.9,0.5-1.6,0.6-2.4c1.1,0.3,1.6,0.5,1.6,0.7c0,0.1-0.1,0.2-0.4,0.3c-0.4,1.1-0.9,2-1.5,2.9c0.3,0.1,0.5,0.1,0.6,0.1
				c0.1,0,0.1,0.1,0.1,0.1c0,0.1-0.1,0.2-0.3,0.3v6.2c0,0.3-0.2,0.5-0.6,0.5c-0.3,0-0.5-0.1-0.5-0.4c0-1,0.1-2.1,0.1-3.2V29.7z
				 M132,31.7c0,0.8,0,1.6,0,2.6c0,0.7,0,1.1,0,1.2c0,0.4-0.3,0.5-0.8,0.5c-0.4,0-0.5-0.1-0.5-0.4c0,0,0-0.5,0-1.4
				c0-0.8,0-1.7,0-2.5h-1.7V32c0,0.3-0.2,0.4-0.7,0.4c-0.3,0-0.5-0.1-0.5-0.4c0.1-0.8,0.1-1.7,0.1-2.8c0-0.6,0-1.2-0.1-1.7
				c0.3,0.1,0.7,0.3,1.2,0.6h1.6c0-1.5,0-2.5-0.1-2.9c0.8,0.1,1.2,0.1,1.4,0.2c0.2,0,0.2,0.1,0.2,0.2c0,0.1,0,0.1-0.1,0.1
				c0,0-0.2,0.1-0.3,0.2V28h1.8c0.3-0.4,0.5-0.6,0.6-0.6s0.3,0.2,0.7,0.5c0.2,0.2,0.3,0.3,0.3,0.4c0,0.1-0.1,0.2-0.3,0.4v0.5l0,2.7
				c0,0.3-0.2,0.5-0.7,0.5c-0.3,0-0.5-0.1-0.5-0.4v-0.3H132z M130.9,31.4v-3.1h-1.7v3.1H130.9z M132,31.4h1.9v-3.1H132l0,1.8V31.4z"
				/>
			<linearGradient id="SVGID_13_" gradientUnits="userSpaceOnUse" x1="137.0711" y1="36.1296" x2="145.8012" y2="27.3994">
				<stop  offset="0" style="stop-color:#FFFFFF"/>
				<stop  offset="0.5169" style="stop-color:#8DD1EB"/>
				<stop  offset="0.5225" style="stop-color:#00A6D7"/>
				<stop  offset="0.7753" style="stop-color:#008AB1"/>
				<stop  offset="0.9888" style="stop-color:#007095"/>
			</linearGradient>
			<path class="st14" d="M142.5,26c0.8,1.1,1.6,1.9,2.6,2.5c0.8,0.5,1.8,0.9,2.9,1.1c0,0,0,0,0,0.1s0,0.1,0,0.1
				c-0.2,0-0.4,0.1-0.5,0.3c-0.1,0.1-0.2,0.4-0.3,0.7c0,0.2-0.1,0.2-0.2,0.2c-0.1,0-0.2-0.1-0.4-0.2c-0.6-0.3-1.2-0.8-1.8-1.3
				c-0.9-0.9-1.7-1.9-2.4-3.3c-0.7,1.2-1.5,2.2-2.5,3c-0.9,0.7-1.9,1.3-3.2,1.8c0,0,0,0,0,0c-0.1,0-0.1,0-0.1-0.1c0,0,0,0,0,0
				c0.8-0.5,1.7-1.2,2.4-2c0.7-0.7,1.2-1.4,1.6-2.2c0.3-0.6,0.6-1.1,0.7-1.6c0.9,0.2,1.4,0.4,1.5,0.4c0.1,0,0.2,0.1,0.2,0.2
				C143,25.7,142.8,25.8,142.5,26z M141.2,29.8c0,0.1-0.1,0.2-0.3,0.3c0,1.3-0.1,2.2-0.4,3c-0.2,0.8-0.6,1.4-1.2,1.8
				c-0.5,0.4-1.3,0.8-2.3,1.2c0,0,0,0,0,0c0,0-0.1,0-0.1-0.1c0,0,0,0,0,0c0.7-0.4,1.1-0.7,1.4-1c0.3-0.3,0.5-0.6,0.7-0.9
				c0.4-0.8,0.7-1.9,0.7-3.3c0-0.4,0-0.8-0.1-1.1c0.7,0.1,1.2,0.1,1.3,0.1C141.2,29.7,141.2,29.8,141.2,29.8z M144.6,29.8
				c0,0.1-0.1,0.2-0.4,0.3V31l0.1,4.5c0,0.3-0.2,0.5-0.7,0.5c-0.4,0-0.5-0.1-0.5-0.4l0-3.5c0-1.2,0-2.1-0.1-2.6
				c0.7,0.1,1.1,0.1,1.3,0.1C144.5,29.7,144.6,29.8,144.6,29.8z"/>
		</g>
	</g>
</g>
<g>
	<g class="st9">
		<path class="st10" d="M125.5,111.7c-0.6,0.8-1.2,1.3-2,1.7c0,0,0,0,0,0c0,0-0.1,0-0.1-0.1c0,0,0,0,0,0c0.4-0.5,0.8-1.2,1.2-1.9
			c0.3-0.5,0.4-1,0.5-1.4c0.9,0.2,1.4,0.4,1.4,0.6c0,0.1-0.2,0.2-0.5,0.3c-0.1,0.2-0.2,0.3-0.3,0.5h1.6c0.3-0.4,0.6-0.7,0.7-0.7
			c0.1,0,0.3,0.2,0.7,0.5c0.2,0.2,0.3,0.3,0.3,0.3c0,0.1-0.1,0.1-0.2,0.1h-2.6c0.8,0.2,1.1,0.6,1.1,1c0,0.2-0.1,0.3-0.2,0.5
			c-0.1,0.1-0.2,0.2-0.4,0.2c-0.2,0-0.3-0.1-0.4-0.2c-0.1-0.1-0.1-0.3-0.1-0.5c-0.1-0.4-0.2-0.7-0.4-1H125.5z M129.2,113.7h3.3
			c0.4-0.4,0.6-0.6,0.7-0.6s0.4,0.2,0.8,0.6c0.2,0.2,0.4,0.3,0.4,0.4c0,0.2-0.1,0.2-0.4,0.2c-0.2,0-0.4,0-0.5,0.1
			c-0.3,0.3-0.7,0.5-1,0.6c0,0,0,0,0,0c-0.1,0-0.1,0-0.1-0.1c0,0,0,0,0,0c0.1-0.3,0.2-0.6,0.3-1h-7.5c0,0.5-0.1,0.9-0.3,1.2
			c-0.2,0.2-0.4,0.4-0.7,0.4c-0.2,0-0.4-0.1-0.5-0.2c-0.1-0.1-0.2-0.3-0.2-0.4c0-0.2,0.2-0.4,0.5-0.6c0.3-0.1,0.5-0.3,0.7-0.5
			c0.1-0.2,0.2-0.4,0.3-0.8c0,0,0,0,0.1,0s0.1,0,0.1,0c0,0.2,0.1,0.4,0.1,0.6h3v-0.5c0-0.1,0-0.4-0.1-0.7c0.2,0,0.4,0,0.6,0.1
			c0.2-0.4,0.4-0.8,0.6-1.3c0.1-0.4,0.2-0.8,0.3-1.1c0.6,0.1,1,0.2,1.2,0.3c0.2,0.1,0.2,0.1,0.2,0.2c0,0.1,0,0.1-0.1,0.2
			c-0.1,0-0.2,0.1-0.4,0.1c-0.1,0.2-0.2,0.4-0.4,0.6h2.1c0.4-0.5,0.7-0.8,0.8-0.8c0.1,0,0.3,0.2,0.8,0.5c0.2,0.2,0.4,0.3,0.4,0.4
			c0,0.1-0.1,0.1-0.2,0.1h-3.1c0.7,0.3,1.1,0.6,1.1,1c0,0.2-0.1,0.3-0.2,0.5c-0.1,0.1-0.2,0.2-0.4,0.2c-0.2,0-0.3-0.1-0.4-0.2
			c-0.1-0.1-0.1-0.3-0.1-0.5c-0.1-0.4-0.2-0.7-0.3-0.9h-0.6c-0.3,0.3-0.6,0.6-1,0.9c0.4,0.1,0.6,0.2,0.6,0.3c0,0.1-0.1,0.2-0.4,0.3
			V113.7z M126.7,118.2h4.3c0.3-0.4,0.5-0.6,0.6-0.6c0.1,0,0.3,0.1,0.7,0.4c0.2,0.1,0.3,0.3,0.3,0.3c0,0.1-0.1,0.2-0.3,0.3v0.4
			l0,1.5c0,0.3-0.2,0.5-0.7,0.5c-0.2,0-0.3,0-0.4-0.1c-0.1-0.1-0.1-0.2-0.1-0.3v-0.3h-4.5v0.3c0,0.3-0.2,0.5-0.7,0.5
			c-0.3,0-0.5-0.1-0.5-0.4l0.1-4c0-0.9,0-1.7-0.1-2.4c0.5,0.2,0.9,0.4,1.3,0.6h3.6c0.3-0.3,0.5-0.5,0.5-0.5c0.1,0,0.3,0.1,0.7,0.4
			c0.2,0.1,0.3,0.2,0.3,0.3s-0.1,0.2-0.3,0.3v0.2l0,1.1c0,0.3-0.2,0.5-0.6,0.5c-0.2,0-0.3,0-0.4-0.1c-0.1-0.1-0.1-0.2-0.1-0.3h-3.8
			V118.2z M130.6,116.7v-1.4h-3.8v1.4H130.6z M126.7,118.5v1.7h4.5v-1.7H126.7z"/>
		<path class="st10" d="M137.8,117.5c0.6-0.2,1.2-0.4,1.6-0.6c0,0,0,0,0,0c0.1,0,0.1,0,0.1,0.1c0,0,0,0,0,0c-0.9,0.8-2,1.5-3.3,2.1
			c0,0.3-0.1,0.5-0.3,0.5c-0.1,0-0.2-0.1-0.3-0.3c-0.1-0.2-0.3-0.6-0.5-1.1c0.2,0,0.6-0.1,1.1-0.2c0.3-0.1,0.5-0.1,0.6-0.2v-3.1
			h-0.5c-0.2,0-0.4,0-0.7,0.1l-0.1-0.4c0.3,0.1,0.5,0.1,0.8,0.1h0.6v-2.8h-0.7c-0.2,0-0.4,0-0.7,0.1l-0.1-0.4
			c0.3,0.1,0.5,0.1,0.8,0.1h1.7c0.3-0.4,0.5-0.7,0.7-0.7c0.1,0,0.3,0.2,0.7,0.5c0.2,0.2,0.3,0.3,0.3,0.4s-0.1,0.1-0.2,0.1h-1.4v2.8
			h0.1c0.3-0.4,0.5-0.6,0.6-0.6c0.1,0,0.3,0.1,0.6,0.4c0.2,0.1,0.2,0.3,0.2,0.3c0,0.1-0.1,0.1-0.2,0.1h-1.3V117.5z M143.1,115.8v2
			h0.8c0.5-0.5,0.8-0.8,0.8-0.8c0.1,0,0.3,0.2,0.8,0.6c0.2,0.2,0.3,0.3,0.3,0.4c0,0.1-0.1,0.1-0.2,0.1h-2.6v2.2h1.3
			c0.5-0.5,0.8-0.8,0.9-0.8c0.1,0,0.4,0.2,0.8,0.6c0.2,0.2,0.3,0.3,0.3,0.4s-0.1,0.1-0.2,0.1h-7.2c-0.2,0-0.5,0-0.8,0.1l-0.1-0.4
			c0.3,0.1,0.6,0.1,0.9,0.1h2.9V118h-1.8c-0.2,0-0.5,0-0.8,0.1l-0.1-0.4c0.3,0.1,0.6,0.1,0.8,0.1h1.8v-2h-1.4v0.3
			c0,0.3-0.2,0.4-0.7,0.4c-0.3,0-0.5-0.1-0.5-0.4c0-1,0.1-2.1,0.1-3.4c0-0.6,0-1.3-0.1-2.2c0.5,0.2,0.9,0.4,1.2,0.6h3.8
			c0.3-0.4,0.5-0.5,0.6-0.5s0.3,0.2,0.7,0.5c0.2,0.2,0.3,0.3,0.3,0.4c0,0.1-0.1,0.3-0.4,0.4v0.7l0.1,3.5c0,0.3-0.2,0.4-0.7,0.4
			c-0.3,0-0.4-0.1-0.4-0.4v-0.3H143.1z M140.7,113.2h1.4v-1.9h-1.4V113.2z M140.7,115.5h1.4v-2h-1.4V115.5z M143.1,113.2h1.5v-1.9
			h-1.5V113.2z M143.1,115.5h1.5v-2h-1.5V115.5z"/>
	</g>
	<g>
		<g>
			<linearGradient id="SVGID_14_" gradientUnits="userSpaceOnUse" x1="123.9094" y1="119.3019" x2="132.9322" y2="110.2791">
				<stop  offset="0" style="stop-color:#FFFFFF"/>
				<stop  offset="0.5169" style="stop-color:#8DD1EB"/>
				<stop  offset="0.5225" style="stop-color:#00A6D7"/>
				<stop  offset="0.7753" style="stop-color:#008AB1"/>
				<stop  offset="0.9888" style="stop-color:#007095"/>
			</linearGradient>
			<path class="st15" d="M125,111.2c-0.6,0.8-1.2,1.3-2,1.7c0,0,0,0,0,0c0,0-0.1,0-0.1-0.1c0,0,0,0,0,0c0.4-0.5,0.8-1.2,1.2-1.9
				c0.3-0.5,0.4-1,0.5-1.4c0.9,0.2,1.4,0.4,1.4,0.6c0,0.1-0.2,0.2-0.5,0.3c-0.1,0.2-0.2,0.3-0.3,0.5h1.6c0.3-0.4,0.6-0.7,0.7-0.7
				c0.1,0,0.3,0.2,0.7,0.5c0.2,0.2,0.3,0.3,0.3,0.3c0,0.1-0.1,0.1-0.2,0.1h-2.6c0.8,0.2,1.1,0.6,1.1,1c0,0.2-0.1,0.3-0.2,0.5
				c-0.1,0.1-0.2,0.2-0.4,0.2c-0.2,0-0.3-0.1-0.4-0.2c-0.1-0.1-0.1-0.3-0.1-0.5c-0.1-0.4-0.2-0.7-0.4-1H125z M128.7,113.2h3.3
				c0.4-0.4,0.6-0.6,0.7-0.6s0.4,0.2,0.8,0.6c0.2,0.2,0.4,0.3,0.4,0.4c0,0.2-0.1,0.2-0.4,0.2c-0.2,0-0.4,0-0.5,0.1
				c-0.3,0.3-0.7,0.5-1,0.6c0,0,0,0,0,0c-0.1,0-0.1,0-0.1-0.1c0,0,0,0,0,0c0.1-0.3,0.2-0.6,0.3-1h-7.5c0,0.5-0.1,0.9-0.3,1.2
				c-0.2,0.2-0.4,0.4-0.7,0.4c-0.2,0-0.4-0.1-0.5-0.2c-0.1-0.1-0.2-0.3-0.2-0.4c0-0.2,0.2-0.4,0.5-0.6c0.3-0.1,0.5-0.3,0.7-0.5
				c0.1-0.2,0.2-0.4,0.3-0.8c0,0,0,0,0.1,0s0.1,0,0.1,0c0,0.2,0.1,0.4,0.1,0.6h3v-0.5c0-0.1,0-0.4-0.1-0.7c0.2,0,0.4,0,0.6,0.1
				c0.2-0.4,0.4-0.8,0.6-1.3c0.1-0.4,0.2-0.8,0.3-1.1c0.6,0.1,1,0.2,1.2,0.3c0.2,0.1,0.2,0.1,0.2,0.2c0,0.1,0,0.1-0.1,0.2
				c-0.1,0-0.2,0.1-0.4,0.1c-0.1,0.2-0.2,0.4-0.4,0.6h2.1c0.4-0.5,0.7-0.8,0.8-0.8c0.1,0,0.3,0.2,0.8,0.5c0.2,0.2,0.4,0.3,0.4,0.4
				c0,0.1-0.1,0.1-0.2,0.1h-3.1c0.7,0.3,1.1,0.6,1.1,1c0,0.2-0.1,0.3-0.2,0.5c-0.1,0.1-0.2,0.2-0.4,0.2c-0.2,0-0.3-0.1-0.4-0.2
				c-0.1-0.1-0.1-0.3-0.1-0.5c-0.1-0.4-0.2-0.7-0.3-0.9h-0.6c-0.3,0.3-0.6,0.6-1,0.9c0.4,0.1,0.6,0.2,0.6,0.3c0,0.1-0.1,0.2-0.4,0.3
				V113.2z M126.2,117.7h4.3c0.3-0.4,0.5-0.6,0.6-0.6c0.1,0,0.3,0.1,0.7,0.4c0.2,0.1,0.3,0.3,0.3,0.3c0,0.1-0.1,0.2-0.3,0.3v0.4
				l0,1.5c0,0.3-0.2,0.5-0.7,0.5c-0.2,0-0.3,0-0.4-0.1c-0.1-0.1-0.1-0.2-0.1-0.3v-0.3h-4.5v0.3c0,0.3-0.2,0.5-0.7,0.5
				c-0.3,0-0.5-0.1-0.5-0.4l0.1-4c0-0.9,0-1.7-0.1-2.4c0.5,0.2,0.9,0.4,1.3,0.6h3.6c0.3-0.3,0.5-0.5,0.5-0.5c0.1,0,0.3,0.1,0.7,0.4
				c0.2,0.1,0.3,0.2,0.3,0.3s-0.1,0.2-0.3,0.3v0.2l0,1.1c0,0.3-0.2,0.5-0.6,0.5c-0.2,0-0.3,0-0.4-0.1c-0.1-0.1-0.1-0.2-0.1-0.3h-3.8
				V117.7z M130.1,116.2v-1.4h-3.8v1.4H130.1z M126.2,118v1.7h4.5V118H126.2z"/>
			<linearGradient id="SVGID_15_" gradientUnits="userSpaceOnUse" x1="135.979" y1="119.751" x2="145.3204" y2="110.4096">
				<stop  offset="0" style="stop-color:#FFFFFF"/>
				<stop  offset="0.5169" style="stop-color:#8DD1EB"/>
				<stop  offset="0.5225" style="stop-color:#00A6D7"/>
				<stop  offset="0.7753" style="stop-color:#008AB1"/>
				<stop  offset="0.9888" style="stop-color:#007095"/>
			</linearGradient>
			<path class="st16" d="M137.3,117c0.6-0.2,1.2-0.4,1.6-0.6c0,0,0,0,0,0c0.1,0,0.1,0,0.1,0.1c0,0,0,0,0,0c-0.9,0.8-2,1.5-3.3,2.1
				c0,0.3-0.1,0.5-0.3,0.5c-0.1,0-0.2-0.1-0.3-0.3c-0.1-0.2-0.3-0.6-0.5-1.1c0.2,0,0.6-0.1,1.1-0.2c0.3-0.1,0.5-0.1,0.6-0.2v-3.1
				h-0.5c-0.2,0-0.4,0-0.7,0.1l-0.1-0.4c0.3,0.1,0.5,0.1,0.8,0.1h0.6v-2.8h-0.7c-0.2,0-0.4,0-0.7,0.1l-0.1-0.4
				c0.3,0.1,0.5,0.1,0.8,0.1h1.7c0.3-0.4,0.5-0.7,0.7-0.7c0.1,0,0.3,0.2,0.7,0.5c0.2,0.2,0.3,0.3,0.3,0.4s-0.1,0.1-0.2,0.1h-1.4v2.8
				h0.1c0.3-0.4,0.5-0.6,0.6-0.6c0.1,0,0.3,0.1,0.6,0.4c0.2,0.1,0.2,0.3,0.2,0.3c0,0.1-0.1,0.1-0.2,0.1h-1.3V117z M142.6,115.3v2
				h0.8c0.5-0.5,0.8-0.8,0.8-0.8c0.1,0,0.3,0.2,0.8,0.6c0.2,0.2,0.3,0.3,0.3,0.4c0,0.1-0.1,0.1-0.2,0.1h-2.6v2.2h1.3
				c0.5-0.5,0.8-0.8,0.9-0.8c0.1,0,0.4,0.2,0.8,0.6c0.2,0.2,0.3,0.3,0.3,0.4s-0.1,0.1-0.2,0.1h-7.2c-0.2,0-0.5,0-0.8,0.1l-0.1-0.4
				c0.3,0.1,0.6,0.1,0.9,0.1h2.9v-2.2h-1.8c-0.2,0-0.5,0-0.8,0.1l-0.1-0.4c0.3,0.1,0.6,0.1,0.8,0.1h1.8v-2h-1.4v0.3
				c0,0.3-0.2,0.4-0.7,0.4c-0.3,0-0.5-0.1-0.5-0.4c0-1,0.1-2.1,0.1-3.4c0-0.6,0-1.3-0.1-2.2c0.5,0.2,0.9,0.4,1.2,0.6h3.8
				c0.3-0.4,0.5-0.5,0.6-0.5s0.3,0.2,0.7,0.5c0.2,0.2,0.3,0.3,0.3,0.4c0,0.1-0.1,0.3-0.4,0.4v0.7l0.1,3.5c0,0.3-0.2,0.4-0.7,0.4
				c-0.3,0-0.4-0.1-0.4-0.4v-0.3H142.6z M140.2,112.7h1.4v-1.9h-1.4V112.7z M140.2,115h1.4v-2h-1.4V115z M142.6,112.7h1.5v-1.9h-1.5
				V112.7z M142.6,115h1.5v-2h-1.5V115z"/>
		</g>
	</g>
</g>
<g>
	<g class="st9">
		<path class="st10" d="M27,111.6v2.1h1.4c0.4-0.4,0.6-0.6,0.7-0.6c0.1,0,0.3,0.2,0.8,0.6c0.2,0.2,0.3,0.4,0.3,0.4
			c0,0.1,0,0.2-0.1,0.2c-0.1,0.1-0.2,0.1-0.5,0.2c-0.6,1.1-1.4,2.1-2.2,2.9c1.2,0.7,2.8,1.2,4.8,1.4c0,0,0,0,0,0.1s0,0.1,0,0.1
			c-0.5,0.2-0.8,0.5-0.9,1c0,0.2-0.1,0.2-0.1,0.3c0,0-0.1,0.1-0.1,0.1c-0.1,0-0.3-0.1-0.7-0.2c-1.6-0.5-2.8-1.2-3.8-2
			c-1.4,1.1-3.3,1.8-5.6,2.2c-0.1,0-0.1,0-0.1-0.1c0,0,0,0,0,0c2-0.7,3.7-1.6,4.9-2.7c-0.8-0.9-1.5-2-2-3.4h-0.8
			c-0.3,0-0.6,0-0.9,0.1l-0.1-0.5c0.3,0.1,0.7,0.1,1,0.1h2.7v-2.1h-3.5c-0.3,0-0.6,0-1,0.1l-0.1-0.4c0.4,0.1,0.7,0.1,1.1,0.1h3.6
			v-0.7c0-0.6,0-1.1-0.1-1.5c1.1,0.1,1.7,0.2,1.7,0.4c0,0.1-0.1,0.2-0.4,0.3v1.4h2.7c0.5-0.6,0.8-0.9,0.9-0.9c0.1,0,0.4,0.2,0.9,0.6
			c0.3,0.2,0.4,0.4,0.4,0.4s-0.1,0.1-0.2,0.1H27z M26.4,116.8c0.8-0.8,1.5-1.8,1.9-2.8h-4.2C24.8,115.2,25.6,116.1,26.4,116.8z"/>
		<path class="st10" d="M35.5,114.5c0.6-0.2,1-0.4,1.2-0.5c0,0,0,0,0,0c0,0,0.1,0,0.1,0.1c0,0,0,0,0,0.1c-0.4,0.3-0.8,0.7-1.3,1v1.2
			l0,2.7c0,0.3-0.1,0.5-0.2,0.7c-0.2,0.3-0.5,0.5-1,0.5c-0.1,0-0.2-0.1-0.2-0.2c0-0.3-0.1-0.5-0.2-0.6c-0.1-0.1-0.4-0.2-0.8-0.3
			c0,0,0,0,0-0.1c0-0.1,0-0.1,0-0.1c0.5,0,0.9,0,1.1,0c0.1,0,0.1,0,0.2,0s0-0.1,0-0.1v-3.1c-0.3,0.2-0.5,0.3-0.7,0.4
			c0,0.3-0.1,0.4-0.2,0.4c-0.1,0-0.2-0.1-0.2-0.3c-0.1-0.2-0.2-0.5-0.4-1.1c0.2,0,0.5-0.1,0.9-0.2c0.1,0,0.3-0.1,0.6-0.2v-2.6h-0.6
			c-0.2,0-0.4,0-0.6,0.1l-0.1-0.4c0.3,0.1,0.5,0.1,0.7,0.1h0.6v-1.3c0-0.6,0-1.1-0.1-1.4c0.7,0.1,1.2,0.1,1.3,0.2
			c0.1,0,0.2,0.1,0.2,0.2c0,0.1-0.1,0.2-0.4,0.3v2.1h0.3c0.2-0.4,0.4-0.6,0.5-0.6c0.1,0,0.3,0.1,0.5,0.4c0.1,0.1,0.2,0.2,0.2,0.3
			c0,0.1-0.1,0.1-0.2,0.1h-1.4V114.5z M41.2,118.2c0.8,0.4,1.8,0.6,3,0.6c0,0,0,0,0,0c0,0,0,0.1,0,0.1c-0.3,0.2-0.5,0.5-0.7,0.9
			c-0.1,0.2-0.1,0.2-0.1,0.3s-0.1,0-0.1,0c-0.1,0-0.4-0.1-0.6-0.2c-0.7-0.3-1.3-0.6-1.9-1l-0.3-0.2c-0.9,0.6-2.2,1.1-3.7,1.4
			c-0.1,0-0.1,0-0.1-0.1c0,0,0,0,0-0.1c1.3-0.4,2.3-1,3.1-1.7c-0.5-0.5-0.8-1.1-1.1-1.7c-0.6,1.5-1.6,2.7-3,3.6c0,0,0,0,0,0
			c0,0,0,0-0.1-0.1c0,0,0-0.1,0-0.1c0,0,0,0,0,0c1.3-1.2,2.1-2.9,2.5-5.1h-0.9c-0.2,0-0.4,0-0.6,0.1l-0.1-0.4
			c0.3,0.1,0.5,0.1,0.8,0.1h0.9c0-0.3,0.1-0.7,0.1-1.2h-0.7c-0.2,0-0.4,0-0.7,0.1l-0.1-0.4c0.3,0.1,0.5,0.1,0.8,0.1h3.5
			c0.2-0.3,0.4-0.8,0.6-1.4c0.2-0.4,0.3-0.8,0.3-1.1c0.6,0.2,1,0.4,1.2,0.5c0.1,0.1,0.2,0.2,0.2,0.3c0,0.1-0.2,0.2-0.5,0.2
			c-0.5,0.6-1,1.1-1.6,1.6h0.7c0.3-0.4,0.6-0.7,0.7-0.7c0.1,0,0.3,0.2,0.7,0.5c0.2,0.2,0.3,0.3,0.3,0.4s-0.1,0.1-0.2,0.1h-4.2
			c0,0.5-0.1,0.9-0.2,1.2h2.9c0.4-0.5,0.6-0.7,0.7-0.7c0.1,0,0.3,0.2,0.8,0.5c0.2,0.2,0.3,0.3,0.3,0.4c0,0.1-0.1,0.1-0.2,0.1h-4.6
			c-0.1,0.4-0.2,0.7-0.3,1h2.4c0.3-0.3,0.6-0.5,0.6-0.5c0.1,0,0.3,0.1,0.7,0.4c0.2,0.2,0.3,0.3,0.3,0.4c0,0.1-0.2,0.2-0.5,0.4
			C42.1,117.2,41.7,117.7,41.2,118.2z M43.3,110c0,0.1-0.1,0.2-0.3,0.2c-0.1,0-0.2,0-0.3-0.1c-1.7,0.5-3.6,0.8-5.9,0.7
			c0,0,0,0,0-0.1c0-0.1,0-0.1,0-0.1c1.5-0.2,2.9-0.5,4.2-1.1c0.5-0.2,0.8-0.4,1.1-0.6C42.9,109.6,43.3,109.9,43.3,110z M38.8,112.3
			c0,0.2-0.1,0.4-0.2,0.5c-0.1,0.1-0.3,0.2-0.4,0.2c-0.3,0-0.4-0.2-0.4-0.7c-0.1-0.5-0.2-0.9-0.4-1.2c0,0,0,0,0,0c0,0,0-0.1,0.1-0.1
			c0,0,0,0,0,0C38.4,111.4,38.8,111.8,38.8,112.3z M40.4,117.7c0.4-0.5,0.8-1,1.1-1.5h-2.6l0,0C39.3,116.8,39.8,117.3,40.4,117.7z
			 M40.8,112.1c0,0.2-0.1,0.4-0.2,0.6c-0.1,0.1-0.2,0.2-0.4,0.2c-0.3,0-0.4-0.2-0.5-0.6c-0.1-0.6-0.2-1-0.4-1.3c0,0,0,0,0,0
			c0,0,0-0.1,0.1-0.1c0,0,0,0,0,0C40.3,111.2,40.8,111.6,40.8,112.1z"/>
	</g>
	<g>
		<g>
			<linearGradient id="SVGID_16_" gradientUnits="userSpaceOnUse" x1="20.8164" y1="120.0551" x2="30.6694" y2="110.202">
				<stop  offset="0" style="stop-color:#FFFFFF"/>
				<stop  offset="0.5169" style="stop-color:#8DD1EB"/>
				<stop  offset="0.5225" style="stop-color:#00A6D7"/>
				<stop  offset="0.7753" style="stop-color:#008AB1"/>
				<stop  offset="0.9888" style="stop-color:#007095"/>
			</linearGradient>
			<path class="st17" d="M26.5,111.1v2.1h1.4c0.4-0.4,0.6-0.6,0.7-0.6c0.1,0,0.3,0.2,0.8,0.6c0.2,0.2,0.3,0.4,0.3,0.4
				c0,0.1,0,0.2-0.1,0.2c-0.1,0.1-0.2,0.1-0.5,0.2c-0.6,1.1-1.4,2.1-2.2,2.9c1.2,0.7,2.8,1.2,4.8,1.4c0,0,0,0,0,0.1s0,0.1,0,0.1
				c-0.5,0.2-0.8,0.5-0.9,1c0,0.2-0.1,0.2-0.1,0.3c0,0-0.1,0.1-0.1,0.1c-0.1,0-0.3-0.1-0.7-0.2c-1.6-0.5-2.8-1.2-3.8-2
				c-1.4,1.1-3.3,1.8-5.6,2.2c-0.1,0-0.1,0-0.1-0.1c0,0,0,0,0,0c2-0.7,3.7-1.6,4.9-2.7c-0.8-0.9-1.5-2-2-3.4h-0.8
				c-0.3,0-0.6,0-0.9,0.1l-0.1-0.5c0.3,0.1,0.7,0.1,1,0.1h2.7v-2.1h-3.5c-0.3,0-0.6,0-1,0.1l-0.1-0.4c0.4,0.1,0.7,0.1,1.1,0.1h3.6
				v-0.7c0-0.6,0-1.1-0.1-1.5c1.1,0.1,1.7,0.2,1.7,0.4c0,0.1-0.1,0.2-0.4,0.3v1.4h2.7c0.5-0.6,0.8-0.9,0.9-0.9
				c0.1,0,0.4,0.2,0.9,0.6c0.3,0.2,0.4,0.4,0.4,0.4s-0.1,0.1-0.2,0.1H26.5z M25.9,116.3c0.8-0.8,1.5-1.8,1.9-2.8h-4.2
				C24.3,114.7,25.1,115.6,25.9,116.3z"/>
			<linearGradient id="SVGID_17_" gradientUnits="userSpaceOnUse" x1="33.2816" y1="119.2523" x2="42.9213" y2="109.6127">
				<stop  offset="0" style="stop-color:#FFFFFF"/>
				<stop  offset="0.5169" style="stop-color:#8DD1EB"/>
				<stop  offset="0.5225" style="stop-color:#00A6D7"/>
				<stop  offset="0.7753" style="stop-color:#008AB1"/>
				<stop  offset="0.9888" style="stop-color:#007095"/>
			</linearGradient>
			<path class="st18" d="M35,114c0.6-0.2,1-0.4,1.2-0.5c0,0,0,0,0,0c0,0,0.1,0,0.1,0.1c0,0,0,0,0,0.1c-0.4,0.3-0.8,0.7-1.3,1v1.2
				l0,2.7c0,0.3-0.1,0.5-0.2,0.7c-0.2,0.3-0.5,0.5-1,0.5c-0.1,0-0.2-0.1-0.2-0.2c0-0.3-0.1-0.5-0.2-0.6c-0.1-0.1-0.4-0.2-0.8-0.3
				c0,0,0,0,0-0.1c0-0.1,0-0.1,0-0.1c0.5,0,0.9,0,1.1,0c0.1,0,0.1,0,0.2,0s0-0.1,0-0.1v-3.1c-0.3,0.2-0.5,0.3-0.7,0.4
				c0,0.3-0.1,0.4-0.2,0.4c-0.1,0-0.2-0.1-0.2-0.3c-0.1-0.2-0.2-0.5-0.4-1.1c0.2,0,0.5-0.1,0.9-0.2c0.1,0,0.3-0.1,0.6-0.2v-2.6h-0.6
				c-0.2,0-0.4,0-0.6,0.1l-0.1-0.4c0.3,0.1,0.5,0.1,0.7,0.1H34v-1.3c0-0.6,0-1.1-0.1-1.4c0.7,0.1,1.2,0.1,1.3,0.2
				c0.1,0,0.2,0.1,0.2,0.2c0,0.1-0.1,0.2-0.4,0.3v2.1h0.3c0.2-0.4,0.4-0.6,0.5-0.6c0.1,0,0.3,0.1,0.5,0.4c0.1,0.1,0.2,0.2,0.2,0.3
				c0,0.1-0.1,0.1-0.2,0.1H35V114z M40.7,117.7c0.8,0.4,1.8,0.6,3,0.6c0,0,0,0,0,0c0,0,0,0.1,0,0.1c-0.3,0.2-0.5,0.5-0.7,0.9
				c-0.1,0.2-0.1,0.2-0.1,0.3s-0.1,0-0.1,0c-0.1,0-0.4-0.1-0.6-0.2c-0.7-0.3-1.3-0.6-1.9-1l-0.3-0.2c-0.9,0.6-2.2,1.1-3.7,1.4
				c-0.1,0-0.1,0-0.1-0.1c0,0,0,0,0-0.1c1.3-0.4,2.3-1,3.1-1.7c-0.5-0.5-0.8-1.1-1.1-1.7c-0.6,1.5-1.6,2.7-3,3.6c0,0,0,0,0,0
				c0,0,0,0-0.1-0.1c0,0,0-0.1,0-0.1c0,0,0,0,0,0c1.3-1.2,2.1-2.9,2.5-5.1h-0.9c-0.2,0-0.4,0-0.6,0.1L36,114
				c0.3,0.1,0.5,0.1,0.8,0.1h0.9c0-0.3,0.1-0.7,0.1-1.2h-0.7c-0.2,0-0.4,0-0.7,0.1l-0.1-0.4c0.3,0.1,0.5,0.1,0.8,0.1h3.5
				c0.2-0.3,0.4-0.8,0.6-1.4c0.2-0.4,0.3-0.8,0.3-1.1c0.6,0.2,1,0.4,1.2,0.5c0.1,0.1,0.2,0.2,0.2,0.3c0,0.1-0.2,0.2-0.5,0.2
				c-0.5,0.6-1,1.1-1.6,1.6h0.7c0.3-0.4,0.6-0.7,0.7-0.7c0.1,0,0.3,0.2,0.7,0.5c0.2,0.2,0.3,0.3,0.3,0.4s-0.1,0.1-0.2,0.1H39
				c0,0.5-0.1,0.9-0.2,1.2h2.9c0.4-0.5,0.6-0.7,0.7-0.7c0.1,0,0.3,0.2,0.8,0.5c0.2,0.2,0.3,0.3,0.3,0.4c0,0.1-0.1,0.1-0.2,0.1h-4.6
				c-0.1,0.4-0.2,0.7-0.3,1h2.4c0.3-0.3,0.6-0.5,0.6-0.5c0.1,0,0.3,0.1,0.7,0.4c0.2,0.2,0.3,0.3,0.3,0.4c0,0.1-0.2,0.2-0.5,0.4
				C41.6,116.7,41.2,117.2,40.7,117.7z M42.8,109.5c0,0.1-0.1,0.2-0.3,0.2c-0.1,0-0.2,0-0.3-0.1c-1.7,0.5-3.6,0.8-5.9,0.7
				c0,0,0,0,0-0.1c0-0.1,0-0.1,0-0.1c1.5-0.2,2.9-0.5,4.2-1.1c0.5-0.2,0.8-0.4,1.1-0.6C42.4,109.1,42.8,109.4,42.8,109.5z
				 M38.3,111.8c0,0.2-0.1,0.4-0.2,0.5c-0.1,0.1-0.3,0.2-0.4,0.2c-0.3,0-0.4-0.2-0.4-0.7c-0.1-0.5-0.2-0.9-0.4-1.2c0,0,0,0,0,0
				c0,0,0-0.1,0.1-0.1c0,0,0,0,0,0C37.9,110.9,38.3,111.3,38.3,111.8z M39.9,117.2c0.4-0.5,0.8-1,1.1-1.5h-2.6l0,0
				C38.8,116.3,39.3,116.8,39.9,117.2z M40.3,111.6c0,0.2-0.1,0.4-0.2,0.6c-0.1,0.1-0.2,0.2-0.4,0.2c-0.3,0-0.4-0.2-0.5-0.6
				c-0.1-0.6-0.2-1-0.4-1.3c0,0,0,0,0,0c0,0,0-0.1,0.1-0.1c0,0,0,0,0,0C39.8,110.7,40.3,111.1,40.3,111.6z"/>
		</g>
	</g>
</g>
<g>
	<path d="M8.4,34.8L8,34.6l0.6-1l0.4,0.2L8.4,34.8z"/>
	<path d="M10.7,32.4c-0.1,0-0.2,0-0.6-0.2C9.7,32,9.5,32,9.4,32.3L9,33l1,0.6l-0.2,0.4l-2.5-1.5l0.6-1.1c0.3-0.5,0.7-0.6,1.1-0.4
		c0.1,0,0.2,0.1,0.3,0.3c0.1,0.2,0.1,0.3,0.1,0.4c0.2-0.2,0.3-0.3,0.9,0c0.4,0.2,0.5,0.2,0.7,0.2L10.7,32.4z M8.3,31.6l-0.4,0.7
		l0.8,0.5L9.1,32c0.1-0.2,0.1-0.5-0.2-0.6C8.7,31.3,8.5,31.3,8.3,31.6z"/>
	<path d="M11.2,31.6l-2.5-1.5l1.1-1.9l0.3,0.2L9.2,30l0.7,0.4l0.8-1.4l0.3,0.2l-0.8,1.4L11,31l0.9-1.5l0.3,0.2L11.2,31.6z"/>
	<path d="M13.4,27.7l-0.8-0.2l-0.5,0.9l0.6,0.6l-0.2,0.4l-2-2.4l0.2-0.4l3.1,0.6L13.4,27.7z M11,27.2l0.8,0.9l0.4-0.7L11,27.2z"/>
	<path d="M13.8,27l-2.5-1.5l0.2-0.4l2.2,1.3l0.7-1.2l0.3,0.2L13.8,27z"/>
	<path d="M15.6,23.9l-2.5-1.5l1.1-1.9l0.3,0.2l-0.9,1.5l0.7,0.4l0.8-1.4l0.3,0.2l-0.8,1.4l0.8,0.5l0.9-1.5l0.3,0.2L15.6,23.9z"/>
	<path d="M17.5,20.8c-0.5,0.9-1.2,0.6-1.5,0.5l0.2-0.4c0.5,0.2,0.8-0.1,0.9-0.3c0.2-0.3,0.2-0.7-0.1-0.9c-0.3-0.2-0.5,0.1-0.9,0.5
		c-0.4,0.5-0.8,0.7-1.2,0.4c-0.4-0.2-0.6-0.8-0.2-1.4c0.1-0.1,0.4-0.6,0.8-0.6c0.3,0,0.4,0.1,0.5,0.1L16,19.1
		c-0.4-0.2-0.7,0.1-0.8,0.3c-0.1,0.2-0.2,0.6,0.1,0.8c0.2,0.1,0.3,0.1,0.8-0.4c0.5-0.5,0.9-0.7,1.3-0.5
		C17.7,19.5,17.9,20.1,17.5,20.8z"/>
	<path d="M16.7,17l2.2,1.3l-0.2,0.4l-2.2-1.3L16,18.2L15.6,18l1.2-2l0.3,0.2L16.7,17z"/>
	<path d="M20.4,15.5l-0.8-0.2l-0.5,0.9l0.6,0.6l-0.2,0.4l-2-2.4l0.2-0.4l3.1,0.6L20.4,15.5z M18,15l0.8,0.9l0.4-0.7L18,15z"/>
	<path d="M19.3,12.6l2.2,1.3l-0.2,0.4L19,12.9l-0.5,0.8l-0.3-0.2l1.2-2l0.3,0.2L19.3,12.6z"/>
	<path d="M22.1,12.7l-2.5-1.5l1.1-1.9L21,9.5L20.1,11l0.7,0.4l0.8-1.4l0.3,0.2l-0.8,1.4l0.8,0.5l0.9-1.5l0.3,0.2L22.1,12.7z"/>
	<path d="M22.6,10.1l-0.4-0.2l0.6-1l0.4,0.2L22.6,10.1z"/>
</g>
<g>
	<path d="M146.5,137.2l-0.4-0.2l0.6-1l0.4,0.2L146.5,137.2z"/>
	<path d="M148.8,134.8c-0.1,0-0.2,0-0.6-0.2c-0.4-0.2-0.6-0.2-0.7,0.1l-0.4,0.7l1,0.6l-0.2,0.4l-2.5-1.5l0.6-1.1
		c0.3-0.5,0.7-0.6,1.1-0.4c0.1,0,0.2,0.1,0.3,0.3c0.1,0.2,0.1,0.3,0.1,0.4c0.2-0.2,0.3-0.3,0.9,0c0.4,0.2,0.5,0.2,0.7,0.2
		L148.8,134.8z M146.4,134l-0.4,0.7l0.8,0.5l0.4-0.7c0.1-0.2,0.1-0.5-0.2-0.6C146.8,133.8,146.6,133.7,146.4,134z"/>
	<path d="M149.3,134l-2.5-1.5l1.1-1.9l0.3,0.2l-0.9,1.5l0.7,0.4l0.8-1.4l0.3,0.2l-0.8,1.4l0.8,0.5l0.9-1.5l0.3,0.2L149.3,134z"/>
	<path d="M151.5,130.1l-0.8-0.2l-0.5,0.9l0.6,0.6l-0.2,0.4l-2-2.4l0.2-0.4l3.1,0.6L151.5,130.1z M149.1,129.6l0.8,0.9l0.4-0.7
		L149.1,129.6z"/>
	<path d="M151.9,129.4l-2.5-1.5l0.2-0.4l2.2,1.3l0.7-1.2l0.3,0.2L151.9,129.4z"/>
	<path d="M153.7,126.4l-2.5-1.5l1.1-1.9l0.3,0.2l-0.9,1.5l0.7,0.4l0.8-1.4l0.3,0.2l-0.8,1.4l0.8,0.5l0.9-1.5l0.3,0.2L153.7,126.4z"
		/>
	<path d="M155.6,123.2c-0.5,0.9-1.2,0.6-1.5,0.5l0.2-0.4c0.5,0.2,0.8-0.1,0.9-0.3c0.2-0.3,0.2-0.7-0.1-0.9c-0.3-0.2-0.5,0.1-0.9,0.5
		c-0.4,0.5-0.8,0.7-1.2,0.4c-0.4-0.2-0.6-0.8-0.2-1.4c0.1-0.1,0.4-0.6,0.8-0.6c0.3,0,0.4,0.1,0.5,0.1l-0.2,0.4
		c-0.4-0.2-0.7,0.1-0.8,0.3c-0.1,0.2-0.2,0.6,0.1,0.8c0.2,0.1,0.3,0.1,0.8-0.4c0.5-0.5,0.9-0.7,1.3-0.5
		C155.8,121.9,156,122.5,155.6,123.2z"/>
	<path d="M154.8,119.4l2.2,1.3l-0.2,0.4l-2.2-1.3l-0.5,0.8l-0.3-0.2l1.2-2l0.3,0.2L154.8,119.4z"/>
	<path d="M158.5,118l-0.8-0.2l-0.5,0.9l0.6,0.6l-0.2,0.4l-2-2.4l0.2-0.4l3.1,0.6L158.5,118z M156.1,117.5l0.8,0.9l0.4-0.7
		L156.1,117.5z"/>
	<path d="M157.4,115l2.2,1.3l-0.2,0.4l-2.2-1.3l-0.5,0.8l-0.3-0.2l1.2-2l0.3,0.2L157.4,115z"/>
	<path d="M160.2,115.1l-2.5-1.5l1.1-1.9l0.3,0.2l-0.9,1.5l0.7,0.4l0.8-1.4l0.3,0.2l-0.8,1.4l0.8,0.5l0.9-1.5l0.3,0.2L160.2,115.1z"
		/>
	<path d="M160.7,112.6l-0.4-0.2l0.6-1l0.4,0.2L160.7,112.6z"/>
</g>
<g>
	<path d="M147.3,56.6l-0.4-0.2l0.6-1l0.4,0.2L147.3,56.6z"/>
	<path d="M149.6,54.3c-0.1,0-0.2,0-0.6-0.2c-0.4-0.2-0.6-0.2-0.7,0.1l-0.4,0.7l1,0.6l-0.2,0.4l-2.5-1.5l0.6-1.1
		c0.3-0.5,0.7-0.6,1.1-0.4c0.1,0,0.2,0.1,0.3,0.3c0.1,0.2,0.1,0.3,0.1,0.4c0.2-0.2,0.3-0.3,0.9,0c0.4,0.2,0.5,0.2,0.7,0.2
		L149.6,54.3z M147.2,53.4l-0.4,0.7l0.8,0.5l0.4-0.7c0.1-0.2,0.1-0.5-0.2-0.6C147.7,53.2,147.4,53.1,147.2,53.4z"/>
	<path d="M150.1,53.4l-2.5-1.5l1.1-1.9l0.3,0.2l-0.9,1.5l0.7,0.4l0.8-1.4L150,51l-0.8,1.4l0.8,0.5l0.9-1.5l0.3,0.2L150.1,53.4z"/>
	<path d="M152.4,49.5l-0.8-0.2l-0.5,0.9l0.6,0.6l-0.2,0.4l-2-2.4l0.2-0.4l3.1,0.6L152.4,49.5z M149.9,49l0.8,0.9l0.4-0.7L149.9,49z"
		/>
	<path d="M152.8,48.8l-2.5-1.5l0.2-0.4l2.2,1.3l0.7-1.2l0.3,0.2L152.8,48.8z"/>
	<path d="M154.5,45.8l-2.5-1.5l1.1-1.9l0.3,0.2l-0.9,1.5l0.7,0.4l0.8-1.4l0.3,0.2l-0.8,1.4l0.8,0.5l0.9-1.5l0.3,0.2L154.5,45.8z"/>
	<path d="M156.5,42.6c-0.5,0.9-1.2,0.6-1.5,0.5l0.2-0.4c0.5,0.2,0.8-0.1,0.9-0.3c0.2-0.3,0.2-0.7-0.1-0.9c-0.3-0.2-0.5,0.1-0.9,0.5
		c-0.4,0.5-0.8,0.7-1.2,0.4c-0.4-0.2-0.6-0.8-0.2-1.4c0.1-0.1,0.4-0.6,0.8-0.6c0.3,0,0.4,0.1,0.5,0.1l-0.2,0.4
		c-0.4-0.2-0.7,0.1-0.8,0.3c-0.1,0.2-0.2,0.6,0.1,0.8c0.2,0.1,0.3,0.1,0.8-0.4c0.5-0.5,0.9-0.7,1.3-0.5
		C156.7,41.4,156.9,41.9,156.5,42.6z"/>
	<path d="M155.6,38.9l2.2,1.3l-0.2,0.4l-2.2-1.3l-0.5,0.8l-0.3-0.2l1.2-2l0.3,0.2L155.6,38.9z"/>
	<path d="M159.4,37.4l-0.8-0.2l-0.5,0.9l0.6,0.6l-0.2,0.4l-2-2.4l0.2-0.4l3.1,0.6L159.4,37.4z M156.9,36.9l0.8,0.9l0.4-0.7
		L156.9,36.9z"/>
	<path d="M158.2,34.4l2.2,1.3l-0.2,0.4l-2.2-1.3l-0.5,0.8l-0.3-0.2l1.2-2l0.3,0.2L158.2,34.4z"/>
	<path d="M161,34.5l-2.5-1.5l1.1-1.9l0.3,0.2l-0.9,1.5l0.7,0.4l0.8-1.4l0.3,0.2l-0.8,1.4l0.8,0.5l0.9-1.5l0.3,0.2L161,34.5z"/>
	<path d="M161.5,32l-0.4-0.2l0.6-1l0.4,0.2L161.5,32z"/>
</g>
<g>
	<path d="M6.9,116.3l-0.4-0.2l0.6-1l0.4,0.2L6.9,116.3z"/>
	<path d="M9.6,113.4l-1.7-1l-0.3-0.2l0.2,0.2l1.4,1.6L9,114.5L6.9,114l-0.3-0.1l0.3,0.1l1.7,1l-0.2,0.4L5.9,114l0.3-0.5l2.2,0.5
		l0.3,0.1l-0.2-0.2L7,112.1l0.3-0.5l2.5,1.5L9.6,113.4z"/>
	<path d="M11,110.9l-0.8-0.2l-0.5,0.9l0.6,0.6l-0.2,0.4l-2-2.4l0.2-0.4l3.1,0.6L11,110.9z M8.5,110.4l0.8,0.9l0.4-0.7L8.5,110.4z"/>
	<path d="M12.3,108.6H9.7l2,1.2l-0.2,0.4l-2.5-1.5l0.3-0.4h2.7l-2-1.2l0.2-0.4l2.5,1.5L12.3,108.6z"/>
	<path d="M13.9,106l-0.8-0.2l-0.5,0.9l0.6,0.6l-0.2,0.4l-2-2.4l0.2-0.4l3.1,0.6L13.9,106z M11.4,105.5l0.8,0.9l0.4-0.7L11.4,105.5z"
		/>
	<path d="M15.4,103.4l-0.3-0.1c0.1,0.2,0.2,0.5-0.1,1c-0.5,0.9-1.5,0.6-2,0.3c-0.8-0.5-1.1-1.3-0.6-2c0.3-0.5,0.8-0.8,1.4-0.5
		l-0.2,0.4c-0.5-0.2-0.8,0.2-0.9,0.4c-0.3,0.5-0.1,1,0.6,1.3c0.7,0.4,1.2,0.2,1.4-0.2c0.1-0.1,0.4-0.7-0.4-1.1l-0.5,0.8l-0.3-0.2
		l0.7-1.2l1.4,0.8L15.4,103.4z"/>
	<path d="M15.8,102.6l-2.5-1.5l1.1-1.9l0.3,0.2l-0.9,1.5l0.7,0.4l0.8-1.4l0.3,0.2l-0.8,1.4l0.8,0.5l0.9-1.5l0.3,0.2L15.8,102.6z"/>
	<path d="M18.3,98.3l-1.7-1l-0.3-0.2l0.2,0.2l1.4,1.6l-0.3,0.4l-2.1-0.5l-0.3-0.1l0.3,0.1l1.7,1l-0.2,0.4l-2.5-1.5l0.3-0.5l2.2,0.5
		l0.3,0.1l-0.2-0.2L15.7,97l0.3-0.5l2.5,1.5L18.3,98.3z"/>
	<path d="M18.8,97.3l-2.5-1.5l1.1-1.9l0.3,0.2l-0.9,1.5l0.7,0.4l0.8-1.4l0.3,0.2l-0.8,1.4l0.8,0.5l0.9-1.5l0.3,0.2L18.8,97.3z"/>
	<path d="M21.1,93.4l-2.7,0l2,1.2L20.2,95l-2.5-1.5l0.3-0.4h2.7l-2-1.2l0.2-0.4l2.5,1.5L21.1,93.4z"/>
	<path d="M20.1,90.2l2.2,1.3L22,91.8l-2.2-1.3l-0.5,0.8L19,91.2l1.2-2l0.3,0.2L20.1,90.2z"/>
	<path d="M22.1,90.1l-0.4-0.2l0.6-1l0.4,0.2L22.1,90.1z"/>
</g>
<g>
	<g class="st9">
		<path class="st10" d="M72.7,68.8c0.5-0.2,1.1-0.4,1.8-0.7c0,0,0,0,0,0c0.1,0,0.1,0,0.1,0.1c0,0,0,0,0,0.1c-0.7,0.5-1.3,1-1.9,1.4
			v1.7l0,3.4c0,0.6-0.1,1-0.4,1.2c-0.3,0.2-0.6,0.3-1.2,0.3c-0.1,0-0.2-0.1-0.2-0.3c0-0.3-0.1-0.5-0.4-0.7c-0.2-0.1-0.5-0.3-1.1-0.4
			c0,0-0.1,0-0.1-0.1c0-0.1,0-0.1,0.1-0.1c0.7,0,1.3,0.1,1.7,0.1c0.1,0,0.2,0,0.2,0c0,0,0-0.1,0-0.2v-4c-0.3,0.1-0.6,0.3-1,0.5
			c0,0.4-0.1,0.6-0.3,0.6c-0.1,0-0.2-0.1-0.3-0.3c-0.1-0.2-0.3-0.7-0.6-1.4c0.4-0.1,0.8-0.2,1.3-0.3c0.4-0.1,0.6-0.2,0.8-0.2v-3.2
			h-1c-0.2,0-0.5,0-0.8,0.1l-0.2-0.6c0.3,0.1,0.7,0.1,1,0.1h1v-1.6c0-0.8,0-1.4-0.1-1.8c0.8,0.1,1.3,0.1,1.6,0.2
			c0.2,0.1,0.3,0.2,0.3,0.3c0,0.2-0.2,0.3-0.5,0.4v2.5h0.1c0.4-0.5,0.7-0.8,0.8-0.8c0.1,0,0.3,0.2,0.7,0.6c0.2,0.2,0.3,0.3,0.3,0.4
			s-0.1,0.1-0.2,0.1h-1.7V68.8z M78.7,65.8v2.8h1.3c0.4-0.5,0.6-0.7,0.8-0.7c0.1,0,0.4,0.2,0.9,0.6c0.3,0.2,0.4,0.4,0.4,0.5
			c0,0.1,0,0.2-0.1,0.2c-0.1,0.1-0.3,0.1-0.5,0.2c-0.6,1.4-1.4,2.5-2.3,3.4c1.2,0.8,2.6,1.3,4.3,1.5c0,0,0,0,0,0.1
			c0,0.1,0,0.1-0.1,0.1c-0.3,0.1-0.5,0.3-0.6,0.5c-0.1,0.2-0.3,0.4-0.4,0.8c0,0.1-0.1,0.2-0.2,0.2c-0.1,0-0.3-0.1-0.6-0.2
			c-1.4-0.6-2.5-1.3-3.4-2.1c-1.4,1.1-3.2,1.9-5.2,2.4c-0.1,0-0.1,0-0.1-0.2c0,0,0-0.1,0-0.1c1.8-0.8,3.4-1.7,4.6-2.9
			c-0.8-1-1.4-2.3-1.9-3.9c-0.3,0-0.6,0-0.9,0.1l-0.2-0.6c0.4,0.1,0.7,0.1,1,0.1h1.8v-2.8h-1.5c-0.3,0-0.6,0-1,0.1l-0.2-0.6
			c0.4,0.1,0.8,0.1,1.1,0.1h1.5v-1.7c0-0.3,0-0.8-0.1-1.4c1.3,0.1,1.9,0.3,1.9,0.5c0,0.1-0.2,0.3-0.5,0.4v2.1h2c0.5-0.6,0.9-1,1-1
			c0.1,0,0.4,0.2,0.9,0.7c0.3,0.2,0.4,0.4,0.4,0.5c0,0.1-0.1,0.1-0.2,0.1H78.7z M78.2,72.2c0.8-0.9,1.4-2,1.9-3.2h-4.2
			C76.5,70.3,77.3,71.4,78.2,72.2z"/>
		<path class="st10" d="M86.5,69.7c-0.5,0.4-1,0.8-1.6,1.2c0,0,0,0,0,0c-0.1,0-0.1,0-0.1-0.1c0,0,0,0,0,0c1-1.1,1.7-2.3,2.3-3.5
			c0.3-0.6,0.5-1.1,0.6-1.6c0.8,0.3,1.3,0.6,1.4,0.6c0.1,0.1,0.2,0.1,0.2,0.2c0,0.1-0.2,0.2-0.5,0.3c-0.4,0.7-0.9,1.3-1.3,1.9
			c0.3,0.1,0.5,0.1,0.6,0.2c0.1,0,0.1,0.1,0.1,0.2c0,0.1-0.1,0.2-0.4,0.3v6.3c0,0.4-0.3,0.6-0.8,0.6c-0.4,0-0.6-0.2-0.6-0.6
			c0.1-1.1,0.1-2.4,0.1-4V69.7z M89.4,63.2c0,0.2-0.2,0.3-0.7,0.3c-1,1.4-2.3,2.4-3.7,3.2c0,0,0,0,0,0c-0.1,0-0.1,0-0.1-0.1
			c0,0,0,0,0,0c0.7-0.7,1.3-1.5,1.9-2.6c0.3-0.6,0.6-1.2,0.7-1.7C88.8,62.7,89.4,63,89.4,63.2z M91,68.6c0,0.1,0,0.1-0.1,0.2
			c0,0-0.2,0.1-0.4,0.2c-0.2,1.3-0.5,2.3-0.9,3.2c-0.3,0.8-0.7,1.5-1.2,2.1c0,0,0,0,0,0c0,0,0,0-0.1,0c0,0,0-0.1,0-0.1
			c0.3-0.9,0.5-1.9,0.7-3.1c0.2-1,0.2-1.8,0.2-2.5c0-0.1,0-0.3,0-0.6c0.8,0.1,1.3,0.3,1.5,0.3C90.9,68.4,91,68.5,91,68.6z
			 M92.6,66.3c0,3.8,0,6.9,0.1,9.3c0,0.5-0.3,0.7-0.9,0.7c-0.4,0-0.6-0.2-0.6-0.5c0.1-1.7,0.1-4.1,0.1-7.2v-2.2h-1
			c-0.2,0-0.5,0-0.9,0.1l-0.2-0.6c0.4,0.1,0.7,0.1,1,0.1h1c0-1.9-0.1-3.1-0.1-3.5c1,0.1,1.5,0.2,1.7,0.2c0.1,0,0.2,0.1,0.2,0.2
			c0,0.1,0,0.1-0.1,0.2c-0.1,0-0.2,0.1-0.4,0.2v2.7h0.6c0.4-0.5,0.6-0.7,0.8-0.7c0.1,0,0.4,0.2,0.8,0.5c0.2,0.2,0.3,0.3,0.3,0.4
			c0,0.1-0.1,0.1-0.2,0.1H92.6z M94.7,64.3c0,0.2-0.1,0.4-0.2,0.5c-0.1,0.1-0.3,0.2-0.4,0.2c-0.1,0-0.2,0-0.3-0.1
			c-0.1-0.1-0.1-0.2-0.2-0.4c-0.1-0.4-0.4-0.8-0.7-1.2c0,0,0,0,0,0c0-0.1,0-0.1,0.1-0.1c0,0,0,0,0,0c0.7,0.2,1.1,0.4,1.4,0.6
			C94.6,63.9,94.7,64.1,94.7,64.3z M95.2,72.4c0,0.3-0.1,0.6-0.3,0.8c-0.1,0.2-0.3,0.3-0.6,0.3c-0.2,0-0.4-0.1-0.5-0.4
			c-0.1-0.2-0.1-0.7-0.1-1.3c0-1.1-0.2-2.3-0.7-3.7c0,0,0,0,0,0c0,0,0-0.1,0.1-0.1c0,0,0.1,0,0.1,0C94.5,69.6,95.2,71,95.2,72.4z
			 M97.5,67.5v5l0,2.2c0,0.4,0,0.7-0.1,0.9c-0.1,0.2-0.3,0.4-0.6,0.5c-0.3,0.1-0.5,0.2-0.8,0.2c-0.1,0-0.2,0-0.2-0.1
			c0,0-0.1-0.1-0.1-0.3c0-0.3-0.2-0.5-0.4-0.6c-0.2-0.1-0.5-0.2-1-0.4c0,0-0.1,0-0.1-0.1c0-0.1,0-0.1,0.1-0.1c0.7,0,1.2,0.1,1.6,0.1
			c0.2,0,0.2-0.1,0.2-0.2v-7h-0.7c-0.2,0-0.5,0-0.9,0.1L94.5,67c0.4,0.1,0.7,0.1,1,0.1h1.7c0.4-0.5,0.7-0.8,0.8-0.8
			c0.1,0,0.4,0.2,0.8,0.6c0.2,0.2,0.3,0.3,0.3,0.4c0,0.1-0.1,0.1-0.2,0.1H97.5z M98.9,63.9c0,0.1-0.1,0.2-0.2,0.2H96
			c-0.2,0-0.5,0-0.9,0.1L95,63.6c0.4,0.1,0.7,0.1,1,0.1h0.9c0.4-0.5,0.7-0.8,0.8-0.8c0.1,0,0.4,0.2,0.8,0.6
			C98.8,63.7,98.9,63.8,98.9,63.9z"/>
	</g>
	<g>
		<g>
			<linearGradient id="SVGID_18_" gradientUnits="userSpaceOnUse" x1="69.7462" y1="75.2321" x2="81.2067" y2="63.7717">
				<stop  offset="0" style="stop-color:#FFFFFF"/>
				<stop  offset="0.5169" style="stop-color:#8DD1EB"/>
				<stop  offset="0.5225" style="stop-color:#00A6D7"/>
				<stop  offset="0.7753" style="stop-color:#008AB1"/>
				<stop  offset="0.9888" style="stop-color:#007095"/>
			</linearGradient>
			<path class="st19" d="M72.2,68.3c0.5-0.2,1.1-0.4,1.8-0.7c0,0,0,0,0,0c0.1,0,0.1,0,0.1,0.1c0,0,0,0,0,0.1c-0.7,0.5-1.3,1-1.9,1.4
				v1.7l0,3.4c0,0.6-0.1,1-0.4,1.2c-0.3,0.2-0.6,0.3-1.2,0.3c-0.1,0-0.2-0.1-0.2-0.3c0-0.3-0.1-0.5-0.4-0.7
				c-0.2-0.1-0.5-0.3-1.1-0.4c0,0-0.1,0-0.1-0.1c0-0.1,0-0.1,0.1-0.1c0.7,0,1.3,0.1,1.7,0.1c0.1,0,0.2,0,0.2,0c0,0,0-0.1,0-0.2v-4
				c-0.3,0.1-0.6,0.3-1,0.5c0,0.4-0.1,0.6-0.3,0.6c-0.1,0-0.2-0.1-0.3-0.3c-0.1-0.2-0.3-0.7-0.6-1.4c0.4-0.1,0.8-0.2,1.3-0.3
				c0.4-0.1,0.6-0.2,0.8-0.2v-3.2h-1c-0.2,0-0.5,0-0.8,0.1l-0.2-0.6c0.3,0.1,0.7,0.1,1,0.1h1v-1.6c0-0.8,0-1.4-0.1-1.8
				c0.8,0.1,1.3,0.1,1.6,0.2c0.2,0.1,0.3,0.2,0.3,0.3c0,0.2-0.2,0.3-0.5,0.4v2.5h0.1c0.4-0.5,0.7-0.8,0.8-0.8c0.1,0,0.3,0.2,0.7,0.6
				c0.2,0.2,0.3,0.3,0.3,0.4s-0.1,0.1-0.2,0.1h-1.7V68.3z M78.2,65.3v2.8h1.3c0.4-0.5,0.6-0.7,0.8-0.7c0.1,0,0.4,0.2,0.9,0.6
				c0.3,0.2,0.4,0.4,0.4,0.5c0,0.1,0,0.2-0.1,0.2c-0.1,0.1-0.3,0.1-0.5,0.2c-0.6,1.4-1.4,2.5-2.3,3.4c1.2,0.8,2.6,1.3,4.3,1.5
				c0,0,0,0,0,0.1c0,0.1,0,0.1-0.1,0.1c-0.3,0.1-0.5,0.3-0.6,0.5c-0.1,0.2-0.3,0.4-0.4,0.8c0,0.1-0.1,0.2-0.2,0.2
				c-0.1,0-0.3-0.1-0.6-0.2c-1.4-0.6-2.5-1.3-3.4-2.1c-1.4,1.1-3.2,1.9-5.2,2.4c-0.1,0-0.1,0-0.1-0.2c0,0,0-0.1,0-0.1
				c1.8-0.8,3.4-1.7,4.6-2.9c-0.8-1-1.4-2.3-1.9-3.9c-0.3,0-0.6,0-0.9,0.1L74,68c0.4,0.1,0.7,0.1,1,0.1h1.8v-2.8h-1.5
				c-0.3,0-0.6,0-1,0.1l-0.2-0.6c0.4,0.1,0.8,0.1,1.1,0.1h1.5v-1.7c0-0.3,0-0.8-0.1-1.4c1.3,0.1,1.9,0.3,1.9,0.5
				c0,0.1-0.2,0.3-0.5,0.4V65h2c0.5-0.6,0.9-1,1-1c0.1,0,0.4,0.2,0.9,0.7c0.3,0.2,0.4,0.4,0.4,0.5c0,0.1-0.1,0.1-0.2,0.1H78.2z
				 M77.7,71.7c0.8-0.9,1.4-2,1.9-3.2h-4.2C76,69.8,76.8,70.9,77.7,71.7z"/>
			<linearGradient id="SVGID_19_" gradientUnits="userSpaceOnUse" x1="85.4057" y1="75.0405" x2="97.7493" y2="62.6969">
				<stop  offset="0" style="stop-color:#FFFFFF"/>
				<stop  offset="0.5169" style="stop-color:#8DD1EB"/>
				<stop  offset="0.5225" style="stop-color:#00A6D7"/>
				<stop  offset="0.7753" style="stop-color:#008AB1"/>
				<stop  offset="0.9888" style="stop-color:#007095"/>
			</linearGradient>
			<path class="st20" d="M86,69.2c-0.5,0.4-1,0.8-1.6,1.2c0,0,0,0,0,0c-0.1,0-0.1,0-0.1-0.1c0,0,0,0,0,0c1-1.1,1.7-2.3,2.3-3.5
				c0.3-0.6,0.5-1.1,0.6-1.6c0.8,0.3,1.3,0.6,1.4,0.6c0.1,0.1,0.2,0.1,0.2,0.2c0,0.1-0.2,0.2-0.5,0.3c-0.4,0.7-0.9,1.3-1.3,1.9
				c0.3,0.1,0.5,0.1,0.6,0.2c0.1,0,0.1,0.1,0.1,0.2c0,0.1-0.1,0.2-0.4,0.3v6.3c0,0.4-0.3,0.6-0.8,0.6c-0.4,0-0.6-0.2-0.6-0.6
				c0.1-1.1,0.1-2.4,0.1-4V69.2z M88.9,62.7c0,0.2-0.2,0.3-0.7,0.3c-1,1.4-2.3,2.4-3.7,3.2c0,0,0,0,0,0c-0.1,0-0.1,0-0.1-0.1
				c0,0,0,0,0,0c0.7-0.7,1.3-1.5,1.9-2.6c0.3-0.6,0.6-1.2,0.7-1.7C88.3,62.2,88.9,62.5,88.9,62.7z M90.5,68.1c0,0.1,0,0.1-0.1,0.2
				c0,0-0.2,0.1-0.4,0.2c-0.2,1.3-0.5,2.3-0.9,3.2c-0.3,0.8-0.7,1.5-1.2,2.1c0,0,0,0,0,0c0,0,0,0-0.1,0c0,0,0-0.1,0-0.1
				c0.3-0.9,0.5-1.9,0.7-3.1c0.2-1,0.2-1.8,0.2-2.5c0-0.1,0-0.3,0-0.6c0.8,0.1,1.3,0.3,1.5,0.3C90.4,67.9,90.5,68,90.5,68.1z
				 M92.1,65.8c0,3.8,0,6.9,0.1,9.3c0,0.5-0.3,0.7-0.9,0.7c-0.4,0-0.6-0.2-0.6-0.5c0.1-1.7,0.1-4.1,0.1-7.2v-2.2h-1
				c-0.2,0-0.5,0-0.9,0.1l-0.2-0.6c0.4,0.1,0.7,0.1,1,0.1h1c0-1.9-0.1-3.1-0.1-3.5c1,0.1,1.5,0.2,1.7,0.2c0.1,0,0.2,0.1,0.2,0.2
				c0,0.1,0,0.1-0.1,0.2c-0.1,0-0.2,0.1-0.4,0.2v2.7h0.6c0.4-0.5,0.6-0.7,0.8-0.7c0.1,0,0.4,0.2,0.8,0.5c0.2,0.2,0.3,0.3,0.3,0.4
				c0,0.1-0.1,0.1-0.2,0.1H92.1z M94.2,63.8c0,0.2-0.1,0.4-0.2,0.5c-0.1,0.1-0.3,0.2-0.4,0.2c-0.1,0-0.2,0-0.3-0.1
				c-0.1-0.1-0.1-0.2-0.2-0.4c-0.1-0.4-0.4-0.8-0.7-1.2c0,0,0,0,0,0c0-0.1,0-0.1,0.1-0.1c0,0,0,0,0,0c0.7,0.2,1.1,0.4,1.4,0.6
				C94.1,63.4,94.2,63.6,94.2,63.8z M94.7,71.9c0,0.3-0.1,0.6-0.3,0.8c-0.1,0.2-0.3,0.3-0.6,0.3c-0.2,0-0.4-0.1-0.5-0.4
				c-0.1-0.2-0.1-0.7-0.1-1.3c0-1.1-0.2-2.3-0.7-3.7c0,0,0,0,0,0c0,0,0-0.1,0.1-0.1c0,0,0.1,0,0.1,0C94,69.1,94.7,70.5,94.7,71.9z
				 M97,67v5l0,2.2c0,0.4,0,0.7-0.1,0.9c-0.1,0.2-0.3,0.4-0.6,0.5c-0.3,0.1-0.5,0.2-0.8,0.2c-0.1,0-0.2,0-0.2-0.1
				c0,0-0.1-0.1-0.1-0.3c0-0.3-0.2-0.5-0.4-0.6c-0.2-0.1-0.5-0.2-1-0.4c0,0-0.1,0-0.1-0.1c0-0.1,0-0.1,0.1-0.1
				c0.7,0,1.2,0.1,1.6,0.1c0.2,0,0.2-0.1,0.2-0.2v-7H95c-0.2,0-0.5,0-0.9,0.1L94,66.5c0.4,0.1,0.7,0.1,1,0.1h1.7
				c0.4-0.5,0.7-0.8,0.8-0.8c0.1,0,0.4,0.2,0.8,0.6c0.2,0.2,0.3,0.3,0.3,0.4c0,0.1-0.1,0.1-0.2,0.1H97z M98.4,63.4
				c0,0.1-0.1,0.2-0.2,0.2h-2.6c-0.2,0-0.5,0-0.9,0.1l-0.2-0.6c0.4,0.1,0.7,0.1,1,0.1h0.9c0.4-0.5,0.7-0.8,0.8-0.8
				c0.1,0,0.4,0.2,0.8,0.6C98.3,63.2,98.4,63.3,98.4,63.4z"/>
		</g>
	</g>
</g>
<g>
	<path d="M74.2,56.3v-0.4h1.1v0.4H74.2z"/>
	<path d="M77.5,57.1l-0.3-0.8h-1.1l-0.3,0.8h-0.5l1-2.9h0.5l1,2.9H77.5z M76.7,54.7l-0.4,1.2h0.8L76.7,54.7z"/>
	<path d="M79.4,57.2c-1.1,0-1.2-0.7-1.2-1h0.4c0,0.6,0.5,0.7,0.8,0.7c0.4,0,0.7-0.2,0.7-0.5c0-0.3-0.3-0.4-0.9-0.5
		c-0.6-0.1-1-0.3-1-0.8c0-0.5,0.4-0.9,1.1-0.9c0.2,0,0.7,0,0.9,0.4c0.1,0.2,0.2,0.4,0.2,0.5H80c0-0.5-0.4-0.5-0.7-0.5
		c-0.3,0-0.6,0.1-0.6,0.4c0,0.2,0.1,0.3,0.8,0.5c0.7,0.2,1.1,0.4,1.1,0.9C80.5,56.8,80.2,57.2,79.4,57.2z"/>
	<path d="M82,57.2c-1.1,0-1.2-0.7-1.2-1h0.4c0,0.6,0.5,0.7,0.8,0.7c0.4,0,0.7-0.2,0.7-0.5c0-0.3-0.3-0.4-0.9-0.5
		c-0.6-0.1-1-0.3-1-0.8c0-0.5,0.4-0.9,1.1-0.9c0.2,0,0.7,0,0.9,0.4c0.1,0.2,0.2,0.4,0.2,0.5h-0.4c0-0.5-0.4-0.5-0.7-0.5
		c-0.3,0-0.6,0.1-0.6,0.4c0,0.2,0.1,0.3,0.8,0.5c0.7,0.2,1.1,0.4,1.1,0.9C83.2,56.8,82.9,57.2,82,57.2z"/>
	<path d="M83.7,57.1v-2.9h2.2v0.4h-1.7v0.8h1.6v0.4h-1.6v0.9h1.8v0.4H83.7z"/>
	<path d="M87.5,54.6v2.5h-0.4v-2.5h-1v-0.4h2.4v0.4H87.5z"/>
	<path d="M90,54.6v2.5h-0.4v-2.5h-1v-0.4H91v0.4H90z"/>
	<path d="M91.1,56.3v-0.4h1.1v0.4H91.1z"/>
</g>
<g>
	<path d="M68.3,84v-0.4h1.1V84H68.3z"/>
	<path d="M70.9,82.3v2.5h-0.4v-2.5h-1v-0.4h2.4v0.4H70.9z"/>
	<path d="M72.3,84.8v-2.9h2.2v0.4h-1.7v0.8h1.6v0.4h-1.6v0.9h1.8v0.4H72.3z"/>
	<path d="M76.2,84.9c-0.9,0-1.4-0.7-1.4-1.6c0-1,0.6-1.5,1.4-1.5c0.7,0,1.2,0.4,1.2,1H77c-0.1-0.4-0.5-0.5-0.8-0.5
		c-0.2,0-0.4,0.1-0.6,0.2c-0.3,0.2-0.4,0.6-0.4,0.9c0,0.8,0.5,1.1,0.9,1.1c0.3,0,0.8-0.2,0.8-0.8h0.4C77.4,84,77.3,84.9,76.2,84.9z"
		/>
	<path d="M79.8,84.8v-1.3h-1.4v1.3H78v-2.9h0.4v1.2h1.4v-1.2h0.4v2.9H79.8z"/>
	<path d="M84,84.8l-1.3-2.3v2.3h-0.4v-2.9h0.5l1.3,2.3v-2.3h0.4v2.9H84z"/>
	<path d="M86.5,84.9c-0.8,0-1.4-0.5-1.4-1.6c0-1,0.6-1.6,1.4-1.6c0.8,0,1.4,0.5,1.4,1.6S87.3,84.9,86.5,84.9z M86.5,82.2
		c-0.6,0-0.9,0.5-0.9,1.1c0,0.7,0.3,1.1,0.9,1.1c0.6,0,0.9-0.5,0.9-1.1C87.4,82.7,87.1,82.2,86.5,82.2z"/>
	<path d="M88.3,84.8v-2.9h0.4v2.5h1.4v0.4H88.3z"/>
	<path d="M91.9,84.9c-0.8,0-1.4-0.5-1.4-1.6c0-1,0.6-1.6,1.4-1.6c0.8,0,1.4,0.5,1.4,1.6S92.7,84.9,91.9,84.9z M91.9,82.2
		c-0.6,0-0.9,0.5-0.9,1.1c0,0.7,0.3,1.1,0.9,1.1c0.6,0,0.9-0.5,0.9-1.1C92.8,82.7,92.5,82.2,91.9,82.2z"/>
	<path d="M95.9,84.8l-0.1-0.3c-0.1,0.1-0.4,0.4-1,0.4c-1,0-1.2-1-1.2-1.6c0-1,0.6-1.5,1.4-1.5c0.6,0,1.1,0.3,1.2,1h-0.5
		c-0.1-0.5-0.6-0.6-0.8-0.6c-0.5,0-0.9,0.4-0.9,1.1c0,0.8,0.4,1.1,0.9,1.1c0.1,0,0.8,0,0.8-0.9h-1v-0.4h1.4v1.6H95.9z"/>
	<path d="M98,83.6v1.2h-0.4v-1.2l-1.1-1.7H97l0.8,1.3l0.8-1.3h0.5L98,83.6z"/>
	<path d="M99.2,84v-0.4h1.1V84H99.2z"/>
</g>
</svg>
