<?xml version="1.0" encoding="utf-8"?>
<!-- Generator: Adobe Illustrator 25.2.0, SVG Export Plug-In . SVG Version: 6.00 Build 0)  -->
<svg version="1.1" id="レイヤー_1" xmlns="http://www.w3.org/2000/svg" xmlns:xlink="http://www.w3.org/1999/xlink" x="0px"
	 y="0px" viewBox="0 0 216 24" style="enable-background:new 0 0 216 24;" xml:space="preserve">
<style type="text/css">
	.st0{fill:#273961;}
</style>
<g>
	<path class="st0" d="M26,8.8c-2.9,0.1-5.5,0.3-8,0.7c-0.3,0-0.6,0.1-0.7,0.2c-0.1,0.1-0.2,0.1-0.3,0.1c-0.4,0-0.9-0.3-1.4-0.9
		c-0.3-0.3-0.5-0.7-0.5-1c0-0.2,0.1-0.3,0.2-0.3c0.1,0,0.2,0.1,0.3,0.2c0.4,0.4,0.9,0.6,1.6,0.6c0.6,0,1.2,0,1.8-0.1
		c3.1-0.2,5.1-0.4,6.2-0.5c0.4,0,0.6-0.1,0.7-0.2c0.2-0.2,0.4-0.3,0.6-0.3c0.2,0,0.5,0.2,0.9,0.6c0.5,0.5,0.7,0.8,0.7,1
		c0,0.1-0.1,0.3-0.4,0.4c-0.2,0.1-0.3,0.2-0.3,0.4c-0.1,0.4-0.3,1.4-0.6,2.8c-0.2,1-0.4,1.9-0.5,2.5c0.7,0.2,1,0.5,1,0.8
		c0,0.3-0.1,0.5-0.4,0.5l-1.4-0.1c-0.7,0-1.5,0-2.4,0.1c-1.5,0.1-3.2,0.3-4.9,0.5c-0.3,0-0.5,0.1-0.7,0.2c-0.2,0.1-0.3,0.1-0.5,0.1
		c-0.2,0-0.6-0.3-1.2-0.8c-0.2-0.2-0.4-0.4-0.5-0.7c-0.1-0.2-0.2-0.4-0.2-0.6c0-0.2,0.1-0.3,0.3-0.3c0.1,0,0.2,0.1,0.4,0.3
		c0.5,0.5,1,0.7,1.5,0.7c0.2,0,0.8,0,1.8-0.1c1.8-0.2,3.8-0.4,6-0.6C25.4,12.9,25.7,10.8,26,8.8z"/>
	<path class="st0" d="M35.4,6.9c-0.1-0.1-0.2-0.2-0.2-0.3c0-0.2,0.1-0.2,0.2-0.2c0.1,0,0.2,0,0.4,0c0.8,0.2,1.6,0.5,2.4,1.1
		c0.7,0.6,1.1,1.2,1.1,1.8c0,0.5-0.2,0.8-0.7,0.8c-0.3,0-0.6-0.2-0.8-0.6C37.1,8.4,36.3,7.5,35.4,6.9z M37.1,16.8
		c0.2,0,0.5-0.1,1-0.4c1.8-1.1,3.7-2.5,5.6-4.3c1.8-1.6,3.4-3.4,4.8-5.3c0.1-0.1,0.2-0.2,0.3-0.2c0.2,0,0.3,0.1,0.3,0.2
		c0,0.1,0,0.2-0.1,0.4c-1.2,1.9-2.7,3.8-4.7,5.8c-1.4,1.4-3.2,3-5.5,4.7c-0.3,0.2-0.5,0.4-0.5,0.6c-0.1,0.2-0.3,0.4-0.6,0.4
		c-0.4,0-0.8-0.3-1.4-0.8c-0.6-0.6-0.9-1.1-0.9-1.4c0-0.3,0.1-0.4,0.2-0.4c0.1,0,0.2,0.1,0.3,0.2C36.5,16.6,36.9,16.8,37.1,16.8z"/>
	<path class="st0" d="M61.8,10.5c0.3-0.1,2-0.5,5.1-1.3c0.2-0.1,0.5-0.2,0.6-0.4c0.2-0.2,0.3-0.3,0.5-0.3c0.3,0,0.7,0.3,1.3,0.8
		c0.5,0.4,0.7,0.8,0.7,1c0,0.3-0.2,0.4-0.6,0.5c-0.3,0-0.5,0.2-0.8,0.4c-1.2,1.2-2.5,2.3-4,3.5c-0.1,0.1-0.2,0.1-0.3,0.1
		c-0.1,0-0.2-0.1-0.2-0.3c0-0.1,0.1-0.2,0.2-0.3c1.1-1,2.2-2.3,3.4-3.8c0.1-0.1,0.1-0.2,0.1-0.2c0-0.1,0-0.1-0.1-0.1
		c0,0-0.1,0-0.1,0c-0.6,0.1-2.5,0.6-5.7,1.5l0,2.8c0,1.2,0,2,0.1,2.3c0.1,0.2,0.2,0.4,0.5,0.6c0.3,0.1,0.8,0.2,1.8,0.2
		c0.7,0,1.5-0.1,2.4-0.2c0.9-0.1,1.4-0.2,1.4-0.2c0.4,0,0.7,0.1,0.9,0.2c0.2,0.1,0.3,0.3,0.3,0.6c0,0.3-0.2,0.5-0.7,0.6
		c-0.6,0.1-1.6,0.2-2.9,0.2c-1.3,0-2.2,0-2.7-0.1c-0.5-0.1-0.9-0.2-1.2-0.5c-0.4-0.3-0.6-0.7-0.8-1.2c-0.1-0.4-0.2-1-0.2-1.8
		c0-0.9,0-2,0-3.1c-1.5,0.4-2.7,0.7-3.5,1c-0.4,0.2-0.7,0.3-0.8,0.4c-0.2,0.2-0.4,0.2-0.6,0.2c-0.4,0-0.8-0.2-1.3-0.7
		c-0.5-0.5-0.8-0.9-0.8-1.3c0-0.2,0.1-0.3,0.2-0.3c0.1,0,0.2,0.1,0.3,0.2c0.4,0.4,0.8,0.6,1.1,0.6c0.3,0,0.8-0.1,1.5-0.2
		c0.6-0.1,1.9-0.4,3.8-0.9l0-3.5c0-0.4-0.1-0.6-0.3-0.8c-0.2-0.1-0.5-0.2-0.9-0.3c-0.2,0-0.3-0.1-0.3-0.2c0-0.1,0.1-0.2,0.2-0.3
		c0.1-0.1,0.4-0.1,0.7-0.1c0.5,0,1.1,0.2,1.8,0.5c0.4,0.2,0.6,0.4,0.6,0.7c0,0.2-0.1,0.3-0.3,0.6C62,7.3,62,7.6,61.9,7.9
		C61.9,8.5,61.9,9.4,61.8,10.5z"/>
	<path class="st0" d="M79.4,7.2c0.3,0,1,0,2-0.1c0.9-0.1,2.1-0.2,3.5-0.3c1.8-0.2,2.8-0.3,3.1-0.3c0.3,0,0.5-0.1,0.7-0.2
		C88.9,6,89,5.9,89.2,5.9c0.2,0,0.6,0.2,1.1,0.6c0.4,0.4,0.7,0.7,0.7,0.9c0,0.2-0.2,0.4-0.5,0.5c-0.3,0.1-0.5,0.3-0.6,0.6
		c-1.4,2.9-3,5.2-4.7,7c-1.7,1.7-3.6,3-5.9,4c-0.2,0.1-0.4,0.1-0.6,0.1c-0.2,0-0.3-0.1-0.3-0.3c0-0.1,0.1-0.2,0.3-0.3
		c4.3-2.2,7.7-6,10-11.4c0-0.1,0.1-0.2,0.1-0.2c0-0.1-0.1-0.1-0.2-0.1c0,0-0.3,0-0.8,0.1c-2.6,0.3-4.9,0.6-6.8,0.9
		c-0.5,0.1-0.9,0.2-1,0.3c-0.2,0.1-0.4,0.2-0.6,0.2c-0.5,0-0.9-0.4-1.4-1.1c-0.3-0.5-0.5-0.8-0.5-1.2c0-0.2,0.1-0.3,0.2-0.3
		c0.1,0,0.2,0.1,0.3,0.2c0.3,0.4,0.6,0.6,0.8,0.7C78.8,7.1,79.1,7.2,79.4,7.2z M92.5,2.5c0.6,0,1,0.2,1.4,0.6
		c0.3,0.4,0.5,0.8,0.5,1.3c0,0.6-0.2,1-0.6,1.4c-0.4,0.3-0.8,0.5-1.3,0.5c-0.6,0-1-0.2-1.4-0.6c-0.3-0.4-0.5-0.8-0.5-1.3
		c0-0.6,0.2-1,0.6-1.4C91.6,2.7,92,2.5,92.5,2.5z M92.5,3.2c-0.4,0-0.6,0.1-0.9,0.4c-0.2,0.2-0.3,0.5-0.3,0.8c0,0.4,0.1,0.6,0.4,0.9
		c0.2,0.2,0.5,0.3,0.8,0.3c0.4,0,0.6-0.1,0.9-0.4c0.2-0.2,0.3-0.5,0.3-0.8c0-0.4-0.1-0.6-0.4-0.9C93.1,3.3,92.8,3.2,92.5,3.2z"/>
	<path class="st0" d="M102.3,10c1.3,0.1,2.4,0.4,3.4,0.8c1.5,0.6,2.2,1.2,2.2,2c0,0.3-0.1,0.5-0.2,0.6c-0.1,0.1-0.3,0.2-0.4,0.2
		c-0.3,0-0.6-0.2-0.8-0.5c-0.4-0.5-1.1-1-1.9-1.5c-0.7-0.4-1.4-0.7-2.2-0.9c0,1.7,0,3,0,3.7l0,5.1c0,0.6-0.2,0.9-0.6,0.9
		c-0.2,0-0.4-0.1-0.6-0.4c-0.3-0.4-0.5-0.9-0.5-1.3c0-0.2,0.1-0.4,0.2-0.6c0.1-0.2,0.2-0.6,0.2-1.2c0-1.3,0.1-2.7,0.1-4.2
		c0-1.4,0-3.5,0-6.2c0-0.7,0-1.2-0.1-1.3c-0.1-0.3-0.5-0.6-1.2-0.9c-0.2-0.1-0.2-0.1-0.2-0.3c0-0.1,0.1-0.2,0.2-0.2
		c0.1-0.1,0.2-0.1,0.3-0.1c0.6,0,1.2,0.2,1.8,0.5c0.6,0.3,0.9,0.7,0.9,1c0,0.2-0.1,0.4-0.4,0.7c-0.1,0.1-0.1,0.3-0.1,0.8
		C102.4,7.5,102.3,8.6,102.3,10z"/>
	<path class="st0" d="M121.7,1.6v0.8h-6v17.1h-0.9V1.6H121.7z"/>
	<path class="st0" d="M134.5,11.4V7.1h-4.4c-0.9,1.4-2,2.5-3.3,3.3c0,0,0,0-0.1,0c-0.1,0-0.2-0.1-0.2-0.2c0,0,0,0,0-0.1
		c1.3-1.4,2.3-3,3-4.9c0.3-0.8,0.5-1.5,0.6-2.3c1.3,0.3,2,0.6,2,0.8c0,0.2-0.3,0.3-0.8,0.4c-0.3,0.7-0.6,1.5-1.1,2.3h4.1V5.4
		c0-1.5,0-2.6-0.1-3.1c1,0.1,1.6,0.2,1.9,0.3c0.2,0.1,0.3,0.2,0.3,0.3c0,0.2-0.2,0.4-0.7,0.6v3.1h4.2c0.6-0.7,1-1.1,1.1-1.1
		c0.1,0,0.5,0.3,1.2,0.8c0.3,0.3,0.5,0.5,0.5,0.6c0,0.1-0.1,0.2-0.3,0.2h-6.7v4.3h5.9c0.7-0.8,1.1-1.2,1.2-1.2
		c0.1,0,0.5,0.3,1.3,0.9c0.4,0.3,0.6,0.5,0.6,0.7c0,0.1-0.1,0.2-0.3,0.2h-6.7v6.9c0,0.4,0.2,0.7,0.5,0.8c0.3,0.1,1,0.2,2.1,0.2
		c1.3,0,2.1-0.1,2.4-0.3c0.3-0.3,0.7-1.2,1.1-2.9c0,0,0.1-0.1,0.1-0.1c0.1,0,0.1,0,0.1,0.1c0,1,0,1.6,0,1.8c0,0.1,0,0.2,0,0.3
		c0,0.3,0.1,0.5,0.4,0.6c0.2,0.1,0.3,0.2,0.3,0.5c0,0.5-0.4,0.8-1.1,0.9c-0.6,0.2-1.7,0.3-3.3,0.3c-1.7,0-2.8-0.2-3.3-0.5
		c-0.4-0.3-0.7-0.8-0.7-1.5l0-2.5v-4.6h-3.3c-0.1,2.3-0.5,4.1-1.3,5.4c-1.1,2-3.2,3.4-6.3,4.2c-0.1,0-0.2-0.1-0.2-0.2
		c0,0,0-0.1,0.1-0.1c1.5-0.6,2.7-1.3,3.6-2.1c0.8-0.7,1.4-1.6,1.8-2.5c0.5-1.1,0.8-2.7,0.8-4.6h-4.2c-0.6,0-1.1,0-1.5,0.1l-0.2-0.8
		c0.6,0.1,1.2,0.1,1.7,0.1H134.5z"/>
	<path class="st0" d="M168.6,19.2c0.1,0,0.1,0,0.1,0.1c0,0.1,0,0.1-0.1,0.2c-0.3,0.1-0.5,0.2-0.5,0.4c-0.1,0.1-0.1,0.3-0.1,0.5
		c0,0.2-0.1,0.3-0.1,0.4c0,0-0.1,0.1-0.3,0.1c-1.7,0.1-3.8,0.1-6.2,0.1c-3,0-5.1-0.4-6.3-1.1c-0.9-0.6-1.7-1.5-2.2-2.8
		c-0.6,0.9-1.4,1.9-2.4,2.9c0,0.6-0.1,1-0.3,1c-0.2,0-0.6-0.7-1.3-2c0.3-0.1,0.7-0.2,1.2-0.5c0.7-0.3,1.4-0.8,2-1.3v-5.6h-1.3
		c-0.6,0-1.1,0-1.6,0.1l-0.2-0.8c0.6,0.1,1.2,0.1,1.8,0.1h1.2c0.5-0.5,0.7-0.7,0.8-0.7c0.1,0,0.4,0.2,0.8,0.6
		c0.3,0.2,0.4,0.4,0.4,0.5c0,0.1-0.2,0.3-0.6,0.6v5.1c0.6,1,1.3,1.6,2.1,2c1.1,0.4,2.9,0.7,5.3,0.7
		C163.5,19.7,166.1,19.5,168.6,19.2z M150.1,3C150.1,3,150.1,2.9,150.1,3c0-0.1,0-0.2,0.1-0.2c0,0,0,0,0,0c1,0.4,1.8,0.9,2.5,1.5
		c0.5,0.5,0.8,1,0.8,1.4c0,0.7-0.3,1.1-0.9,1.1c-0.3,0-0.5-0.3-0.7-0.9C151.6,4.8,151,3.8,150.1,3z M157.7,17.2v0.7
		c0,0.4-0.3,0.5-0.8,0.5c-0.4,0-0.6-0.2-0.6-0.5c0,0,0-0.6,0-1.9c0-1.4,0.1-3.1,0.1-5l0-3.2c-0.7,0.8-1.5,1.6-2.3,2.2c0,0,0,0-0.1,0
		c-0.1,0-0.2-0.1-0.2-0.2c0,0,0,0,0-0.1c1.6-1.7,2.8-3.7,3.7-5.8c0.3-0.8,0.5-1.5,0.5-1.9c1.3,0.4,1.9,0.7,1.9,0.9
		c0,0.2-0.3,0.4-0.8,0.4c-0.5,1.1-1,2-1.6,2.8h3.6c0.4-0.8,0.7-1.7,1-2.5c0.2-0.6,0.3-1.1,0.3-1.4c1.3,0.4,2,0.7,2,0.9
		c0,0.2-0.3,0.4-0.8,0.4c-0.6,1-1.2,1.9-1.9,2.6h3.8c0.5-0.7,0.9-1,1-1c0.1,0,0.5,0.3,1.1,0.8c0.3,0.3,0.5,0.4,0.5,0.6
		c0,0.1-0.1,0.2-0.3,0.2h-5.3v2.8h2.5c0.5-0.6,0.8-1,0.9-1c0.1,0,0.5,0.3,1.1,0.8c0.3,0.2,0.4,0.4,0.4,0.5c0,0.1-0.1,0.2-0.3,0.2
		h-4.7V13h2.5c0.5-0.6,0.8-1,0.9-1c0.1,0,0.5,0.3,1.1,0.8c0.3,0.2,0.4,0.4,0.4,0.5c0,0.1-0.1,0.2-0.3,0.2h-4.7v3.2h3.1
		c0.6-0.7,0.9-1.1,1-1.1s0.5,0.3,1.2,0.8c0.3,0.2,0.5,0.4,0.5,0.6c0,0.1-0.1,0.2-0.3,0.2H157.7z M157.7,9.6h3.6V6.8h-3.6V9.6z
		 M157.7,13h3.6v-2.8h-3.6V13z M157.7,13.5v3.2h3.6v-3.2H157.7z"/>
	<path class="st0" d="M175.4,6.6c0.3-0.8,0.5-1.7,0.7-2.7c0.1-0.7,0.2-1.2,0.2-1.5c0.9,0.2,1.5,0.4,1.7,0.5c0.2,0.1,0.3,0.2,0.3,0.3
		c0,0.2-0.3,0.3-0.8,0.5c-0.5,1.1-1.1,2-1.7,2.9h2.4c0.4-0.5,0.7-0.7,0.8-0.7c0.1,0,0.4,0.2,0.9,0.6c0.2,0.2,0.4,0.4,0.4,0.5
		c0,0.1-0.2,0.3-0.6,0.6v3.8l0.1,7.9c0,0.4-0.3,0.6-0.8,0.6c-0.4,0-0.6-0.2-0.6-0.5v-0.9h-3.9v1.4c0,0.4-0.3,0.6-0.8,0.6
		c-0.4,0-0.5-0.2-0.5-0.5l0.1-7.7c0-3.2,0-5.4-0.1-6.4c0.6,0.3,1.1,0.5,1.6,0.8H175.4z M178.5,11.8V7.1h-3.9v4.7H178.5z M178.5,17.9
		v-5.5h-3.9v5.5H178.5z M183.6,6.6h5.6c0.4-0.5,0.7-0.8,0.8-0.8c0.1,0,0.4,0.2,0.9,0.7c0.2,0.2,0.3,0.4,0.3,0.5
		c0,0.1-0.2,0.3-0.6,0.5c-0.1,4.8-0.4,8.3-1,10.4c-0.4,1.3-0.8,2.3-1.2,2.7c-0.4,0.4-0.9,0.6-1.5,0.6c-0.2,0-0.3,0-0.4-0.1
		c0,0-0.1-0.1-0.1-0.2c0-0.3-0.2-0.5-0.6-0.7c-0.4-0.2-1-0.4-1.9-0.6c0,0-0.1-0.1-0.1-0.1c0-0.1,0-0.2,0.1-0.2
		c1.4,0.2,2.3,0.2,2.8,0.2c0.4,0,0.7-0.2,0.9-0.6c0.2-0.3,0.4-0.8,0.6-1.6c0.5-2.2,0.9-5.6,0.9-10.3h-6c-0.8,1.6-1.8,2.9-2.9,4.1
		c0,0,0,0-0.1,0c-0.1,0-0.2-0.1-0.2-0.2c0,0,0,0,0,0c0.7-0.9,1.3-2.1,1.8-3.4c0.5-1.1,0.8-2.2,1.1-3.3c0.2-0.7,0.3-1.4,0.4-2
		c0.9,0.2,1.5,0.4,1.7,0.5c0.2,0.1,0.3,0.2,0.3,0.3c0,0.2-0.3,0.3-0.8,0.5C184.4,4.6,184,5.6,183.6,6.6z M182.9,10.2
		C182.9,10.2,182.9,10.2,182.9,10.2c0-0.2,0-0.2,0.1-0.2c0,0,0,0,0.1,0c1.1,0.5,1.9,1.1,2.5,1.9c0.5,0.6,0.7,1.2,0.7,1.7
		c0,0.4-0.1,0.7-0.3,0.9c-0.1,0.2-0.3,0.2-0.5,0.2c-0.4,0-0.6-0.3-0.7-0.8C184.4,12.4,183.8,11.2,182.9,10.2z"/>
	<path class="st0" d="M195.6,22v-0.8h6V4.1h0.9V22H195.6z"/>
</g>
</svg>
