<?xml version="1.0" encoding="utf-8"?>
<!-- Generator: Adobe Illustrator 25.2.0, SVG Export Plug-In . SVG Version: 6.00 Build 0)  -->
<svg version="1.1" id="レイヤー_1" xmlns="http://www.w3.org/2000/svg" xmlns:xlink="http://www.w3.org/1999/xlink" x="0px"
	 y="0px" viewBox="0 0 188.2 24" style="enable-background:new 0 0 188.2 24;" xml:space="preserve">
<style type="text/css">
	.st0{fill:#273961;}
</style>
<g>
	<path class="st0" d="M20.2,7.8c3.1-0.2,5.9-0.4,8.3-0.6c0.5,0,0.8-0.1,1-0.3c0.3-0.3,0.6-0.4,0.7-0.4c0.3,0,0.7,0.2,1.1,0.5
		c0.6,0.4,0.8,0.8,0.8,1c0,0.2-0.1,0.4-0.4,0.6c-0.3,0.2-0.4,0.5-0.5,0.9c-0.2,1.2-0.7,3.4-1.5,6.5c0.4,0.1,0.8,0.2,1.1,0.3
		c0.2,0.1,0.3,0.3,0.3,0.5c0,0.3-0.1,0.5-0.4,0.5c-0.1,0-0.4,0-1,0c-3.5,0-6.6,0.1-9.2,0.4c0,0.3,0,0.5,0,0.6c0,0.7-0.2,1-0.6,1
		c-0.5,0-0.8-0.4-0.8-1.2c-0.2-4.2-0.4-7.2-0.5-9c0-0.5-0.1-0.9-0.3-1.2c-0.2-0.3-0.4-0.5-0.8-0.8c-0.2-0.1-0.2-0.2-0.2-0.3
		c0-0.2,0.2-0.3,0.6-0.3c0.2,0,0.6,0.1,1.1,0.4C19.4,7.2,19.8,7.5,20.2,7.8z M28.5,16.2c0.5-3.1,0.9-5.5,1.1-7.3c0-0.3,0-0.4,0-0.5
		c0-0.1-0.1-0.1-0.2-0.1H29c-2.1,0-5,0.3-8.8,0.6c0.1,2.1,0.2,4.7,0.3,7.8C22.3,16.5,25,16.4,28.5,16.2z"/>
	<path class="st0" d="M54.8,9c-3.4,0.1-6.5,0.4-9.4,0.8c-0.4,0.1-0.7,0.1-0.9,0.3c-0.1,0.1-0.3,0.1-0.4,0.1c-0.5,0-1-0.4-1.7-1.1
		c-0.4-0.4-0.6-0.8-0.6-1.2c0-0.3,0.1-0.4,0.2-0.4c0.1,0,0.2,0.1,0.4,0.3c0.5,0.5,1.1,0.7,1.8,0.7c0.7,0,1.4,0,2.1-0.1
		c3.5-0.3,5.9-0.5,7.4-0.6c0.4,0,0.7-0.1,0.9-0.3c0.3-0.3,0.5-0.4,0.7-0.4c0.3,0,0.6,0.2,1.1,0.7c0.5,0.5,0.8,1,0.8,1.2
		c0,0.2-0.2,0.3-0.5,0.5c-0.2,0.1-0.4,0.3-0.4,0.5c-0.1,0.5-0.3,1.6-0.7,3.3c-0.3,1.2-0.5,2.2-0.6,3c0.8,0.3,1.2,0.6,1.2,1
		c0,0.4-0.2,0.6-0.5,0.6l-1.6-0.1c-0.8,0-1.8,0-2.8,0.1c-1.8,0.1-3.8,0.3-5.8,0.6c-0.4,0-0.6,0.1-0.8,0.2c-0.2,0.1-0.4,0.2-0.6,0.2
		c-0.3,0-0.7-0.3-1.4-0.9c-0.2-0.2-0.5-0.5-0.6-0.8c-0.1-0.3-0.2-0.5-0.2-0.7c0-0.2,0.1-0.3,0.3-0.3c0.1,0,0.2,0.1,0.4,0.3
		c0.6,0.6,1.2,0.8,1.8,0.8c0.3,0,1,0,2.2-0.1c2.4-0.2,4.8-0.4,7.1-0.7C54.1,13.8,54.5,11.4,54.8,9z M56.3,4.2c0.1,0,0.2,0,0.3,0
		c0.8,0.3,1.4,0.6,1.9,1c0.7,0.6,1.1,1.1,1.1,1.7c0,0.5-0.2,0.7-0.6,0.7c-0.3,0-0.6-0.3-0.8-0.8c-0.4-0.7-1-1.4-1.9-2.1
		c-0.1-0.1-0.1-0.2-0.1-0.2C56.1,4.3,56.2,4.2,56.3,4.2z M58.5,2.6c0.1,0,0.2,0,0.4,0.1c0.6,0.2,1.2,0.4,1.8,0.8
		c0.8,0.5,1.1,1.1,1.1,1.6c0,0.2-0.1,0.4-0.2,0.5c-0.1,0.1-0.2,0.2-0.4,0.2c-0.3,0-0.6-0.2-0.8-0.7c-0.4-0.8-1.1-1.5-2.1-2
		c-0.1,0-0.1-0.1-0.1-0.3C58.2,2.7,58.3,2.6,58.5,2.6z"/>
	<path class="st0" d="M73.5,9.3c0.8-0.5,1.6-0.8,2.3-0.8c0.6,0,1.4,0.3,2.4,0.9c2.3,1.5,3.9,2.5,4.9,3.1c1.3,0.7,3,1.5,5.1,2.4
		c0.4,0.2,0.7,0.5,0.7,0.9c0,0.2-0.1,0.5-0.3,0.6c-0.2,0.2-0.4,0.2-0.6,0.2c-0.3,0-0.7-0.1-1.3-0.4c-1.8-0.9-3.3-1.7-4.5-2.5
		c-1.8-1.2-3.4-2.4-4.8-3.5c-0.6-0.5-1.1-0.8-1.7-0.8c-0.5,0-1.1,0.2-1.7,0.7c-0.8,0.7-1.7,1.5-2.6,2.5c-0.3,0.3-0.5,0.6-0.8,1.1
		c-0.2,0.3-0.4,0.5-0.8,0.5c-0.3,0-0.6-0.1-1.1-0.4c-0.4-0.2-0.7-0.5-1-0.9c-0.3-0.4-0.5-0.8-0.5-1.2c0-0.2,0.1-0.3,0.2-0.3
		c0.1,0,0.2,0.1,0.3,0.2c0.4,0.5,0.8,0.7,1.2,0.7c0.2,0,0.5-0.1,0.9-0.4c0.3-0.2,0.9-0.7,1.9-1.4C72.6,9.9,73.2,9.5,73.5,9.3z"/>
	<path class="st0" d="M105.8,5.9c0.3,0.5,0.5,1.2,0.5,1.9c0,0.6-0.2,1.5-0.5,2.5c-0.9,2.5-2.1,4.8-3.7,6.8c-0.9,1.1-1.8,1.7-2.5,1.7
		c-0.8,0-1.5-0.4-2-1.3c-0.6-0.9-0.9-2.1-0.9-3.4c0-2.5,0.9-4.6,2.8-6.3c2-1.8,4.4-2.8,7.4-2.8c2.7,0,4.9,0.8,6.6,2.5
		c1.4,1.5,2.1,3.3,2.1,5.4c0,2.7-1.3,4.8-3.9,6.3c-2,1.2-4.3,1.8-6.9,2c0,0,0,0-0.1,0c-0.2,0-0.4-0.1-0.4-0.3c0-0.2,0.1-0.3,0.4-0.4
		c2.7-0.5,4.9-1.4,6.5-2.7c1.8-1.4,2.6-3.2,2.6-5.4c0-2-0.7-3.7-2.2-4.9c-1.2-1-2.7-1.6-4.6-1.7c-0.2,0-0.4,0-0.7,0
		C106.2,5.9,106,5.9,105.8,5.9z M105,6c-2.1,0.3-3.8,1.2-5.1,2.6c-1.4,1.4-2.1,3.1-2.1,5c0,0.9,0.2,1.8,0.6,2.6
		c0.3,0.6,0.7,0.9,1.2,0.9c0.4,0,1-0.5,1.8-1.5c1.6-2.1,2.7-4.3,3.5-6.7c0.2-0.7,0.4-1.3,0.4-1.8C105.3,6.5,105.2,6.2,105,6z"/>
	<path class="st0" d="M128.6,6v1.3c2.3,0.8,3.5,1.8,3.5,2.9c0,0.6-0.2,0.9-0.7,0.9c-0.3,0-0.6-0.2-0.8-0.7c-0.5-1.1-1.1-2-2-2.6v7.1
		c0,0.5-0.3,0.7-1,0.7c-0.4,0-0.6-0.2-0.6-0.5c0-0.5,0.1-2.8,0.2-6.7c-1.1,2-2.8,3.8-4.9,5.4c0,0,0,0-0.1,0c-0.1,0-0.2-0.1-0.2-0.2
		c0,0,0,0,0-0.1c2-2,3.6-4.5,4.8-7.5h-2.5c-0.5,0-1,0-1.6,0.1l-0.2-0.9c0.6,0.1,1.2,0.1,1.8,0.1h2.8V4.7c0-2,0-3.3-0.1-3.8
		c1,0.1,1.7,0.2,2,0.3c0.3,0.1,0.4,0.2,0.4,0.3c0,0.2-0.3,0.5-0.8,0.7v3.2h1.7c0.6-0.7,1-1.1,1.1-1.1c0.1,0,0.6,0.3,1.3,0.9
		c0.3,0.2,0.5,0.4,0.5,0.6c0,0.2-0.1,0.2-0.3,0.2H128.6z M126.1,17.3c0-0.1,0.1-0.1,0.1-0.1c0.1,0,0.2,0,0.2,0.1c0,0.3,0,0.6,0,0.7
		c0,1.3-0.3,2.3-0.9,3.2c-0.5,0.7-1,1.1-1.6,1.1c-0.3,0-0.5-0.1-0.7-0.3c-0.1-0.2-0.2-0.4-0.2-0.6c0-0.4,0.3-0.8,0.8-1
		C125.1,19.9,125.8,18.8,126.1,17.3z M139,18.7c0-0.1,0.1-0.1,0.1-0.1c0.1,0,0.2,0,0.2,0.1c0,0.5,0,1.2,0,1.8c0,0.2,0,0.4,0.1,0.5
		c0,0.1,0.2,0.1,0.4,0.2c0.2,0.1,0.3,0.3,0.3,0.6c0,0.5-0.4,0.8-1.2,1c-0.9,0.2-2.8,0.3-5.7,0.3c-1.9,0-3-0.2-3.6-0.5
		c-0.5-0.3-0.7-1-0.7-1.9l0-1.9c0-1,0-1.8-0.1-2.5c1.1,0.1,1.8,0.2,2.1,0.3c0.2,0.1,0.4,0.2,0.4,0.3c0,0.2-0.3,0.4-0.8,0.7v2.8
		c0,0.4,0.1,0.7,0.2,0.8c0.1,0.2,0.4,0.3,0.9,0.4c0.4,0,1.1,0.1,2.2,0.1c1.5,0,2.5,0,2.9,0c0.5,0,0.8-0.1,1.1-0.3
		c0.3-0.2,0.5-0.4,0.7-0.8C138.5,20.3,138.8,19.7,139,18.7z M132.7,16.4C132.7,16.4,132.6,16.4,132.7,16.4c0-0.2,0-0.3,0.2-0.3
		c1.1,0.2,2,0.6,2.6,1.2c0.6,0.5,0.8,1,0.8,1.5c0,0.6-0.3,0.9-0.8,0.9c-0.4,0-0.7-0.3-0.9-0.8C134.3,17.9,133.6,17.1,132.7,16.4z
		 M141.5,14.4h-6.4v0.3c0,0.4-0.3,0.6-0.9,0.6c-0.4,0-0.6-0.2-0.6-0.5l0.1-7.5c0-3,0-4.9-0.1-5.8c0.6,0.2,1.2,0.5,1.8,0.9h6
		c0.5-0.5,0.8-0.8,0.9-0.8s0.5,0.2,1,0.6c0.3,0.2,0.4,0.4,0.4,0.6s-0.2,0.4-0.6,0.7v3.6l0.1,7.8c0,0.4-0.3,0.7-1,0.7
		c-0.4,0-0.6-0.2-0.6-0.5V14.4z M141.5,6.1V3h-6.4v3.1H141.5z M141.5,9.8V6.7h-6.4v3.1H141.5z M141.5,13.8v-3.3h-6.4v3.3H141.5z
		 M140.6,17.6C140.6,17.5,140.6,17.5,140.6,17.6c0-0.2,0-0.3,0.2-0.3c0,0,0,0,0,0c1.3,0.4,2.3,1,3,1.8c0.6,0.6,0.9,1.3,0.9,1.9
		c0,0.3-0.1,0.6-0.3,0.8c-0.2,0.2-0.4,0.2-0.6,0.2c-0.2,0-0.4-0.1-0.5-0.3c-0.1-0.2-0.3-0.4-0.4-0.9
		C142.4,19.8,141.7,18.6,140.6,17.6z"/>
	<path class="st0" d="M157.1,20.3c-0.5,0-1-0.3-1.7-1c-1.1-1.1-1.8-2.5-2.2-4.2c-0.3-1.3-0.4-2.9-0.4-4.9l0-2.1c0-0.6-0.1-1-0.2-1.4
		c-0.2-0.3-0.4-0.7-0.9-1.1c-0.2-0.1-0.2-0.3-0.2-0.3c0-0.1,0.1-0.2,0.4-0.2c0.4,0,0.9,0.3,1.5,0.8c0.8,0.7,1.2,1.3,1.2,1.9
		c0,0.3-0.1,0.6-0.2,1.1c-0.2,0.6-0.3,1.6-0.3,3c0,1.9,0.2,3.4,0.7,4.4c0.4,0.9,0.9,1.4,1.3,1.4c0.2,0,0.4-0.1,0.5-0.4
		c0.7-1.3,1.6-2.8,2.8-4.6c0.1-0.2,0.3-0.3,0.4-0.3c0.2,0,0.3,0.1,0.3,0.3c0,0.1,0,0.2-0.1,0.4c-0.9,1.5-1.5,3-2,4.3
		c-0.2,0.5-0.3,0.8-0.3,0.9c0,0.2,0,0.4,0.1,0.6c0.1,0.2,0.2,0.5,0.2,0.8C157.9,20.1,157.6,20.3,157.1,20.3z M165,8.1
		c0-0.1,0.1-0.2,0.3-0.2c0.1,0,0.2,0,0.2,0.1c1.7,0.7,3,1.7,4.1,3.1c0.9,1.3,1.4,2.6,1.4,3.9c0,1.1-0.3,1.7-1,1.7
		c-0.3,0-0.5-0.1-0.7-0.3c-0.2-0.3-0.5-0.5-0.8-0.6c-0.3-0.1-0.9-0.2-1.7-0.3c-0.2,0-0.3-0.1-0.3-0.3c0-0.1,0.1-0.2,0.4-0.2
		c1-0.1,1.6-0.2,1.9-0.2c0.3,0,0.4-0.2,0.4-0.5c0-0.9-0.4-2-1.3-3.2c-0.8-1.1-1.7-1.9-2.7-2.5C165.1,8.4,165,8.2,165,8.1z"/>
</g>
</svg>
