<?xml version="1.0" encoding="utf-8"?>
<!-- Generator: Adobe Illustrator 25.1.0, SVG Export Plug-In . SVG Version: 6.00 Build 0)  -->
<svg version="1.1" id="レイヤー_1" xmlns="http://www.w3.org/2000/svg" xmlns:xlink="http://www.w3.org/1999/xlink" x="0px"
	 y="0px" viewBox="0 0 61 59" style="enable-background:new 0 0 61 59;" xml:space="preserve">
<style type="text/css">
	.st0{opacity:0.75;}
	.st1{fill:#E5E5E5;}
	.st2{fill:#E8F9FF;}
</style>
<g>
	<g class="st0">
		<path class="st1" d="M33.3,27.4l-5.5-1.7c9.4,0,4.1-22.1-4.9-22.1h-2.5c-10.5,0-13.8,22.1-4.9,22.1l-5.5,1.7
			c-3.9,1.1-6.2,18-6.2,18c0,0,0,0.1,0,0.2c0,0.8,0.7,1.5,1.5,1.5h32.9c0.8,0,1.5-0.7,1.5-1.5c0-0.1,0-0.1,0-0.2
			C39.5,45.4,37.2,28.5,33.3,27.4L33.3,27.4z M18,26.5c0.2-0.1,0.4-0.1,0.5,0c0.6,0.3,1.1,0.4,1.7,0.4H23c0.5,0,1.1-0.1,1.7-0.4
			c0.2-0.1,0.4-0.1,0.5,0c0.2,0.1,0.2,0.3,0.2,0.5L25,29.9c0,0.1,0,0.1,0,0.2l-2.9,6.3c-0.1,0.2-0.3,0.3-0.5,0.3
			c-0.2,0-0.4-0.1-0.4-0.3l-2.9-6.3c0,0,0-0.1,0-0.2L17.8,27C17.8,26.8,17.9,26.6,18,26.5L18,26.5z M15,17c-0.1-0.1-0.2-0.3-0.2-0.4
			v-0.8c0-0.3,0.2-0.5,0.5-0.5h0.2v-1.7c0-0.2,0.1-0.3,0.2-0.4c0.1-0.1,0.3-0.1,0.5,0c0.8,0.4,1.8,0.4,2.5,0.4c0.5,0,1,0,1.4,0
			c0.1,0,0.3,0,0.4,0c0.2,0,0.3,0,0.5,0c2,0,3.8,0.5,5,0.9c0.6,0.2,1,0.3,1.3,0.4c0.2,0,0.4,0.2,0.4,0.5v0h0.2
			c0.3,0,0.5,0.2,0.5,0.5v0.8c0,0.2-0.1,0.3-0.2,0.4l-0.5,0.3l0,0.2c-0.2,1.2-0.8,2.7-1.8,4.1c-1.2,1.8-2.4,2.6-3,2.6h-2.7
			c-0.6,0-1.7-0.8-3-2.6c-1-1.4-1.6-2.9-1.8-4.1l0-0.2L15,17z"/>
	</g>
	<g>
		<g>
			<path class="st2" d="M31.9,26l-5.5-1.7c9.4,0,4.1-22.1-4.9-22.1h-2.5C8.4,2.1,5.1,24.3,14,24.3L8.5,26c-3.9,1.1-6.2,18-6.2,18
				c0,0,0,0.1,0,0.2c0,0.8,0.7,1.5,1.5,1.5h32.9c0.8,0,1.5-0.7,1.5-1.5c0-0.1,0-0.1,0-0.2C38.1,43.9,35.8,27.1,31.9,26L31.9,26z
				 M16.6,25.1c0.2-0.1,0.4-0.1,0.5,0c0.6,0.3,1.1,0.4,1.7,0.4h2.8c0.5,0,1.1-0.1,1.7-0.4c0.2-0.1,0.4-0.1,0.5,0
				c0.2,0.1,0.2,0.3,0.2,0.5l-0.4,2.9c0,0.1,0,0.1,0,0.2l-2.9,6.3c-0.1,0.2-0.3,0.3-0.5,0.3c-0.2,0-0.4-0.1-0.4-0.3l-2.9-6.3
				c0,0,0-0.1,0-0.2l-0.4-2.9C16.4,25.4,16.5,25.2,16.6,25.1L16.6,25.1z M13.6,15.6c-0.1-0.1-0.2-0.3-0.2-0.4v-0.8
				c0-0.3,0.2-0.5,0.5-0.5h0.2v-1.7c0-0.2,0.1-0.3,0.2-0.4c0.1-0.1,0.3-0.1,0.5,0c0.8,0.4,1.8,0.4,2.5,0.4c0.5,0,1,0,1.4,0
				c0.1,0,0.3,0,0.4,0c0.2,0,0.3,0,0.5,0c2,0,3.8,0.5,5,0.9c0.6,0.2,1,0.3,1.3,0.4c0.2,0,0.4,0.2,0.4,0.5v0h0.2
				c0.3,0,0.5,0.2,0.5,0.5v0.8c0,0.2-0.1,0.3-0.2,0.4l-0.5,0.3l0,0.2c-0.2,1.2-0.8,2.7-1.8,4.1c-1.2,1.8-2.4,2.6-3,2.6h-2.7
				c-0.6,0-1.7-0.8-3-2.6c-1-1.4-1.6-2.9-1.8-4.1l0-0.2L13.6,15.6z"/>
		</g>
	</g>
</g>
<g>
	<g class="st0">
		<path class="st1" d="M55.1,37.6L49.6,36c-0.1-0.4-0.4-0.8-0.9-1.1c0.5-0.5,0.9-1,1.1-1.5c0.7-1,1.3-2.1,1.7-3.1
			c0.2-0.4,0.4-0.9,0.5-1.3c0.5-0.5,0.9-1.1,0.9-1.8v-1.7c0-0.5-0.2-1-0.4-1.4v-2.4c0-4.3-3.5-7.8-7.8-7.8h-2.5
			c-4.3,0-7.8,3.5-7.8,7.8V24c-0.3,0.4-0.4,0.9-0.4,1.4v1.7c0,0.7,0.3,1.4,0.9,1.8c0.1,0.4,0.3,0.9,0.5,1.3c0.4,1,1,2.1,1.7,3.1
			c0.3,0.4,0.7,0.9,1.1,1.5c-0.4,0.3-0.7,0.7-0.9,1.1l-5.5,1.7c-3.9,1.1-6.2,18-6.2,18c0,0.1,0,0.1,0,0.2c0,0.8,0.7,1.5,1.5,1.5h33
			c0.8,0,1.5-0.7,1.5-1.5C61.4,55.2,59,38.8,55.1,37.6L55.1,37.6z M42.1,39c0.1,0.1,0.1,0.2,0.1,0.4L41.9,42c0,0.2-0.2,0.4-0.4,0.4
			c0,0-0.1,0-0.1,0c-0.2,0-0.3-0.1-0.4-0.2l-1.4-1.9c-0.1-0.1-0.1-0.2-0.1-0.3l0-3c0-0.2,0.1-0.3,0.2-0.4c0.1-0.1,0.3-0.1,0.5,0
			c0.4,0.2,0.8,0.4,1.2,0.4c0.2,0,0.4,0.2,0.4,0.5v1.2C42,38.9,42,38.9,42.1,39L42.1,39z M44.6,39.4c0-0.1,0-0.3,0.1-0.4
			c0-0.1,0.1-0.1,0.2-0.1v-1.2c0-0.2,0.2-0.4,0.4-0.5c0.4-0.1,0.8-0.2,1.2-0.4c0.1-0.1,0.3-0.1,0.5,0c0.2,0.1,0.2,0.3,0.2,0.4v3
			c0,0.1,0,0.2-0.1,0.3l-1.4,1.9c-0.1,0.1-0.2,0.2-0.4,0.2c0,0-0.1,0-0.1,0c-0.2,0-0.3-0.2-0.4-0.4L44.6,39.4z M37.3,27.8l0-0.2
			l-0.5-0.3c-0.1-0.1-0.2-0.2-0.2-0.4V26c0-0.3,0.2-0.5,0.5-0.5h0.2v-0.9c0-0.2,0.1-0.4,0.3-0.4c0.7-0.4,2.1-0.9,3.5-0.9
			c1.1,0,2.1,0.4,2.8,1.1c0.9,0.9,1.9,1.4,3,1.4c0.6,0,1.3-0.2,2-0.4c0.2-0.1,0.3-0.1,0.5,0c0.1,0,0.1,0.1,0.2,0.2h0.3
			c0.3,0,0.5,0.2,0.5,0.5v0.8c0,0.2-0.1,0.3-0.2,0.4l-0.5,0.3l0,0.2c-0.2,1.2-0.8,2.7-1.8,4.1c-1.2,1.8-2.4,2.6-2.9,2.6h-2.7
			c-0.6,0-1.7-0.8-2.9-2.6C38.2,30.5,37.5,29,37.3,27.8L37.3,27.8z"/>
	</g>
	<g>
		<g>
			<path class="st2" d="M53.7,36.2l-5.5-1.7c-0.1-0.4-0.4-0.8-0.9-1.1c0.5-0.5,0.9-1,1.1-1.5c0.7-1,1.3-2.1,1.7-3.1
				c0.2-0.4,0.4-0.9,0.5-1.3c0.5-0.5,0.9-1.1,0.9-1.8V24c0-0.5-0.2-1-0.4-1.4v-2.4c0-4.3-3.5-7.8-7.8-7.8h-2.5
				c-4.3,0-7.8,3.5-7.8,7.8v2.4c-0.3,0.4-0.4,0.9-0.4,1.4v1.7c0,0.7,0.3,1.4,0.9,1.8c0.1,0.4,0.3,0.9,0.5,1.3c0.4,1,1,2.1,1.7,3.1
				c0.3,0.4,0.7,0.9,1.1,1.5c-0.4,0.3-0.7,0.7-0.9,1.1l-5.5,1.7c-3.9,1.1-6.2,18-6.2,18c0,0.1,0,0.1,0,0.2c0,0.8,0.7,1.5,1.5,1.5h33
				c0.8,0,1.5-0.7,1.5-1.5C60,53.7,57.6,37.3,53.7,36.2L53.7,36.2z M40.7,37.6c0.1,0.1,0.1,0.2,0.1,0.4l-0.3,2.6
				c0,0.2-0.2,0.4-0.4,0.4c0,0-0.1,0-0.1,0c-0.2,0-0.3-0.1-0.4-0.2L38.2,39c-0.1-0.1-0.1-0.2-0.1-0.3l0-3c0-0.2,0.1-0.3,0.2-0.4
				c0.1-0.1,0.3-0.1,0.5,0c0.4,0.2,0.8,0.4,1.2,0.4c0.2,0,0.4,0.2,0.4,0.5v1.2C40.5,37.5,40.6,37.5,40.7,37.6L40.7,37.6z M43.2,37.9
				c0-0.1,0-0.3,0.1-0.4c0-0.1,0.1-0.1,0.2-0.1v-1.2c0-0.2,0.2-0.4,0.4-0.5c0.4-0.1,0.8-0.2,1.2-0.4c0.1-0.1,0.3-0.1,0.5,0
				c0.2,0.1,0.2,0.3,0.2,0.4v3c0,0.1,0,0.2-0.1,0.3l-1.4,1.9C44.3,41,44.2,41,44,41c0,0-0.1,0-0.1,0c-0.2,0-0.3-0.2-0.4-0.4
				L43.2,37.9z M35.9,26.4l0-0.2l-0.5-0.3c-0.1-0.1-0.2-0.2-0.2-0.4v-0.8c0-0.3,0.2-0.5,0.5-0.5h0.2v-0.9c0-0.2,0.1-0.4,0.3-0.4
				c0.7-0.4,2.1-0.9,3.5-0.9c1.1,0,2.1,0.4,2.8,1.1c0.9,0.9,1.9,1.4,3,1.4c0.6,0,1.3-0.2,2-0.4c0.2-0.1,0.3-0.1,0.5,0
				C48,24,48,24,48,24.1h0.3c0.3,0,0.5,0.2,0.5,0.5v0.8c0,0.2-0.1,0.3-0.2,0.4l-0.5,0.3l0,0.2c-0.2,1.2-0.8,2.7-1.8,4.1
				c-1.2,1.8-2.4,2.6-2.9,2.6h-2.7c-0.6,0-1.7-0.8-2.9-2.6C36.8,29.1,36.1,27.6,35.9,26.4L35.9,26.4z"/>
		</g>
	</g>
</g>
</svg>
