<?xml version="1.0" encoding="utf-8"?>
<!-- Generator: Adobe Illustrator 25.1.0, SVG Export Plug-In . SVG Version: 6.00 Build 0)  -->
<svg version="1.1" id="レイヤー_1" xmlns="http://www.w3.org/2000/svg" xmlns:xlink="http://www.w3.org/1999/xlink" x="0px"
	 y="0px" viewBox="0 0 61 59" style="enable-background:new 0 0 61 59;" xml:space="preserve">
<style type="text/css">
	.st0{opacity:0.75;}
	.st1{fill:#E5E5E5;}
	.st2{fill:#E8F9FF;}
</style>
<g>
	<g class="st0">
		<path class="st1" d="M17.8,21.6v-8.4c0-2.1,1.8-3.7,4.1-3.7h2.2c1,0,1.9,0.8,1.9,1.7c0,1-0.8,1.7-1.9,1.7h-2.2
			c-0.2,0-0.4,0.1-0.4,0.3v5.5l0.1-0.1c0.3-0.1,0.6-0.2,0.9-0.2H30c1,0,1.9,0.8,1.9,1.7c0,0.9-0.8,1.7-1.9,1.7h-6.9l-2.5,1.3
			c-0.3,0.1-0.6,0.2-0.9,0.2c-0.3,0-0.7-0.1-0.9-0.2C18.2,22.8,17.8,22.2,17.8,21.6L17.8,21.6z M28.2,12.3V7.2
			c0-2.2,1.9-3.9,4.3-3.9h10.4c2.4,0,4.3,1.8,4.3,3.9v10.9c0,0.7-0.5,1.4-1.2,1.7c-0.2,0.1-0.5,0.1-0.7,0.1c-0.5,0-1.1-0.2-1.4-0.6
			l-3-3h-8.2C30.1,16.3,28.2,14.5,28.2,12.3L28.2,12.3z M31.9,12.7c0,0.2,0.2,0.3,0.3,0.3h8.7c0.5,0,1,0.2,1.4,0.6l0.2,0.2v-6
			c0-0.2-0.2-0.3-0.4-0.3h-9.9c-0.2,0-0.3,0.1-0.3,0.3V12.7z M44.7,25.2c0-2.8,2.5-5,5.5-5c3,0,5.5,2.3,5.5,5c0,2.8-2.5,5.1-5.5,5.1
			C47.1,30.2,44.7,27.9,44.7,25.2L44.7,25.2z M47.3,25.2c0,1.5,1.3,2.6,2.9,2.6c1.6,0,2.9-1.2,2.9-2.6c0-1.5-1.3-2.6-2.9-2.6
			C48.6,22.5,47.3,23.7,47.3,25.2L47.3,25.2z M23.7,56.3h-2.2V45.1c0-0.7-0.6-1.2-1.3-1.2l-7.6,0V35l9.3,2.9
			c0.7,0.2,1.4-0.1,1.7-0.8c0.2-0.6-0.1-1.3-0.8-1.5l-11-3.4c-0.1,0-0.2-0.1-0.4-0.1c-0.1,0-0.2,0-0.3,0c-0.2,0-0.4,0.1-0.6,0.2
			c-0.2,0.1-0.4,0.4-0.5,0.6c0,0.1-0.1,0.3-0.1,0.4v11.7c0,0,0,0.1,0,0.1c0,0,0,0,0,0l0,0c0,0,0,0,0,0l0,0v0v0l0,0l0,0v0l0,0v0v0v0
			v0l0,0v0l0,0l0,0l0,0v0h0v0v0l0,0v0v0l0,0l0,0v0l0,0v0l0,0v0v0l0,0l0,0l0,0v0v0v0l0,0l0,0c0,0,0,0,0,0l0,0l0,0v0l0,0v0v0l0,0v0
			c0,0,0,0,0,0l0,0c0,0,0,0,0,0l0,0l0,0v0v0l0,0l0,0l0,0v0l0,0v0l0,0l0,0l0,0c0,0,0,0,0,0c0,0,0,0,0,0s0,0,0,0c0.1,0.5,0.7,1,1.3,1
			l7.6,0v11.2c0,0,0,0,0,0c0,0.3,0.1,0.5,0.3,0.7c0.2,0.3,0.6,0.5,1.1,0.5c0,0,0,0,0,0h3.5c0.7,0,1.3-0.5,1.3-1.2
			C25,56.9,24.4,56.3,23.7,56.3L23.7,56.3z M6.8,25.2c0-2.8,2.5-5,5.5-5c3,0,5.5,2.3,5.5,5c0,2.8-2.5,5.1-5.5,5.1
			C9.3,30.2,6.8,27.9,6.8,25.2L6.8,25.2z M9.5,25.2c0,1.5,1.3,2.6,2.9,2.6c1.6,0,2.9-1.2,2.9-2.6c0-1.5-1.3-2.6-2.9-2.6
			C10.8,22.5,9.5,23.7,9.5,25.2L9.5,25.2z M57.6,49.4V37.2c0-0.7-0.6-1.2-1.3-1.2c-0.7,0-1.3,0.5-1.3,1.2v11.1h-7.4
			c-0.7,0-1.3,0.5-1.3,1.2v8.1c0,0.7,0.6,1.2,1.3,1.2c0.7,0,1.3-0.5,1.3-1.2v-6.9H55v6.9c0,0.7,0.6,1.2,1.3,1.2
			c0.7,0,1.3-0.5,1.3-1.2V49.4C57.6,49.5,57.6,49.4,57.6,49.4L57.6,49.4z M43.7,46.4l7.6,0c0.2,0,0.4,0,0.6-0.1h0c0,0,0,0,0,0
			c0,0,0,0,0,0l0,0l0,0l0,0l0,0h0v0l0,0c0,0,0,0,0,0l0,0l0,0h0l0,0l0,0v0l0,0l0,0l0,0v0h0l0,0l0,0h0l0,0l0,0c0,0,0,0,0,0
			c0,0,0,0,0,0l0,0h0l0,0v0l0,0l0,0h0l0,0h0l0,0v0l0,0h0l0,0l0,0l0,0c0,0,0,0,0,0l0,0l0,0h0l0,0l0,0c0,0,0,0,0,0h0l0,0h0l0,0h0
			c0,0,0,0,0,0s0,0,0,0h0c0,0,0.1,0,0.1-0.1h0l0,0l0,0l0,0l0,0l0,0l0,0h0c0,0,0,0,0,0l0,0c0,0,0,0,0,0l0,0l0,0l0,0l0,0l0,0l0,0
			c0,0,0,0,0,0v0l0,0l0,0h0v0h0l0,0l0,0l0,0l0,0l0,0v0l0,0v0h0v0v0l0,0l0,0h0l0,0l0,0l0,0l0,0l0,0l0,0h0l0,0l0,0c0,0,0,0,0,0l0,0
			l0,0h0l0,0v0h0v0c0,0,0,0,0,0v0h0l0,0c0,0,0,0,0,0l0,0v0c0,0,0,0,0,0v0l0,0l0,0v0v0h0l0,0l0,0l0,0v0h0l0,0l0,0v0h0c0,0,0,0,0,0
			l0,0l0,0l0,0l0,0l0,0l0,0l0,0v0l0,0c0.1-0.1,0.1-0.1,0.2-0.2l0,0l0,0l0,0c0,0,0,0,0,0l0,0l0,0v0l0,0v0v0l0,0l0,0l0,0v0v0v0l0,0h0
			v0v0l0,0v0l0,0v0v0c0,0,0,0,0,0l0,0l0,0c0,0,0,0,0,0l0,0l0,0l0,0v0l0,0l0,0c0,0,0,0,0,0h0l0,0v0l0,0v0l0,0
			c0.1-0.2,0.1-0.4,0.1-0.5V33.4c0-0.1,0-0.1,0-0.2c0-0.2-0.1-0.3-0.2-0.5c-0.1-0.1-0.2-0.2-0.3-0.3c-0.2-0.2-0.4-0.3-0.7-0.3
			c-0.1,0-0.2,0-0.3,0c-0.1,0-0.2,0-0.3,0.1l-11,3.4c-0.7,0.2-1.1,0.9-0.8,1.5c0.2,0.6,1,1,1.7,0.8L50,35v8.9l-7.6,0
			c-0.7,0-1.3,0.5-1.3,1.2v11.2h-2.2c-0.7,0-1.3,0.5-1.3,1.2c0,0.7,0.6,1.2,1.3,1.2h3.5c0,0,0,0,0,0c0.4,0,0.8-0.2,1.1-0.5
			c0.2-0.2,0.3-0.5,0.3-0.7c0,0,0,0,0,0V46.4L43.7,46.4z M14.9,48.3H7.5V37.2c0-0.7-0.6-1.2-1.3-1.2c-0.7,0-1.3,0.5-1.3,1.2v12.3
			c0,0,0,0,0,0v8.1c0,0.7,0.6,1.2,1.3,1.2c0.7,0,1.3-0.5,1.3-1.2v-6.9h6.1v6.9c0,0.7,0.6,1.2,1.3,1.2c0.7,0,1.3-0.5,1.3-1.2v-8.1
			C16.3,48.8,15.7,48.3,14.9,48.3L14.9,48.3z M34.2,56.3h-1.6V41.9h8.1c0.7,0,1.3-0.5,1.3-1.2c0-0.7-0.6-1.2-1.3-1.2h-9.4
			c0,0,0,0-0.1,0h-9.4c-0.7,0-1.3,0.5-1.3,1.2c0,0.7,0.6,1.2,1.3,1.2h8.1v14.5h-1.6c-0.7,0-1.3,0.5-1.3,1.2c0,0.7,0.6,1.2,1.3,1.2
			h5.9c0.7,0,1.3-0.5,1.3-1.2C35.5,56.9,34.9,56.3,34.2,56.3L34.2,56.3z"/>
	</g>
	<g>
		<path class="st2" d="M16.4,20.2v-8.4c0-2.1,1.8-3.7,4.1-3.7h2.2c1,0,1.9,0.8,1.9,1.7c0,1-0.8,1.7-1.9,1.7h-2.2
			c-0.2,0-0.4,0.1-0.4,0.3v5.5l0.1-0.1c0.3-0.1,0.6-0.2,0.9-0.2h7.4c1,0,1.9,0.8,1.9,1.7c0,0.9-0.8,1.7-1.9,1.7h-6.9l-2.5,1.3
			c-0.3,0.1-0.6,0.2-0.9,0.2c-0.3,0-0.7-0.1-0.9-0.2C16.8,21.4,16.4,20.8,16.4,20.2L16.4,20.2z M26.8,10.9V5.8
			c0-2.2,1.9-3.9,4.3-3.9h10.4c2.4,0,4.3,1.8,4.3,3.9v10.9c0,0.7-0.5,1.4-1.2,1.7c-0.2,0.1-0.5,0.1-0.7,0.1c-0.5,0-1.1-0.2-1.4-0.6
			l-3-3H31C28.7,14.8,26.8,13.1,26.8,10.9L26.8,10.9z M30.5,11.3c0,0.2,0.2,0.3,0.3,0.3h8.7c0.5,0,1,0.2,1.4,0.6l0.2,0.2v-6
			c0-0.2-0.2-0.3-0.4-0.3h-9.9c-0.2,0-0.3,0.1-0.3,0.3V11.3z M43.3,23.7c0-2.8,2.5-5,5.5-5s5.5,2.3,5.5,5c0,2.8-2.5,5.1-5.5,5.1
			S43.3,26.5,43.3,23.7L43.3,23.7z M45.9,23.7c0,1.5,1.3,2.6,2.9,2.6c1.6,0,2.9-1.2,2.9-2.6c0-1.5-1.3-2.6-2.9-2.6
			C47.2,21.1,45.9,22.3,45.9,23.7L45.9,23.7z M22.3,54.9H20V43.7c0-0.7-0.6-1.2-1.3-1.2l-7.6,0v-8.9l9.3,2.9
			c0.7,0.2,1.4-0.1,1.7-0.8c0.2-0.6-0.1-1.3-0.8-1.5l-11-3.4c-0.1,0-0.2-0.1-0.4-0.1c-0.1,0-0.2,0-0.3,0c-0.2,0-0.4,0.1-0.6,0.2
			c-0.2,0.1-0.4,0.4-0.5,0.6c0,0.1-0.1,0.3-0.1,0.4v11.7c0,0,0,0.1,0,0.1c0,0,0,0,0,0l0,0c0,0,0,0,0,0l0,0v0v0l0,0l0,0v0l0,0v0v0v0
			v0l0,0v0l0,0l0,0l0,0v0h0v0v0l0,0v0v0l0,0l0,0v0l0,0v0l0,0v0v0l0,0l0,0l0,0v0v0v0l0,0l0,0c0,0,0,0,0,0l0,0l0,0v0l0,0v0v0l0,0v0
			c0,0,0,0,0,0l0,0c0,0,0,0,0,0l0,0l0,0v0v0l0,0l0,0l0,0v0l0,0v0l0,0l0,0l0,0c0,0,0,0,0,0c0,0,0,0,0,0s0,0,0,0c0.1,0.5,0.7,1,1.3,1
			l7.6,0v11.2c0,0,0,0,0,0c0,0.3,0.1,0.5,0.3,0.7c0.2,0.3,0.6,0.5,1.1,0.5c0,0,0,0,0,0h3.5c0.7,0,1.3-0.5,1.3-1.2
			C23.6,55.5,23,54.9,22.3,54.9L22.3,54.9z M5.4,23.7c0-2.8,2.5-5,5.5-5c3,0,5.5,2.3,5.5,5c0,2.8-2.5,5.1-5.5,5.1
			C7.9,28.8,5.4,26.5,5.4,23.7L5.4,23.7z M8.1,23.7c0,1.5,1.3,2.6,2.9,2.6c1.6,0,2.9-1.2,2.9-2.6c0-1.5-1.3-2.6-2.9-2.6
			C9.3,21.1,8.1,22.3,8.1,23.7L8.1,23.7z M56.2,48V35.8c0-0.7-0.6-1.2-1.3-1.2c-0.7,0-1.3,0.5-1.3,1.2v11.1h-7.4
			c-0.7,0-1.3,0.5-1.3,1.2v8.1c0,0.7,0.6,1.2,1.3,1.2c0.7,0,1.3-0.5,1.3-1.2v-6.9h6.1v6.9c0,0.7,0.6,1.2,1.3,1.2
			c0.7,0,1.3-0.5,1.3-1.2V48C56.2,48,56.2,48,56.2,48L56.2,48z M42.3,44.9l7.6,0c0.2,0,0.4,0,0.6-0.1h0c0,0,0,0,0,0c0,0,0,0,0,0l0,0
			l0,0l0,0l0,0h0v0l0,0c0,0,0,0,0,0l0,0l0,0h0l0,0l0,0v0l0,0l0,0l0,0v0h0l0,0l0,0h0l0,0l0,0c0,0,0,0,0,0c0,0,0,0,0,0l0,0h0l0,0v0
			l0,0l0,0h0l0,0h0l0,0v0l0,0h0l0,0l0,0l0,0c0,0,0,0,0,0l0,0l0,0h0l0,0l0,0c0,0,0,0,0,0h0l0,0h0l0,0h0c0,0,0,0,0,0s0,0,0,0h0
			c0,0,0.1,0,0.1-0.1h0l0,0l0,0l0,0l0,0l0,0l0,0h0c0,0,0,0,0,0l0,0c0,0,0,0,0,0l0,0l0,0l0,0l0,0l0,0l0,0c0,0,0,0,0,0v0l0,0l0,0h0v0
			h0l0,0l0,0l0,0l0,0l0,0v0l0,0v0h0v0v0l0,0l0,0h0l0,0l0,0l0,0l0,0l0,0l0,0h0l0,0l0,0c0,0,0,0,0,0l0,0l0,0h0l0,0v0h0v0c0,0,0,0,0,0
			v0h0l0,0c0,0,0,0,0,0l0,0v0c0,0,0,0,0,0v0l0,0l0,0v0v0h0l0,0l0,0l0,0v0h0l0,0l0,0v0h0c0,0,0,0,0,0l0,0l0,0l0,0l0,0l0,0l0,0l0,0v0
			l0,0c0.1-0.1,0.1-0.1,0.2-0.2l0,0l0,0l0,0c0,0,0,0,0,0l0,0l0,0v0l0,0v0v0l0,0l0,0l0,0v0v0v0l0,0h0v0v0l0,0v0l0,0v0v0c0,0,0,0,0,0
			l0,0l0,0c0,0,0,0,0,0l0,0l0,0l0,0v0l0,0l0,0c0,0,0,0,0,0h0l0,0v0l0,0v0l0,0c0.1-0.2,0.1-0.4,0.1-0.5V32c0-0.1,0-0.1,0-0.2
			c0-0.2-0.1-0.3-0.2-0.5c-0.1-0.1-0.2-0.2-0.3-0.3c-0.2-0.2-0.4-0.3-0.7-0.3c-0.1,0-0.2,0-0.3,0c-0.1,0-0.2,0-0.3,0.1l-11,3.4
			c-0.7,0.2-1.1,0.9-0.8,1.5c0.2,0.6,1,1,1.7,0.8l9.3-2.9v8.9l-7.6,0c-0.7,0-1.3,0.5-1.3,1.2v11.2h-2.2c-0.7,0-1.3,0.5-1.3,1.2
			c0,0.7,0.6,1.2,1.3,1.2H41c0,0,0,0,0,0c0.4,0,0.8-0.2,1.1-0.5c0.2-0.2,0.3-0.5,0.3-0.7c0,0,0,0,0,0V44.9L42.3,44.9z M13.5,46.8
			H6.1V35.8c0-0.7-0.6-1.2-1.3-1.2c-0.7,0-1.3,0.5-1.3,1.2V48c0,0,0,0,0,0v8.1c0,0.7,0.6,1.2,1.3,1.2c0.7,0,1.3-0.5,1.3-1.2v-6.9
			h6.1v6.9c0,0.7,0.6,1.2,1.3,1.2c0.7,0,1.3-0.5,1.3-1.2v-8.1C14.8,47.4,14.3,46.8,13.5,46.8L13.5,46.8z M32.8,54.9h-1.6V40.5h8.1
			c0.7,0,1.3-0.5,1.3-1.2c0-0.7-0.6-1.2-1.3-1.2h-9.4c0,0,0,0-0.1,0h-9.4c-0.7,0-1.3,0.5-1.3,1.2c0,0.7,0.6,1.2,1.3,1.2h8.1v14.5
			h-1.6c-0.7,0-1.3,0.5-1.3,1.2c0,0.7,0.6,1.2,1.3,1.2h5.9c0.7,0,1.3-0.5,1.3-1.2C34.1,55.5,33.5,54.9,32.8,54.9L32.8,54.9z"/>
	</g>
</g>
</svg>
