<?xml version="1.0" encoding="utf-8"?>
<!-- Generator: Adobe Illustrator 25.1.0, SVG Export Plug-In . SVG Version: 6.00 Build 0)  -->
<svg version="1.1" id="レイヤー_1" xmlns="http://www.w3.org/2000/svg" xmlns:xlink="http://www.w3.org/1999/xlink" x="0px"
	 y="0px" viewBox="0 0 61 59" style="enable-background:new 0 0 61 59;" xml:space="preserve">
<style type="text/css">
	.st0{opacity:0.75;}
	.st1{fill:#E5E5E5;}
	.st2{fill:#E8F9FF;}
</style>
<g>
	<g class="st0">
		<rect x="14.9" y="15.8" class="st1" width="21.7" height="7.3"/>
		<path class="st1" d="M58.1,52.9l-3.9-3.9V7.3H7.6V51h39.3l6.6,6.6c0,0,2.1,0,3.4-1.4C58.1,54.7,58.1,52.9,58.1,52.9L58.1,52.9z
			 M10.7,47.9V11.6H51v34.3l-2.7-2.7L47,43.9l-1.9-1.9c3-4.2,2.7-10.1-1.1-13.9c-4-4-10.3-4.2-14.5-0.6H14.9v2.8H27
			c-0.9,1.4-1.3,3-1.4,4.6H14.9v2.8h10.7c0.3,1.6,0.9,3.2,1.9,4.6H14.9V45h15.7c3.7,2.3,8.4,2.2,12-0.4l1.8,1.8l-0.6,1.5H10.7z
			 M30.4,41.7c-3.3-3.3-3.3-8.5,0-11.8c3.2-3.3,8.5-3.3,11.8,0c3.2,3.3,3.2,8.5,0,11.8C38.9,44.9,33.7,44.9,30.4,41.7L30.4,41.7z"/>
		<path class="st1" d="M39.6,15.8v7.3h7.1v-7.3H39.6z M43.2,21.3c-1,0-1.8-0.8-1.8-1.8c0-1,0.8-1.8,1.8-1.8s1.8,0.8,1.8,1.8
			C45,20.4,44.2,21.3,43.2,21.3L43.2,21.3z"/>
	</g>
	<g>
		<g>
			<rect x="13.5" y="14.4" class="st2" width="21.7" height="7.3"/>
			<path class="st2" d="M56.7,51.5l-3.9-3.9V5.9H6.2v43.7h39.3l6.6,6.6c0,0,2.1,0,3.4-1.4C56.7,53.3,56.7,51.5,56.7,51.5L56.7,51.5z
				 M9.3,46.4V10.1h40.3v34.3l-2.7-2.7l-1.3,0.8l-1.9-1.9c3-4.2,2.7-10.1-1.1-13.9c-4-4-10.3-4.2-14.5-0.6H13.5v2.8h12.1
				c-0.9,1.4-1.3,3-1.4,4.6H13.5v2.8h10.7c0.3,1.6,0.9,3.2,1.9,4.6H13.5v2.8h15.7c3.7,2.3,8.4,2.2,12-0.4l1.8,1.8l-0.6,1.5H9.3z
				 M29,40.3c-3.3-3.3-3.3-8.5,0-11.8c3.2-3.3,8.5-3.3,11.8,0c3.2,3.3,3.2,8.5,0,11.8C37.5,43.5,32.2,43.5,29,40.3L29,40.3z"/>
			<path class="st2" d="M38.2,14.4v7.3h7.1v-7.3H38.2z M41.7,19.8c-1,0-1.8-0.8-1.8-1.8c0-1,0.8-1.8,1.8-1.8c1,0,1.8,0.8,1.8,1.8
				C43.6,19,42.8,19.8,41.7,19.8L41.7,19.8z"/>
		</g>
	</g>
</g>
</svg>
