<?xml version="1.0" encoding="utf-8"?>
<!-- Generator: Adobe Illustrator 25.1.0, SVG Export Plug-In . SVG Version: 6.00 Build 0)  -->
<svg version="1.1"
	 id="レイヤー_1" xmlns:cc="http://creativecommons.org/ns#" xmlns:dc="http://purl.org/dc/elements/1.1/" xmlns:inkscape="http://www.inkscape.org/namespaces/inkscape" xmlns:rdf="http://www.w3.org/1999/02/22-rdf-syntax-ns#" xmlns:sodipodi="http://sodipodi.sourceforge.net/DTD/sodipodi-0.dtd" xmlns:svg="http://www.w3.org/2000/svg"
	 xmlns="http://www.w3.org/2000/svg" xmlns:xlink="http://www.w3.org/1999/xlink" x="0px" y="0px" viewBox="0 0 108 15"
	 style="enable-background:new 0 0 108 15;" xml:space="preserve">
<style type="text/css">
	.st0{fill:#FFFFFF;}
</style>
<sodipodi:namedview  bordercolor="#666666" borderopacity="1" gridtolerance="10" guidetolerance="10" id="namedview25" inkscape:current-layer="レイヤー_1" inkscape:cx="67.421554" inkscape:cy="9.8157131" inkscape:pageopacity="0" inkscape:pageshadow="2" inkscape:window-height="480" inkscape:window-maximized="0" inkscape:window-width="722" inkscape:window-x="0" inkscape:window-y="0" inkscape:zoom="5.6990741" objecttolerance="10" pagecolor="#ffffff" showgrid="false">
	</sodipodi:namedview>
<g>
	<path class="st0" d="M23.6,1.9C24.6,2.2,25,2.5,25,2.6c0,0.1,0,0.2-0.1,0.2c-0.1,0-0.2,0.1-0.5,0.1c-0.5,0.8-1,1.5-1.5,2.1
		c0.5,0.1,0.8,0.1,0.9,0.2c0.1,0,0.2,0.1,0.2,0.2c0,0.2-0.2,0.3-0.5,0.4v1.3l0,6.5c0,0.4-0.3,0.7-0.9,0.7c-0.5,0-0.7-0.2-0.7-0.6
		C22,12,22,9.6,22,6.5V6.2c-1.6,1.7-3.7,3-6.1,3.8c0,0,0,0,0,0c-0.1,0-0.1,0-0.1-0.1c0,0,0,0,0-0.1c2.8-1.6,4.9-3.7,6.3-6.1
		c0.4-0.6,0.7-1.2,0.9-1.9h-5.3c-0.4,0-0.9,0-1.5,0.1l-0.2-0.6c0.6,0.1,1.1,0.1,1.6,0.1h9.5c0.6-0.8,1-1.2,1.2-1.2
		c0.1,0,0.5,0.3,1.2,0.8c0.3,0.3,0.5,0.5,0.5,0.6c0,0.1-0.1,0.2-0.2,0.2H23.6z M29.7,9.1c0,0.3-0.1,0.6-0.3,0.8
		c-0.2,0.2-0.4,0.3-0.6,0.3c-0.2,0-0.4-0.1-0.5-0.2c-0.1-0.1-0.3-0.3-0.5-0.6c-0.8-1.5-2-2.7-3.5-3.7c0,0,0,0,0,0c0,0,0-0.1,0-0.1
		c0,0,0.1-0.1,0.1-0.1c1.8,0.5,3.1,1.2,4,1.9C29.3,7.9,29.7,8.5,29.7,9.1z"/>
	<path class="st0" d="M36.4,9.1v1.4h1c0.4-0.5,0.7-0.8,0.8-0.8c0.1,0,0.4,0.2,0.8,0.5c0.2,0.2,0.3,0.3,0.3,0.4
		c0,0.1-0.1,0.2-0.2,0.2h-2.8v1.2c1.1-0.1,2-0.3,2.8-0.4c0.1,0,0.1,0,0.1,0.1c0,0,0,0.1,0,0.1c-0.9,0.4-1.8,0.7-2.6,0.9
		c-0.9,0.2-2.2,0.5-4,0.9c-0.1,0.4-0.2,0.5-0.3,0.5c-0.1,0-0.2-0.1-0.3-0.3c-0.1-0.2-0.2-0.7-0.5-1.5c0.2,0,0.5,0,0.8,0
		c0.4,0,0.9,0,1.4,0c0.7,0,1.1-0.1,1.4-0.1v-1.4h-1.8c-0.3,0-0.7,0-1.1,0.1L32,10.4c0.4,0.1,0.9,0.1,1.3,0.1h1.9V9.1h-1.4
		c0,0.4-0.3,0.6-0.7,0.6c-0.4,0-0.6-0.2-0.6-0.5l0-2.6c0-0.9,0-1.7-0.1-2.5c0.5,0.2,1,0.4,1.5,0.7h1.4V3.6h-2.2
		c-0.3,0-0.7,0-1.1,0.1l-0.2-0.6c0.4,0.1,0.9,0.1,1.2,0.1h2.3V1.9c-0.8,0.1-1.8,0.1-3,0.1C32,2.1,32,2,32,1.9c0,0,0-0.1,0-0.1
		c1.5-0.2,2.9-0.5,4.2-1C37,0.6,37.5,0.3,38,0c0.9,0.7,1.3,1.1,1.3,1.2c0,0.1-0.1,0.1-0.3,0.1c-0.1,0-0.3,0-0.5-0.1
		c-0.7,0.2-1.4,0.4-2.1,0.5v1.4h1.5c0.5-0.6,0.8-0.9,0.9-0.9c0.1,0,0.4,0.2,0.9,0.6c0.3,0.2,0.4,0.4,0.4,0.5c0,0.1-0.1,0.2-0.2,0.2
		h-3.5v1.3h1.3c0.4-0.4,0.7-0.7,0.8-0.7s0.4,0.2,0.8,0.5c0.2,0.2,0.3,0.3,0.3,0.4c0,0.1-0.1,0.3-0.4,0.4v3.3c0,0.4-0.3,0.7-0.8,0.7
		c-0.4,0-0.6-0.2-0.6-0.5H36.4z M33.6,6.7h1.4V5.2h-1.4V6.7z M33.6,8.7h1.4V7.1h-1.4V8.7z M36.4,6.7h1.5V5.2h-1.5V6.7z M36.4,8.7
		h1.5V7.1h-1.5V8.7z M42.8,4.7c-0.2,3-0.7,5.2-1.6,6.7c-0.7,1.2-2,2.3-3.6,3.2c0,0,0,0,0,0c-0.1,0-0.1-0.1-0.1-0.2c0,0,0,0,0-0.1
		c1.4-1.2,2.4-2.6,3-4.1c0.5-1.4,0.8-3.3,1-5.6H41c-0.4,0-0.8,0-1.1,0.1l-0.2-0.6c0.4,0.1,0.8,0.1,1.2,0.1h0.5c0-0.8,0-1.6,0-2.5
		c0-0.6,0-1.1-0.1-1.6c1,0.1,1.5,0.2,1.7,0.3c0.2,0.1,0.3,0.1,0.3,0.2c0,0.1-0.2,0.3-0.5,0.4c0,1.2-0.1,2.2-0.1,3h1.3
		c0.3-0.4,0.5-0.6,0.6-0.6c0.1-0.1,0.2-0.1,0.2-0.1c0.1,0,0.4,0.2,0.8,0.6c0.2,0.2,0.3,0.4,0.3,0.5c0,0.1-0.1,0.3-0.4,0.5
		c-0.1,4-0.3,6.6-0.8,7.8c-0.2,0.5-0.5,0.8-0.9,1c-0.3,0.2-0.7,0.2-1,0.2c-0.2,0-0.3,0-0.4-0.1c-0.1,0-0.1-0.1-0.1-0.2
		c0-0.3-0.1-0.5-0.4-0.7c-0.2-0.2-0.6-0.3-1.2-0.5c0,0-0.1,0-0.1-0.1c0-0.1,0-0.1,0.1-0.1c0.9,0.1,1.6,0.1,2.1,0.1
		c0.2,0,0.4,0,0.4-0.1c0.1-0.1,0.1-0.3,0.2-0.6c0.3-1.3,0.5-3.7,0.5-7.2H42.8z"/>
	<path class="st0" d="M52.8,5.1h2.7c0.2-0.3,0.4-0.8,0.6-1.4c0.1-0.4,0.2-0.8,0.3-1.1c0.8,0.2,1.3,0.4,1.5,0.5
		c0.2,0.1,0.3,0.2,0.3,0.3c0,0.2-0.2,0.3-0.6,0.3c-0.5,0.5-1,1-1.5,1.4H59c0.6-0.7,1-1,1.1-1c0.1,0,0.5,0.2,1.1,0.7
		c0.3,0.2,0.5,0.4,0.5,0.5c0,0.1-0.1,0.2-0.2,0.2H49.9v0.5c0,2.1-0.2,3.8-0.6,5c-0.4,1.4-1.2,2.5-2.2,3.4c0,0,0,0,0,0
		c-0.1,0-0.1,0-0.1-0.1c0,0,0,0,0,0c0.6-1,1-2.1,1.2-3.4c0.2-1.1,0.3-2.6,0.3-4.3c0-0.8,0-1.6-0.1-2.3c0.6,0.3,1.2,0.6,1.7,0.9h2.4
		c-0.1,0-0.2-0.1-0.3-0.2c-0.1-0.1-0.1-0.3-0.2-0.6c-0.2-0.7-0.4-1.2-0.8-1.5c0,0,0,0,0-0.1c0,0,0-0.1,0.1-0.1c0,0,0,0,0,0
		c1.4,0.4,2.1,0.9,2.1,1.7C53.4,4.7,53.2,5,52.8,5.1z M53.7,2.1v-1c0-0.3,0-0.6-0.1-1c1.4,0.1,2.1,0.3,2.1,0.5
		c0,0.1-0.2,0.3-0.5,0.4v1.1h3.2c0.6-0.7,1-1,1.1-1c0.1,0,0.4,0.2,1,0.7C60.8,2.1,61,2.2,61,2.3c0,0.1-0.1,0.2-0.2,0.2h-11
		c-0.3,0-0.7,0-1.1,0.1L48.4,2c0.5,0.1,0.9,0.1,1.3,0.1H53.7z M55.7,8.4v2.2h1.9c0.6-0.6,0.9-1,1-1c0.1,0,0.4,0.2,1,0.7
		c0.3,0.2,0.4,0.4,0.4,0.5c0,0.1-0.1,0.2-0.2,0.2h-4.1v2.5h3.1c0.6-0.7,1-1.1,1.1-1.1c0.1,0,0.5,0.2,1.1,0.7
		c0.3,0.3,0.5,0.4,0.5,0.5c0,0.1-0.1,0.2-0.2,0.2H50.5c-0.3,0-0.7,0-1.1,0.1l-0.2-0.6c0.4,0.1,0.9,0.1,1.3,0.1h3.8V11h-2
		c-0.3,0-0.6,0-1,0.1l-0.2-0.6c0.4,0.1,0.8,0.1,1.1,0.1h2.1V8.4h-2.2c-0.6,0.8-1.3,1.6-2.1,2.1c0,0,0,0,0,0c-0.1,0-0.1,0-0.1-0.1
		c0,0,0,0,0,0c0.6-1,1.1-2.1,1.4-3.3c0.1-0.4,0.2-0.8,0.2-1.1c0.8,0.2,1.2,0.3,1.5,0.4c0.2,0.1,0.3,0.2,0.3,0.3c0,0.1,0,0.2-0.1,0.2
		c-0.1,0-0.2,0.1-0.4,0.1c-0.1,0.3-0.3,0.6-0.5,1h2V7.4c0-0.6,0-1.1-0.1-1.6c1.3,0.1,2,0.3,2,0.5c0,0.1-0.2,0.3-0.5,0.4v1.4h2.4
		c0.5-0.6,0.8-1,0.9-1c0.1,0,0.4,0.2,1,0.7c0.3,0.2,0.4,0.4,0.4,0.5c0,0.1-0.1,0.2-0.2,0.2H55.7z"/>
	<path class="st0" d="M65.2,6.7h9.7c0.4-0.5,0.7-0.8,0.8-0.8s0.5,0.3,1,0.8c0.3,0.3,0.4,0.5,0.4,0.6c0,0.2,0,0.3-0.1,0.3
		c-0.1,0-0.3,0.1-0.6,0.1c-0.2,0-0.3,0.1-0.4,0.2c-0.6,0.4-1.1,0.8-1.5,1c0,0,0,0,0,0c-0.1,0-0.1,0-0.1-0.1c0,0,0,0,0,0
		c0.3-0.5,0.5-1,0.7-1.6h-9.8c0,0.7-0.1,1.2-0.4,1.6c-0.3,0.3-0.6,0.5-1,0.5c-0.2,0-0.4-0.1-0.5-0.2C63,8.8,63,8.6,63,8.4
		c0-0.3,0.2-0.6,0.6-0.8c0.4-0.3,0.8-0.5,0.9-0.8c0.2-0.3,0.3-0.6,0.3-1.1c0,0,0-0.1,0.1-0.1c0,0,0.1,0,0.1,0.1
		C65.1,6,65.1,6.4,65.2,6.7z M69.3,8.2c0,0.1-0.2,0.3-0.5,0.4c0,1.9-0.5,3.3-1.5,4.2c-0.9,0.8-2.3,1.4-4.2,1.7c-0.1,0-0.1,0-0.1-0.2
		c0,0,0-0.1,0-0.1c1.7-0.7,2.9-1.5,3.5-2.4c0.5-0.8,0.8-2,0.8-3.6c0-0.2,0-0.5,0-0.7c0.9,0.1,1.5,0.2,1.7,0.2
		C69.2,8,69.3,8,69.3,8.2z M70.7,2.8v1.9h2.8c0.6-0.7,0.9-1,1-1c0.1,0,0.4,0.2,1,0.7c0.3,0.2,0.4,0.4,0.4,0.5C75.9,5,75.8,5,75.7,5
		h-9.8c-0.3,0-0.6,0-1.1,0.1l-0.2-0.6c0.4,0.1,0.8,0.1,1.2,0.1h3.3V2.8h-4.7c-0.3,0-0.7,0-1.1,0.1l-0.2-0.6c0.4,0.1,0.8,0.1,1.2,0.1
		h4.7V1.8c0-0.5,0-1-0.1-1.5c1.4,0.1,2.2,0.3,2.2,0.5c0,0.1-0.2,0.3-0.6,0.4v1.3h3.9c0.6-0.7,0.9-1,1-1c0.1,0,0.5,0.2,1.1,0.7
		c0.3,0.3,0.5,0.4,0.5,0.5c0,0.1-0.1,0.2-0.2,0.2H70.7z M77.2,13.1c0,0.4-0.2,0.7-0.7,0.9c-0.6,0.2-1.6,0.3-3,0.3
		c-1.2,0-2-0.1-2.3-0.3c-0.3-0.2-0.5-0.5-0.5-1.1v-2.6c0-0.9,0-1.7,0-2.6c1,0.1,1.6,0.2,1.8,0.3c0.1,0,0.2,0.1,0.2,0.2
		c0,0.1-0.2,0.3-0.5,0.4v3.7c0,0.2,0.1,0.4,0.3,0.5c0.2,0.1,0.6,0.1,1.2,0.1c0.7,0,1.2,0,1.5-0.1c0.2-0.1,0.5-0.3,0.6-0.7
		c0.2-0.3,0.3-0.8,0.6-1.6c0,0,0-0.1,0.1-0.1c0.1,0,0.1,0,0.1,0.1l0,1.7c0,0.2,0,0.3,0.1,0.3C77,12.6,77.2,12.8,77.2,13.1z"/>
	<path class="st0" d="M84.9,12.9c0,0.2-0.1,0.3-0.4,0.3c-0.1,0-0.2,0-0.4,0c-0.8,0.5-1.6,0.8-2.4,1c-0.7,0.2-1.7,0.3-2.8,0.4
		c-0.1,0-0.1,0-0.1-0.1c0,0,0-0.1,0-0.1c1.3-0.4,2.4-1,3.3-1.7c0.4-0.3,0.7-0.6,1-0.9C84.3,12.4,84.9,12.8,84.9,12.9z M81.4,4
		L81.4,4c0,0.4-0.3,0.6-0.9,0.6c-0.4,0-0.6-0.2-0.6-0.5L79.9,2c0-0.6,0-1.2-0.1-1.7c0.6,0.2,1.1,0.5,1.6,0.8h8.7
		c0.4-0.5,0.7-0.7,0.8-0.7c0.1,0,0.4,0.2,0.9,0.6c0.2,0.2,0.3,0.3,0.3,0.5c0,0.2-0.1,0.3-0.4,0.5v0.4l0.1,1.8c0,0.4-0.3,0.6-0.9,0.6
		c-0.4,0-0.6-0.2-0.6-0.5V4H81.4z M89,11.3h-6.4c0,0.4-0.3,0.6-0.9,0.6c-0.4,0-0.6-0.2-0.6-0.6c0.1-1.3,0.1-2.7,0.1-4.2
		c0-1.1,0-1.9-0.1-2.6c0.6,0.2,1.1,0.5,1.7,0.7h6.2c0.4-0.4,0.7-0.6,0.8-0.6c0.1,0,0.4,0.2,0.9,0.5c0.2,0.2,0.4,0.3,0.4,0.4
		S90.8,6,90.5,6.2V7l0.1,4.2c0,0.4-0.3,0.6-0.9,0.6C89.3,11.8,89,11.6,89,11.3z M83.4,3.7V1.5h-2v2.2H83.4z M89,7.2V5.7h-6.4v1.5H89
		z M89,9V7.5h-6.4V9H89z M89,11V9.4h-6.4V11H89z M84.8,3.7h2.1V1.5h-2.1V3.7z M91.8,13.8c0,0.2-0.1,0.4-0.3,0.6
		c-0.2,0.1-0.3,0.2-0.5,0.2c-0.3,0-0.6-0.2-1-0.5c-0.9-0.8-1.9-1.4-3.1-1.8c0,0,0,0,0-0.1c0-0.1,0-0.1,0.1-0.1
		c1.7,0,2.9,0.2,3.8,0.5C91.4,12.8,91.8,13.2,91.8,13.8z M90.4,3.7V1.5h-2.1v2.2H90.4z"/>
</g>
</svg>
