<?xml version="1.0" encoding="utf-8"?>
<!-- Generator: Adobe Illustrator 25.1.0, SVG Export Plug-In . SVG Version: 6.00 Build 0)  -->
<svg version="1.1"
	 id="レイヤー_1" xmlns:cc="http://creativecommons.org/ns#" xmlns:dc="http://purl.org/dc/elements/1.1/" xmlns:inkscape="http://www.inkscape.org/namespaces/inkscape" xmlns:rdf="http://www.w3.org/1999/02/22-rdf-syntax-ns#" xmlns:sodipodi="http://sodipodi.sourceforge.net/DTD/sodipodi-0.dtd" xmlns:svg="http://www.w3.org/2000/svg"
	 xmlns="http://www.w3.org/2000/svg" xmlns:xlink="http://www.w3.org/1999/xlink" x="0px" y="0px" viewBox="0 0 108 15"
	 style="enable-background:new 0 0 108 15;" xml:space="preserve">
<style type="text/css">
	.st0{fill:#FFFFFF;}
</style>
<sodipodi:namedview  bordercolor="#666666" borderopacity="1" gridtolerance="10" guidetolerance="10" id="namedview25" inkscape:current-layer="レイヤー_1" inkscape:cx="67.421554" inkscape:cy="9.8157131" inkscape:pageopacity="0" inkscape:pageshadow="2" inkscape:window-height="480" inkscape:window-maximized="0" inkscape:window-width="722" inkscape:window-x="0" inkscape:window-y="0" inkscape:zoom="5.6990741" objecttolerance="10" pagecolor="#ffffff" showgrid="false">
	</sodipodi:namedview>
<g>
	<path class="st0" d="M22.2,2c1,0.3,1.4,0.6,1.4,0.8c0,0.1,0,0.2-0.1,0.2C23.4,3,23.3,3,23,3.1c-0.5,0.8-1,1.6-1.5,2.2
		c0.5,0.1,0.8,0.1,0.9,0.2c0.1,0,0.2,0.1,0.2,0.2c0,0.2-0.2,0.3-0.5,0.4v1.3l0,6.7c0,0.5-0.3,0.7-1,0.7c-0.5,0-0.7-0.2-0.7-0.6
		c0.1-1.8,0.1-4.3,0.1-7.5V6.3c-1.7,1.7-3.8,3-6.2,3.9c0,0,0,0,0,0c-0.1,0-0.1,0-0.1-0.1c0,0,0,0,0-0.1c2.8-1.7,5-3.7,6.4-6.2
		C21,3.3,21.3,2.6,21.6,2h-5.4c-0.4,0-0.9,0-1.5,0.1l-0.2-0.6c0.6,0.1,1.2,0.1,1.7,0.1h9.7c0.7-0.8,1.1-1.2,1.2-1.2
		c0.1,0,0.5,0.3,1.2,0.9c0.4,0.3,0.5,0.5,0.5,0.6c0,0.1-0.1,0.2-0.2,0.2H22.2z M28.4,9.3c0,0.3-0.1,0.6-0.3,0.8
		c-0.2,0.2-0.4,0.3-0.6,0.3c-0.2,0-0.4-0.1-0.5-0.2c-0.1-0.1-0.3-0.3-0.5-0.7c-0.8-1.5-2-2.8-3.6-3.8c0,0,0,0,0,0c0,0,0-0.1,0.1-0.1
		c0,0,0.1-0.1,0.1-0.1c1.8,0.6,3.2,1.2,4.1,1.9C28,8.1,28.4,8.7,28.4,9.3z"/>
	<path class="st0" d="M35.3,9.3v1.5h1c0.4-0.5,0.7-0.8,0.8-0.8c0.1,0,0.4,0.2,0.8,0.5c0.2,0.2,0.4,0.4,0.4,0.5
		c0,0.1-0.1,0.2-0.2,0.2h-2.8v1.3c1.1-0.1,2-0.3,2.9-0.4c0.1,0,0.1,0,0.1,0.1c0,0,0,0.1,0,0.1c-0.9,0.4-1.8,0.7-2.7,0.9
		s-2.2,0.5-4.1,0.9c-0.1,0.4-0.2,0.6-0.3,0.6c-0.1,0-0.2-0.1-0.3-0.3c-0.1-0.2-0.2-0.7-0.5-1.5c0.2,0,0.5,0,0.8,0c0.4,0,0.9,0,1.4,0
		c0.7,0,1.1-0.1,1.4-0.1v-1.4H32c-0.3,0-0.7,0-1.2,0.1l-0.2-0.6c0.5,0.1,0.9,0.1,1.3,0.1h1.9V9.3h-1.5c0,0.4-0.3,0.6-0.7,0.6
		c-0.4,0-0.7-0.2-0.7-0.5l0-2.6c0-0.9,0-1.8-0.1-2.5c0.5,0.2,1,0.4,1.5,0.7h1.4V3.7h-2.3c-0.3,0-0.7,0-1.1,0.1l-0.2-0.6
		c0.5,0.1,0.9,0.1,1.3,0.1h2.3V2c-0.8,0.1-1.9,0.1-3.1,0.1c-0.1,0-0.1,0-0.1-0.1c0,0,0-0.1,0-0.1c1.5-0.2,2.9-0.5,4.3-1
		c0.8-0.3,1.4-0.6,1.8-0.9c0.9,0.7,1.3,1.1,1.3,1.3c0,0.1-0.1,0.1-0.3,0.1c-0.1,0-0.3,0-0.5-0.1c-0.7,0.2-1.4,0.4-2.1,0.5v1.5h1.5
		c0.5-0.6,0.8-0.9,1-0.9c0.1,0,0.4,0.2,0.9,0.6C38.9,3.3,39,3.4,39,3.5c0,0.1-0.1,0.2-0.2,0.2h-3.5V5h1.4c0.4-0.4,0.7-0.7,0.8-0.7
		s0.4,0.2,0.8,0.5c0.2,0.2,0.3,0.3,0.3,0.4c0,0.1-0.1,0.3-0.4,0.4v3.4c0,0.5-0.3,0.7-0.8,0.7c-0.4,0-0.6-0.2-0.6-0.5H35.3z
		 M32.4,6.9h1.5V5.4h-1.5V6.9z M32.4,8.9h1.5V7.3h-1.5V8.9z M35.3,6.9h1.5V5.4h-1.5V6.9z M35.3,8.9h1.5V7.3h-1.5V8.9z M41.7,4.8
		c-0.2,3.1-0.8,5.3-1.7,6.8c-0.8,1.3-2,2.3-3.7,3.2c0,0,0,0,0,0c-0.1,0-0.1-0.1-0.1-0.2c0,0,0,0,0-0.1c1.4-1.2,2.5-2.6,3.1-4.2
		c0.5-1.4,0.9-3.3,1-5.7h-0.4c-0.5,0-0.8,0-1.2,0.1l-0.2-0.6c0.4,0.1,0.8,0.1,1.3,0.1h0.5c0-0.8,0-1.6,0-2.5c0-0.6,0-1.1-0.1-1.6
		c1,0.1,1.6,0.2,1.8,0.3c0.2,0.1,0.3,0.1,0.3,0.3c0,0.2-0.2,0.3-0.5,0.4c0,1.2-0.1,2.3-0.1,3.1h1.3c0.3-0.4,0.5-0.6,0.6-0.7
		c0.1-0.1,0.2-0.1,0.2-0.1c0.1,0,0.4,0.2,0.8,0.6c0.2,0.2,0.3,0.4,0.3,0.5c0,0.1-0.1,0.3-0.4,0.5c-0.1,4.1-0.3,6.7-0.8,8
		c-0.2,0.5-0.5,0.8-0.9,1.1c-0.3,0.2-0.7,0.2-1.1,0.2c-0.2,0-0.3,0-0.4-0.1c-0.1,0-0.1-0.1-0.1-0.3c0-0.3-0.1-0.5-0.4-0.7
		c-0.2-0.2-0.6-0.3-1.2-0.5c0,0-0.1,0-0.1-0.1c0-0.1,0-0.1,0.1-0.1c1,0.1,1.7,0.1,2.1,0.1c0.2,0,0.4,0,0.5-0.1
		c0.1-0.1,0.1-0.3,0.2-0.6c0.3-1.3,0.5-3.8,0.5-7.3H41.7z"/>
	<path class="st0" d="M51.9,5.2h2.8c0.2-0.3,0.4-0.8,0.6-1.4c0.1-0.4,0.2-0.8,0.3-1.1c0.8,0.2,1.3,0.4,1.5,0.5
		c0.2,0.1,0.4,0.2,0.4,0.3c0,0.2-0.2,0.3-0.6,0.3c-0.5,0.6-1,1-1.6,1.5h2.9c0.6-0.7,1-1,1.1-1c0.1,0,0.5,0.2,1.1,0.7
		c0.3,0.2,0.5,0.4,0.5,0.5c0,0.1-0.1,0.2-0.2,0.2H49v0.5c0,2.2-0.2,3.9-0.6,5.1c-0.4,1.4-1.2,2.5-2.3,3.5c0,0,0,0,0,0
		c-0.1,0-0.1,0-0.1-0.1c0,0,0,0,0,0c0.6-1,1-2.1,1.2-3.4c0.2-1.2,0.3-2.6,0.3-4.3c0-0.9,0-1.7-0.1-2.4c0.6,0.3,1.2,0.6,1.8,0.9h2.4
		c-0.1,0-0.2-0.1-0.3-0.3c-0.1-0.1-0.1-0.3-0.2-0.6c-0.2-0.7-0.4-1.2-0.8-1.5c0,0,0,0,0-0.1c0,0,0-0.1,0.1-0.1c0,0,0,0,0,0
		c1.5,0.4,2.2,1,2.2,1.7C52.6,4.9,52.3,5.2,51.9,5.2z M52.8,2.2v-1c0-0.3,0-0.6-0.1-1.1c1.4,0.1,2.2,0.3,2.2,0.5
		c0,0.2-0.2,0.3-0.5,0.4v1.1h3.3c0.6-0.7,1-1,1.1-1c0.1,0,0.5,0.2,1,0.7c0.3,0.3,0.4,0.4,0.4,0.5c0,0.1-0.1,0.2-0.2,0.2H48.8
		c-0.3,0-0.7,0-1.2,0.1l-0.2-0.6c0.5,0.1,0.9,0.1,1.3,0.1H52.8z M54.9,8.7v2.3h1.9c0.6-0.7,0.9-1,1-1c0.1,0,0.4,0.2,1,0.7
		c0.3,0.2,0.4,0.4,0.4,0.5c0,0.1-0.1,0.2-0.2,0.2h-4.1v2.6h3.2c0.7-0.7,1-1.1,1.2-1.1c0.1,0,0.5,0.3,1.1,0.8
		c0.3,0.3,0.5,0.5,0.5,0.5c0,0.1-0.1,0.2-0.2,0.2H49.6c-0.3,0-0.7,0-1.1,0.1l-0.2-0.6c0.5,0.1,0.9,0.1,1.3,0.1h3.9v-2.6h-2
		c-0.3,0-0.6,0-1.1,0.1l-0.2-0.6c0.4,0.1,0.8,0.1,1.2,0.1h2.1V8.7h-2.3c-0.6,0.9-1.3,1.6-2.1,2.2c0,0,0,0,0,0c-0.1,0-0.1,0-0.1-0.1
		c0,0,0,0,0,0c0.7-1,1.1-2.1,1.5-3.4c0.1-0.4,0.2-0.8,0.2-1.1c0.8,0.2,1.3,0.3,1.5,0.5c0.2,0.1,0.3,0.2,0.3,0.3s0,0.2-0.1,0.2
		c-0.1,0-0.2,0.1-0.4,0.1c-0.1,0.3-0.3,0.6-0.5,1h2V7.6c0-0.6,0-1.2-0.1-1.6c1.3,0.1,2,0.3,2,0.5c0,0.1-0.2,0.3-0.5,0.4v1.4h2.5
		c0.5-0.7,0.8-1,0.9-1c0.1,0,0.4,0.2,1,0.7c0.3,0.2,0.4,0.4,0.4,0.5c0,0.1-0.1,0.2-0.2,0.2H54.9z"/>
	<path class="st0" d="M65.2,2.3c-0.7,1-1.6,1.8-2.7,2.3c0,0,0,0,0,0c-0.1,0-0.1,0-0.1-0.1c0,0,0,0,0,0C63,3.8,63.5,2.9,64,2
		c0.4-0.7,0.6-1.3,0.7-1.9c1.3,0.3,1.9,0.6,1.9,0.8c0,0.2-0.2,0.3-0.6,0.3c-0.1,0.2-0.3,0.4-0.4,0.7h2.2C68.1,1.3,68.4,1,68.6,1
		c0.1,0,0.4,0.2,1,0.6c0.3,0.2,0.4,0.4,0.4,0.5c0,0.1-0.1,0.2-0.2,0.2h-3.4c1,0.3,1.5,0.8,1.5,1.4c0,0.3-0.1,0.5-0.2,0.6
		c-0.1,0.1-0.3,0.2-0.5,0.2c-0.2,0-0.4-0.1-0.5-0.2c-0.1-0.1-0.1-0.4-0.2-0.7c-0.1-0.5-0.3-0.9-0.5-1.3H65.2z M70.1,5h4.4
		c0.5-0.6,0.8-0.9,0.9-0.9s0.5,0.3,1.1,0.8C76.8,5.1,77,5.3,77,5.4c0,0.2-0.2,0.3-0.5,0.3c-0.3,0-0.5,0.1-0.6,0.1
		c-0.5,0.3-0.9,0.6-1.3,0.9c0,0,0,0,0,0c-0.1,0-0.1,0-0.1-0.1c0,0,0,0,0,0c0.1-0.4,0.3-0.8,0.4-1.3h-10c0,0.7-0.1,1.2-0.4,1.6
		c-0.3,0.3-0.6,0.5-0.9,0.5c-0.3,0-0.5-0.1-0.6-0.3c-0.1-0.2-0.2-0.4-0.2-0.6c0-0.3,0.2-0.6,0.6-0.7c0.4-0.2,0.7-0.4,0.9-0.7
		c0.2-0.2,0.3-0.6,0.3-1c0,0,0-0.1,0.1-0.1s0.1,0,0.1,0.1c0.1,0.3,0.1,0.5,0.1,0.8h4V4.3c0-0.2,0-0.5-0.1-1c0.3,0,0.6,0.1,0.8,0.1
		c0.3-0.5,0.6-1.1,0.8-1.7c0.2-0.6,0.3-1.1,0.4-1.5c0.8,0.2,1.3,0.3,1.5,0.4c0.2,0.1,0.3,0.2,0.3,0.3c0,0.1,0,0.2-0.1,0.2
		c-0.1,0-0.2,0.1-0.5,0.1c-0.1,0.2-0.3,0.5-0.5,0.7h2.8c0.5-0.7,0.9-1,1-1c0.1,0,0.5,0.2,1.1,0.7c0.3,0.3,0.5,0.4,0.5,0.5
		c0,0.1-0.1,0.2-0.2,0.2h-4.2c1,0.4,1.5,0.8,1.5,1.4c0,0.3-0.1,0.5-0.2,0.6c-0.1,0.1-0.3,0.2-0.5,0.2c-0.3,0-0.4-0.1-0.5-0.2
		c-0.1-0.1-0.1-0.4-0.2-0.7C72.3,3,72.2,2.6,72,2.3h-0.8c-0.4,0.5-0.8,0.8-1.3,1.2c0.5,0.1,0.8,0.2,0.8,0.4c0,0.1-0.2,0.3-0.5,0.4V5
		z M66.9,10.9h5.8c0.4-0.5,0.7-0.8,0.8-0.8c0.1,0,0.4,0.2,0.9,0.6c0.2,0.2,0.4,0.4,0.4,0.5c0,0.1-0.1,0.2-0.4,0.5v0.6l0.1,2
		c0,0.4-0.3,0.6-0.9,0.6c-0.2,0-0.4,0-0.5-0.1c-0.1-0.1-0.1-0.2-0.1-0.4v-0.4h-6v0.4c0,0.5-0.3,0.7-0.9,0.7c-0.4,0-0.7-0.2-0.7-0.5
		l0.1-5.3c0-1.2,0-2.3-0.1-3.3c0.6,0.3,1.2,0.5,1.7,0.8h4.8c0.4-0.4,0.6-0.6,0.7-0.6c0.1,0,0.4,0.2,0.9,0.5c0.2,0.2,0.4,0.3,0.4,0.4
		s-0.1,0.3-0.4,0.4v0.3l0,1.5c0,0.4-0.3,0.6-0.8,0.6c-0.3,0-0.4,0-0.5-0.1C72,9.7,72,9.5,72,9.3h-5.1V10.9z M72,8.9V7.1h-5.1v1.9H72
		z M66.9,11.3v2.2h6v-2.2H66.9z"/>
	<path class="st0" d="M81.7,10c0.8-0.3,1.6-0.6,2.1-0.8c0,0,0,0,0,0c0.1,0,0.1,0,0.1,0.1c0,0,0,0,0,0.1c-1.2,1-2.6,2-4.4,2.8
		c0,0.5-0.1,0.7-0.3,0.7c-0.1,0-0.3-0.1-0.4-0.4c-0.1-0.3-0.4-0.7-0.7-1.5c0.3,0,0.8-0.1,1.4-0.3c0.4-0.1,0.6-0.2,0.8-0.2V6.3h-0.7
		c-0.2,0-0.5,0-0.9,0.1l-0.2-0.6c0.4,0.1,0.7,0.1,1,0.1h0.7V2.1h-0.9c-0.2,0-0.5,0-0.9,0.1l-0.2-0.6c0.4,0.1,0.7,0.1,1,0.1h2.3
		c0.4-0.6,0.7-0.9,0.9-0.9c0.1,0,0.4,0.2,0.9,0.6c0.3,0.2,0.4,0.4,0.4,0.5s-0.1,0.2-0.2,0.2h-1.8v3.8h0.1c0.4-0.5,0.6-0.8,0.8-0.8
		c0.1,0,0.4,0.2,0.8,0.6c0.2,0.2,0.3,0.3,0.3,0.4c0,0.1-0.1,0.2-0.2,0.2h-1.8V10z M88.7,7.7v2.6h1.1c0.6-0.7,1-1.1,1.1-1.1
		c0.1,0,0.5,0.2,1.1,0.7c0.3,0.3,0.5,0.4,0.5,0.5c0,0.1-0.1,0.2-0.2,0.2h-3.5v3h1.7c0.7-0.7,1.1-1.1,1.2-1.1c0.1,0,0.5,0.3,1.1,0.8
		c0.3,0.3,0.5,0.4,0.5,0.5S93.2,14,93,14h-9.5c-0.3,0-0.6,0-1,0.1l-0.2-0.6c0.4,0.1,0.8,0.1,1.2,0.1h3.9v-3H85c-0.3,0-0.6,0-1,0.1
		l-0.2-0.6c0.4,0.1,0.8,0.1,1.1,0.1h2.4V7.7h-1.8v0.4c0,0.4-0.3,0.6-0.9,0.6c-0.4,0-0.6-0.2-0.6-0.6C84,6.7,84,5.2,84,3.5
		c0-0.8,0-1.8-0.1-2.9c0.7,0.3,1.2,0.6,1.7,0.8h5.1c0.4-0.5,0.7-0.7,0.8-0.7s0.4,0.2,0.9,0.6c0.3,0.2,0.4,0.4,0.4,0.5
		c0,0.1-0.2,0.3-0.6,0.6v0.9l0.1,4.7c0,0.4-0.3,0.6-0.9,0.6c-0.4,0-0.6-0.2-0.6-0.5V7.7H88.7z M85.5,4.3h1.8V1.7h-1.8V4.3z
		 M85.5,7.3h1.8V4.7h-1.8V7.3z M88.7,4.3h2V1.7h-2V4.3z M88.7,7.3h2V4.7h-2V7.3z"/>
</g>
</svg>
