<?xml version="1.0" encoding="utf-8"?>
<!-- Generator: Adobe Illustrator 25.1.0, SVG Export Plug-In . SVG Version: 6.00 Build 0)  -->
<svg version="1.1"
	 id="レイヤー_1" xmlns:cc="http://creativecommons.org/ns#" xmlns:dc="http://purl.org/dc/elements/1.1/" xmlns:inkscape="http://www.inkscape.org/namespaces/inkscape" xmlns:rdf="http://www.w3.org/1999/02/22-rdf-syntax-ns#" xmlns:sodipodi="http://sodipodi.sourceforge.net/DTD/sodipodi-0.dtd" xmlns:svg="http://www.w3.org/2000/svg"
	 xmlns="http://www.w3.org/2000/svg" xmlns:xlink="http://www.w3.org/1999/xlink" x="0px" y="0px" viewBox="0 0 108 15"
	 style="enable-background:new 0 0 108 15;" xml:space="preserve">
<style type="text/css">
	.st0{fill:#FFFFFF;}
</style>
<sodipodi:namedview  bordercolor="#666666" borderopacity="1" gridtolerance="10" guidetolerance="10" id="namedview25" inkscape:current-layer="レイヤー_1" inkscape:cx="67.421554" inkscape:cy="9.8157131" inkscape:pageopacity="0" inkscape:pageshadow="2" inkscape:window-height="480" inkscape:window-maximized="0" inkscape:window-width="722" inkscape:window-x="0" inkscape:window-y="0" inkscape:zoom="5.6990741" objecttolerance="10" pagecolor="#ffffff" showgrid="false">
	</sodipodi:namedview>
<g>
	<path class="st0" d="M22.5,1.9c1,0.3,1.4,0.6,1.4,0.8c0,0.1,0,0.2-0.1,0.2c-0.1,0-0.2,0.1-0.5,0.1c-0.5,0.8-1,1.6-1.5,2.2
		c0.5,0.1,0.8,0.1,0.9,0.2c0.1,0,0.2,0.1,0.2,0.2c0,0.2-0.2,0.3-0.5,0.4v1.3l0,6.7c0,0.5-0.3,0.7-1,0.7c-0.5,0-0.7-0.2-0.7-0.6
		c0.1-1.8,0.1-4.3,0.1-7.5V6.3c-1.7,1.7-3.8,3-6.2,3.9c0,0,0,0,0,0c-0.1,0-0.1,0-0.1-0.1c0,0,0,0,0-0.1c2.8-1.7,5-3.7,6.4-6.2
		c0.4-0.6,0.7-1.3,0.9-1.9h-5.4c-0.4,0-0.9,0-1.5,0.1l-0.2-0.6c0.6,0.1,1.2,0.1,1.7,0.1h9.7c0.7-0.8,1.1-1.2,1.2-1.2
		c0.1,0,0.5,0.3,1.2,0.9c0.4,0.3,0.5,0.5,0.5,0.6c0,0.1-0.1,0.2-0.2,0.2H22.5z M28.7,9.3c0,0.3-0.1,0.6-0.3,0.8
		c-0.2,0.2-0.4,0.3-0.6,0.3c-0.2,0-0.4-0.1-0.5-0.2c-0.1-0.1-0.3-0.3-0.5-0.7c-0.8-1.5-2-2.8-3.6-3.8c0,0,0,0,0,0c0,0,0-0.1,0.1-0.1
		c0,0,0.1-0.1,0.1-0.1c1.8,0.6,3.2,1.2,4.1,1.9C28.3,8.1,28.7,8.7,28.7,9.3z"/>
	<path class="st0" d="M35.6,9.3v1.5h1c0.4-0.5,0.7-0.8,0.8-0.8c0.1,0,0.4,0.2,0.8,0.5c0.2,0.2,0.4,0.4,0.4,0.5
		c0,0.1-0.1,0.2-0.2,0.2h-2.8v1.3c1.1-0.1,2-0.3,2.9-0.4c0.1,0,0.1,0,0.1,0.1c0,0,0,0.1,0,0.1c-0.9,0.4-1.8,0.7-2.7,0.9
		c-0.9,0.2-2.2,0.5-4.1,0.9c-0.1,0.4-0.2,0.6-0.3,0.6c-0.1,0-0.2-0.1-0.3-0.3c-0.1-0.2-0.2-0.7-0.5-1.5c0.2,0,0.5,0,0.8,0
		c0.4,0,0.9,0,1.4,0c0.7,0,1.1-0.1,1.4-0.1v-1.4h-1.9c-0.3,0-0.7,0-1.2,0.1L31,10.6c0.5,0.1,0.9,0.1,1.3,0.1h1.9V9.3h-1.5
		c0,0.4-0.3,0.6-0.7,0.6c-0.4,0-0.7-0.2-0.7-0.5l0-2.6c0-0.9,0-1.8-0.1-2.5c0.5,0.2,1,0.4,1.5,0.7h1.4V3.6h-2.3
		c-0.3,0-0.7,0-1.1,0.1l-0.2-0.6c0.5,0.1,0.9,0.1,1.3,0.1h2.3V2c-0.8,0.1-1.9,0.1-3.1,0.1c-0.1,0-0.1,0-0.1-0.1c0,0,0-0.1,0-0.1
		c1.5-0.2,2.9-0.5,4.3-1c0.8-0.3,1.4-0.6,1.8-0.9c0.9,0.7,1.3,1.1,1.3,1.3c0,0.1-0.1,0.1-0.3,0.1c-0.1,0-0.3,0-0.5-0.1
		c-0.7,0.2-1.4,0.4-2.1,0.5v1.5h1.5c0.5-0.6,0.8-0.9,1-0.9c0.1,0,0.4,0.2,0.9,0.6c0.3,0.2,0.4,0.4,0.4,0.5c0,0.1-0.1,0.2-0.2,0.2
		h-3.5v1.3h1.4c0.4-0.4,0.7-0.7,0.8-0.7s0.4,0.2,0.8,0.5c0.2,0.2,0.3,0.3,0.3,0.4c0,0.1-0.1,0.3-0.4,0.4v3.4c0,0.5-0.3,0.7-0.8,0.7
		c-0.4,0-0.6-0.2-0.6-0.5H35.6z M32.7,6.9h1.5V5.3h-1.5V6.9z M32.7,8.9h1.5V7.2h-1.5V8.9z M35.6,6.9h1.5V5.3h-1.5V6.9z M35.6,8.9
		h1.5V7.2h-1.5V8.9z M42.1,4.8c-0.2,3.1-0.8,5.3-1.7,6.8c-0.8,1.3-2,2.3-3.7,3.2c0,0,0,0,0,0c-0.1,0-0.1-0.1-0.1-0.2c0,0,0,0,0-0.1
		c1.4-1.2,2.5-2.6,3.1-4.2c0.5-1.4,0.9-3.3,1-5.7h-0.4c-0.5,0-0.8,0-1.2,0.1l-0.2-0.6c0.4,0.1,0.8,0.1,1.3,0.1h0.5
		c0-0.8,0-1.6,0-2.5c0-0.6,0-1.1-0.1-1.6c1,0.1,1.6,0.2,1.8,0.3c0.2,0.1,0.3,0.1,0.3,0.3c0,0.2-0.2,0.3-0.5,0.4
		c0,1.2-0.1,2.3-0.1,3.1h1.3c0.3-0.4,0.5-0.6,0.6-0.7c0.1-0.1,0.2-0.1,0.2-0.1c0.1,0,0.4,0.2,0.8,0.6c0.2,0.2,0.3,0.4,0.3,0.5
		c0,0.1-0.1,0.3-0.4,0.5c-0.1,4.1-0.3,6.7-0.8,8c-0.2,0.5-0.5,0.8-0.9,1.1c-0.3,0.2-0.7,0.2-1.1,0.2c-0.2,0-0.3,0-0.4-0.1
		c-0.1,0-0.1-0.1-0.1-0.3c0-0.3-0.1-0.5-0.4-0.7c-0.2-0.2-0.6-0.3-1.2-0.5c0,0-0.1,0-0.1-0.1c0-0.1,0-0.1,0.1-0.1
		c1,0.1,1.7,0.1,2.1,0.1c0.2,0,0.4,0,0.5-0.1c0.1-0.1,0.1-0.3,0.2-0.6c0.3-1.3,0.5-3.8,0.5-7.3H42.1z"/>
	<path class="st0" d="M52.2,5.2H55c0.2-0.3,0.4-0.8,0.6-1.4c0.1-0.4,0.2-0.8,0.3-1.1c0.8,0.2,1.3,0.4,1.5,0.5
		c0.2,0.1,0.4,0.2,0.4,0.3c0,0.2-0.2,0.3-0.6,0.3c-0.5,0.6-1,1-1.6,1.5h2.9c0.6-0.7,1-1,1.1-1c0.1,0,0.5,0.2,1.1,0.7
		c0.3,0.2,0.5,0.4,0.5,0.5c0,0.1-0.1,0.2-0.2,0.2H49.3V6c0,2.2-0.2,3.9-0.6,5.1c-0.4,1.4-1.2,2.5-2.3,3.5c0,0,0,0,0,0
		c-0.1,0-0.1,0-0.1-0.1c0,0,0,0,0,0c0.6-1,1-2.1,1.2-3.4c0.2-1.2,0.3-2.6,0.3-4.3c0-0.9,0-1.7-0.1-2.4c0.6,0.3,1.2,0.6,1.8,0.9h2.4
		c-0.1,0-0.2-0.1-0.3-0.3c-0.1-0.1-0.1-0.3-0.2-0.6c-0.2-0.7-0.4-1.2-0.8-1.5c0,0,0,0,0-0.1c0,0,0-0.1,0.1-0.1c0,0,0,0,0,0
		c1.5,0.4,2.2,1,2.2,1.7C52.9,4.8,52.7,5.1,52.2,5.2z M53.2,2.2v-1c0-0.3,0-0.6-0.1-1.1c1.4,0.1,2.2,0.3,2.2,0.5
		c0,0.2-0.2,0.3-0.5,0.4v1.1H58c0.6-0.7,1-1,1.1-1c0.1,0,0.5,0.2,1,0.7c0.3,0.3,0.4,0.4,0.4,0.5c0,0.1-0.1,0.2-0.2,0.2H49.2
		c-0.3,0-0.7,0-1.2,0.1L47.8,2c0.5,0.1,0.9,0.1,1.3,0.1H53.2z M55.3,8.6v2.3h1.9c0.6-0.7,0.9-1,1-1c0.1,0,0.4,0.2,1,0.7
		c0.3,0.2,0.4,0.4,0.4,0.5c0,0.1-0.1,0.2-0.2,0.2h-4.1v2.6h3.2c0.7-0.7,1-1.1,1.2-1.1c0.1,0,0.5,0.3,1.1,0.8
		c0.3,0.3,0.5,0.5,0.5,0.5c0,0.1-0.1,0.2-0.2,0.2H49.9c-0.3,0-0.7,0-1.1,0.1l-0.2-0.6c0.5,0.1,0.9,0.1,1.3,0.1h3.9v-2.6h-2
		c-0.3,0-0.6,0-1.1,0.1l-0.2-0.6c0.4,0.1,0.8,0.1,1.2,0.1h2.1V8.6h-2.3c-0.6,0.9-1.3,1.6-2.1,2.2c0,0,0,0,0,0c-0.1,0-0.1,0-0.1-0.1
		c0,0,0,0,0,0c0.7-1,1.1-2.1,1.5-3.4c0.1-0.4,0.2-0.8,0.2-1.1c0.8,0.2,1.3,0.3,1.5,0.5c0.2,0.1,0.3,0.2,0.3,0.3s0,0.2-0.1,0.2
		c-0.1,0-0.2,0.1-0.4,0.1c-0.1,0.3-0.3,0.6-0.5,1h2V7.5c0-0.6,0-1.2-0.1-1.6c1.3,0.1,2,0.3,2,0.5c0,0.1-0.2,0.3-0.5,0.4v1.4h2.5
		c0.5-0.7,0.8-1,0.9-1c0.1,0,0.4,0.2,1,0.7c0.3,0.2,0.4,0.4,0.4,0.5c0,0.1-0.1,0.2-0.2,0.2H55.3z"/>
	<path class="st0" d="M65.9,12.1c0,0.1-0.2,0.2-0.5,0.2c-0.8,1.1-1.7,1.9-2.8,2.4c0,0,0,0,0,0c-0.1,0-0.1,0-0.1-0.1c0,0,0,0,0,0
		c0.6-0.6,1-1.3,1.3-2.1c0.2-0.4,0.3-0.8,0.4-1.3C65.3,11.6,65.9,11.9,65.9,12.1z M66.7,10.4h-1.9v0.1c0,0.4-0.3,0.5-0.8,0.5
		c-0.4,0-0.6-0.2-0.6-0.5l0.1-6.5c0-1.3,0-2.5-0.1-3.5c0.6,0.2,1.1,0.5,1.6,0.8h1.7c0.3-0.5,0.6-0.7,0.7-0.7c0.1,0,0.4,0.2,0.8,0.6
		c0.2,0.2,0.3,0.4,0.3,0.5c0,0.1-0.1,0.3-0.4,0.5v1.4l0,6.9c0,0.4-0.3,0.5-0.8,0.5C66.9,11,66.7,10.8,66.7,10.4L66.7,10.4z
		 M66.7,4.2V1.7h-1.9v2.5H66.7z M66.7,7V4.6h-1.9V7H66.7z M66.7,10.1V7.4h-1.9v2.7H66.7z M68,12.8c0,0.2-0.1,0.4-0.2,0.6
		c-0.1,0.1-0.3,0.2-0.5,0.2c-0.2,0-0.3-0.1-0.4-0.2c-0.1-0.1-0.1-0.3-0.2-0.6c-0.1-0.5-0.3-1-0.7-1.4c0,0,0,0,0,0c0,0,0-0.1,0.1-0.1
		c0,0,0,0,0,0c0.7,0.2,1.2,0.5,1.5,0.8C67.9,12.2,68,12.5,68,12.8z M74.2,10.8c1,1.1,2.2,1.8,3.5,2.2c0,0,0.1,0,0.1,0.1
		c0,0.1,0,0.1-0.1,0.1c-0.5,0.2-0.8,0.6-1,1.2c-0.1,0.2-0.2,0.3-0.3,0.3c-0.1,0-0.2-0.1-0.5-0.2c-1-0.7-1.9-1.6-2.5-2.6
		c-1.2,1.2-2.8,2.2-4.7,2.9c0,0,0,0,0,0c-0.1,0-0.1,0-0.1-0.1c0,0,0,0,0,0c1.9-1.2,3.3-2.4,4.3-3.8c-0.7-1.3-1.1-3.1-1.2-5.2h-0.4
		C71.1,7.5,70.9,9,70.6,10c-0.3,1-0.7,1.9-1.2,2.6c-0.4,0.7-1,1.3-1.8,2c0,0,0,0,0,0c-0.1,0-0.1,0-0.1-0.1c0,0,0,0,0,0
		c1-1.4,1.6-2.9,1.9-4.7C69.5,9,69.6,8,69.7,6.7c0-0.6,0-1.8,0-3.5c0-0.7,0-1.5-0.1-2.5c0.6,0.3,1.2,0.6,1.7,0.9h3.5
		c0.6-0.7,0.9-1,1.1-1c0.1,0,0.5,0.2,1.1,0.7c0.3,0.2,0.5,0.4,0.5,0.5c0,0.1-0.1,0.2-0.2,0.2h-6v0.6c0,1.3,0,2.2,0,2.7h3.7
		c0.4-0.5,0.7-0.8,0.8-0.8c0.1,0,0.4,0.2,0.9,0.6c0.2,0.2,0.4,0.4,0.4,0.5c0,0.1-0.2,0.3-0.5,0.5C75.9,7.9,75.2,9.5,74.2,10.8z
		 M73.4,9.8c0.7-1.2,1.2-2.6,1.5-4.2h-3C72.1,7.1,72.6,8.5,73.4,9.8z"/>
	<path class="st0" d="M80.9,6.8h9.9C91.2,6.2,91.5,6,91.6,6s0.5,0.3,1,0.8c0.3,0.3,0.4,0.5,0.4,0.6c0,0.2,0,0.3-0.1,0.3
		c-0.1,0-0.3,0.1-0.6,0.1c-0.2,0-0.3,0.1-0.4,0.2c-0.6,0.4-1.1,0.8-1.5,1c0,0,0,0,0,0c-0.1,0-0.1,0-0.1-0.1c0,0,0,0,0,0
		c0.3-0.5,0.5-1,0.7-1.6h-10c0,0.7-0.2,1.2-0.5,1.6c-0.3,0.4-0.6,0.5-1.1,0.5c-0.2,0-0.4-0.1-0.5-0.2c-0.1-0.1-0.2-0.3-0.2-0.5
		c0-0.3,0.2-0.6,0.6-0.8c0.5-0.3,0.8-0.5,0.9-0.8c0.2-0.3,0.3-0.6,0.3-1.1c0,0,0-0.1,0.1-0.1c0,0,0.1,0,0.1,0.1
		C80.8,6.2,80.8,6.5,80.9,6.8z M85.1,8.3c0,0.1-0.2,0.3-0.5,0.4c0,2-0.6,3.4-1.5,4.3c-0.9,0.8-2.3,1.4-4.3,1.8c-0.1,0-0.1,0-0.1-0.2
		c0,0,0-0.1,0-0.1c1.8-0.7,2.9-1.5,3.5-2.4c0.5-0.8,0.8-2.1,0.8-3.6c0-0.2,0-0.5,0-0.7C83.9,7.9,84.5,8,84.8,8
		C85,8.1,85.1,8.2,85.1,8.3z M86.5,2.9v1.9h2.8c0.6-0.7,0.9-1,1.1-1c0.1,0,0.5,0.2,1,0.7c0.3,0.2,0.4,0.4,0.4,0.5
		c0,0.1-0.1,0.2-0.2,0.2h-10c-0.3,0-0.7,0-1.1,0.1l-0.2-0.6c0.4,0.1,0.8,0.1,1.2,0.1h3.4V2.9h-4.8c-0.3,0-0.7,0-1.1,0.1l-0.2-0.6
		c0.4,0.1,0.9,0.1,1.3,0.1h4.8V1.8c0-0.5,0-1-0.1-1.6C86.3,0.4,87,0.5,87,0.8c0,0.1-0.2,0.3-0.6,0.4v1.3h4c0.6-0.7,0.9-1,1.1-1
		c0.1,0,0.5,0.2,1.1,0.7c0.3,0.3,0.5,0.4,0.5,0.5c0,0.1-0.1,0.2-0.2,0.2H86.5z M93.1,13.4c0,0.4-0.3,0.7-0.8,0.9
		c-0.6,0.2-1.6,0.3-3,0.3c-1.2,0-2-0.1-2.4-0.3c-0.3-0.2-0.5-0.6-0.5-1.1v-2.6c0-0.9,0-1.7,0-2.6c1.1,0.2,1.7,0.3,1.8,0.3
		c0.1,0,0.2,0.1,0.2,0.2c0,0.1-0.2,0.3-0.5,0.4v3.8c0,0.3,0.1,0.4,0.3,0.5c0.2,0.1,0.6,0.1,1.2,0.1c0.7,0,1.3,0,1.6-0.1
		c0.2-0.1,0.5-0.3,0.6-0.7c0.2-0.3,0.3-0.9,0.6-1.6c0,0,0-0.1,0.1-0.1c0.1,0,0.1,0,0.1,0.1l0,1.7c0,0.2,0,0.3,0.1,0.3
		C92.9,12.8,93.1,13.1,93.1,13.4z"/>
</g>
</svg>
