<?xml version="1.0" encoding="utf-8"?>
<!-- Generator: Adobe Illustrator 25.1.0, SVG Export Plug-In . SVG Version: 6.00 Build 0)  -->
<svg version="1.1"
	 id="レイヤー_1" xmlns:cc="http://creativecommons.org/ns#" xmlns:dc="http://purl.org/dc/elements/1.1/" xmlns:inkscape="http://www.inkscape.org/namespaces/inkscape" xmlns:rdf="http://www.w3.org/1999/02/22-rdf-syntax-ns#" xmlns:sodipodi="http://sodipodi.sourceforge.net/DTD/sodipodi-0.dtd" xmlns:svg="http://www.w3.org/2000/svg"
	 xmlns="http://www.w3.org/2000/svg" xmlns:xlink="http://www.w3.org/1999/xlink" x="0px" y="0px" viewBox="0 0 108 15"
	 style="enable-background:new 0 0 108 15;" xml:space="preserve">
<style type="text/css">
	.st0{fill:#FFFFFF;}
</style>
<sodipodi:namedview  bordercolor="#666666" borderopacity="1" gridtolerance="10" guidetolerance="10" id="namedview25" inkscape:current-layer="レイヤー_1" inkscape:cx="67.421554" inkscape:cy="9.8157131" inkscape:pageopacity="0" inkscape:pageshadow="2" inkscape:window-height="480" inkscape:window-maximized="0" inkscape:window-width="722" inkscape:window-x="0" inkscape:window-y="0" inkscape:zoom="5.6990741" objecttolerance="10" pagecolor="#ffffff" showgrid="false">
	</sodipodi:namedview>
<g>
	<path class="st0" d="M22.5,2.1c1,0.3,1.4,0.6,1.4,0.8c0,0.1,0,0.2-0.1,0.2c-0.1,0-0.2,0.1-0.5,0.1c-0.5,0.8-1,1.6-1.5,2.2
		c0.5,0.1,0.8,0.1,0.9,0.2c0.1,0,0.2,0.1,0.2,0.2c0,0.2-0.2,0.3-0.5,0.4v1.3l0,6.7c0,0.5-0.3,0.7-1,0.7c-0.5,0-0.7-0.2-0.7-0.6
		c0.1-1.8,0.1-4.3,0.1-7.5V6.5c-1.7,1.7-3.8,3-6.2,3.9c0,0,0,0,0,0c-0.1,0-0.1,0-0.1-0.1c0,0,0,0,0-0.1c2.8-1.7,5-3.7,6.4-6.2
		c0.4-0.6,0.7-1.3,0.9-1.9h-5.4c-0.4,0-0.9,0-1.5,0.1l-0.2-0.6c0.6,0.1,1.2,0.1,1.7,0.1h9.7c0.7-0.8,1.1-1.2,1.2-1.2
		c0.1,0,0.5,0.3,1.2,0.9c0.4,0.3,0.5,0.5,0.5,0.6c0,0.1-0.1,0.2-0.2,0.2H22.5z M28.7,9.5c0,0.3-0.1,0.6-0.3,0.8
		c-0.2,0.2-0.4,0.3-0.6,0.3c-0.2,0-0.4-0.1-0.5-0.2c-0.1-0.1-0.3-0.3-0.5-0.7C26,8.2,24.8,7,23.2,6c0,0,0,0,0,0c0,0,0-0.1,0.1-0.1
		c0,0,0.1-0.1,0.1-0.1c1.8,0.6,3.2,1.2,4.1,1.9C28.3,8.3,28.7,8.9,28.7,9.5z"/>
	<path class="st0" d="M35.5,9.5v1.5h1c0.4-0.5,0.7-0.8,0.8-0.8c0.1,0,0.4,0.2,0.8,0.5c0.2,0.2,0.4,0.4,0.4,0.5
		c0,0.1-0.1,0.2-0.2,0.2h-2.8v1.3c1.1-0.1,2-0.3,2.9-0.4c0.1,0,0.1,0,0.1,0.1c0,0,0,0.1,0,0.1c-0.9,0.4-1.8,0.7-2.7,0.9
		s-2.2,0.5-4.1,0.9c-0.1,0.4-0.2,0.6-0.3,0.6c-0.1,0-0.2-0.1-0.3-0.3c-0.1-0.2-0.2-0.7-0.5-1.5c0.2,0,0.5,0,0.8,0c0.4,0,0.9,0,1.4,0
		c0.7,0,1.1-0.1,1.4-0.1v-1.4h-1.9c-0.3,0-0.7,0-1.2,0.1L31,10.8c0.5,0.1,0.9,0.1,1.3,0.1h1.9V9.5h-1.5c0,0.4-0.3,0.6-0.7,0.6
		c-0.4,0-0.7-0.2-0.7-0.5l0-2.6c0-0.9,0-1.8-0.1-2.5c0.5,0.2,1,0.4,1.5,0.7h1.4V3.9h-2.3c-0.3,0-0.7,0-1.1,0.1l-0.2-0.6
		c0.5,0.1,0.9,0.1,1.3,0.1h2.3V2.2c-0.8,0.1-1.9,0.1-3.1,0.1c-0.1,0-0.1,0-0.1-0.1c0,0,0-0.1,0-0.1c1.5-0.2,2.9-0.5,4.3-1
		c0.8-0.3,1.4-0.6,1.8-0.9c0.9,0.7,1.3,1.1,1.3,1.3c0,0.1-0.1,0.1-0.3,0.1c-0.1,0-0.3,0-0.5-0.1C37,1.8,36.3,1.9,35.5,2v1.5H37
		c0.5-0.6,0.8-0.9,1-0.9c0.1,0,0.4,0.2,0.9,0.6c0.3,0.2,0.4,0.4,0.4,0.5c0,0.1-0.1,0.2-0.2,0.2h-3.5v1.3h1.4
		c0.4-0.4,0.7-0.7,0.8-0.7s0.4,0.2,0.8,0.5c0.2,0.2,0.3,0.3,0.3,0.4c0,0.1-0.1,0.3-0.4,0.4v3.4c0,0.5-0.3,0.7-0.8,0.7
		c-0.4,0-0.6-0.2-0.6-0.5H35.5z M32.7,7.1h1.5V5.5h-1.5V7.1z M32.7,9.1h1.5V7.4h-1.5V9.1z M35.5,7.1H37V5.5h-1.5V7.1z M35.5,9.1H37
		V7.4h-1.5V9.1z M42,5c-0.2,3.1-0.8,5.3-1.7,6.8c-0.8,1.3-2,2.3-3.7,3.2c0,0,0,0,0,0c-0.1,0-0.1-0.1-0.1-0.2c0,0,0,0,0-0.1
		c1.4-1.2,2.5-2.6,3.1-4.2c0.5-1.4,0.9-3.3,1-5.7h-0.4c-0.5,0-0.8,0-1.2,0.1l-0.2-0.6c0.4,0.1,0.8,0.1,1.3,0.1h0.5
		c0-0.8,0-1.6,0-2.5c0-0.6,0-1.1-0.1-1.6c1,0.1,1.6,0.2,1.8,0.3c0.2,0.1,0.3,0.1,0.3,0.3c0,0.2-0.2,0.3-0.5,0.4
		c0,1.2-0.1,2.3-0.1,3.1h1.3c0.3-0.4,0.5-0.6,0.6-0.7c0.1-0.1,0.2-0.1,0.2-0.1c0.1,0,0.4,0.2,0.8,0.6c0.2,0.2,0.3,0.4,0.3,0.5
		c0,0.1-0.1,0.3-0.4,0.5c-0.1,4.1-0.3,6.7-0.8,8c-0.2,0.5-0.5,0.8-0.9,1.1c-0.3,0.2-0.7,0.2-1.1,0.2c-0.2,0-0.3,0-0.4-0.1
		c-0.1,0-0.1-0.1-0.1-0.3c0-0.3-0.1-0.5-0.4-0.7c-0.2-0.2-0.6-0.3-1.2-0.5c0,0-0.1,0-0.1-0.1c0-0.1,0-0.1,0.1-0.1
		c1,0.1,1.7,0.1,2.1,0.1c0.2,0,0.4,0,0.5-0.1c0.1-0.1,0.1-0.3,0.2-0.6c0.3-1.3,0.5-3.8,0.5-7.3H42z"/>
	<path class="st0" d="M52.2,5.4H55c0.2-0.3,0.4-0.8,0.6-1.4c0.1-0.4,0.2-0.8,0.3-1.1c0.8,0.2,1.3,0.4,1.5,0.5
		c0.2,0.1,0.4,0.2,0.4,0.3c0,0.2-0.2,0.3-0.6,0.3c-0.5,0.6-1,1-1.6,1.5h2.9c0.6-0.7,1-1,1.1-1c0.1,0,0.5,0.2,1.1,0.7
		c0.3,0.2,0.5,0.4,0.5,0.5c0,0.1-0.1,0.2-0.2,0.2H49.3v0.5c0,2.2-0.2,3.9-0.6,5.1c-0.4,1.4-1.2,2.5-2.3,3.5c0,0,0,0,0,0
		c-0.1,0-0.1,0-0.1-0.1c0,0,0,0,0,0c0.6-1,1-2.1,1.2-3.4c0.2-1.2,0.3-2.6,0.3-4.3c0-0.9,0-1.7-0.1-2.4c0.6,0.3,1.2,0.6,1.8,0.9h2.4
		c-0.1,0-0.2-0.1-0.3-0.3c-0.1-0.1-0.1-0.3-0.2-0.6C51.2,3.8,51,3.3,50.6,3c0,0,0,0,0-0.1c0,0,0-0.1,0.1-0.1c0,0,0,0,0,0
		c1.5,0.4,2.2,1,2.2,1.7C52.8,5,52.6,5.3,52.2,5.4z M53.1,2.4v-1c0-0.3,0-0.6-0.1-1.1c1.4,0.1,2.2,0.3,2.2,0.5
		c0,0.2-0.2,0.3-0.5,0.4v1.1H58c0.6-0.7,1-1,1.1-1c0.1,0,0.5,0.2,1,0.7c0.3,0.3,0.4,0.4,0.4,0.5c0,0.1-0.1,0.2-0.2,0.2H49.1
		c-0.3,0-0.7,0-1.2,0.1l-0.2-0.6c0.5,0.1,0.9,0.1,1.3,0.1H53.1z M55.2,8.8v2.3h1.9c0.6-0.7,0.9-1,1-1c0.1,0,0.4,0.2,1,0.7
		c0.3,0.2,0.4,0.4,0.4,0.5c0,0.1-0.1,0.2-0.2,0.2h-4.1V14h3.2c0.7-0.7,1-1.1,1.2-1.1c0.1,0,0.5,0.3,1.1,0.8c0.3,0.3,0.5,0.5,0.5,0.5
		c0,0.1-0.1,0.2-0.2,0.2H49.9c-0.3,0-0.7,0-1.1,0.1l-0.2-0.6C49,14,49.5,14,49.9,14h3.9v-2.6h-2c-0.3,0-0.6,0-1.1,0.1l-0.2-0.6
		c0.4,0.1,0.8,0.1,1.2,0.1h2.1V8.8h-2.3c-0.6,0.9-1.3,1.6-2.1,2.2c0,0,0,0,0,0c-0.1,0-0.1,0-0.1-0.1c0,0,0,0,0,0
		c0.7-1,1.1-2.1,1.5-3.4c0.1-0.4,0.2-0.8,0.2-1.1c0.8,0.2,1.3,0.3,1.5,0.5c0.2,0.1,0.3,0.2,0.3,0.3s0,0.2-0.1,0.2
		c-0.1,0-0.2,0.1-0.4,0.1c-0.1,0.3-0.3,0.6-0.5,1h2V7.7c0-0.6,0-1.2-0.1-1.6c1.3,0.1,2,0.3,2,0.5c0,0.1-0.2,0.3-0.5,0.4v1.4h2.5
		c0.5-0.7,0.8-1,0.9-1c0.1,0,0.4,0.2,1,0.7c0.3,0.2,0.4,0.4,0.4,0.5c0,0.1-0.1,0.2-0.2,0.2H55.2z"/>
	<path class="st0" d="M64.3,6.6c-0.6,0.7-1.2,1.3-1.9,1.9c0,0,0,0,0,0c-0.1,0-0.1,0-0.1-0.1c0,0,0,0,0,0c1.1-1.3,1.9-2.8,2.6-4.8
		c0.4-1.1,0.7-2.2,0.8-3.2C67,0.7,67.7,1,67.7,1.2c0,0.2-0.2,0.3-0.6,0.4C66.6,3,66,4.3,65.2,5.4c0.4,0.1,0.7,0.1,0.8,0.2
		c0.1,0,0.1,0.1,0.1,0.2c0,0.1-0.1,0.2-0.4,0.4v8.3c0,0.4-0.3,0.7-0.8,0.7c-0.5,0-0.7-0.2-0.7-0.6c0.1-1.4,0.1-2.8,0.1-4.2V6.6z
		 M72.4,9.2c0,1,0,2.2,0.1,3.5c0,0.9,0,1.4,0,1.6c0,0.5-0.3,0.7-1,0.7c-0.5,0-0.7-0.2-0.7-0.6c0,0,0-0.7,0-1.9c0-1.1,0-2.2,0-3.4
		h-2.3v0.4c0,0.4-0.3,0.6-0.9,0.6c-0.4,0-0.7-0.2-0.7-0.5c0.1-1,0.1-2.3,0.1-3.8c0-0.8,0-1.6-0.1-2.3C67.4,3.7,68,4,68.7,4.4h2.2
		c0-2-0.1-3.3-0.1-3.9c1,0.1,1.7,0.2,1.9,0.2C72.9,0.8,73,0.8,73,1c0,0.1,0,0.1-0.1,0.2c-0.1,0.1-0.2,0.1-0.4,0.2v3h2.4
		c0.4-0.5,0.7-0.8,0.8-0.8s0.4,0.2,0.9,0.7c0.2,0.2,0.4,0.4,0.4,0.5c0,0.1-0.1,0.3-0.4,0.5V6l0.1,3.6c0,0.4-0.3,0.6-1,0.6
		c-0.4,0-0.6-0.2-0.6-0.5V9.2H72.4z M70.9,8.8V4.7h-2.3v4.1H70.9z M72.4,8.8H75V4.7h-2.6l0,2.5V8.8z"/>
	<path class="st0" d="M86.4,1.6c1,1.5,2.1,2.6,3.4,3.4c1.1,0.7,2.4,1.2,3.8,1.4c0,0,0.1,0,0.1,0.1s0,0.1-0.1,0.1
		c-0.3,0.1-0.5,0.2-0.7,0.4c-0.2,0.2-0.3,0.5-0.4,0.9c-0.1,0.2-0.2,0.3-0.3,0.3c-0.1,0-0.3-0.1-0.6-0.2c-0.8-0.5-1.6-1-2.4-1.7
		c-1.2-1.1-2.3-2.6-3.1-4.3c-0.9,1.6-2,2.9-3.3,4c-1.2,0.9-2.6,1.7-4.3,2.4c0,0,0,0,0,0c-0.1,0-0.1,0-0.1-0.1c0,0,0,0,0,0
		c1.1-0.7,2.2-1.6,3.2-2.7c0.9-0.9,1.6-1.9,2.2-2.9c0.5-0.8,0.8-1.5,0.9-2.2c1.2,0.3,1.8,0.5,2,0.6C87,1,87.1,1.1,87.1,1.2
		C87.1,1.3,86.8,1.4,86.4,1.6z M84.7,6.8c0,0.1-0.2,0.3-0.5,0.4c0,1.7-0.2,3-0.5,3.9c-0.3,1-0.8,1.8-1.6,2.4
		c-0.7,0.6-1.7,1.1-3.1,1.6c0,0,0,0,0,0c-0.1,0-0.1,0-0.1-0.1c0,0,0-0.1,0-0.1c0.9-0.5,1.5-1,1.9-1.4c0.3-0.3,0.6-0.7,0.9-1.2
		c0.6-1.1,0.9-2.5,0.9-4.4c0-0.6,0-1.1-0.1-1.5c0.9,0.1,1.5,0.1,1.8,0.2C84.6,6.6,84.7,6.7,84.7,6.8z M89.2,6.8
		c0,0.1-0.2,0.2-0.5,0.4v1.2l0.1,6.1c0,0.4-0.3,0.6-0.9,0.6c-0.5,0-0.7-0.2-0.7-0.5l0-4.7c0-1.6,0-2.7-0.1-3.5
		c0.9,0.1,1.5,0.1,1.7,0.2C89.1,6.6,89.2,6.7,89.2,6.8z"/>
</g>
</svg>
