<?xml version="1.0" encoding="utf-8"?>
<!-- Generator: Adobe Illustrator 25.1.0, SVG Export Plug-In . SVG Version: 6.00 Build 0)  -->
<svg version="1.1"
	 id="レイヤー_1" xmlns:cc="http://creativecommons.org/ns#" xmlns:dc="http://purl.org/dc/elements/1.1/" xmlns:inkscape="http://www.inkscape.org/namespaces/inkscape" xmlns:rdf="http://www.w3.org/1999/02/22-rdf-syntax-ns#" xmlns:sodipodi="http://sodipodi.sourceforge.net/DTD/sodipodi-0.dtd" xmlns:svg="http://www.w3.org/2000/svg"
	 xmlns="http://www.w3.org/2000/svg" xmlns:xlink="http://www.w3.org/1999/xlink" x="0px" y="0px" viewBox="0 0 108 15"
	 style="enable-background:new 0 0 108 15;" xml:space="preserve">
<style type="text/css">
	.st0{fill:#FFFFFF;}
</style>
<sodipodi:namedview  bordercolor="#666666" borderopacity="1" gridtolerance="10" guidetolerance="10" id="namedview25" inkscape:current-layer="レイヤー_1" inkscape:cx="67.421554" inkscape:cy="9.8157131" inkscape:pageopacity="0" inkscape:pageshadow="2" inkscape:window-height="480" inkscape:window-maximized="0" inkscape:window-width="722" inkscape:window-x="0" inkscape:window-y="0" inkscape:zoom="5.6990741" objecttolerance="10" pagecolor="#ffffff" showgrid="false">
	</sodipodi:namedview>
<g>
	<path class="st0" d="M14.3,1.6c-1.6,2.9-4.2,5-7.6,6.2c0,0,0,0,0,0c-0.1,0-0.1,0-0.1-0.1c0,0,0,0,0,0c1.9-1.1,3.6-2.8,5.1-5
		c0.6-0.9,1-1.8,1.2-2.5c1.2,0.3,1.9,0.5,2,0.6c0.2,0.1,0.2,0.1,0.2,0.2c0,0.1-0.2,0.3-0.7,0.4c0.9,1.3,2,2.4,3.3,3.1
		C19,5.3,20.4,5.8,21.9,6c0,0,0.1,0,0.1,0.1s0,0.1-0.1,0.1c-0.6,0.1-1,0.6-1.2,1.3c-0.1,0.2-0.1,0.3-0.3,0.3c-0.1,0-0.3-0.1-0.7-0.3
		c-0.8-0.5-1.6-1-2.3-1.7C16.2,4.8,15.2,3.4,14.3,1.6z M15,9.4v4.5h3.8c0.6-0.7,1-1.1,1.1-1.1c0.1,0,0.4,0.2,1,0.7
		c0.3,0.3,0.4,0.4,0.4,0.5c0,0.1-0.1,0.2-0.2,0.2H8c-0.3,0-0.6,0-1.1,0.1l-0.2-0.6c0.4,0.1,0.8,0.1,1.2,0.1h1.7V8.9
		c0-0.5,0-1.1-0.1-1.6c1.4,0.1,2,0.3,2,0.5c0,0.1-0.2,0.3-0.5,0.4v5.6h2.3V6.4c0-0.7,0-1.2-0.1-1.7c1.5,0.1,2.2,0.3,2.2,0.5
		c0,0.2-0.2,0.3-0.5,0.5V9h2c0.5-0.7,0.8-1,1-1c0.1,0,0.4,0.2,1,0.7c0.3,0.3,0.4,0.4,0.4,0.5c0,0.1-0.1,0.2-0.2,0.2H15z"/>
	<path class="st0" d="M30.7,10.1c0.7,0.6,1.6,1.1,2.6,1.6c1.2,0.5,2.6,0.8,4.2,0.9c0,0,0.1,0,0.1,0.1c0,0,0,0.1-0.1,0.1
		c-0.3,0.1-0.5,0.3-0.7,0.4c-0.1,0.2-0.3,0.5-0.5,0.9c-0.1,0.1-0.1,0.2-0.2,0.2c-0.1,0-0.4-0.1-0.8-0.2c-1-0.4-2-0.9-2.8-1.6
		c-0.7-0.5-1.4-1.2-2-2.1c0,0.4,0,1.3,0.1,2.7c0,0.7,0,1.1,0,1.3c0,0.4-0.3,0.6-0.9,0.6c-0.4,0-0.6-0.2-0.6-0.5c0-0.1,0-0.6,0-1.4
		c0-0.8,0.1-1.4,0.1-1.9c-1.4,1.6-3.5,2.7-6.3,3.3c-0.1,0-0.1,0-0.1-0.1c0,0,0,0,0,0c2.3-1.1,4.1-2.5,5.3-4.1h-3.8
		c-0.3,0-0.7,0-1.1,0.1L23,9.6c0.4,0.1,0.9,0.1,1.2,0.1h4.9V8.2H26c-0.3,0-0.7,0-1.1,0.1l-0.2-0.6c0.5,0.1,0.9,0.1,1.3,0.1h3.2V6.4
		h-4c-0.3,0-0.7,0-1.1,0.1l-0.2-0.6c0.5,0.1,0.9,0.1,1.3,0.1h2.6c-0.2-0.1-0.3-0.3-0.4-0.7c-0.1-0.6-0.4-1-0.8-1.4c0,0,0,0,0,0
		c0-0.1,0-0.1,0.1-0.1c0,0,0,0,0,0C28,4,28.7,4.5,28.7,5.3c0,0.2-0.1,0.4-0.2,0.5c-0.1,0.1-0.2,0.2-0.4,0.3h2.6
		c0.3-0.5,0.5-0.9,0.7-1.4c0.1-0.3,0.2-0.6,0.3-1c1.2,0.5,1.8,0.8,1.8,0.9c0,0.1,0,0.2-0.1,0.2c-0.1,0-0.3,0.1-0.6,0.1
		c-0.6,0.5-1.1,0.9-1.6,1.2h2.7c0.6-0.6,0.9-1,1.1-1c0.1,0,0.4,0.2,1,0.7c0.3,0.2,0.4,0.4,0.4,0.5c0,0.1-0.1,0.2-0.2,0.2h-5.7v1.5
		H33C33.6,7.3,33.9,7,34,7c0.1,0,0.4,0.2,0.9,0.6c0.3,0.2,0.4,0.4,0.4,0.5s-0.1,0.2-0.2,0.2h-4.6v1.5h4c0.6-0.7,1-1,1.1-1
		c0.1,0,0.4,0.2,1,0.7c0.3,0.2,0.4,0.4,0.4,0.5c0,0.1-0.1,0.2-0.2,0.2H30.7z M27.7,3.3v-2c0-0.5,0-0.9-0.1-1.2
		c0.9,0.1,1.5,0.2,1.7,0.3c0.2,0.1,0.3,0.1,0.3,0.2c0,0.1-0.2,0.2-0.5,0.4v2.3h1.3v-2c0-0.5,0-0.9-0.1-1.2c0.9,0.1,1.5,0.2,1.7,0.3
		c0.2,0.1,0.3,0.1,0.3,0.2c0,0.1-0.2,0.3-0.5,0.4v2.3h0.7c0.3-0.6,0.6-1.2,0.9-1.8c0.2-0.4,0.3-0.7,0.4-1.1c1.3,0.5,1.9,0.9,1.9,1
		c0,0.1-0.1,0.2-0.2,0.2c-0.1,0-0.3,0-0.6,0.1c-0.7,0.7-1.3,1.2-1.9,1.5h1.9c0.6-0.6,0.9-0.9,1-0.9c0.1,0,0.4,0.2,1,0.6
		c0.3,0.2,0.4,0.4,0.4,0.5c0,0.1-0.1,0.2-0.2,0.2H24.2c-0.3,0-0.7,0-1.2,0.1l-0.2-0.6c0.5,0.1,0.9,0.1,1.3,0.1H27.7z M26.8,2.2
		c0,0.2-0.1,0.4-0.3,0.6C26.4,2.9,26.2,3,26,3c-0.2,0-0.3,0-0.4-0.1c-0.1-0.1-0.2-0.2-0.2-0.5c-0.2-0.7-0.5-1.2-0.9-1.6
		c0,0,0,0,0-0.1c0-0.1,0-0.1,0.1-0.1c0,0,0,0,0,0C26.1,0.9,26.8,1.4,26.8,2.2z"/>
	<path class="st0" d="M46.7,3.4v2.8h1.9c0.5-0.6,0.8-0.8,0.9-0.8c0.1,0,0.5,0.3,1,0.8C50.9,6.4,51,6.6,51,6.7C51,6.9,51,7,50.8,7
		c-0.1,0.1-0.3,0.2-0.6,0.3c-0.9,1.5-1.9,2.8-3,3.8c1.6,1,3.8,1.6,6.4,1.8c0,0,0.1,0,0.1,0.1s0,0.1-0.1,0.1c-0.6,0.2-1,0.6-1.2,1.3
		c0,0.2-0.1,0.3-0.1,0.4c0,0.1-0.1,0.1-0.2,0.1c-0.1,0-0.4-0.1-0.9-0.2c-2.1-0.7-3.8-1.6-5-2.7c-1.9,1.4-4.4,2.4-7.4,2.9
		c-0.1,0-0.1,0-0.1-0.1c0,0,0-0.1,0-0.1c2.7-0.9,4.9-2.1,6.6-3.6c-1.1-1.2-1.9-2.7-2.6-4.5h-1c-0.4,0-0.8,0-1.2,0.1L40.3,6
		c0.5,0.1,0.9,0.1,1.3,0.1h3.6V3.4h-4.7c-0.3,0-0.8,0-1.3,0.1L39,2.9C39.5,3,39.9,3,40.4,3h4.7V2.2c0-0.7,0-1.4-0.1-2
		c1.5,0.1,2.2,0.3,2.2,0.5c0,0.2-0.2,0.3-0.6,0.5V3h3.7c0.7-0.8,1.1-1.2,1.2-1.2c0.1,0,0.5,0.3,1.2,0.8c0.4,0.3,0.5,0.5,0.5,0.6
		s-0.1,0.2-0.2,0.2H46.7z M46,10.3C47.1,9.2,48,8,48.6,6.5H43C43.9,8.2,44.9,9.4,46,10.3z"/>
	<path class="st0" d="M58.1,7.2c0.7-0.3,1.3-0.5,1.7-0.6c0,0,0,0,0,0c0,0,0.1,0,0.1,0.1c0,0,0,0.1,0,0.1c-0.5,0.5-1.1,0.9-1.7,1.3
		v1.6l0,3.6c0,0.4-0.1,0.7-0.2,1c-0.2,0.4-0.7,0.7-1.4,0.7c-0.2,0-0.3-0.1-0.3-0.3c-0.1-0.4-0.2-0.6-0.3-0.8c-0.2-0.2-0.5-0.3-1-0.4
		c0,0-0.1,0-0.1-0.1c0-0.1,0-0.1,0.1-0.1c0.7,0,1.2,0.1,1.5,0.1c0.1,0,0.2,0,0.2,0s0-0.1,0-0.2V8.9c-0.4,0.2-0.7,0.4-0.9,0.5
		c0,0.4-0.2,0.6-0.3,0.6c-0.1,0-0.2-0.1-0.3-0.3c-0.1-0.2-0.3-0.7-0.5-1.5c0.3,0,0.7-0.1,1.2-0.2c0.2,0,0.5-0.1,0.8-0.2V4.2H56
		c-0.2,0-0.5,0-0.8,0.1L55,3.7c0.4,0.1,0.7,0.1,1,0.1h0.8V2c0-0.8,0-1.4-0.1-1.9c1,0.1,1.6,0.2,1.8,0.2c0.2,0,0.3,0.1,0.3,0.2
		c0,0.2-0.2,0.3-0.5,0.5v2.8h0.4c0.3-0.5,0.5-0.7,0.7-0.7c0.1,0,0.3,0.2,0.7,0.5c0.2,0.2,0.3,0.3,0.3,0.4c0,0.1-0.1,0.2-0.2,0.2
		h-1.8V7.2z M65.7,12.1c1.1,0.5,2.5,0.8,4,0.9c0,0,0.1,0,0.1,0.1c0,0.1,0,0.1-0.1,0.1c-0.4,0.2-0.7,0.6-0.9,1.2
		c-0.1,0.2-0.1,0.3-0.1,0.4s-0.1,0.1-0.1,0.1c-0.2,0-0.5-0.1-0.9-0.2c-0.9-0.3-1.8-0.8-2.5-1.3l-0.4-0.3c-1.2,0.9-2.9,1.5-4.9,1.8
		c-0.1,0-0.1,0-0.1-0.2c0,0,0-0.1,0-0.1c1.7-0.6,3.1-1.4,4.2-2.3c-0.6-0.7-1.1-1.4-1.5-2.3c-0.8,2-2.1,3.6-4,4.8c0,0,0,0,0,0
		c0,0-0.1,0-0.1-0.1c0,0,0-0.1,0-0.1c0,0,0,0,0,0c1.7-1.6,2.9-3.9,3.3-6.8h-1.2c-0.2,0-0.5,0-0.8,0.1l-0.2-0.6
		c0.4,0.1,0.7,0.1,1,0.1h1.2c0.1-0.4,0.1-0.9,0.2-1.6H61c-0.2,0-0.5,0-0.9,0.1l-0.2-0.6c0.4,0.1,0.7,0.1,1.1,0.1h4.7
		c0.2-0.4,0.5-1,0.8-1.9c0.2-0.5,0.4-1,0.5-1.4c0.8,0.3,1.4,0.5,1.6,0.6c0.2,0.1,0.3,0.2,0.3,0.4c0,0.1-0.2,0.2-0.6,0.2
		c-0.6,0.8-1.3,1.5-2.1,2.1H67c0.4-0.6,0.7-0.9,0.9-0.9c0.1,0,0.4,0.2,0.9,0.6c0.3,0.2,0.4,0.4,0.4,0.5S69.1,5.8,69,5.8h-5.6
		c-0.1,0.6-0.1,1.1-0.2,1.6H67c0.5-0.6,0.8-0.9,1-0.9c0.1,0,0.4,0.2,1,0.7c0.3,0.2,0.4,0.4,0.4,0.5c0,0.1-0.1,0.2-0.2,0.2h-6.2
		c-0.1,0.5-0.2,0.9-0.3,1.4H66c0.5-0.4,0.7-0.7,0.8-0.7c0.1,0,0.4,0.2,0.9,0.6c0.3,0.2,0.4,0.4,0.4,0.5c0,0.1-0.2,0.3-0.6,0.5
		C66.9,10.9,66.4,11.6,65.7,12.1z M68.5,1.3c0,0.1-0.1,0.2-0.4,0.2c-0.1,0-0.3,0-0.4-0.1c-2.2,0.7-4.8,1-7.8,1c0,0-0.1,0-0.1-0.1
		c0-0.1,0-0.1,0.1-0.1c2-0.2,3.8-0.7,5.6-1.4C66,0.5,66.5,0.3,66.9,0C68,0.7,68.5,1.1,68.5,1.3z M62.5,4.3c0,0.3-0.1,0.5-0.2,0.7
		c-0.1,0.1-0.3,0.2-0.6,0.2c-0.3,0-0.5-0.3-0.6-0.9c-0.1-0.6-0.3-1.1-0.6-1.6c0,0,0,0,0,0c0-0.1,0-0.1,0.1-0.1c0,0,0,0,0,0
		C61.9,3.1,62.5,3.6,62.5,4.3z M64.6,11.5c0.6-0.6,1.1-1.3,1.4-2h-3.4l0,0C63.1,10.3,63.8,11,64.6,11.5z M65.1,4.1
		c0,0.3-0.1,0.5-0.3,0.7c-0.2,0.2-0.3,0.3-0.5,0.3c-0.3,0-0.6-0.3-0.6-0.8c-0.1-0.8-0.3-1.4-0.6-1.8c0,0,0,0,0,0
		c0-0.1,0-0.1,0.1-0.1c0,0,0,0,0,0C64.5,2.9,65.1,3.4,65.1,4.1z"/>
	<path class="st0" d="M78.2,1.7c-0.9,1.5-2,2.8-3.3,3.8c-1.2,0.9-2.5,1.6-4.1,2.2c0,0,0,0,0,0c-0.1,0-0.1,0-0.1-0.1c0,0,0,0,0,0
		c1.9-1.2,3.5-2.7,4.8-4.6c0.7-0.9,1.1-1.9,1.5-2.8c1.2,0.4,1.8,0.6,2,0.7c0.2,0.1,0.2,0.1,0.2,0.2c0,0.1-0.2,0.3-0.7,0.4
		c1,1.3,2.1,2.4,3.4,3.1c1.1,0.7,2.5,1.1,4,1.4c0,0,0.1,0,0.1,0.1c0,0.1,0,0.1-0.1,0.1c-0.5,0.1-0.9,0.5-1.1,1.3
		c-0.1,0.2-0.1,0.3-0.3,0.3c-0.1,0-0.3-0.1-0.6-0.2c-0.8-0.4-1.6-1-2.4-1.7c-0.7-0.6-1.3-1.3-1.8-1.9C79.2,3.3,78.7,2.6,78.2,1.7z
		 M77,13.8v-3.4h-2.9c-0.3,0-0.6,0-1,0.1L73,9.9c0.4,0.1,0.8,0.1,1.2,0.1H77v-3h-2.2c-0.3,0-0.6,0-1,0.1l-0.2-0.6
		c0.4,0.1,0.8,0.1,1.2,0.1h5c0.5-0.7,0.9-1,1-1c0.1,0,0.4,0.2,1,0.7c0.3,0.3,0.4,0.4,0.4,0.5c0,0.1-0.1,0.2-0.2,0.2h-3.4v3h2.1
		c0.6-0.7,0.9-1.1,1-1.1c0.1,0,0.5,0.3,1.1,0.8c0.3,0.3,0.4,0.4,0.4,0.5c0,0.1-0.1,0.2-0.2,0.2h-4.4v3.4h3.9c0.6-0.8,1-1.2,1.1-1.2
		c0.1,0,0.5,0.3,1.1,0.8c0.3,0.3,0.5,0.5,0.5,0.6c0,0.1-0.1,0.2-0.2,0.2H72.3c-0.3,0-0.7,0-1.2,0.1l-0.2-0.6
		c0.5,0.1,0.9,0.1,1.3,0.1H77z"/>
	<path class="st0" d="M89.2,7.7c-0.1,1.3-0.2,2.4-0.4,3.2c-0.2,0.8-0.5,1.5-0.9,2.1c-0.3,0.5-0.7,1-1.2,1.5c0,0,0,0,0,0
		c-0.1,0-0.1,0-0.1-0.1c0,0,0,0,0,0c0.6-1.2,1-2.5,1.2-3.8C87.9,10,87.9,9.1,88,8l-0.3,0c-0.1,0.3-0.2,0.5-0.3,0.5
		c-0.1,0-0.2-0.1-0.3-0.4c-0.1-0.2-0.1-0.6-0.2-1.2h0.5c0.3,0,0.5,0,0.6,0c0-0.3,0-0.9,0-1.7c0-1.6,0-2.8-0.1-3.5
		c0.5,0.2,1,0.4,1.6,0.7h0.3C89.8,2,89.9,1.5,90,1.1c0-0.3,0.1-0.7,0.1-1c0.8,0.2,1.3,0.3,1.5,0.5c0.2,0.1,0.3,0.2,0.3,0.3
		c0,0.2-0.2,0.3-0.6,0.4c-0.3,0.5-0.7,0.9-1,1.2h1.4c0.3-0.4,0.6-0.6,0.7-0.6c0.1,0,0.4,0.2,0.8,0.5c0.2,0.2,0.3,0.3,0.3,0.4
		c0,0.1-0.1,0.3-0.4,0.5v3.1c0,0,0.1,0,0.2,0c0.1,0,0.1,0,0.1,0c0,0,0.1,0,0.1,0.1c0,0.1,0,0.1-0.1,0.1C93.2,6.5,93,6.5,93,6.6
		l0,6.5c0,0.4-0.1,0.7-0.3,0.9c-0.3,0.3-0.8,0.5-1.4,0.5c-0.2,0-0.2-0.1-0.3-0.3c0-0.3-0.1-0.6-0.3-0.7c-0.2-0.1-0.5-0.2-1.1-0.4
		c0,0-0.1,0-0.1-0.1c0-0.1,0-0.1,0.1-0.1c0.6,0.1,1.2,0.1,1.8,0.1c0.2,0,0.3-0.1,0.3-0.2V7.1l-0.8,0.2v1.2l0,2.6
		c0,0.4-0.2,0.6-0.6,0.6c-0.4,0-0.5-0.1-0.5-0.4L89.9,9V7.6c0,0-0.2,0-0.3,0.1C89.4,7.7,89.3,7.7,89.2,7.7z M89.2,6.8
		c0.8-0.1,1.6-0.2,2.5-0.3V2.8h-2.4v0.6C89.3,5,89.3,6.2,89.2,6.8z M91.2,5.2c0,0.2-0.1,0.4-0.2,0.6c-0.1,0.1-0.3,0.2-0.5,0.2
		c-0.3,0-0.5-0.2-0.5-0.7c0-0.7-0.1-1.3-0.4-1.6c0,0,0,0,0,0c0-0.1,0-0.1,0.1-0.1c0,0,0,0,0,0c0.4,0.2,0.8,0.5,1,0.8
		C91.1,4.7,91.2,4.9,91.2,5.2z M97.1,12.2c-1.1,0.9-2.5,1.7-4.4,2.4c0,0,0,0,0,0c-0.1,0-0.1-0.1-0.1-0.2c0,0,0,0,0-0.1
		c1.5-0.8,2.7-1.9,3.7-3.1c-0.7-1-1.2-2.3-1.6-3.8h-0.1c-0.4,0-0.7,0-0.9,0.1l-0.1-0.6c0.3,0.1,0.7,0.1,1.1,0.1h3.6
		c0.5-0.5,0.8-0.7,0.9-0.7c0.1,0,0.4,0.2,0.9,0.6c0.3,0.2,0.4,0.4,0.4,0.5c0,0.2-0.2,0.4-0.6,0.5c-0.6,1.4-1.3,2.5-2,3.4
		c1,0.7,2.3,1.2,3.9,1.5c0,0,0.1,0,0.1,0.1s0,0.1-0.1,0.1c-0.3,0.1-0.5,0.2-0.6,0.4c-0.1,0.2-0.2,0.4-0.3,0.8
		c-0.1,0.2-0.1,0.3-0.2,0.3c-0.1,0-0.3-0.1-0.6-0.2C98.9,13.8,97.9,13.1,97.1,12.2z M101.5,5.1c0,0.3-0.1,0.5-0.4,0.7
		c-0.3,0.2-0.9,0.3-1.6,0.3S98.3,6,98,5.7c-0.2-0.2-0.4-0.5-0.4-1l0-1.4V1.7h-1.7v0.4c0,1.2-0.2,2.1-0.5,2.8c-0.3,0.7-1,1.4-2.1,2
		c0,0,0,0,0,0c-0.1,0-0.1,0-0.1-0.1c0,0,0,0,0,0c0.6-0.7,0.9-1.5,1.1-2.3c0.1-0.5,0.2-1.1,0.2-1.9c0-0.5,0-1.2-0.1-1.9
		C95,0.8,95.5,1.1,96,1.3h1.5C97.8,1,98,0.8,98.1,0.7c0.1-0.1,0.1-0.1,0.2-0.1c0.1,0,0.4,0.2,0.8,0.5c0.2,0.2,0.3,0.3,0.3,0.4
		c0,0.1-0.1,0.3-0.4,0.4v2.5c0,0.1,0,0.2,0.1,0.3c0.1,0,0.2,0.1,0.4,0.1c0.2,0,0.4,0,0.5-0.1c0.1,0,0.2-0.1,0.2-0.2
		c0.1-0.2,0.3-0.7,0.5-1.5c0,0,0-0.1,0.1-0.1c0.1,0,0.1,0,0.1,0.1v1.2c0,0.1,0,0.2,0.1,0.3c0,0,0.1,0.1,0.2,0.1
		C101.4,4.7,101.5,4.9,101.5,5.1z M95.1,7.6c0.5,1.2,1.1,2.2,1.9,3c0.7-1,1.2-2,1.4-3H95.1z"/>
</g>
</svg>
