<?xml version="1.0" encoding="utf-8"?>
<!-- Generator: Adobe Illustrator 25.2.0, SVG Export Plug-In . SVG Version: 6.00 Build 0)  -->
<svg version="1.1" id="レイヤー_1" xmlns="http://www.w3.org/2000/svg" xmlns:xlink="http://www.w3.org/1999/xlink" x="0px"
	 y="0px" viewBox="0 0 124 12" style="enable-background:new 0 0 124 12;" xml:space="preserve">
<style type="text/css">
	.st0{enable-background:new    ;}
	.st1{fill:url(#SVGID_1_);}
	.st2{fill:url(#SVGID_2_);}
	.st3{fill:url(#SVGID_3_);}
	.st4{fill:url(#SVGID_4_);}
	.st5{fill:url(#SVGID_5_);}
	.st6{fill:url(#SVGID_6_);}
</style>
<g class="st0">
	<radialGradient id="SVGID_1_" cx="37.3504" cy="4.8819" r="4.0307" gradientUnits="userSpaceOnUse">
		<stop  offset="0" style="stop-color:#92ADCC"/>
		<stop  offset="0.5" style="stop-color:#7299BF"/>
		<stop  offset="1" style="stop-color:#2977A7"/>
	</radialGradient>
	<path class="st1" d="M33.6,0.6H38c0.9,0,1.5,0.2,2,0.6c0.5,0.4,0.7,0.9,0.7,1.4c0,0.5-0.2,0.9-0.5,1.2c-0.3,0.3-0.8,0.6-1.5,0.8
		c0.8,0.2,1.4,0.4,1.8,0.8c0.4,0.4,0.6,0.8,0.6,1.4c0,0.4-0.1,0.8-0.3,1.1c-0.2,0.3-0.6,0.6-1.1,0.8c-0.5,0.2-1.1,0.3-1.8,0.3h-4.3
		V8.7h0.7c0.2,0,0.4,0,0.5-0.1c0.1-0.1,0.1-0.1,0.1-0.2V1.5c0-0.2,0-0.3-0.1-0.4c-0.1-0.1-0.2-0.1-0.4-0.1h-0.7V0.6z M36.1,4.5h1.6
		c0.5,0,0.9-0.1,1.2-0.4c0.3-0.3,0.4-0.8,0.4-1.4c0-0.4-0.1-0.7-0.2-1c-0.1-0.2-0.3-0.4-0.6-0.5C38.2,1.1,37.8,1,37.1,1
		c-0.5,0-0.8,0-0.9,0.1c-0.1,0.1-0.2,0.2-0.2,0.4V4.5z M36.1,5v3.3c0,0.2,0,0.3,0.1,0.3c0.1,0.1,0.3,0.1,0.5,0.1h1
		c0.7,0,1.2-0.2,1.5-0.5c0.3-0.3,0.5-0.8,0.5-1.4c0-0.6-0.2-1-0.5-1.4C38.9,5.1,38.4,5,37.8,5H36.1z"/>
	<radialGradient id="SVGID_2_" cx="47.0142" cy="4.9252" r="4.1507" gradientUnits="userSpaceOnUse">
		<stop  offset="0" style="stop-color:#92ADCC"/>
		<stop  offset="0.5" style="stop-color:#7299BF"/>
		<stop  offset="1" style="stop-color:#2977A7"/>
	</radialGradient>
	<path class="st2" d="M43,0.6h4.4c0.9,0,1.5,0.2,2,0.6c0.5,0.4,0.7,0.9,0.7,1.5c0,0.4-0.1,0.7-0.3,1C49.6,4,49.4,4.3,49,4.4
		c-0.4,0.2-0.9,0.3-1.7,0.4c0.5,0.1,0.9,0.3,1.1,0.4c0.2,0.1,0.4,0.3,0.5,0.6c0.1,0.2,0.3,0.7,0.4,1.4c0.1,0.5,0.2,0.8,0.4,1
		c0.1,0.1,0.2,0.2,0.3,0.2c0.1,0,0.2-0.1,0.3-0.3c0.1-0.2,0.2-0.5,0.2-0.9H51c-0.1,1.3-0.6,2-1.4,2c-0.3,0-0.5-0.1-0.7-0.2
		c-0.2-0.1-0.4-0.4-0.5-0.6c-0.1-0.2-0.2-0.7-0.3-1.6c-0.1-0.5-0.1-0.9-0.3-1.1c-0.1-0.2-0.3-0.4-0.6-0.5C47,5,46.7,5,46.3,5h-0.7
		v3.3c0,0.1,0,0.2,0.1,0.3c0.1,0.1,0.2,0.1,0.4,0.1H47v0.4h-4V8.7h0.8c0.2,0,0.3,0,0.4-0.1c0.1-0.1,0.1-0.2,0.1-0.3V1.5
		c0-0.1,0-0.3-0.1-0.3c-0.1-0.1-0.2-0.1-0.4-0.1H43V0.6z M45.6,4.5h1c0.7,0,1.2-0.1,1.6-0.4c0.4-0.3,0.6-0.7,0.6-1.4
		c0-0.4-0.1-0.8-0.2-1.1c-0.1-0.3-0.3-0.4-0.6-0.5c-0.2-0.1-0.7-0.1-1.4-0.1c-0.5,0-0.7,0-0.8,0.1c-0.1,0.1-0.2,0.2-0.2,0.3V4.5z"/>
	<radialGradient id="SVGID_3_" cx="56.6757" cy="4.7924" r="4.3349" gradientUnits="userSpaceOnUse">
		<stop  offset="0" style="stop-color:#92ADCC"/>
		<stop  offset="0.5" style="stop-color:#7299BF"/>
		<stop  offset="1" style="stop-color:#2977A7"/>
	</radialGradient>
	<path class="st3" d="M56.6,0.5h0.4L60,8.2c0.1,0.3,0.4,0.5,0.8,0.5H61v0.4h-3.4V8.7h0.3c0.4,0,0.6,0,0.7-0.1
		c0.1-0.1,0.1-0.1,0.1-0.2c0-0.1,0-0.1,0-0.2L58,6.3h-3.4l-0.4,1c-0.1,0.3-0.2,0.5-0.2,0.7c0,0.2,0.1,0.3,0.3,0.5
		c0.2,0.1,0.4,0.2,0.8,0.2h0.3v0.4h-3.1V8.7c0.3,0,0.6-0.1,0.8-0.2c0.2-0.1,0.4-0.4,0.5-0.8L56.6,0.5z M56.4,2.1l-1.5,3.8h3
		L56.4,2.1z"/>
	<radialGradient id="SVGID_4_" cx="67.0851" cy="4.8819" r="4.3514" gradientUnits="userSpaceOnUse">
		<stop  offset="0" style="stop-color:#92ADCC"/>
		<stop  offset="0.5" style="stop-color:#7299BF"/>
		<stop  offset="1" style="stop-color:#2977A7"/>
	</radialGradient>
	<path class="st4" d="M62.6,0.6h2l5.1,6.7V2.5c0-0.5-0.1-0.8-0.3-1.1c-0.2-0.2-0.5-0.3-0.9-0.3V0.6h3v0.4c-0.3,0-0.5,0-0.7,0.1
		c-0.2,0.1-0.3,0.2-0.4,0.5c-0.1,0.2-0.2,0.5-0.2,0.7v6.8h-0.5l-5.3-7v5.1c0,0.5,0.1,0.8,0.4,1c0.2,0.2,0.6,0.3,1.1,0.4v0.4h-3.2
		V8.7c0.4,0,0.7-0.1,1-0.4C63.8,8.1,64,7.7,64,7.4V1.6l-0.1-0.1c-0.2-0.2-0.3-0.3-0.4-0.4c-0.1-0.1-0.3-0.1-0.4-0.1h-0.4V0.6z"/>
	<radialGradient id="SVGID_5_" cx="77.4169" cy="4.8819" r="4.1518" gradientUnits="userSpaceOnUse">
		<stop  offset="0" style="stop-color:#92ADCC"/>
		<stop  offset="0.5" style="stop-color:#7299BF"/>
		<stop  offset="1" style="stop-color:#2977A7"/>
	</radialGradient>
	<path class="st5" d="M73.4,0.6h4.4c0.7,0,1.2,0.1,1.7,0.3c0.6,0.3,1.1,0.8,1.4,1.5c0.4,0.7,0.6,1.5,0.6,2.4c0,0.8-0.1,1.5-0.4,2.1
		c-0.2,0.5-0.5,0.9-0.8,1.2c-0.4,0.4-0.8,0.6-1.4,0.8c-0.4,0.1-0.9,0.2-1.6,0.2h-3.9V8.7h0.8c0.2,0,0.3,0,0.4-0.1
		c0.1-0.1,0.1-0.2,0.1-0.3V1.5c0-0.1,0-0.2-0.1-0.3c-0.1-0.1-0.2-0.1-0.4-0.1h-0.9V0.6z M76.5,1.1c-0.2,0-0.3,0-0.4,0.1
		c-0.1,0.1-0.1,0.2-0.1,0.3v6.8c0,0.1,0,0.2,0.1,0.3c0.1,0.1,0.3,0.1,0.5,0.1h0.7c0.6,0,1.2-0.2,1.7-0.5c0.3-0.2,0.6-0.5,0.7-0.9
		C80,6.7,80.1,6,80.1,5c0-1.4-0.2-2.5-0.7-3.1c-0.4-0.6-1.1-0.8-1.9-0.8H76.5z"/>
	<radialGradient id="SVGID_6_" cx="87.1676" cy="4.873" r="3.8042" gradientUnits="userSpaceOnUse">
		<stop  offset="0" style="stop-color:#92ADCC"/>
		<stop  offset="0.5" style="stop-color:#7299BF"/>
		<stop  offset="1" style="stop-color:#2977A7"/>
	</radialGradient>
	<path class="st6" d="M88.8,1.3l0.5-0.7h0.4l0,3.1h-0.4c-0.2-1-0.6-1.6-1.1-2.1c-0.5-0.4-1-0.7-1.6-0.7c-0.5,0-0.9,0.2-1.2,0.5
		C85.2,1.7,85,2,85,2.5c0,0.3,0.1,0.5,0.2,0.7s0.3,0.4,0.5,0.5c0.2,0.1,0.7,0.3,1.4,0.4c0.9,0.2,1.6,0.4,2,0.6
		c0.4,0.2,0.7,0.5,0.9,0.8c0.2,0.3,0.3,0.7,0.3,1.1c0,0.8-0.3,1.4-0.8,1.9s-1.2,0.8-2,0.8c-0.9,0-1.6-0.3-2.3-0.9l-0.7,0.8h-0.4V5.9
		h0.4c0.2,0.9,0.5,1.6,1.1,2.2c0.6,0.5,1.2,0.8,1.9,0.8c0.6,0,1-0.2,1.4-0.5c0.4-0.3,0.5-0.7,0.5-1.2c0-0.3-0.1-0.5-0.2-0.7
		c-0.1-0.2-0.3-0.4-0.6-0.5c-0.3-0.1-0.9-0.3-1.7-0.5c-0.9-0.2-1.6-0.5-1.9-0.7c-0.5-0.4-0.7-0.9-0.7-1.7c0-0.7,0.2-1.4,0.7-1.8
		c0.5-0.5,1.1-0.7,1.8-0.7c0.4,0,0.7,0.1,1,0.2C88.1,0.8,88.4,1,88.8,1.3z"/>
</g>
</svg>
