<?xml version="1.0" encoding="utf-8"?>
<!-- Generator: Adobe Illustrator 25.2.0, SVG Export Plug-In . SVG Version: 6.00 Build 0)  -->
<svg version="1.1" id="レイヤー_1" xmlns="http://www.w3.org/2000/svg" xmlns:xlink="http://www.w3.org/1999/xlink" x="0px"
	 y="0px" viewBox="0 0 126 12" style="enable-background:new 0 0 126 12;" xml:space="preserve">
<style type="text/css">
	.st0{enable-background:new    ;}
	.st1{fill:url(#SVGID_1_);}
	.st2{fill:url(#SVGID_2_);}
	.st3{fill:url(#SVGID_3_);}
	.st4{fill:url(#SVGID_4_);}
	.st5{fill:url(#SVGID_5_);}
	.st6{fill:url(#SVGID_6_);}
	.st7{fill:url(#SVGID_7_);}
</style>
<g class="st0">
	<radialGradient id="SVGID_1_" cx="35.0565" cy="4.8236" r="4.0631" gradientUnits="userSpaceOnUse">
		<stop  offset="0" style="stop-color:#92ADCC"/>
		<stop  offset="0.5" style="stop-color:#7299BF"/>
		<stop  offset="1" style="stop-color:#2977A7"/>
	</radialGradient>
	<path class="st1" d="M37.5,1.2l0.4-0.8h0.4l0.2,3.5H38c-0.3-1-0.6-1.7-1-2.1c-0.5-0.6-1.1-0.9-1.7-0.9c-0.7,0-1.3,0.3-1.8,1
		c-0.5,0.6-0.7,1.7-0.7,3.3c0,1.3,0.3,2.3,0.8,2.9c0.4,0.6,1.1,0.9,1.9,0.9c0.7,0,1.3-0.2,1.8-0.7c0.5-0.4,0.8-1.1,0.9-2h0.4
		c-0.1,1-0.5,1.8-1,2.4C37,9,36.3,9.3,35.4,9.3c-0.7,0-1.4-0.2-2-0.5c-0.6-0.4-1.1-0.9-1.4-1.6c-0.4-0.7-0.5-1.4-0.5-2.2
		c0-0.9,0.2-1.7,0.6-2.4c0.4-0.8,0.8-1.3,1.4-1.7s1.2-0.6,1.9-0.6c0.4,0,0.7,0.1,1.1,0.2C36.7,0.7,37.1,0.9,37.5,1.2z"/>
	<radialGradient id="SVGID_2_" cx="45.2333" cy="4.8236" r="4.2402" gradientUnits="userSpaceOnUse">
		<stop  offset="0" style="stop-color:#92ADCC"/>
		<stop  offset="0.5" style="stop-color:#7299BF"/>
		<stop  offset="1" style="stop-color:#2977A7"/>
	</radialGradient>
	<path class="st2" d="M45.2,0.3c0.7,0,1.4,0.2,2,0.6c0.6,0.4,1.1,0.9,1.5,1.6s0.5,1.5,0.5,2.3S49,6.4,48.7,7.1
		c-0.4,0.7-0.9,1.2-1.5,1.6c-0.6,0.4-1.3,0.6-2,0.6c-0.7,0-1.3-0.2-1.9-0.6c-0.6-0.4-1.1-0.9-1.5-1.6c-0.4-0.7-0.5-1.5-0.5-2.3
		c0-0.8,0.2-1.6,0.5-2.3c0.4-0.7,0.8-1.2,1.5-1.6C43.9,0.5,44.5,0.3,45.2,0.3z M45.3,0.8c-0.8,0-1.4,0.3-1.8,0.9s-0.7,1.6-0.7,3.1
		c0,1.5,0.2,2.6,0.7,3.2c0.5,0.6,1.1,0.9,1.8,0.9c0.5,0,0.9-0.1,1.3-0.4c0.4-0.3,0.7-0.7,0.9-1.3c0.2-0.6,0.3-1.3,0.3-2.3
		c0-1-0.1-1.8-0.3-2.4c-0.2-0.6-0.5-1-0.9-1.3C46.2,0.9,45.7,0.8,45.3,0.8z"/>
	<radialGradient id="SVGID_3_" cx="56.787" cy="4.8065" r="4.849" gradientUnits="userSpaceOnUse">
		<stop  offset="0" style="stop-color:#92ADCC"/>
		<stop  offset="0.5" style="stop-color:#7299BF"/>
		<stop  offset="1" style="stop-color:#2977A7"/>
	</radialGradient>
	<path class="st3" d="M51.4,0.5h2.9l2.6,6.8l2.4-6.8h2.9V1h-0.7c-0.3,0-0.4,0-0.5,0.1c-0.1,0.1-0.1,0.2-0.1,0.4v6.8
		c0,0.1,0.1,0.2,0.2,0.3c0.1,0.1,0.3,0.1,0.5,0.1h0.7v0.4h-3.9V8.7h0.7c0.2,0,0.4,0,0.5-0.1c0.1-0.1,0.2-0.2,0.2-0.3V1l-2.8,8.1
		h-0.4L53.3,1v6.2c0,0.4,0,0.6,0.1,0.8c0.1,0.2,0.2,0.3,0.4,0.4c0.2,0.1,0.5,0.2,0.9,0.2v0.4h-3.2V8.7c0.5,0,0.9-0.1,1.1-0.3
		c0.2-0.2,0.3-0.5,0.3-1V1.4c0-0.1,0-0.3-0.1-0.3C52.6,1,52.4,1,52.2,1h-0.7V0.5z"/>
	<radialGradient id="SVGID_4_" cx="67.8863" cy="4.8065" r="3.9541" gradientUnits="userSpaceOnUse">
		<stop  offset="0" style="stop-color:#92ADCC"/>
		<stop  offset="0.5" style="stop-color:#7299BF"/>
		<stop  offset="1" style="stop-color:#2977A7"/>
	</radialGradient>
	<path class="st4" d="M64.3,0.5h4.2c1,0,1.7,0.2,2.2,0.6c0.5,0.4,0.8,1,0.8,1.7c0,0.7-0.2,1.2-0.7,1.6c-0.6,0.5-1.4,0.8-2.4,0.8
		h-1.5v2.9c0,0.2,0,0.3,0.1,0.4c0.1,0.1,0.3,0.1,0.4,0.1h1v0.4h-4.1V8.7h0.9c0.2,0,0.3,0,0.4-0.1c0.1-0.1,0.1-0.2,0.1-0.3V1.4
		c0-0.2,0-0.3-0.2-0.4C65.4,1,65.2,1,64.9,1h-0.6V0.5z M66.9,4.8h1.2c0.7,0,1.3-0.2,1.6-0.5C70,4,70.1,3.5,70.1,2.8
		c0-0.5-0.1-0.9-0.2-1.1c-0.1-0.3-0.4-0.5-0.6-0.6s-0.8-0.2-1.4-0.2c-0.4,0-0.7,0-0.8,0.1c-0.1,0.1-0.2,0.2-0.2,0.4V4.8z"/>
	<radialGradient id="SVGID_5_" cx="76.548" cy="4.7165" r="4.3718" gradientUnits="userSpaceOnUse">
		<stop  offset="0" style="stop-color:#92ADCC"/>
		<stop  offset="0.5" style="stop-color:#7299BF"/>
		<stop  offset="1" style="stop-color:#2977A7"/>
	</radialGradient>
	<path class="st5" d="M76.4,0.3h0.4l3.1,7.8c0.1,0.3,0.4,0.5,0.8,0.5h0.3v0.4h-3.4V8.7h0.3c0.4,0,0.6,0,0.8-0.1
		c0.1-0.1,0.2-0.1,0.2-0.2c0-0.1,0-0.1,0-0.2l-0.7-1.8h-3.4l-0.4,1C74,7.6,74,7.8,74,8c0,0.2,0.1,0.4,0.3,0.5
		c0.2,0.1,0.4,0.2,0.8,0.2h0.3v0.4h-3.1V8.7c0.3,0,0.6-0.1,0.8-0.2c0.2-0.1,0.4-0.4,0.5-0.8L76.4,0.3z M76.3,2l-1.5,3.8h3L76.3,2z"
		/>
	<radialGradient id="SVGID_6_" cx="87.213" cy="4.8065" r="4.3886" gradientUnits="userSpaceOnUse">
		<stop  offset="0" style="stop-color:#92ADCC"/>
		<stop  offset="0.5" style="stop-color:#7299BF"/>
		<stop  offset="1" style="stop-color:#2977A7"/>
	</radialGradient>
	<path class="st6" d="M82.7,0.5h2l5.2,6.7V2.4c0-0.5-0.1-0.9-0.3-1.1C89.4,1.1,89.1,1,88.7,1V0.5h3V1c-0.3,0-0.5,0-0.7,0.1
		c-0.2,0.1-0.3,0.2-0.4,0.5c-0.1,0.2-0.2,0.5-0.2,0.7v6.8h-0.5l-5.4-7v5.2c0,0.5,0.1,0.8,0.4,1c0.2,0.2,0.6,0.3,1.1,0.4v0.4h-3.3
		V8.7c0.4,0,0.7-0.1,1-0.4c0.2-0.3,0.4-0.6,0.4-0.9V1.5L84,1.4c-0.2-0.2-0.3-0.3-0.4-0.4C83.4,1,83.3,1,83.1,1h-0.4V0.5z"/>
	<radialGradient id="SVGID_7_" cx="97.5143" cy="4.8065" r="4.282" gradientUnits="userSpaceOnUse">
		<stop  offset="0" style="stop-color:#92ADCC"/>
		<stop  offset="0.5" style="stop-color:#7299BF"/>
		<stop  offset="1" style="stop-color:#2977A7"/>
	</radialGradient>
	<path class="st7" d="M93.2,0.5H97V1h-0.4C96.2,1,96,1,95.9,1c-0.1,0.1-0.2,0.1-0.2,0.2c0,0.1,0,0.2,0.1,0.3L98,4.9L99.6,2
		c0.1-0.1,0.1-0.3,0.1-0.4c0-0.2-0.1-0.4-0.2-0.5S99.2,1,98.9,1h-0.4V0.5h3.3V1c-0.4,0-0.7,0.1-0.9,0.2c-0.2,0.1-0.4,0.4-0.6,0.7
		l-2,3.6v2.7c0,0.1,0,0.2,0.1,0.3c0.1,0.1,0.3,0.1,0.5,0.1h0.7v0.4h-3.9V8.7h0.8c0.2,0,0.4,0,0.5-0.1c0.1-0.1,0.1-0.2,0.1-0.3V5.6
		l-2.7-4.1c-0.1-0.2-0.3-0.3-0.4-0.4C93.9,1,93.6,1,93.2,1V0.5z"/>
</g>
</svg>
