<?xml version="1.0" encoding="utf-8"?>
<!-- Generator: Adobe Illustrator 25.2.0, SVG Export Plug-In . SVG Version: 6.00 Build 0)  -->
<svg version="1.1" id="レイヤー_1" xmlns="http://www.w3.org/2000/svg" xmlns:xlink="http://www.w3.org/1999/xlink" x="0px"
	 y="0px" viewBox="0 0 120.6 12" style="enable-background:new 0 0 120.6 12;" xml:space="preserve">
<style type="text/css">
	.st0{enable-background:new    ;}
	.st1{fill:url(#SVGID_1_);}
	.st2{fill:url(#SVGID_2_);}
	.st3{fill:url(#SVGID_3_);}
	.st4{fill:url(#SVGID_4_);}
	.st5{fill:url(#SVGID_5_);}
	.st6{fill:url(#SVGID_6_);}
	.st7{fill:url(#SVGID_7_);}
	.st8{fill:url(#SVGID_8_);}
</style>
<g class="st0">
	<radialGradient id="SVGID_1_" cx="26.6816" cy="4.8774" r="3.9267" gradientUnits="userSpaceOnUse">
		<stop  offset="0" style="stop-color:#92ADCC"/>
		<stop  offset="0.5" style="stop-color:#7299BF"/>
		<stop  offset="1" style="stop-color:#2977A7"/>
	</radialGradient>
	<path class="st1" d="M26.6,0.7c0.7,0,1.3,0.2,1.9,0.5c0.6,0.4,1,0.8,1.4,1.5c0.3,0.6,0.5,1.3,0.5,2.1c0,0.8-0.2,1.5-0.5,2.1
		s-0.8,1.1-1.4,1.5C27.9,8.9,27.3,9,26.6,9c-0.6,0-1.2-0.2-1.8-0.5c-0.6-0.3-1-0.8-1.3-1.5C23.2,6.4,23,5.6,23,4.8
		c0-0.8,0.2-1.5,0.5-2.1c0.3-0.6,0.8-1.1,1.3-1.5S26,0.7,26.6,0.7z M26.7,1.1C26,1.1,25.4,1.4,25,2s-0.6,1.5-0.6,2.8
		c0,1.4,0.2,2.4,0.7,2.9s1,0.8,1.6,0.8c0.5,0,0.9-0.1,1.2-0.4c0.3-0.2,0.6-0.6,0.8-1.2C28.9,6.5,29,5.8,29,4.9c0-1-0.1-1.7-0.3-2.2
		s-0.5-0.9-0.8-1.2S27.1,1.1,26.7,1.1z"/>
	<radialGradient id="SVGID_2_" cx="36.9094" cy="4.9551" r="4.0376" gradientUnits="userSpaceOnUse">
		<stop  offset="0" style="stop-color:#92ADCC"/>
		<stop  offset="0.5" style="stop-color:#7299BF"/>
		<stop  offset="1" style="stop-color:#2977A7"/>
	</radialGradient>
	<path class="st2" d="M32.9,0.9h3.3v0.4h-0.6c-0.2,0-0.4,0-0.5,0.1S35,1.5,35,1.6c0,0.1,0,0.2,0.1,0.3l0,0.1l2.1,5.3l1.9-5.1
		c0-0.1,0.1-0.2,0.1-0.4c0-0.2-0.1-0.4-0.2-0.5c-0.1-0.1-0.3-0.2-0.5-0.2H38V0.9h2.9v0.4h-0.2c-0.2,0-0.4,0.1-0.5,0.3
		C40,1.7,39.8,2,39.7,2.4L37.2,9h-0.4L34,1.9c-0.1-0.2-0.2-0.4-0.3-0.5s-0.3-0.1-0.5-0.1h-0.3V0.9z"/>
	<radialGradient id="SVGID_3_" cx="46.9434" cy="4.8613" r="3.6698" gradientUnits="userSpaceOnUse">
		<stop  offset="0" style="stop-color:#92ADCC"/>
		<stop  offset="0.5" style="stop-color:#7299BF"/>
		<stop  offset="1" style="stop-color:#2977A7"/>
	</radialGradient>
	<path class="st3" d="M43.6,0.9h6.3L50,3.6h-0.4c-0.1-0.8-0.4-1.4-0.7-1.8c-0.3-0.3-0.7-0.5-1.2-0.5h-1.6c-0.1,0-0.2,0-0.3,0.1
		c-0.1,0.1-0.1,0.2-0.1,0.3v2.8h0.7c0.4,0,0.7-0.1,0.9-0.4c0.2-0.3,0.3-0.7,0.4-1.2h0.4v3.7h-0.4c0-0.6-0.1-1-0.4-1.3
		c-0.2-0.3-0.5-0.4-0.9-0.4h-0.6v3.2c0,0.1,0,0.2,0.1,0.3c0.1,0.1,0.2,0.1,0.4,0.1h1.2c1.3,0,2.1-0.9,2.3-2.6h0.4l-0.1,3h-6.5V8.4
		h0.5c0.2,0,0.4,0,0.4-0.1s0.1-0.2,0.1-0.3V1.7c0-0.1,0-0.2-0.1-0.3c-0.1-0.1-0.2-0.1-0.4-0.1h-0.6V0.9z"/>
	<radialGradient id="SVGID_4_" cx="56.8328" cy="4.9014" r="3.8761" gradientUnits="userSpaceOnUse">
		<stop  offset="0" style="stop-color:#92ADCC"/>
		<stop  offset="0.5" style="stop-color:#7299BF"/>
		<stop  offset="1" style="stop-color:#2977A7"/>
	</radialGradient>
	<path class="st4" d="M53.1,0.9h4.1c0.8,0,1.4,0.2,1.9,0.5c0.4,0.4,0.7,0.8,0.7,1.4c0,0.4-0.1,0.7-0.3,0.9c-0.2,0.3-0.4,0.5-0.8,0.7
		c-0.3,0.2-0.8,0.3-1.5,0.4c0.5,0.1,0.9,0.3,1.1,0.4c0.2,0.1,0.3,0.3,0.5,0.5c0.1,0.2,0.3,0.6,0.4,1.3c0.1,0.5,0.2,0.8,0.3,1
		c0.1,0.1,0.2,0.2,0.3,0.2c0.1,0,0.2-0.1,0.3-0.2c0.1-0.2,0.2-0.5,0.2-0.9h0.4c-0.1,1.2-0.5,1.8-1.3,1.8c-0.3,0-0.5-0.1-0.7-0.2
		s-0.3-0.3-0.4-0.6c-0.1-0.2-0.2-0.7-0.3-1.5c-0.1-0.5-0.1-0.8-0.3-1c-0.1-0.2-0.3-0.4-0.5-0.5c-0.2-0.1-0.5-0.2-0.9-0.2h-0.7V8
		c0,0.1,0,0.2,0.1,0.3c0.1,0.1,0.2,0.1,0.4,0.1h0.8v0.4h-3.7V8.4h0.8c0.2,0,0.3,0,0.4-0.1c0.1-0.1,0.1-0.2,0.1-0.3V1.7
		c0-0.1,0-0.2-0.1-0.3c-0.1-0.1-0.2-0.1-0.4-0.1h-0.8V0.9z M55.5,4.5h0.9c0.6,0,1.1-0.1,1.5-0.4c0.4-0.2,0.5-0.7,0.5-1.3
		c0-0.4-0.1-0.7-0.2-1c-0.1-0.2-0.3-0.4-0.5-0.5c-0.2-0.1-0.6-0.1-1.3-0.1c-0.4,0-0.7,0-0.8,0.1c-0.1,0.1-0.2,0.2-0.2,0.3V4.5z"/>
	<radialGradient id="SVGID_5_" cx="66.3057" cy="4.9551" r="4.0377" gradientUnits="userSpaceOnUse">
		<stop  offset="0" style="stop-color:#92ADCC"/>
		<stop  offset="0.5" style="stop-color:#7299BF"/>
		<stop  offset="1" style="stop-color:#2977A7"/>
	</radialGradient>
	<path class="st5" d="M62.3,0.9h3.3v0.4h-0.6c-0.2,0-0.4,0-0.5,0.1s-0.1,0.1-0.1,0.2c0,0.1,0,0.2,0.1,0.3l0,0.1l2.1,5.3l1.8-5.1
		c0-0.1,0.1-0.2,0.1-0.4c0-0.2-0.1-0.4-0.2-0.5c-0.1-0.1-0.3-0.2-0.5-0.2h-0.5V0.9h2.9v0.4h-0.2c-0.2,0-0.4,0.1-0.5,0.3
		c-0.2,0.2-0.3,0.4-0.5,0.8L66.6,9h-0.4l-2.8-7.1c-0.1-0.2-0.2-0.4-0.3-0.5c-0.1-0.1-0.3-0.1-0.5-0.1h-0.3V0.9z"/>
	<radialGradient id="SVGID_6_" cx="74.519" cy="4.8613" r="3.0926" gradientUnits="userSpaceOnUse">
		<stop  offset="0" style="stop-color:#92ADCC"/>
		<stop  offset="0.5" style="stop-color:#7299BF"/>
		<stop  offset="1" style="stop-color:#2977A7"/>
	</radialGradient>
	<path class="st6" d="M72.7,0.9h3.7v0.4h-0.6c-0.3,0-0.5,0-0.5,0.1c-0.1,0.1-0.1,0.2-0.1,0.4v6c0,0.2,0,0.4,0.1,0.5
		c0.1,0.1,0.2,0.1,0.5,0.1h0.7v0.4h-3.7V8.4h0.7c0.2,0,0.4,0,0.5-0.1C73.9,8.3,74,8.1,74,7.9v-6c0-0.2,0-0.4-0.1-0.4
		c-0.1-0.1-0.3-0.1-0.6-0.1h-0.6V0.9z"/>
	<radialGradient id="SVGID_7_" cx="82.8105" cy="4.8613" r="3.6698" gradientUnits="userSpaceOnUse">
		<stop  offset="0" style="stop-color:#92ADCC"/>
		<stop  offset="0.5" style="stop-color:#7299BF"/>
		<stop  offset="1" style="stop-color:#2977A7"/>
	</radialGradient>
	<path class="st7" d="M79.5,0.9h6.3l0.2,2.7h-0.4c-0.1-0.8-0.4-1.4-0.7-1.8c-0.3-0.3-0.7-0.5-1.2-0.5h-1.6c-0.1,0-0.2,0-0.3,0.1
		c-0.1,0.1-0.1,0.2-0.1,0.3v2.8h0.7c0.4,0,0.7-0.1,0.9-0.4c0.2-0.3,0.3-0.7,0.4-1.2H84v3.7h-0.4c0-0.6-0.1-1-0.4-1.3
		c-0.2-0.3-0.5-0.4-0.9-0.4h-0.6v3.2c0,0.1,0,0.2,0.1,0.3c0.1,0.1,0.2,0.1,0.4,0.1h1.2c1.3,0,2.1-0.9,2.3-2.6h0.4l-0.1,3h-6.5V8.4
		H80c0.2,0,0.4,0,0.4-0.1s0.1-0.2,0.1-0.3V1.7c0-0.1,0-0.2-0.1-0.3c-0.1-0.1-0.2-0.1-0.4-0.1h-0.6V0.9z"/>
	<radialGradient id="SVGID_8_" cx="94.1421" cy="4.9551" r="4.7059" gradientUnits="userSpaceOnUse">
		<stop  offset="0" style="stop-color:#92ADCC"/>
		<stop  offset="0.5" style="stop-color:#7299BF"/>
		<stop  offset="1" style="stop-color:#2977A7"/>
	</radialGradient>
	<path class="st8" d="M88.9,0.9h2.7v0.4h-0.2c-0.3,0-0.5,0-0.5,0.1c-0.1,0-0.1,0.1-0.1,0.2c0,0.1,0,0.2,0.1,0.3l0,0.1l1.6,5l1.4-4.7
		c-0.2-0.5-0.3-0.8-0.4-0.9c-0.1-0.1-0.3-0.1-0.5-0.1h-0.5V0.9h3.3v0.4h-0.3c-0.3,0-0.5,0-0.6,0.1c-0.1,0-0.1,0.1-0.1,0.2
		c0,0.1,0,0.1,0,0.2L96.4,7l1.4-4.5c0.1-0.2,0.1-0.3,0.1-0.5c0-0.2-0.1-0.4-0.2-0.5c-0.1-0.1-0.3-0.2-0.5-0.2h-0.2V0.9h2.5v0.4
		c-0.2,0-0.4,0.1-0.5,0.2s-0.2,0.2-0.3,0.3c-0.1,0.1-0.2,0.4-0.3,0.7l-2,6.5h-0.4l-1.8-5.8L92.4,9H92L89.7,2
		c-0.1-0.3-0.2-0.5-0.3-0.5s-0.3-0.1-0.5-0.1V0.9z"/>
</g>
</svg>
