<?xml version="1.0" encoding="utf-8"?>
<!-- Generator: Adobe Illustrator 25.2.0, SVG Export Plug-In . SVG Version: 6.00 Build 0)  -->
<svg version="1.1" id="レイヤー_1" xmlns="http://www.w3.org/2000/svg" xmlns:xlink="http://www.w3.org/1999/xlink" x="0px"
	 y="0px" viewBox="0 0 120 12" style="enable-background:new 0 0 120 12;" xml:space="preserve">
<style type="text/css">
	.st0{enable-background:new    ;}
	.st1{fill:url(#SVGID_1_);}
	.st2{fill:url(#SVGID_2_);}
	.st3{fill:url(#SVGID_3_);}
	.st4{fill:url(#SVGID_4_);}
	.st5{fill:url(#SVGID_5_);}
	.st6{fill:url(#SVGID_6_);}
	.st7{fill:url(#SVGID_7_);}
	.st8{fill:url(#SVGID_8_);}
	.st9{fill:url(#SVGID_9_);}
</style>
<g class="st0">
	<radialGradient id="SVGID_1_" cx="23.5906" cy="5.019" r="3.6234" gradientUnits="userSpaceOnUse">
		<stop  offset="0" style="stop-color:#92ADCC"/>
		<stop  offset="0.5" style="stop-color:#7299BF"/>
		<stop  offset="1" style="stop-color:#2977A7"/>
	</radialGradient>
	<path class="st1" d="M25.1,1.6l0.5-0.7H26l0,3h-0.4c-0.2-0.9-0.6-1.6-1-2c-0.4-0.4-1-0.6-1.5-0.6c-0.5,0-0.9,0.1-1.2,0.4
		c-0.3,0.3-0.5,0.6-0.5,1.1c0,0.3,0.1,0.5,0.2,0.7c0.1,0.2,0.3,0.4,0.5,0.5c0.2,0.1,0.7,0.3,1.3,0.4c0.9,0.2,1.5,0.4,1.9,0.6
		s0.6,0.5,0.8,0.8c0.2,0.3,0.3,0.7,0.3,1.1c0,0.7-0.2,1.3-0.7,1.8c-0.5,0.5-1.1,0.7-1.9,0.7c-0.8,0-1.6-0.3-2.2-0.8l-0.6,0.8h-0.4V6
		h0.4c0.2,0.9,0.5,1.5,1,2c0.5,0.5,1.1,0.8,1.8,0.8c0.5,0,1-0.2,1.3-0.5c0.3-0.3,0.5-0.7,0.5-1.2c0-0.3-0.1-0.5-0.2-0.7
		c-0.1-0.2-0.3-0.4-0.6-0.5c-0.3-0.1-0.8-0.3-1.6-0.5c-0.9-0.2-1.5-0.4-1.8-0.7c-0.5-0.4-0.7-0.9-0.7-1.6c0-0.7,0.2-1.3,0.7-1.8
		c0.5-0.5,1-0.7,1.7-0.7c0.3,0,0.7,0.1,1,0.2C24.5,1.1,24.8,1.3,25.1,1.6z"/>
	<radialGradient id="SVGID_2_" cx="31.8637" cy="5.0275" r="3.7658" gradientUnits="userSpaceOnUse">
		<stop  offset="0" style="stop-color:#92ADCC"/>
		<stop  offset="0.5" style="stop-color:#7299BF"/>
		<stop  offset="1" style="stop-color:#2977A7"/>
	</radialGradient>
	<path class="st2" d="M28.6,1h6.6L35.3,4h-0.4c-0.2-1.8-0.9-2.7-2-2.7c-0.2,0-0.4,0-0.4,0.1c-0.1,0.1-0.1,0.2-0.1,0.4v6.5
		c0,0.1,0,0.2,0.1,0.3c0.1,0.1,0.2,0.1,0.4,0.1h0.8v0.4H30V8.7h0.9c0.1,0,0.2,0,0.3-0.1c0.1-0.1,0.1-0.1,0.1-0.2V1.8
		c0-0.1,0-0.2-0.1-0.3c-0.1-0.1-0.2-0.1-0.4-0.1c-0.5,0-1,0.3-1.3,0.7c-0.3,0.4-0.5,1.1-0.6,2h-0.4L28.6,1z"/>
	<radialGradient id="SVGID_3_" cx="40.7444" cy="5.0687" r="3.9538" gradientUnits="userSpaceOnUse">
		<stop  offset="0" style="stop-color:#92ADCC"/>
		<stop  offset="0.5" style="stop-color:#7299BF"/>
		<stop  offset="1" style="stop-color:#2977A7"/>
	</radialGradient>
	<path class="st3" d="M36.9,1h4.2c0.8,0,1.4,0.2,1.9,0.6c0.4,0.4,0.7,0.9,0.7,1.5c0,0.4-0.1,0.7-0.3,1c-0.2,0.3-0.4,0.5-0.8,0.7
		c-0.3,0.2-0.9,0.3-1.6,0.4c0.5,0.1,0.9,0.3,1.1,0.4c0.2,0.1,0.4,0.3,0.5,0.5c0.1,0.2,0.3,0.7,0.4,1.3c0.1,0.5,0.2,0.8,0.4,1
		c0.1,0.1,0.2,0.2,0.3,0.2c0.1,0,0.2-0.1,0.3-0.3c0.1-0.2,0.2-0.5,0.2-0.9h0.4c-0.1,1.2-0.5,1.9-1.4,1.9c-0.3,0-0.5-0.1-0.7-0.2
		S42.1,8.6,42,8.4c-0.1-0.2-0.2-0.7-0.3-1.5c-0.1-0.5-0.1-0.8-0.3-1c-0.1-0.2-0.3-0.4-0.6-0.5c-0.3-0.1-0.6-0.2-0.9-0.2h-0.7v3.2
		c0,0.1,0,0.2,0.1,0.3c0.1,0.1,0.2,0.1,0.4,0.1h0.8v0.4h-3.8V8.7h0.8c0.2,0,0.3,0,0.4-0.1c0.1-0.1,0.1-0.2,0.1-0.3V1.8
		c0-0.1,0-0.2-0.1-0.3c-0.1-0.1-0.2-0.1-0.4-0.1h-0.8V1z M39.4,4.7h1c0.6,0,1.1-0.1,1.5-0.4c0.4-0.2,0.5-0.7,0.5-1.3
		c0-0.4-0.1-0.8-0.2-1c-0.1-0.2-0.3-0.4-0.5-0.5c-0.2-0.1-0.7-0.1-1.3-0.1c-0.4,0-0.7,0-0.8,0.1s-0.2,0.2-0.2,0.3V4.7z"/>
	<radialGradient id="SVGID_4_" cx="49.9701" cy="5.0275" r="3.7432" gradientUnits="userSpaceOnUse">
		<stop  offset="0" style="stop-color:#92ADCC"/>
		<stop  offset="0.5" style="stop-color:#7299BF"/>
		<stop  offset="1" style="stop-color:#2977A7"/>
	</radialGradient>
	<path class="st4" d="M46.6,1H53l0.2,2.7h-0.4c-0.1-0.9-0.4-1.5-0.7-1.8c-0.3-0.3-0.7-0.5-1.2-0.5h-1.6c-0.1,0-0.2,0-0.3,0.1
		c-0.1,0.1-0.1,0.2-0.1,0.3v2.9h0.7c0.4,0,0.7-0.1,0.9-0.4c0.2-0.3,0.4-0.7,0.4-1.2h0.4v3.8h-0.4c0-0.6-0.1-1.1-0.4-1.3
		s-0.6-0.4-1-0.4h-0.6v3.2c0,0.1,0,0.2,0.1,0.3c0.1,0.1,0.2,0.1,0.4,0.1h1.3c1.4,0,2.1-0.9,2.4-2.6h0.4l-0.1,3h-6.7V8.7h0.6
		c0.2,0,0.4,0,0.5-0.1c0.1-0.1,0.1-0.2,0.1-0.3V1.8c0-0.1,0-0.2-0.1-0.3s-0.2-0.1-0.4-0.1h-0.7V1z"/>
	<radialGradient id="SVGID_5_" cx="59.7053" cy="5.0275" r="4.1452" gradientUnits="userSpaceOnUse">
		<stop  offset="0" style="stop-color:#92ADCC"/>
		<stop  offset="0.5" style="stop-color:#7299BF"/>
		<stop  offset="1" style="stop-color:#2977A7"/>
	</radialGradient>
	<path class="st5" d="M55.5,1h1.9l4.9,6.4V2.7c0-0.5-0.1-0.8-0.3-1c-0.2-0.2-0.5-0.3-0.9-0.3V1h2.8v0.4c-0.3,0-0.5,0-0.6,0.1
		c-0.1,0.1-0.3,0.2-0.4,0.4c-0.1,0.2-0.2,0.4-0.2,0.7v6.4h-0.5l-5.1-6.6v4.9c0,0.4,0.1,0.8,0.3,1c0.2,0.2,0.6,0.3,1,0.3v0.4h-3.1
		V8.7c0.4,0,0.7-0.1,0.9-0.4c0.2-0.2,0.3-0.5,0.3-0.9V1.9l-0.1-0.1c-0.2-0.2-0.3-0.3-0.4-0.4c-0.1-0.1-0.2-0.1-0.4-0.1h-0.4V1z"/>
	<radialGradient id="SVGID_6_" cx="69.7232" cy="5.0386" r="4.0814" gradientUnits="userSpaceOnUse">
		<stop  offset="0" style="stop-color:#92ADCC"/>
		<stop  offset="0.5" style="stop-color:#7299BF"/>
		<stop  offset="1" style="stop-color:#2977A7"/>
	</radialGradient>
	<path class="st6" d="M71.5,1.6L72,0.8h0.4L72.6,4h-0.4c-0.3-0.9-0.6-1.6-1-2c-0.5-0.5-1-0.8-1.6-0.8c-0.5,0-0.9,0.1-1.3,0.4
		c-0.4,0.3-0.7,0.7-0.9,1.2c-0.2,0.5-0.3,1.3-0.3,2.3c0,0.9,0.1,1.7,0.3,2.2c0.2,0.5,0.5,0.9,0.8,1.2c0.3,0.3,0.8,0.4,1.2,0.4
		c0.6,0,1.1-0.2,1.5-0.5c0.3-0.4,0.5-0.8,0.5-1.4V6.1c0-0.1,0-0.2-0.1-0.3c-0.1-0.1-0.2-0.1-0.5-0.1h-0.7V5.4h3.4v0.4h-0.5
		c-0.2,0-0.4,0-0.4,0.1c-0.1,0.1-0.1,0.2-0.1,0.3v3.1h-0.4c-0.1-0.5-0.3-0.9-0.4-1.4c-0.3,0.4-0.6,0.8-1,1c-0.4,0.2-0.8,0.3-1.3,0.3
		c-0.7,0-1.3-0.2-1.9-0.5c-0.6-0.4-1-0.8-1.4-1.5c-0.3-0.6-0.5-1.4-0.5-2.2c0-0.8,0.2-1.5,0.5-2.2c0.3-0.6,0.8-1.1,1.4-1.5
		s1.2-0.6,1.8-0.6c0.3,0,0.7,0.1,1,0.2C70.8,1.1,71.1,1.3,71.5,1.6z"/>
	<radialGradient id="SVGID_7_" cx="78.8066" cy="5.0275" r="3.7658" gradientUnits="userSpaceOnUse">
		<stop  offset="0" style="stop-color:#92ADCC"/>
		<stop  offset="0.5" style="stop-color:#7299BF"/>
		<stop  offset="1" style="stop-color:#2977A7"/>
	</radialGradient>
	<path class="st7" d="M75.5,1h6.6L82.3,4h-0.4c-0.2-1.8-0.9-2.7-2-2.7c-0.2,0-0.4,0-0.4,0.1c-0.1,0.1-0.1,0.2-0.1,0.4v6.5
		c0,0.1,0,0.2,0.1,0.3c0.1,0.1,0.2,0.1,0.4,0.1h0.8v0.4h-3.8V8.7h0.9c0.1,0,0.2,0,0.3-0.1c0.1-0.1,0.1-0.1,0.1-0.2V1.8
		c0-0.1,0-0.2-0.1-0.3c-0.1-0.1-0.2-0.1-0.4-0.1c-0.5,0-1,0.3-1.3,0.7c-0.3,0.4-0.5,1.1-0.6,2h-0.4L75.5,1z"/>
	<radialGradient id="SVGID_8_" cx="88.2649" cy="5.0275" r="4.0996" gradientUnits="userSpaceOnUse">
		<stop  offset="0" style="stop-color:#92ADCC"/>
		<stop  offset="0.5" style="stop-color:#7299BF"/>
		<stop  offset="1" style="stop-color:#2977A7"/>
	</radialGradient>
	<path class="st8" d="M84.1,1h3.5v0.4h-0.6c-0.2,0-0.4,0-0.4,0.1c-0.1,0.1-0.1,0.3-0.1,0.6v2.5h3.7V2.1c0-0.3,0-0.5-0.1-0.6
		c-0.1-0.1-0.2-0.1-0.5-0.1H89V1h3.4v0.4h-0.6c-0.2,0-0.3,0-0.3,0.1c-0.1,0-0.1,0.1-0.2,0.2c0,0.1,0,0.2,0,0.5V8
		c0,0.3,0,0.5,0.1,0.5c0.1,0.1,0.3,0.2,0.5,0.2h0.6v0.4H89V8.7h0.6c0.2,0,0.4-0.1,0.5-0.2c0-0.1,0.1-0.3,0.1-0.5V5.1h-3.7V8
		c0,0.3,0,0.5,0.1,0.5c0.1,0.1,0.2,0.2,0.5,0.2h0.6v0.4h-3.5V8.7h0.7c0.1,0,0.2,0,0.3-0.1c0.1,0,0.1-0.1,0.2-0.2c0-0.1,0-0.2,0-0.5
		V2.1c0-0.3,0-0.5-0.1-0.6c-0.1-0.1-0.2-0.1-0.4-0.1h-0.6V1z"/>
	<radialGradient id="SVGID_9_" cx="97.6608" cy="5.019" r="3.6234" gradientUnits="userSpaceOnUse">
		<stop  offset="0" style="stop-color:#92ADCC"/>
		<stop  offset="0.5" style="stop-color:#7299BF"/>
		<stop  offset="1" style="stop-color:#2977A7"/>
	</radialGradient>
	<path class="st9" d="M99.2,1.6l0.5-0.7h0.4l0,3h-0.4c-0.2-0.9-0.6-1.6-1-2c-0.4-0.4-1-0.6-1.5-0.6c-0.5,0-0.9,0.1-1.2,0.4
		c-0.3,0.3-0.5,0.6-0.5,1.1c0,0.3,0.1,0.5,0.2,0.7c0.1,0.2,0.3,0.4,0.5,0.5C96.5,4,97,4.1,97.6,4.3c0.9,0.2,1.5,0.4,1.9,0.6
		s0.6,0.5,0.8,0.8c0.2,0.3,0.3,0.7,0.3,1.1c0,0.7-0.2,1.3-0.7,1.8c-0.5,0.5-1.1,0.7-1.9,0.7c-0.8,0-1.6-0.3-2.2-0.8l-0.6,0.8h-0.4V6
		h0.4c0.2,0.9,0.5,1.5,1,2c0.5,0.5,1.1,0.8,1.8,0.8c0.5,0,1-0.2,1.3-0.5c0.3-0.3,0.5-0.7,0.5-1.2c0-0.3-0.1-0.5-0.2-0.7
		C99.5,6.3,99.3,6.2,99,6c-0.3-0.1-0.8-0.3-1.6-0.5c-0.9-0.2-1.5-0.4-1.8-0.7c-0.5-0.4-0.7-0.9-0.7-1.6c0-0.7,0.2-1.3,0.7-1.8
		c0.5-0.5,1-0.7,1.7-0.7c0.3,0,0.7,0.1,1,0.2C98.6,1.1,98.9,1.3,99.2,1.6z"/>
</g>
</svg>
